<svg width="245" height="157" viewBox="0 0 245 157" fill="none" xmlns="http://www.w3.org/2000/svg">
<path d="M219.026 26.5833V129.594C219.026 144.265 207.114 156.177 192.443 156.177H89.4321C74.7607 156.177 62.8488 144.265 62.8488 129.594V26.5833C62.8488 11.912 74.7607 0 89.4321 0H192.443C207.114 0 219.026 11.912 219.026 26.5833Z" fill="#EDF3F5"/>
<path d="M142.936 125.386L143.459 124.863M143.459 124.863L143.981 125.386M143.459 124.863V126.117" stroke="#252A34" stroke-width="0.142702" stroke-linecap="round" stroke-linejoin="round"/>
<path d="M131.606 58.8532C128.763 59.5403 126.168 60.9805 124.084 63.0347C122.008 65.0889 120.524 67.6622 119.793 70.4913C119.069 73.3205 119.12 76.2958 119.954 79.0957C120.787 81.8956 122.366 84.4177 124.523 86.3915C126.679 88.358 129.333 89.7104 132.191 90.2953L154.744 90.6096H157.156C158.801 90.6169 160.424 90.2295 161.886 89.4911C163.356 88.7528 164.628 87.6781 165.6 86.3549C166.579 85.0318 167.223 83.5039 167.501 81.881C167.771 80.2654 167.661 78.6059 167.172 77.0342C166.682 75.4624 165.834 74.0369 164.686 72.8526C163.546 71.6756 162.142 70.7838 160.592 70.2501C159.035 69.7091 157.376 69.5483 155.753 69.7676C154.123 69.9942 152.573 70.601 151.22 71.5294C150.679 68.6564 149.371 65.9881 147.434 63.8096C145.489 61.6238 142.996 60.0082 140.204 59.1383C137.418 58.261 134.443 58.166 131.606 58.8532Z" fill="white"/>
<path d="M131.607 58.851C128.766 59.5396 126.167 60.9842 124.088 63.0348C122.007 65.0875 120.525 67.6637 119.797 70.4936C119.068 73.3234 119.122 76.2959 119.956 79.0972C120.79 81.8993 122.369 84.4177 124.525 86.3908C126.678 88.361 129.331 89.709 132.195 90.2916L154.744 90.6111H157.159C158.801 90.614 160.421 90.2317 161.889 89.4919C163.354 88.7528 164.627 87.6789 165.601 86.3564C166.577 85.0347 167.225 83.5039 167.499 81.8847C167.77 80.2625 167.659 78.6037 167.171 77.0327C166.683 75.4654 165.835 74.0347 164.689 72.8548C163.547 71.6757 162.143 70.7823 160.589 70.2479C159.036 69.7114 157.379 69.5483 155.751 69.7713C154.126 69.9965 152.573 70.5996 151.223 71.5331C150.682 68.6601 149.372 65.9904 147.433 63.8082C145.491 61.6238 142.995 60.0075 140.205 59.1368C137.418 58.2625 134.445 58.166 131.607 58.851Z" stroke="#252A34" stroke-width="2.2" stroke-linecap="round" stroke-linejoin="round"/>
<path d="M31.8912 23.1615L96.2044 41.603C100.085 42.7157 102.33 46.7637 101.217 50.6453L81.8804 118.078C80.7677 121.959 76.7185 124.203 72.8382 123.091L8.52502 104.649C4.64344 103.536 2.40016 99.4873 3.51282 95.6069L22.849 28.1737C23.962 24.2921 28.0097 22.0485 31.8912 23.1615Z" fill="#E0F2FF"/>
<path d="M85.245 102.819L80.8166 120.442L76.6883 123.256L4.67951 103.1L3.13558 96.6604L7.81294 80.616L85.245 102.819Z" fill="#9DF3B3"/>
<path d="M73.8764 66.2131C68.3406 59.4308 40.0127 90.9868 40.0127 90.9868L85.9463 103.223L87.6103 97.5791C87.6103 97.5791 80.8356 74.7392 73.8764 66.2131Z" fill="#0ADAA3"/>
<path d="M85.5162 102.627L70.8229 98.4136L72.5885 65.7344L75.7827 66.6503L87.5312 95.5997L85.5162 102.627Z" fill="black" fill-opacity="0.2"/>
<path d="M48.1074 72.7148C42.5716 65.9325 23.0488 85.525 23.0488 85.525L59.6819 95.9395C59.6819 95.9395 55.0665 81.2409 48.1074 72.7148Z" fill="#0ADAA3"/>
<path d="M55.0974 94.6514L39.3366 90.0767L44.9754 71.5113L47.8284 72.5174L60.6014 95.4829L55.0974 94.6514Z" fill="black" fill-opacity="0.2"/>
<path d="M23.7328 85.565L40.9517 72.5269C41.6845 71.9724 42.5203 71.652 43.371 71.5544C44.0229 71.48 44.6832 71.5352 45.3118 71.7155C46.3058 72.0005 47.2141 72.5942 47.8872 73.4827L47.8863 73.4811C48.0316 73.6735 48.1585 73.8675 48.2671 74.0673L48.2707 74.0739L50.9063 78.8285C50.9992 78.9962 51.1621 79.1176 51.3498 79.1575C51.5374 79.1975 51.7354 79.1533 51.889 79.037L68.3025 66.6087C69.597 65.6289 71.2092 65.3833 72.6584 65.7975C73.6538 66.0829 74.5626 66.6795 75.2369 67.5683C75.5212 67.9416 75.7503 68.353 75.9153 68.7902L75.9162 68.7919L81.8498 84.3566C81.981 84.6998 82.3644 84.8719 82.7076 84.7408C83.0508 84.6097 83.2229 84.2263 83.0918 83.8831L77.1569 68.318L77.1578 68.3196C76.9469 67.7628 76.6575 67.2387 76.2957 66.7644C75.444 65.6407 74.2846 64.881 73.0248 64.5198C71.193 63.9931 69.1378 64.3081 67.5002 65.549L51.6977 77.5151L49.4331 73.4296L48.8527 73.7513L49.4371 73.4349C49.2918 73.1651 49.1243 72.9152 48.9481 72.6808C48.0977 71.5575 46.9367 70.7987 45.6782 70.4378C43.8451 69.9108 41.787 70.2263 40.1494 71.4672L22.9305 84.5053C22.6374 84.7268 22.5803 85.1432 22.8018 85.4363C23.0234 85.7294 23.4398 85.7865 23.7328 85.565Z" fill="#252A34"/>
<path d="M8.3567 82.0312L84.9921 104.082C85.3447 104.183 85.713 103.979 85.8141 103.626C85.9152 103.274 85.7111 102.906 85.3584 102.804L23.0725 84.8833L8.72307 80.7535C8.37043 80.6524 8.00216 80.8565 7.90104 81.2092C7.79993 81.5618 8.00406 81.9301 8.3567 82.0312Z" fill="#252A34"/>
<path d="M40.5342 40.3192C44.2625 41.3883 46.415 45.2715 45.3459 48.9997C44.2769 52.728 40.3936 54.8805 36.6654 53.8115C32.9384 52.7428 30.7846 48.8592 31.8537 45.1309C32.9227 41.4026 36.8072 39.2505 40.5342 40.3192Z" fill="#F3F94B"/>
<path d="M40.5342 40.3209L40.351 40.9597C42.0401 41.4441 43.3691 42.5622 44.1583 43.9859C44.9475 45.4096 45.1914 47.1292 44.7071 48.8183C44.2227 50.5074 43.1046 51.8364 41.6809 52.6255C40.2572 53.4147 38.5376 53.6587 36.8485 53.1743C35.1594 52.69 33.8304 51.5719 33.0412 50.1482C32.2521 48.7244 32.0081 47.0049 32.4925 45.3158C32.9768 43.6267 34.0949 42.2977 35.5186 41.5085C36.9424 40.7193 38.6619 40.4754 40.351 40.9597L40.5342 40.3209L40.7174 39.6821C36.6365 38.5119 32.385 40.8685 31.2148 44.9494C30.0446 49.0303 32.4013 53.2818 36.4822 54.452C40.5631 55.6222 44.8146 53.2655 45.9847 49.1846C47.1549 45.1037 44.7983 40.8522 40.7174 39.6821L40.5342 40.3209Z" fill="#252A34"/>
<path d="M31.8912 23.1613L31.708 23.8001L96.0212 42.2416C97.7869 42.7479 99.1757 43.9177 100.003 45.4076C100.828 46.8971 101.084 48.3629 100.578 50.1286L81.2413 117.563C80.735 119.329 79.5651 121.051 78.0755 121.877C76.5848 122.702 74.7871 122.958 73.0213 122.452L8.70817 104.01C6.94242 103.504 5.55231 102.334 4.72666 100.844C3.90102 99.3546 3.64531 97.5556 4.15163 95.7899L23.4878 28.3566C23.9941 26.5909 25.1643 25.2008 26.6538 24.3751C28.1433 23.5495 29.9423 23.2938 31.708 23.8001L31.8912 23.1613L32.0744 22.5224C27.8402 21.3083 23.4243 23.7561 22.2101 27.9903L2.87395 95.4235C1.6598 99.6577 4.10758 104.074 8.3418 105.288L72.6549 123.729C76.8892 124.943 81.3047 122.497 82.5188 118.263L101.855 50.8282C103.07 46.594 100.622 42.1781 96.3875 40.9639L32.0744 22.5224L31.8912 23.1613Z" fill="#37474F"/>
<path d="M230.568 23.5584C231.163 23.8754 231.608 24.4141 231.806 25.0582L242.4 59.7093C242.694 60.6764 242.594 61.7221 242.119 62.6141C241.644 63.5073 240.834 64.1749 239.869 64.4701L210.695 73.3893C210.217 73.5355 209.713 73.5852 209.215 73.5383C208.717 73.4902 208.232 73.3444 207.79 73.1095C207.348 72.8758 206.956 72.5553 206.638 72.1689C206.319 71.7826 206.079 71.3383 205.932 70.8587L193.545 30.3419C193.398 29.8623 193.349 29.3585 193.396 28.8603C193.444 28.3618 193.589 27.8768 193.824 27.435C194.059 26.9933 194.381 26.5996 194.767 26.2809C195.153 25.9622 195.598 25.7233 196.078 25.5779L219.381 18.4535C219.7 18.3558 220.037 18.3207 220.368 18.3536C220.7 18.3862 221.024 18.4824 221.318 18.639L230.568 23.5584Z" fill="#FBFFF2"/>
<path d="M218.553 18.7056L220.782 25.9977C221.03 26.807 221.588 27.4846 222.335 27.8822C223.083 28.2784 223.956 28.3638 224.765 28.1164L232.058 25.8866C232.4 25.782 232.593 25.4196 232.489 25.0775C232.384 24.7355 232.022 24.5427 231.68 24.6473L224.386 26.8771C223.908 27.0234 223.388 26.9735 222.944 26.7381C222.5 26.5023 222.169 26.0997 222.022 25.6188L219.792 18.3267C219.688 17.9846 219.325 17.7919 218.983 17.8965C218.641 18.0011 218.448 18.3635 218.553 18.7056Z" fill="#37474F"/>
<path d="M204.067 38.0684C203.383 38.2775 202.997 39.0012 203.206 39.6866C203.417 40.3715 204.139 40.7553 204.825 40.547L225.893 34.1058C226.577 33.8954 226.962 33.1733 226.753 32.4876C226.542 31.8014 225.82 31.4192 225.135 31.6271L204.067 38.0684Z" fill="#37474F"/>
<path d="M206.34 45.5059L227.408 39.0646C228.093 38.8555 228.817 39.241 229.027 39.9251C229.236 40.6092 228.85 41.3341 228.166 41.5433L207.098 47.9845C206.414 48.1936 205.689 47.8082 205.48 47.1241C205.271 46.44 205.656 45.715 206.34 45.5059Z" fill="#37474F"/>
<path d="M208.615 52.9453L219.769 49.5353C220.453 49.3261 221.178 49.7103 221.387 50.3957C221.597 51.081 221.211 51.8047 220.527 52.0139L209.373 55.4239C208.689 55.6331 207.964 55.2489 207.755 54.5635C207.545 53.8782 207.931 53.1545 208.615 52.9453Z" fill="#37474F"/>
<path d="M234.996 37.4271L224.096 28.2461C224.322 28.2272 224.546 28.1844 224.765 28.1173L231.773 25.9747L234.996 37.4271Z" fill="#CDD4D1"/>
<path d="M230.568 23.5582L230.265 24.1294C230.707 24.3655 231.039 24.7682 231.187 25.2487L231.187 25.2474L241.78 59.8986C242.025 60.702 241.94 61.5681 241.547 62.3077C241.153 63.0488 240.48 63.6055 239.679 63.8502L210.506 72.7694C210.109 72.8907 209.69 72.9322 209.277 72.8932C208.864 72.8541 208.462 72.733 208.095 72.5377L208.093 72.5368C207.726 72.3427 207.403 72.0784 207.138 71.757L207.137 71.7557C206.873 71.4355 206.674 71.0681 206.552 70.6691L194.164 30.151C194.043 29.7532 194 29.3352 194.04 28.9205C194.08 28.5059 194.202 28.1055 194.397 27.7382C194.592 27.3709 194.857 27.0459 195.179 26.7809C195.498 26.5179 195.867 26.3185 196.263 26.1973L196.267 26.1961L219.57 19.0717C219.809 18.9986 220.06 18.9733 220.305 18.9975C220.553 19.0218 220.795 19.0942 221.013 19.2104L230.265 24.1294L230.568 23.5582L230.873 22.9853L221.622 18.0663L221.623 18.0672C221.253 17.8701 220.847 17.7476 220.429 17.7073L220.431 17.7081C220.013 17.6677 219.591 17.71 219.191 17.8324L195.888 24.9568L195.889 24.9564L195.884 24.9579C195.326 25.1288 194.804 25.4089 194.354 25.7809C193.902 26.1537 193.528 26.6121 193.253 27.1299C192.977 27.6477 192.806 28.2136 192.75 28.7972C192.695 29.3804 192.754 29.9697 192.925 30.5299L205.313 71.0479C205.485 71.6077 205.765 72.1305 206.138 72.5817C206.511 73.0342 206.969 73.4077 207.486 73.6817C208.004 73.9571 208.57 74.127 209.155 74.1827L209.153 74.183C209.735 74.2382 210.325 74.18 210.885 74.0087L240.058 65.0895C241.189 64.744 242.136 63.961 242.691 62.9172C243.247 61.8731 243.364 60.6515 243.02 59.5209L232.426 24.8685C232.178 24.0609 231.62 23.3844 230.873 22.9866L230.873 22.9853L230.568 23.5582Z" fill="#37474F"/>
</svg>
