<svg width="40" height="40" viewBox="0 0 40 40" fill="none" xmlns="http://www.w3.org/2000/svg">
<circle cx="20.0007" cy="20" r="18.3913" fill="#ECEEF2" stroke="#D5D9E2" stroke-width="2"/>
<path d="M23.4786 27.8261V26.087C23.4786 25.1645 23.1121 24.2798 22.4598 23.6275C21.8075 22.9752 20.9228 22.6087 20.0003 22.6087H14.7829C13.8605 22.6087 12.9757 22.9752 12.3234 23.6275C11.6711 24.2798 11.3047 25.1645 11.3047 26.087V27.8261M28.696 27.826V26.0869C28.6954 25.3162 28.4389 24.5675 27.9667 23.9584C27.4946 23.3493 26.8335 22.9143 26.0873 22.7216M23.4786 12.2869C24.2268 12.4784 24.8899 12.9136 25.3635 13.5237C25.8371 14.1337 26.0941 14.8841 26.0941 15.6564C26.0941 16.4287 25.8371 17.1791 25.3635 17.7892C24.8899 18.3993 24.2268 18.8344 23.4786 19.026M20.8699 15.6522C20.8699 17.5732 19.3126 19.1304 17.3916 19.1304C15.4707 19.1304 13.9134 17.5732 13.9134 15.6522C13.9134 13.7312 15.4707 12.1739 17.3916 12.1739C19.3126 12.1739 20.8699 13.7312 20.8699 15.6522Z" stroke="#B1BBC8" stroke-width="2" stroke-linecap="round" stroke-linejoin="round"/>
</svg>
