<svg width="1261" height="1024" viewBox="0 0 1261 1024" fill="none" xmlns="http://www.w3.org/2000/svg">
<g opacity="0.3" clip-path="url(#clip0_2776_47575)">
<rect width="1048.86" height="1703.36" transform="translate(392.844 -449.99) rotate(34.1884)" fill="white"/>
<path d="M73.7965 19.6788L392.844 -449.99L394.579 -448.811L391.389 -444.115L247.32 137.553L245.376 136.233L387.813 -438.852L75.5317 20.8576L73.7965 19.6788ZM563.16 -327.395L562.952 -327.537L564.423 -333.436L566.367 -332.116L563.16 -327.395Z" fill="#D5D9E2"/>
<path d="M247.32 137.554L566.367 -332.115L568.102 -330.936L564.912 -326.24L420.843 255.428L418.899 254.108L561.337 -320.977L249.055 138.733L247.32 137.554ZM736.684 -209.52L736.475 -209.662L737.947 -215.561L739.89 -214.241L736.684 -209.52Z" fill="#D5D9E2"/>
<path d="M420.843 255.429L739.891 -214.24L741.626 -213.061L738.435 -208.365L594.366 373.303L592.423 371.983L734.86 -203.102L422.579 256.608L420.843 255.429ZM910.207 -91.6453L909.999 -91.7868L911.47 -97.6858L913.414 -96.3656L910.207 -91.6453Z" fill="#D5D9E2"/>
<path d="M594.367 373.302L913.414 -96.3672L915.149 -95.1884L911.959 -90.4918L767.89 491.176L765.946 489.856L908.384 -85.2286L596.102 374.481L594.367 373.302ZM1083.73 26.2277L1083.52 26.0863L1084.99 20.1872L1086.94 21.5074L1083.73 26.2277Z" fill="#D5D9E2"/>
<path d="M767.89 491.177L1086.94 21.5078L1088.67 22.6866L1085.48 27.3832L941.413 609.051L939.47 607.731L1081.91 32.6464L769.625 492.356L767.89 491.177ZM1257.25 144.103L1257.05 143.961L1258.52 138.062L1260.46 139.382L1257.25 144.103Z" fill="#D5D9E2"/>
<path d="M-245.25 489.349L73.7969 19.6797L75.5321 20.8584L72.3416 25.5551L-71.7274 607.223L-73.6708 605.903L68.7664 30.8182L-243.515 490.527L-245.25 489.349ZM244.113 142.275L243.905 142.133L245.376 136.234L247.32 137.554L244.113 142.275Z" fill="#D5D9E2"/>
<path d="M-71.727 607.222L247.32 137.553L249.056 138.731L245.865 143.428L101.796 725.096L99.8526 723.776L242.29 148.691L-69.9917 608.401L-71.727 607.222ZM417.637 260.148L417.429 260.006L418.9 254.107L420.843 255.427L417.637 260.148Z" fill="#D5D9E2"/>
<path d="M101.796 725.099L420.844 255.43L422.579 256.608L419.389 261.305L275.32 842.973L273.376 841.653L415.813 266.568L103.532 726.277L101.796 725.099ZM591.16 378.025L590.952 377.883L592.423 371.984L594.367 373.304L591.16 378.025Z" fill="#D5D9E2"/>
<path d="M275.32 842.97L594.367 373.301L596.102 374.48L592.912 379.176L448.843 960.844L446.899 959.524L589.337 384.439L277.055 844.149L275.32 842.97ZM764.684 495.896L764.475 495.754L765.947 489.855L767.89 491.175L764.684 495.896Z" fill="#D5D9E2"/>
<path d="M448.843 960.845L767.891 491.176L769.626 492.355L766.435 497.051L622.366 1078.72L620.423 1077.4L762.86 502.314L450.579 962.024L448.843 960.845ZM938.207 613.771L937.999 613.629L939.47 607.73L941.414 609.05L938.207 613.771Z" fill="#D5D9E2"/>
<path d="M-390.774 1076.89L-71.7266 607.223L-69.9913 608.401L-73.1818 613.098L-217.251 1194.77L-219.194 1193.45L-76.7571 618.361L-389.039 1078.07L-390.774 1076.89ZM98.59 729.818L98.3817 729.676L99.853 723.777L101.796 725.097L98.59 729.818Z" fill="#D5D9E2"/>
<path d="M-217.25 1194.77L101.797 725.098L103.532 726.276L100.342 730.973L-43.7274 1312.64L-45.6708 1311.32L96.7664 736.236L-215.515 1195.95L-217.25 1194.77ZM272.113 847.693L271.905 847.551L273.376 841.652L275.32 842.972L272.113 847.693Z" fill="#D5D9E2"/>
<path d="M-43.727 1312.64L275.32 842.973L277.056 844.151L273.865 848.848L129.796 1430.52L127.853 1429.2L270.29 854.111L-41.9917 1313.82L-43.727 1312.64ZM445.637 965.568L445.429 965.426L446.9 959.527L448.843 960.847L445.637 965.568Z" fill="#D5D9E2"/>
<path d="M129.796 1430.52L448.844 960.848L450.579 962.026L447.389 966.723L303.32 1548.39L301.376 1547.07L443.813 971.986L131.532 1431.7L129.796 1430.52ZM619.16 1083.44L618.952 1083.3L620.423 1077.4L622.367 1078.72L619.16 1083.44Z" fill="#D5D9E2"/>
</g>
<defs>
<clipPath id="clip0_2776_47575">
<rect width="1048.86" height="1703.36" fill="white" transform="translate(392.844 -449.99) rotate(34.1884)"/>
</clipPath>
</defs>
</svg>
