<?xml version="1.0" standalone="no"?>
<!DOCTYPE svg PUBLIC "-//W3C//DTD SVG 20010904//EN"
 "http://www.w3.org/TR/2001/REC-SVG-20010904/DTD/svg10.dtd">
<svg version="1.0" xmlns="http://www.w3.org/2000/svg"
 width="626.000000pt" height="626.000000pt" viewBox="0 0 626.000000 626.000000"
 preserveAspectRatio="xMidYMid meet">

<g transform="translate(0.000000,626.000000) scale(0.100000,-0.100000)"
fill="#000000" stroke="none">
<path d="M2075 4583 c-374 -101 -690 -191 -702 -199 -45 -28 -32 -57 168 -401
106 -180 192 -332 192 -338 0 -5 -79 -150 -177 -320 -105 -186 -176 -322 -176
-337 0 -15 6 -33 14 -41 8 -7 83 -33 168 -56 84 -23 161 -45 171 -47 16 -5 17
-36 17 -468 0 -368 3 -466 13 -480 10 -13 207 -74 683 -212 368 -106 680 -194
694 -194 38 0 1352 381 1373 398 16 14 17 49 17 472 l0 457 168 48 c92 26 175
54 185 63 9 8 17 27 17 41 0 14 -81 181 -180 370 -155 298 -178 347 -168 365
6 12 89 155 184 318 178 305 193 339 157 370 -10 8 -90 34 -178 57 -88 24
-393 105 -677 182 -285 76 -532 139 -548 139 -37 0 -24 20 -205 -324 -77 -146
-142 -266 -145 -266 -3 0 -72 126 -154 280 -82 155 -155 287 -163 295 -8 8
-26 15 -41 14 -15 0 -333 -84 -707 -186z m820 -220 c77 -146 141 -272 143
-278 2 -7 -75 -35 -205 -73 -114 -34 -377 -111 -583 -172 -206 -61 -382 -113
-391 -116 -13 -4 -54 60 -184 281 -92 158 -165 288 -163 291 2 2 238 67 524
144 285 78 557 152 604 165 47 13 92 24 100 24 10 0 65 -95 155 -266z m1254
107 c327 -88 596 -162 599 -164 8 -8 -312 -547 -323 -543 -5 2 -274 73 -597
158 -324 84 -588 157 -588 162 0 4 64 129 143 278 89 170 148 269 157 269 8 0
282 -72 609 -160z m-491 -635 c284 -75 526 -139 536 -143 28 -12 -177 -66
-218 -58 -17 3 -217 52 -444 110 l-413 105 -402 -129 -402 -129 -115 26 c-63
15 -118 29 -122 33 -6 4 1018 314 1055 319 4 1 241 -60 525 -134z m-225 -195
c163 -41 297 -77 297 -80 0 -7 -568 -160 -592 -160 -15 0 -504 112 -551 126
-10 3 -16 8 -13 11 8 9 539 181 551 180 6 -1 144 -36 308 -77z m1158 -328 c87
-163 156 -298 155 -300 -8 -8 -1172 -342 -1184 -340 -12 3 -332 608 -326 617
3 4 1173 319 1189 320 6 1 80 -133 166 -297z m-2122 112 c310 -73 565 -135
568 -138 4 -4 -282 -562 -297 -579 -4 -5 -239 55 -521 133 -283 79 -548 151
-589 163 -41 11 -79 23 -83 27 -5 4 60 128 143 274 l152 267 31 -7 c18 -3 286
-66 596 -140z m606 -1782 c-6 -6 -69 12 -745 207 l-445 129 -3 411 c-1 226 0
411 3 411 3 0 201 -54 440 -120 240 -66 443 -120 454 -120 27 0 41 20 126 185
43 83 98 188 124 235 l46 85 3 -709 c1 -390 0 -712 -3 -714z m265 1162 c69
-135 133 -252 142 -261 10 -9 30 -15 45 -15 16 1 217 57 448 125 l420 124 6
-66 c4 -36 7 -215 8 -398 l1 -331 -67 -20 c-38 -11 -196 -57 -353 -102 -157
-45 -392 -113 -522 -151 -130 -38 -244 -69 -253 -69 -13 0 -15 75 -15 705 0
388 3 705 8 705 4 0 63 -111 132 -246z"/>
</g>
</svg>
