<svg width="33" height="33" viewBox="0 0 33 33" fill="none" xmlns="http://www.w3.org/2000/svg">
<path d="M30.1839 17.6478V28.5788C30.1839 29.4071 29.8519 30.2015 29.2609 30.7872C28.6699 31.3729 27.8683 31.7019 27.0324 31.7019H4.97183C4.13599 31.7019 3.33439 31.3729 2.74337 30.7872C2.15235 30.2015 1.82031 29.4071 1.82031 28.5788V6.71691C1.82031 5.88861 2.15235 5.09423 2.74337 4.50853C3.33439 3.92283 4.13599 3.59379 4.97183 3.59379H16.0021M22.3052 6.71691H31.7597M27.0324 2.03223V11.4016M30.1839 22.3324L25.3212 17.5135C24.7302 16.928 23.9287 16.599 23.093 16.599C22.2574 16.599 21.4559 16.928 20.8649 17.5135L6.54759 31.7018M14.4264 12.9632C14.4264 14.688 13.0154 16.0863 11.2749 16.0863C9.53432 16.0863 8.12334 14.688 8.12334 12.9632C8.12334 11.2383 9.53432 9.84003 11.2749 9.84003C13.0154 9.84003 14.4264 11.2383 14.4264 12.9632Z" stroke="#D5D9E2" stroke-width="2.5" stroke-linecap="round" stroke-linejoin="round"/>
</svg>
