<svg width="179" height="197" viewBox="0 0 179 197" fill="none" xmlns="http://www.w3.org/2000/svg">
<path d="M87.6173 37.7432L84.843 31.865L74.624 36.6881L83.9309 43.0968L87.6173 37.7432ZM89.5323 34.5342L96.023 34.1849L96.0227 34.1802L89.5323 34.5342ZM87.1853 31.6442L82.6444 26.9934L75.1012 34.3584L85.0694 37.7902L87.1853 31.6442ZM88.0023 25.6032L93.6163 22.327L93.615 22.3247L88.0023 25.6032ZM82.1033 23.3522L82.3616 29.8471L82.3617 29.8471L82.1033 23.3522ZM63.7664 27.0062L66.2724 33.0037L66.2728 33.0036L63.7664 27.0062ZM49.3654 38.6322L54.8518 42.1177L54.8521 42.1172L49.3654 38.6322ZM46.5304 56.6312L40.3133 58.5283L41.7851 63.3516L46.8229 63.1247L46.5304 56.6312ZM78.6533 55.1842L78.9458 61.6776L78.9858 61.6758L79.0257 61.6736L78.6533 55.1842ZM85.2334 51.8422L80.2133 47.7132L80.212 47.7147L85.2334 51.8422ZM87.0163 44.6963L84.0196 38.9283L79.9507 41.0423L80.5773 45.5846L87.0163 44.6963ZM89.1814 41.3672L95.6691 41.7666L95.6691 41.766L89.1814 41.3672ZM84.1585 27.7644C87.7462 27.6412 90.5548 24.6328 90.4315 21.0451C90.3083 17.4574 87.2999 14.6488 83.7122 14.7721L84.1585 27.7644ZM49.4333 40.0862L47.2931 46.2238C48.9449 46.7998 50.7592 46.6857 52.3258 45.9072C53.8924 45.1287 55.0791 43.7516 55.6177 42.0872L49.4333 40.0862ZM48.7075 32.762C45.3175 31.5811 41.612 33.372 40.4311 36.762C39.2502 40.1521 41.0411 43.8576 44.4312 45.0385L48.7075 32.762ZM53.6153 73.7032L54.154 67.2256L52.7802 67.1114L51.4783 67.5646L53.6153 73.7032ZM142.129 133.507L144.227 139.66L151.17 137.293L147.984 130.684L142.129 133.507ZM64.3083 160.035L58.779 163.452L61.5023 167.859L66.4056 166.188L64.3083 160.035ZM77.6763 130.961L76.2723 137.308L78.5898 137.82L80.6924 136.719L77.6763 130.961ZM75.3973 110.047L69.7678 113.297L76.9338 125.712L81.551 112.141L75.3973 110.047ZM111.773 81.5448C111.015 78.0358 107.556 75.8058 104.047 76.5638C100.538 77.3218 98.3079 80.7808 99.0659 84.2897L111.773 81.5448ZM108.737 129.049C109.495 132.558 112.954 134.788 116.463 134.03C119.972 133.271 122.202 129.812 121.444 126.303L108.737 129.049ZM73.5543 72.4422L75.411 66.2131L71.9476 65.1808L69.243 67.5778L73.5543 72.4422ZM64.5093 75.4782L64.006 81.9587L64.0061 81.9587L64.5093 75.4782ZM55.5953 71.3132L60.6065 67.1734L57.6974 63.6521L53.3986 65.1957L55.5953 71.3132ZM46.4233 75.4152L44.2255 69.2981L36.7879 71.9703L40.8454 78.7524L46.4233 75.4152ZM58.4683 95.5472L52.8906 98.8847L58.4144 108.116L64.0172 98.9325L58.4683 95.5472ZM67.3733 81.6932L71.4708 76.6474L65.6977 71.9593L61.8245 78.308L67.3733 81.6932ZM81.1813 93.1722L77.0838 98.2181L85.7275 105.237L87.5898 94.2594L81.1813 93.1722ZM84.0784 76.0952L90.4868 77.1824L91.449 71.5106L85.9361 69.8664L84.0784 76.0952ZM136.542 109.443L130.042 109.426L130.016 119.346L139.122 115.41L136.542 109.443ZM149.383 78.4582L153.876 83.1557L153.876 83.1556L149.383 78.4582ZM160.209 71.2452L157.586 65.2983L157.584 65.2988L160.209 71.2452ZM170.177 84.8102L165.235 80.5886L165.235 80.5889L170.177 84.8102ZM128.709 120.543C128.656 124.132 131.522 127.085 135.112 127.139C138.701 127.192 141.654 124.325 141.708 120.736L128.709 120.543ZM159.875 88.5804C162.922 86.6824 163.854 82.6737 161.956 79.6266C160.058 76.5795 156.049 75.648 153.002 77.5461L159.875 88.5804ZM135.769 110.966L130.292 114.466L141.562 132.104L142.266 111.185L135.769 110.966ZM116.383 80.6282L110.906 84.128L110.906 84.1281L116.383 80.6282ZM102.948 56.9612L96.9914 59.5621L96.9914 59.5622L102.948 56.9612ZM100.239 49.8242L106.429 47.8386L106.428 47.8381L100.239 49.8242ZM114.813 39.9872L110.643 44.973L110.643 44.9732L114.813 39.9872ZM126.925 54.4012L121.305 57.6669L121.306 57.668L126.925 54.4012ZM135.325 82.2342L141.789 81.5438L141.789 81.5432L135.325 82.2342ZM126.46 59.7706C124.877 56.5485 120.982 55.2194 117.76 56.802C114.538 58.3847 113.208 62.2797 114.791 65.5019L126.46 59.7706ZM129.301 113.118C129.784 116.675 133.059 119.167 136.616 118.684C140.174 118.201 142.665 114.925 142.182 111.368L129.301 113.118ZM137.752 92.9222L131.281 92.3141L129.555 110.676L142.412 97.4536L137.752 92.9222ZM146.054 50.3692L140.023 47.9469L140.023 47.9471L146.054 50.3692ZM160.937 28.1982L156.536 23.4151L156.536 23.4153L160.937 28.1982ZM171.349 34.6352L165.114 32.801L165.113 32.8012L171.349 34.6352ZM129.298 112.61C129.635 116.184 132.805 118.808 136.379 118.472C139.953 118.135 142.577 114.964 142.241 111.39L129.298 112.61ZM143.057 78.5082L137.047 76.0343L137.047 76.0344L143.057 78.5082ZM163.969 49.0767C165.638 45.8983 164.414 41.9689 161.236 40.3002C158.057 38.6314 154.128 39.8553 152.459 43.0337L163.969 49.0767ZM136.886 86.0442L130.682 87.9826L137.372 109.395L143.166 87.7231L136.886 86.0442ZM128.577 59.4452L122.373 61.3832L122.373 61.3834L128.577 59.4452ZM120.476 28.5692L114.064 29.6316L114.064 29.6319L120.476 28.5692ZM119.282 17.9732L125.772 17.6114L125.772 17.611L119.282 17.9732ZM137.206 12.1382L131.696 15.586L131.696 15.5862L137.206 12.1382ZM141.543 21.2892L135.384 23.3664L135.385 23.3685L141.543 21.2892ZM144.186 53.8422L150.644 54.5854L150.644 54.5849L144.186 53.8422ZM138.646 28.2528C138.107 24.7036 134.793 22.2631 131.244 22.8018C127.695 23.3405 125.254 26.6544 125.793 30.2036L138.646 28.2528ZM130.495 94.8266C130.476 98.4164 133.371 101.342 136.961 101.361C140.551 101.38 143.476 98.4857 143.495 94.8959L130.495 94.8266ZM149.517 134.848L153.611 139.897L159.086 135.458L154.219 130.36L149.517 134.848ZM134.121 118.945L138.823 114.457L134.144 109.556L129.442 114.434L134.121 118.945ZM120.288 135.078L115.116 131.141L111.047 136.487L116.524 140.377L120.288 135.078ZM135.138 139.875L135.345 146.372L135.346 146.372L135.138 139.875ZM75.8923 70.2492L73.5563 64.1835L69.458 65.7618L69.3931 70.1531L75.8923 70.2492ZM84.0943 55.1062L77.6909 56.2222V56.2223L84.0943 55.1062ZM80.4033 44.4902L75.1928 48.3761L75.1931 48.3765L80.4033 44.4902ZM66.5203 38.8102L65.6828 32.3644L61.1846 32.9489L60.1813 37.3725L66.5203 38.8102ZM60.6473 43.0672L61.198 36.5906L51.6286 35.7771L54.43 44.9633L60.6473 43.0672ZM60.3463 46.0672L54.6302 42.9728L54.6287 42.9755L60.3463 46.0672ZM57.9063 48.1102L56.0907 41.869L47.0088 44.511L52.7306 52.0424L57.9063 48.1102ZM52.7583 51.4582L58.4261 48.2759L56.6236 45.0657L52.9434 44.9609L52.7583 51.4582ZM45.4673 55.8032L51.2698 58.7327L51.2706 58.731L45.4673 55.8032ZM54.3033 67.0842L60.7722 67.7194L61.655 58.7283L52.8495 60.7489L54.3033 67.0842ZM53.6163 73.7042L47.1475 73.0691L46.8879 75.7125L48.5539 77.7812L53.6163 73.7042ZM64.6363 79.7982L64.1239 86.278L64.1268 86.2782L64.6363 79.7982ZM80.0123 51.9332V58.4333L80.0237 58.4332L80.0123 51.9332ZM69.7253 57.6702L69.8142 51.1708L63.6014 51.0859L63.2366 57.2885L69.7253 57.6702ZM70.4873 59.1362L73.904 53.6066L73.8959 53.6016L70.4873 59.1362ZM72.1403 59.1592L75.3966 64.7848L75.4015 64.7819L72.1403 59.1592ZM72.9433 57.7142L79.4402 57.5122L79.2471 51.2998L73.0322 51.2148L72.9433 57.7142ZM55.9857 45.9684C54.9574 49.4079 56.9121 53.0297 60.3515 54.0579C63.791 55.0861 67.4128 53.1315 68.441 49.6921L55.9857 45.9684ZM64.2723 45.8192L65.9859 52.0893L65.9919 52.0876L64.2723 45.8192ZM62.6574 51.2755C65.2941 53.7116 69.4065 53.5489 71.8426 50.9122C74.2787 48.2755 74.1161 44.1631 71.4793 41.727L62.6574 51.2755ZM73.6857 37.7475C70.2805 38.8839 68.4412 42.5656 69.5776 45.9709C70.714 49.3761 74.3958 51.2154 77.801 50.0789L73.6857 37.7475ZM80.3475 49.2301C83.7539 48.0973 85.597 44.4175 84.4642 41.0111C83.3314 37.6047 79.6516 35.7615 76.2452 36.8944L80.3475 49.2301ZM78.9938 48.3225C77.2901 45.1627 73.3475 43.9822 70.1876 45.6858C67.0278 47.3895 65.8473 51.3321 67.5509 54.4919L78.9938 48.3225ZM75.4423 55.4302L75.8797 61.9155C78.0853 61.7668 80.064 60.5073 81.1326 58.5721C82.2011 56.6369 82.2128 54.2913 81.1638 52.3455L75.4423 55.4302ZM72.872 49.084C69.2903 49.3255 66.5825 52.4248 66.8241 56.0066C67.0656 59.5883 70.165 62.296 73.7467 62.0545L72.872 49.084ZM49.0974 50.425C45.529 50.0334 42.3187 52.6088 41.9271 56.1772C41.5355 59.7456 44.1109 62.9558 47.6793 63.3475L49.0974 50.425ZM52.7913 63.9075C56.3597 64.2991 59.5699 61.7237 59.9616 58.1553C60.3532 54.5869 57.7778 51.3766 54.2094 50.985L52.7913 63.9075ZM78.6479 76.2774C81.9413 74.8489 83.4531 71.0211 82.0246 67.7277C80.5961 64.4343 76.7682 62.9225 73.4748 64.351L78.6479 76.2774ZM64.3711 64.3353C61.0828 62.8951 57.2496 64.3932 55.8094 67.6815C54.3692 70.9698 55.8673 74.803 59.1556 76.2432L64.3711 64.3353ZM53.4746 60.7792C49.9013 61.1237 47.2838 64.2997 47.6283 67.873C47.9729 71.4463 51.1488 74.0637 54.7221 73.7192L53.4746 60.7792ZM56.0735 73.5878C59.646 73.2354 62.2564 70.0536 61.9039 66.4811C61.5515 62.9086 58.3697 60.2982 54.7972 60.6507L56.0735 73.5878ZM164.121 117.855L170.157 120.267L171.925 115.842L168.237 112.825L164.121 117.855ZM159.27 117.862L153.118 119.96L156.831 130.851L164.243 122.049L159.27 117.862ZM157.625 116.78L157.318 123.273L157.318 123.273L157.625 116.78ZM155.613 117.28L158.207 123.24L158.211 123.239L155.613 117.28ZM148.358 121.867L152.299 127.037L152.299 127.036L148.358 121.867ZM134.357 132.06L133.824 138.538L136.313 138.743L138.298 137.229L134.357 132.06ZM129.367 131.183L123.774 127.872L118.483 136.809L128.834 137.661L129.367 131.183ZM135.983 119.72L141.066 123.772L141.066 123.772L135.983 119.72ZM136.12 114.698L141.203 110.647L137.875 106.471L133.132 108.926L136.12 114.698ZM117.38 124.638L120.637 130.264L120.637 130.264L117.38 124.638ZM110.49 134.143L111.987 140.469L115.997 139.52L116.85 135.488L110.49 134.143ZM97.5103 137.246L96.0132 130.921L88.496 132.7L91.5342 139.803L97.5103 137.246ZM110.683 168.041L104.707 170.598L106.916 175.761L112.345 174.325L110.683 168.041ZM153.679 150.798L156.867 156.463L158.968 155.281L159.79 153.013L153.679 150.798ZM163.357 124.108L169.468 126.323L172.526 117.889L163.559 117.611L163.357 124.108ZM161.656 124.266L155.62 121.856L152.178 130.476L161.455 130.763L161.656 124.266ZM167.474 127.116C168.974 123.854 167.546 119.994 164.285 118.494C161.023 116.994 157.163 118.422 155.663 121.683L167.474 127.116ZM146.298 142.045C144.798 145.307 146.226 149.167 149.487 150.667C152.749 152.167 156.609 150.739 158.109 147.477L146.298 142.045ZM164.134 121.386C166.318 118.537 165.779 114.457 162.93 112.273C160.081 110.089 156.001 110.628 153.817 113.477L164.134 121.386ZM138.147 133.916C135.963 136.765 136.501 140.845 139.35 143.029C142.199 145.214 146.279 144.675 148.464 141.826L138.147 133.916ZM168.806 122.558C170.776 119.557 169.941 115.527 166.94 113.557C163.939 111.586 159.909 112.422 157.939 115.423L168.806 122.558ZM142.465 138.992C140.495 141.993 141.33 146.023 144.331 147.993C147.332 149.963 151.362 149.127 153.332 146.126L142.465 138.992ZM130.409 137.376C133.995 137.203 136.762 134.157 136.59 130.571C136.418 126.986 133.371 124.218 129.785 124.391L130.409 137.376ZM127.475 124.502C123.889 124.674 121.122 127.72 121.294 131.306C121.466 134.892 124.512 137.659 128.098 137.487L127.475 124.502ZM106.226 130.459L112.488 128.714L111.029 123.48L105.619 123.988L106.226 130.459ZM57.1023 135.266L50.6762 136.243L51.5988 142.311L57.7096 141.738L57.1023 135.266ZM47.0773 99.9982L53.0568 97.4495L53.0566 97.449L47.0773 99.9982ZM40.6803 89.5562L36.157 94.2241L36.1575 94.2246L40.6803 89.5562ZM7.15535 105.624L0.666421 105.245L0.666406 105.245L7.15535 105.624ZM12.1943 164.085L5.9068 165.733L5.90682 165.734L12.1943 164.085ZM52.3123 189.136L51.4421 182.695L51.4417 182.695L52.3123 189.136ZM117.575 171.173L120.083 177.17L125.378 174.956L123.837 169.428L117.575 171.173ZM23.2666 78.3866C19.735 79.0304 17.3939 82.4153 18.0377 85.947C18.6815 89.4786 22.0664 91.8196 25.5981 91.1758L23.2666 78.3866ZM37.2723 86.9832L34.0427 92.6241L34.0433 92.6245L37.2723 86.9832ZM45.6733 96.9412L51.7777 94.7081L51.7777 94.708L45.6733 96.9412ZM57.3503 135.359L50.9846 136.673C51.6522 139.907 54.6379 142.126 57.9267 141.834L57.3503 135.359ZM107.67 137.335C111.245 137.016 113.886 133.86 113.568 130.284C113.249 126.708 110.093 124.068 106.517 124.386L107.67 137.335ZM95.8676 132.096C95.1457 128.58 91.7098 126.314 88.1933 127.036C84.6768 127.758 82.4112 131.194 83.1331 134.71L95.8676 132.096ZM92.3181 179.458C93.04 182.975 96.4759 185.24 99.9924 184.518C103.509 183.797 105.774 180.361 105.053 176.844L92.3181 179.458ZM91.0337 130.569C87.4621 130.931 84.8598 134.119 85.2214 137.691C85.583 141.263 88.7714 143.865 92.343 143.503L91.0337 130.569ZM105.47 142.174C109.042 141.813 111.644 138.624 111.282 135.053C110.921 131.481 107.732 128.879 104.161 129.24L105.47 142.174ZM91.1163 134.483C87.563 134.994 85.0966 138.289 85.6075 141.842C86.1184 145.396 89.413 147.862 92.9664 147.351L91.1163 134.483ZM107.007 145.333C110.561 144.823 113.028 141.529 112.517 137.975C112.007 134.422 108.713 131.955 105.159 132.465L107.007 145.333ZM94.6987 145.185C91.1363 145.628 88.6078 148.876 89.0511 152.438C89.4944 156 92.7416 158.529 96.304 158.085L94.6987 145.185ZM110.336 156.338C113.899 155.894 116.426 152.646 115.982 149.084C115.538 145.522 112.291 142.994 108.728 143.438L110.336 156.338ZM95.7538 152.694C92.2256 153.356 89.9025 156.754 90.565 160.282C91.2275 163.81 94.6247 166.133 98.1529 165.471L95.7538 152.694ZM112.181 162.838C115.709 162.176 118.033 158.779 117.371 155.251C116.709 151.723 113.312 149.399 109.784 150.061L112.181 162.838ZM96.2938 157.096C92.7911 157.882 90.5889 161.359 91.3751 164.862C92.1613 168.364 95.6382 170.567 99.1409 169.78L96.2938 157.096ZM113.174 166.63C116.677 165.844 118.879 162.367 118.093 158.865C117.306 155.362 113.83 153.16 110.327 153.946L113.174 166.63ZM98.2589 168.115C94.885 169.342 93.1441 173.071 94.3703 176.445C95.5966 179.819 99.3258 181.56 102.7 180.333L98.2589 168.115ZM116.906 175.17C120.28 173.944 122.021 170.215 120.794 166.841C119.568 163.467 115.839 161.726 112.465 162.952L116.906 175.17ZM90.3917 43.6214C93.9763 41.9296 96.2359 38.1417 96.0229 34.1849L83.0417 34.8836C83.002 34.1445 83.2024 33.536 83.4678 33.0912C83.7332 32.6464 84.1737 32.181 84.843 31.865L90.3917 43.6214ZM96.0227 34.1802C95.7793 29.7173 92.5387 26.6128 89.3013 25.4983L85.0694 37.7902C84.5732 37.6194 84.151 37.328 83.8157 36.9274C83.4719 36.5166 83.0932 35.8274 83.042 34.8883L96.0227 34.1802ZM91.7263 36.295C95.4275 32.6813 96.2214 26.7909 93.6163 22.327L82.3884 28.8795C82.1333 28.4423 82.1269 28.0838 82.1533 27.8884C82.1797 27.6929 82.2813 27.348 82.6444 26.9934L91.7263 36.295ZM93.615 22.3247C91.9924 19.547 89.4527 18.1841 87.4246 17.5407C85.4132 16.9025 83.4058 16.7953 81.845 16.8574L82.3617 29.8471C82.6433 29.8359 82.9017 29.8439 83.1191 29.8665C83.3414 29.8897 83.4618 29.922 83.4933 29.932C83.5267 29.9426 83.3917 29.906 83.173 29.7515C82.9355 29.5838 82.6337 29.2995 82.3897 28.8817L93.615 22.3247ZM81.845 16.8574C75.1124 17.1251 67.9882 18.197 61.2599 21.0089L66.2728 33.0036C71.1065 30.9834 76.5723 30.0773 82.3616 29.8471L81.845 16.8574ZM61.2603 21.0088C54.5264 23.8225 48.0965 28.5065 43.8786 35.1472L54.8521 42.1172C57.3542 38.1779 61.4423 35.022 66.2724 33.0037L61.2603 21.0088ZM43.8789 35.1468C39.6655 41.7791 37.8471 50.446 40.3133 58.5283L52.7474 54.7342C51.5556 50.8285 52.3452 46.0634 54.8518 42.1177L43.8789 35.1468ZM46.8229 63.1247L78.9458 61.6776L78.3608 48.6908L46.2379 50.1378L46.8229 63.1247ZM79.0257 61.6736C83.3628 61.4247 87.4948 59.3273 90.2547 55.9697L80.212 47.7147C79.758 48.2671 78.9979 48.6538 78.281 48.6949L79.0257 61.6736ZM90.2534 55.9713C93.2723 52.301 93.9876 47.6661 93.4554 43.8079L80.5773 45.5846C80.7371 46.7424 80.4104 47.4735 80.2133 47.7132L90.2534 55.9713ZM90.0131 50.4642C93.2661 48.7742 95.4438 45.4267 95.6691 41.7666L82.6936 40.9679C82.7246 40.4655 82.8847 40.0646 83.0785 39.7666C83.2723 39.4685 83.5736 39.16 84.0196 38.9283L90.0131 50.4642ZM95.6691 41.766C95.8515 38.7977 94.8293 34.8174 91.3038 32.3897L83.9309 43.0968C83.3035 42.6647 82.9836 42.1375 82.8405 41.7869C82.7037 41.4515 82.6807 41.1778 82.6936 40.9685L95.6691 41.766ZM83.7122 14.7721C76.3967 15.0233 68.2938 15.9867 60.7877 19.4431L66.225 31.2514C71.4189 28.8597 77.5 27.9931 84.1585 27.7644L83.7122 14.7721ZM60.7877 19.4431C53.2683 22.9055 46.1045 29.26 43.249 38.0852L55.6177 42.0872C57.0662 37.6105 61.0444 33.6369 66.225 31.2514L60.7877 19.4431ZM51.5736 33.9487C51.4122 33.8924 51.186 33.7961 50.6481 33.5564C50.2192 33.3651 49.4795 33.0309 48.7075 32.762L44.4312 45.0385C44.5922 45.0946 44.8185 45.1908 45.3553 45.4301C45.7832 45.6208 46.5225 45.955 47.2931 46.2238L51.5736 33.9487ZM21.5852 92.6866C27.083 90.3049 35.5725 87.1086 42.8065 84.4691C46.3984 83.1585 49.6384 82.0004 51.9803 81.1701C53.1509 80.755 54.0962 80.4222 54.7479 80.1935C55.0737 80.0791 55.326 79.9908 55.4963 79.9313C55.5814 79.9015 55.646 79.879 55.6891 79.864C55.7106 79.8564 55.7267 79.8508 55.7373 79.8471C55.7426 79.8453 55.7465 79.8439 55.7491 79.843C55.7503 79.8426 55.7512 79.8423 55.7518 79.8421C55.7521 79.842 55.7522 79.8419 55.7524 79.8419C55.7524 79.8419 55.7524 79.8419 53.6153 73.7032C51.4783 67.5646 51.4781 67.5647 51.4778 67.5648C51.4776 67.5648 51.4772 67.565 51.4768 67.5651C51.4759 67.5654 51.4747 67.5658 51.4732 67.5664C51.47 67.5675 51.4655 67.569 51.4596 67.5711C51.4478 67.5752 51.4304 67.5813 51.4077 67.5892C51.3621 67.6051 51.2949 67.6285 51.2072 67.6592C51.0317 67.7205 50.7738 67.8108 50.4423 67.9272C49.7792 68.1599 48.8209 68.4973 47.6361 68.9174C45.2671 69.7574 41.9886 70.9291 38.3504 72.2566C31.1242 74.8934 22.3067 78.2066 16.4175 80.7579L21.5852 92.6866ZM53.0767 80.1809L75.0237 82.0059L76.101 69.0506L54.154 67.2256L53.0767 80.1809ZM75.5623 75.5282C74.1644 81.8761 74.1644 81.8761 74.1646 81.8762C74.1647 81.8762 74.1649 81.8762 74.1651 81.8763C74.1657 81.8764 74.1665 81.8766 74.1676 81.8768C74.1698 81.8773 74.1731 81.878 74.1775 81.879C74.1863 81.881 74.1995 81.8839 74.217 81.8877C74.252 81.8954 74.3042 81.9069 74.3727 81.922C74.5098 81.9523 74.7121 81.9969 74.973 82.0545C75.4947 82.1696 76.2503 82.3365 77.1851 82.5434C79.0548 82.9572 81.6405 83.5307 84.5048 84.1697C90.2438 85.4499 97.0655 86.9849 101.494 88.025L104.467 75.3694C99.9582 74.3106 93.0709 72.761 87.3352 71.4815C84.4621 70.8406 81.869 70.2655 79.9942 69.8505C79.0568 69.6431 78.2987 69.4756 77.7748 69.36C77.5129 69.3022 77.3095 69.2573 77.1714 69.2269C77.1024 69.2117 77.0498 69.2001 77.0143 69.1922C76.9965 69.1883 76.9831 69.1854 76.9741 69.1834C76.9696 69.1824 76.9661 69.1816 76.9639 69.1811C76.9627 69.1809 76.9618 69.1807 76.9612 69.1806C76.9609 69.1805 76.9607 69.1804 76.9606 69.1804C76.9604 69.1804 76.9603 69.1804 75.5623 75.5282ZM101.494 88.025C104.048 88.6248 107.937 90.5496 113.72 97.6799C119.542 104.857 126.838 116.759 136.274 136.33L147.984 130.684C138.386 110.777 130.576 97.8238 123.817 89.4903C117.019 81.1098 110.85 76.8687 104.467 75.3694L101.494 88.025ZM140.032 127.355L62.2111 153.883L66.4056 166.188L144.227 139.66L140.032 127.355ZM69.8377 156.618L24.5307 83.3052L13.472 90.1393L58.779 163.452L69.8377 156.618ZM79.0804 124.615C71.6304 122.967 68.3675 120.29 67.0485 118.414C65.8067 116.648 65.8027 114.943 66.3065 113.598C66.9085 111.991 67.9434 111.488 68.1498 111.447C68.1779 111.441 68.1721 111.446 68.1491 111.442C68.1234 111.439 68.1454 111.435 68.2261 111.478C68.3844 111.563 68.9951 111.958 69.7678 113.297L81.0269 106.798C77.5416 100.759 71.8589 97.4389 65.5838 98.7024C60.0338 99.8199 55.9402 104.214 54.1332 109.036C52.228 114.12 52.5345 120.374 56.4143 125.892C60.2169 131.3 66.8868 135.231 76.2723 137.308L79.0804 124.615ZM81.551 112.141C82.6904 108.792 83.8209 109.239 83.2336 109.278C83.1316 109.285 83.9518 109.282 84.7531 110.599C85.4252 111.703 85.8471 113.515 84.9013 115.849C83.9292 118.248 81.2528 121.75 74.6603 125.203L80.6924 136.719C89.1074 132.311 94.4877 126.806 96.9496 120.731C99.4377 114.591 98.6708 108.463 95.8591 103.842C93.1767 99.4328 88.2183 95.9176 82.3706 96.3067C76.0378 96.728 71.4558 101.452 69.2437 107.954L81.551 112.141ZM99.0659 84.2897C102.289 99.2099 105.513 114.13 108.737 129.049L121.444 126.303C118.22 111.384 114.996 96.4645 111.773 81.5448L99.0659 84.2897ZM69.243 67.5778C68.1173 68.5756 66.5129 69.1142 65.0126 68.9977L64.0061 81.9587C69.0218 82.3482 74.1014 80.6429 77.8657 77.3067L69.243 67.5778ZM65.0127 68.9977C62.9083 68.8343 61.2292 67.9271 60.6065 67.1734L50.5842 75.4531C54.1235 79.7374 59.5964 81.6162 64.006 81.9587L65.0127 68.9977ZM53.3986 65.1957C51.4472 65.8964 49.597 66.8147 48.1399 67.5317C46.558 68.3101 45.3691 68.8872 44.2255 69.2981L48.6212 81.5324C50.5726 80.8313 52.4227 79.9129 53.8795 79.1961C55.4612 78.4178 56.6495 77.8411 57.792 77.4308L53.3986 65.1957ZM40.8454 78.7524C44.8604 85.4633 48.8755 92.1745 52.8906 98.8847L64.0461 92.2097C60.0312 85.4999 56.0163 78.7891 52.0013 72.0781L40.8454 78.7524ZM64.0172 98.9325C65.4243 96.6262 66.8489 94.4676 68.345 92.202C69.8244 89.9616 71.3753 87.6142 72.9222 85.0785L61.8245 78.308C60.4174 80.6143 58.9928 82.7729 57.4967 85.0385C56.0173 87.2789 54.4664 89.6263 52.9195 92.162L64.0172 98.9325ZM63.2758 86.7391C65.5396 88.5773 67.7915 90.4711 70.0935 92.4072C72.381 94.3311 74.7186 96.2973 77.0838 98.2181L85.2788 88.1264C83.0151 86.2881 80.7632 84.3944 78.4612 82.4582C76.1737 80.5344 73.8361 78.5681 71.4708 76.6474L63.2758 86.7391ZM87.5898 94.2594L90.4868 77.1824L77.6699 75.0081L74.7729 92.0851L87.5898 94.2594ZM85.9361 69.8664C84.3727 69.4001 82.8453 68.8333 81.0859 68.1776C79.3882 67.5449 77.4586 66.8234 75.411 66.2131L71.6977 78.6714C73.2601 79.1371 74.787 79.7036 76.5461 80.3591C78.2434 80.9917 80.173 81.7134 82.2206 82.3241L85.9361 69.8664ZM143.042 109.46C143.068 99.5682 146.971 89.7594 153.876 83.1557L144.891 73.7608C135.191 83.0371 130.077 96.3422 130.042 109.426L143.042 109.46ZM153.876 83.1556C156.461 80.6832 159.518 78.6558 162.834 77.1916L157.584 65.2988C152.927 67.3547 148.598 70.2152 144.891 73.7609L153.876 83.1556ZM162.833 77.1921C163.48 76.9069 163.893 76.9555 164.177 77.0439C164.533 77.1551 164.953 77.429 165.296 77.8962C165.639 78.3633 165.786 78.865 165.788 79.2727C165.789 79.6083 165.699 80.0447 165.235 80.5886L175.12 89.0319C185.353 77.0514 172.487 58.7238 157.586 65.2983L162.833 77.1921ZM165.235 80.5889C156.838 90.4209 146.089 98.2347 133.963 103.477L139.122 115.41C152.986 109.416 165.377 100.44 175.12 89.0315L165.235 80.5889ZM141.708 120.736C141.898 107.946 149.017 95.3437 159.875 88.5804L153.002 77.5461C138.391 86.6468 128.965 103.333 128.709 120.543L141.708 120.736ZM141.247 107.466C138.016 102.41 134.785 97.3535 131.554 92.2972C128.323 87.241 125.092 82.1848 121.861 77.1283L110.906 84.1281C114.137 89.1847 117.368 94.241 120.599 99.2972C123.83 104.353 127.061 109.41 130.292 114.466L141.247 107.466ZM121.861 77.1284C116.924 69.403 112.301 62.1371 108.905 54.3603L96.9914 59.5622C100.864 68.4314 106.062 76.5474 110.906 84.128L121.861 77.1284ZM108.905 54.3603C107.968 52.2131 107.133 50.0337 106.429 47.8386L94.0501 51.8099C94.9018 54.4647 95.8969 57.0554 96.9914 59.5621L108.905 54.3603ZM106.428 47.8381C105.58 45.195 108.59 43.256 110.643 44.973L118.984 35.0015C106.862 24.8624 89.2524 36.8594 94.0502 51.8104L106.428 47.8381ZM110.643 44.9732C114.868 48.5063 118.491 52.8235 121.305 57.6669L132.545 51.1356C128.988 45.0129 124.391 39.5241 118.983 35.0013L110.643 44.9732ZM121.306 57.668C125.611 65.0738 127.886 73.793 128.862 82.9253L141.789 81.5432C140.689 71.2595 138.054 60.6107 132.545 51.1345L121.306 57.668ZM128.862 82.9247C129.844 92.118 129.602 100.956 129.273 110.748L142.266 111.185C142.593 101.461 142.88 91.7645 141.789 81.5438L128.862 82.9247ZM114.791 65.5019C122.137 80.458 127.057 96.6068 129.301 113.118L142.182 111.368C139.751 93.4736 134.421 75.9805 126.46 59.7706L114.791 65.5019ZM144.224 93.5303C145.59 78.9884 147.083 65.2509 152.086 52.7914L140.023 47.9471C134.216 62.4076 132.628 77.974 131.281 92.3141L144.224 93.5303ZM152.086 52.7916C155.122 45.2328 159.637 38.2287 165.339 32.9811L156.536 23.4153C149.168 30.1957 143.647 38.9217 140.023 47.9469L152.086 52.7916ZM165.339 32.9813C165.407 32.9184 165.425 32.9203 165.386 32.9373C165.348 32.9534 165.299 32.9656 165.25 32.9688C165.206 32.9716 165.18 32.9658 165.176 32.9648C165.174 32.9642 165.184 32.9667 165.198 32.9757C165.213 32.9848 165.218 32.9911 165.213 32.9861C165.208 32.9798 165.188 32.955 165.168 32.9073C165.146 32.8558 165.134 32.7993 165.131 32.7519C165.129 32.7025 165.139 32.7136 165.114 32.801L177.585 36.4694C181.301 23.838 166.071 14.641 156.536 23.4151L165.339 32.9813ZM165.113 32.8012C159.027 53.495 147.757 73.3091 133.092 88.3909L142.412 97.4536C158.643 80.7614 170.941 59.0595 177.585 36.4692L165.113 32.8012ZM142.241 111.39C141.322 101.646 144.678 91.6492 149.068 80.982L137.047 76.0344C132.651 86.7152 128.05 99.3709 129.298 112.61L142.241 111.39ZM149.068 80.9822C153.538 70.1233 158.511 59.473 163.969 49.0767L152.459 43.0337C146.813 53.7874 141.669 64.8031 137.047 76.0343L149.068 80.9822ZM143.091 84.1058C140.321 75.2398 137.552 66.3748 134.782 57.507L122.373 61.3834C125.143 70.2497 127.912 79.1167 130.682 87.9826L143.091 84.1058ZM134.782 57.5073C131.584 47.2702 128.544 37.4937 126.889 27.5066L114.064 29.6319C115.891 40.6567 119.22 51.2903 122.373 61.3832L134.782 57.5073ZM126.889 27.5069C126.342 24.2075 125.956 20.8988 125.772 17.6114L112.792 18.3351C113.005 22.1496 113.45 25.929 114.064 29.6316L126.889 27.5069ZM125.772 17.611C125.678 15.9218 126.597 14.7668 128.058 14.2892C128.8 14.0469 129.521 14.0581 130.094 14.2422C130.603 14.4058 131.177 14.7572 131.696 15.586L142.717 8.69044C133.676 -5.75807 111.875 1.90206 112.792 18.3354L125.772 17.611ZM131.696 15.5862C133.216 18.0146 134.458 20.6204 135.384 23.3664L147.703 19.2121C146.447 15.4881 144.765 11.9638 142.716 8.69028L131.696 15.5862ZM135.385 23.3685C138.494 32.5783 138.914 42.7994 137.729 53.0995L150.644 54.5849C151.967 43.0791 151.614 30.7982 147.702 19.21L135.385 23.3685ZM137.729 53.0991C136.544 63.3975 133.519 73.4724 130.607 84.3654L143.166 87.7231C145.924 77.4081 149.319 66.097 150.644 54.5854L137.729 53.0991ZM125.793 30.2036C129.037 51.5782 130.611 73.2065 130.495 94.8266L143.495 94.8959C143.614 72.5999 141.992 50.2962 138.646 28.2528L125.793 30.2036ZM154.219 130.36C151.637 127.656 149.042 124.993 146.474 122.359C143.898 119.717 141.35 117.104 138.823 114.457L129.42 123.434C132.002 126.138 134.597 128.8 137.165 131.434C139.741 134.076 142.289 136.69 144.816 139.337L154.219 130.36ZM129.442 114.434C124.347 119.719 119.562 125.301 115.116 131.141L125.46 139.015C129.601 133.576 134.058 128.377 138.801 123.456L129.442 114.434ZM116.524 140.377C121.814 144.135 128.332 146.595 135.345 146.372L134.932 133.379C131.262 133.495 127.477 132.212 124.053 129.779L116.524 140.377ZM135.346 146.372C141.817 146.165 148.151 144.324 153.611 139.897L145.423 129.799C142.581 132.104 139.146 133.244 134.93 133.379L135.346 146.372ZM82.0616 75.6245C82.0711 74.9851 82.1241 74.3511 82.2025 73.4571C82.2756 72.6236 82.3741 71.5305 82.3916 70.3454L69.3931 70.1531C69.3836 70.793 69.3306 71.4273 69.2522 72.3212C69.1791 73.1544 69.0806 74.2474 69.0631 75.432L82.0616 75.6245ZM78.2284 76.3149C82.5959 74.6329 86.2805 71.3628 88.4686 67.2244L76.9761 61.148C76.2562 62.5096 74.9948 63.6295 73.5563 64.1835L78.2284 76.3149ZM88.4686 67.2244C90.6391 63.1192 91.2629 58.3799 90.4978 53.9902L77.6909 56.2223C77.9938 57.9606 77.7136 59.7533 76.9761 61.148L88.4686 67.2244ZM90.4978 53.9903C89.8617 50.3404 88.981 45.1186 85.6136 40.6039L75.1931 48.3765C76.4517 50.0639 76.999 52.2521 77.6909 56.2222L90.4978 53.9903ZM85.6139 40.6043C80.98 34.3908 73.0263 31.4102 65.6828 32.3644L67.3579 45.256C70.3884 44.8623 73.5727 46.2037 75.1928 48.3761L85.6139 40.6043ZM60.1813 37.3725C60.2447 37.0933 60.3473 36.9155 60.4083 36.8289C60.4679 36.7442 60.5125 36.7096 60.5291 36.6976C60.5459 36.6855 60.5853 36.6593 60.669 36.6337C60.754 36.6077 60.9339 36.5682 61.198 36.5906L60.0967 49.5439C63.1711 49.8052 66.0125 48.7737 68.1416 47.2356C70.271 45.6973 72.166 43.3052 72.8594 40.2479L60.1813 37.3725ZM54.43 44.9633C54.2239 44.2874 54.2929 43.5959 54.6302 42.9728L66.0625 49.1617C67.3818 46.7246 67.6728 43.821 66.8647 41.1712L54.43 44.9633ZM54.6287 42.9755C54.8008 42.6573 54.9728 42.48 55.103 42.3693C55.2249 42.2656 55.5325 42.0313 56.0907 41.869L59.722 54.3515C62.6049 53.5128 64.8635 51.3789 66.0639 49.159L54.6287 42.9755ZM52.7306 52.0424C51.9592 51.027 51.8896 49.9738 52.0072 49.2887C52.1249 48.6036 52.542 47.6332 53.6089 46.933L60.7418 57.8014C63.1587 56.2152 64.4298 53.7594 64.8197 51.4888C65.2096 49.2182 64.8305 46.4794 63.0821 44.1781L52.7306 52.0424ZM53.6089 46.933C54.6241 46.2667 55.5188 46.2994 55.9933 46.3913C56.4577 46.4813 57.633 46.8635 58.4261 48.2759L47.0906 54.6405C48.6737 57.4599 51.3825 58.7397 53.5204 59.1539C55.6684 59.5701 58.3765 59.3537 60.7418 57.8014L53.6089 46.933ZM52.9434 44.9609C47.4406 44.8042 42.145 47.9578 39.6641 52.8755L51.2706 58.731C51.4797 58.3166 52.1061 57.9423 52.5733 57.9556L52.9434 44.9609ZM39.6649 52.8737C37.1829 57.7898 37.7892 63.9239 41.1858 68.259L51.4189 60.2414C51.1315 59.8746 51.0598 59.1486 51.2698 58.7327L39.6649 52.8737ZM41.1858 68.259C44.5809 72.5923 50.3887 74.6515 55.7571 73.4196L52.8495 60.7489C52.3959 60.853 51.7078 60.6101 51.4189 60.2414L41.1858 68.259ZM47.8344 66.4491C47.7241 67.5735 47.6119 68.624 47.4966 69.7041C47.3819 70.778 47.2641 71.8815 47.1475 73.0691L60.0852 74.3394C60.1956 73.215 60.3078 72.1645 60.4231 71.0844C60.5378 70.0105 60.6556 68.907 60.7722 67.7194L47.8344 66.4491ZM48.5539 77.7812C52.1931 82.3001 57.8121 85.7788 64.1239 86.278L65.1488 73.3185C62.9126 73.1416 60.4176 71.7864 58.6788 69.6273L48.5539 77.7812ZM64.1268 86.2782C70.7573 86.7996 75.9171 83.9738 79.9239 80.3476L71.2008 70.7088C68.8496 72.8367 67.0614 73.4689 65.1459 73.3182L64.1268 86.2782ZM72.8753 53.8742C72.8753 49.7134 69.5022 46.3402 65.3413 46.3402V59.3402C62.3225 59.3402 59.8753 56.8931 59.8753 53.8742H72.8753ZM65.3413 46.3402C61.1806 46.3402 57.8073 49.7133 57.8073 53.8742H70.8073C70.8073 56.8931 68.3601 59.3402 65.3413 59.3402V46.3402ZM57.8073 53.8742C57.8073 58.0351 61.1806 61.4082 65.3413 61.4082V48.4082C68.3601 48.4082 70.8073 50.8553 70.8073 53.8742H57.8073ZM65.3413 61.4082C69.5022 61.4082 72.8753 58.0351 72.8753 53.8742H59.8753C59.8753 50.8554 62.3225 48.4082 65.3413 48.4082V61.4082ZM87.5463 50.8992C87.5463 46.7386 84.1734 43.3652 80.0123 43.3652V56.3652C76.9933 56.3652 74.5463 53.9179 74.5463 50.8992H87.5463ZM80.0123 43.3652C75.8512 43.3652 72.4783 46.7386 72.4783 50.8992H85.4783C85.4783 53.9178 83.0314 56.3652 80.0123 56.3652V43.3652ZM72.4783 50.8992C72.4783 55.0601 75.8515 58.4332 80.0123 58.4332V45.4332C83.0312 45.4332 85.4783 47.8804 85.4783 50.8992H72.4783ZM80.0237 58.4332C84.1652 58.426 87.5463 55.0705 87.5463 50.8992H74.5463C74.5463 47.87 77.0014 45.4385 80.001 45.4333L80.0237 58.4332ZM63.2366 57.2885C63.0625 60.2481 64.5432 63.1093 67.0788 64.6709L73.8959 53.6016C75.4474 54.5572 76.3202 56.2483 76.2141 58.0519L63.2366 57.2885ZM67.0707 64.6658C69.6044 66.2314 72.8283 66.2714 75.3966 64.7848L68.884 53.5337C70.4504 52.627 72.3543 52.6491 73.904 53.6067L67.0707 64.6658ZM75.4015 64.7819C77.9646 63.2953 79.5326 60.485 79.4402 57.5122L66.4465 57.9162C66.3901 56.1015 67.3161 54.4431 68.8792 53.5365L75.4015 64.7819ZM73.0322 51.2148L69.8142 51.1708L69.6365 64.1696L72.8545 64.2136L73.0322 51.2148ZM68.441 49.6921C68.0853 50.8819 67.1851 51.7616 65.9859 52.0893L62.5588 39.5492C59.4276 40.4049 56.9154 42.8586 55.9857 45.9684L68.441 49.6921ZM65.9919 52.0876C64.7914 52.417 63.5683 52.117 62.6574 51.2755L71.4793 41.727C69.0964 39.5254 65.6853 38.6915 62.5527 39.5508L65.9919 52.0876ZM77.801 50.0789C78.6524 49.7948 79.5002 49.5119 80.3475 49.2301L76.2452 36.8944C75.3904 37.1786 74.5363 37.4636 73.6857 37.7475L77.801 50.0789ZM67.5509 54.4919C67.913 55.1634 68.2752 55.8347 68.6368 56.5051C68.9987 57.1757 69.36 57.8454 69.7209 58.5149L81.1638 52.3455C80.8017 51.674 80.4395 51.0027 80.0779 50.3324C79.716 49.6617 79.3547 48.9921 78.9938 48.3225L67.5509 54.4919ZM75.005 48.945C74.7134 48.9646 74.3436 48.9884 73.959 49.0131C73.5811 49.0374 73.1884 49.0626 72.872 49.084L73.7467 62.0545C74.0382 62.0348 74.4081 62.0111 74.7927 61.9863C75.1706 61.9621 75.5632 61.9368 75.8797 61.9155L75.005 48.945ZM47.6793 63.3475C48.5324 63.4411 49.3853 63.5344 50.2372 63.6277C51.0893 63.7209 51.9404 63.8141 52.7913 63.9075L54.2094 50.985C53.3563 50.8914 52.5034 50.7981 51.6515 50.7048C50.7994 50.6116 49.9483 50.5184 49.0974 50.425L47.6793 63.3475ZM73.4748 64.351C70.6339 65.5833 67.2068 65.5773 64.3711 64.3353L59.1556 76.2432C65.3019 78.9352 72.4928 78.9472 78.6479 76.2774L73.4748 64.351ZM54.7221 73.7192C55.1679 73.6762 55.6195 73.6326 56.0735 73.5878L54.7972 60.6507C54.3592 60.6939 53.9208 60.7362 53.4746 60.7792L54.7221 73.7192ZM168.237 112.825C166.39 111.313 164.065 110.506 161.807 110.438C159.539 110.369 156.497 111.065 154.298 113.676L164.243 122.049C163.179 123.312 161.88 123.446 161.413 123.432C160.956 123.418 160.489 123.281 160.005 122.886L168.237 112.825ZM165.423 115.765C164.056 111.755 160.305 110.4 157.933 110.287L157.318 123.273C156.621 123.24 155.891 123.04 155.195 122.607C154.482 122.165 153.583 121.323 153.118 119.96L165.423 115.765ZM157.933 110.288C155.587 110.176 153.677 111.033 153.016 111.322L158.211 123.239C158.455 123.132 158.457 123.143 158.354 123.172C158.232 123.206 157.857 123.298 157.318 123.273L157.933 110.288ZM153.019 111.32C149.642 112.79 146.671 114.98 144.417 116.698L152.299 127.036C154.534 125.332 156.411 124.022 158.207 123.24L153.019 111.32ZM144.418 116.698C142.24 118.358 139.966 119.976 137.589 121.667C135.243 123.337 132.793 125.079 130.416 126.891L138.298 137.229C140.476 135.569 142.749 133.951 145.126 132.26C147.472 130.591 149.922 128.849 152.299 127.037L144.418 116.698ZM134.891 125.582C134.535 125.553 134.16 125.478 133.299 125.283C132.546 125.112 131.306 124.821 129.901 124.705L128.834 137.661C129.189 137.691 129.565 137.766 130.425 137.961C131.179 138.132 132.418 138.423 133.824 138.538L134.891 125.582ZM134.96 134.495C136.126 132.526 137.318 130.117 138.242 128.369C139.277 126.414 140.167 124.9 141.066 123.772L130.901 115.668C129.2 117.801 127.844 120.225 126.752 122.289C125.55 124.56 124.733 126.252 123.774 127.872L134.96 134.495ZM141.066 123.772C142.617 121.827 143.267 119.493 143.343 117.45C143.418 115.423 142.95 112.838 141.203 110.647L131.038 118.75C130.351 117.889 130.345 117.15 130.352 116.968C130.359 116.771 130.411 116.283 130.901 115.669L141.066 123.772ZM133.132 108.926C127.127 112.034 120.276 115.452 114.124 119.013L120.637 130.264C126.439 126.905 132.845 123.713 139.108 120.471L133.132 108.926ZM114.124 119.013C109.042 121.955 105.346 127.054 104.131 132.798L116.85 135.488C117.303 133.347 118.743 131.36 120.637 130.264L114.124 119.013ZM108.994 127.818C106.915 128.31 104.692 128.844 102.482 129.374C100.268 129.906 98.0668 130.435 96.0132 130.921L99.0075 143.571C101.086 143.08 103.308 142.546 105.518 142.015C107.732 141.483 109.933 140.955 111.987 140.469L108.994 127.818ZM91.5342 139.803L104.707 170.598L116.66 165.485L103.487 134.69L91.5342 139.803ZM112.345 174.325C127.746 170.253 142.89 164.327 156.867 156.463L150.492 145.133C137.567 152.406 123.463 157.939 109.022 161.757L112.345 174.325ZM159.79 153.013C161.393 148.592 163.011 144.131 164.629 139.669C166.247 135.208 167.865 130.746 169.468 126.323L157.246 121.893C155.644 126.315 154.026 130.776 152.408 135.237C150.79 139.699 149.172 144.161 147.568 148.583L159.79 153.013ZM163.559 117.611C163.02 117.595 162.559 117.631 162.24 117.666C161.934 117.699 161.65 117.743 161.531 117.761C161.362 117.787 161.358 117.786 161.38 117.784C161.413 117.78 161.593 117.761 161.858 117.769L161.455 130.763C161.994 130.78 162.455 130.743 162.773 130.709C163.08 130.676 163.364 130.632 163.483 130.614C163.652 130.588 163.656 130.588 163.634 130.591C163.6 130.594 163.421 130.613 163.156 130.605L163.559 117.611ZM167.693 126.677C168.13 125.581 168.564 124.433 168.97 123.356C169.385 122.255 169.774 121.226 170.157 120.267L158.085 115.444C157.648 116.539 157.214 117.688 156.808 118.765C156.392 119.866 156.003 120.895 155.62 121.856L167.693 126.677ZM155.663 121.683C152.541 128.47 149.42 135.258 146.298 142.045L158.109 147.477C161.231 140.689 164.352 133.902 167.474 127.116L155.663 121.683ZM153.817 113.477C148.593 120.29 143.371 127.103 138.147 133.916L148.464 141.826C153.688 135.013 158.911 128.198 164.134 121.386L153.817 113.477ZM157.939 115.423C152.781 123.279 147.623 131.135 142.465 138.992L153.332 146.126C158.49 138.27 163.648 130.414 168.806 122.558L157.939 115.423ZM129.785 124.391C129.015 124.428 128.246 124.465 127.475 124.502L128.098 137.487C128.869 137.45 129.64 137.413 130.409 137.376L129.785 124.391ZM105.619 123.988C97.423 124.757 89.2095 125.577 81.0185 126.395C72.821 127.213 64.646 128.03 56.4951 128.795L57.7096 141.738C65.9057 140.969 74.1192 140.148 82.3102 139.331C90.5077 138.512 98.6827 137.696 106.834 136.931L105.619 123.988ZM63.5285 134.289C61.6042 121.633 58.076 109.225 53.0568 97.4495L41.0979 102.547C45.6887 113.317 48.9165 124.669 50.6762 136.243L63.5285 134.289ZM53.0566 97.449C51.4283 93.6298 49.1767 88.7375 45.2032 84.8879L36.1575 94.2246C38.088 96.095 39.5024 98.8047 41.0981 102.547L53.0566 97.449ZM45.2037 84.8883C37.4297 77.355 25.1921 76.235 16.0315 80.9404L21.9712 92.5041C26.6525 90.0995 32.757 90.9294 36.157 94.2241L45.2037 84.8883ZM16.0321 80.94C6.84556 85.6574 1.23969 95.4375 0.666421 105.245L13.6443 106.004C13.979 100.277 17.3151 94.8951 21.9706 92.5044L16.0321 80.94ZM0.666406 105.245C-0.517816 125.519 0.669698 145.756 5.9068 165.733L18.4819 162.437C13.673 144.093 12.5185 125.277 13.6443 106.003L0.666406 105.245ZM5.90682 165.734C8.61289 176.056 16.2549 184.139 24.3511 189.271L31.3116 178.291C25.0058 174.294 20.0998 168.609 18.4819 162.437L5.90682 165.734ZM24.3511 189.271C32.8449 194.656 43.2166 196.925 53.183 195.578L51.4417 182.695C44.5101 183.632 37.2198 182.037 31.3116 178.291L24.3511 189.271ZM53.1826 195.578C76.2239 192.465 98.714 186.106 120.083 177.17L115.068 165.176C94.6628 173.709 73.2708 179.746 51.4421 182.695L53.1826 195.578ZM123.837 169.428L112.488 128.714L99.9651 132.205L111.314 172.919L123.837 169.428ZM25.5981 91.1758C28.4506 90.6558 31.5268 91.1836 34.0427 92.6241L40.502 81.3424C35.3259 78.3788 29.1361 77.3166 23.2666 78.3866L25.5981 91.1758ZM34.0433 92.6245C36.5597 94.0648 38.5725 96.4506 39.569 99.1744L51.7777 94.708C49.7282 89.1059 45.6789 84.3056 40.5014 81.342L34.0433 92.6245ZM39.569 99.1744C44.1745 111.764 48.3687 124.003 50.9846 136.673L63.7161 134.045C60.894 120.376 56.4122 107.377 51.7777 94.7081L39.569 99.1744ZM57.9267 141.834C66.2647 141.091 74.5423 140.337 82.812 139.583C91.0838 138.829 99.3477 138.075 107.67 137.335L106.517 124.386C98.179 125.128 89.9014 125.883 81.6317 126.637C73.3599 127.391 65.096 128.144 56.774 128.885L57.9267 141.834ZM83.1331 134.71C84.6641 142.168 86.1948 149.626 87.7256 157.084C89.2563 164.542 90.7871 172 92.3181 179.458L105.053 176.844C103.522 169.386 101.991 161.928 100.46 154.47C98.9294 147.012 97.3986 139.554 95.8676 132.096L83.1331 134.71ZM92.343 143.503C94.5311 143.282 96.7189 143.06 98.9066 142.839C101.094 142.617 103.282 142.396 105.47 142.174L104.161 129.24C101.973 129.462 99.7848 129.683 97.5971 129.905C95.4093 130.126 93.2216 130.348 91.0337 130.569L92.343 143.503ZM92.9664 147.351C97.6474 146.678 102.328 146.005 107.007 145.333L105.159 132.465C100.479 133.137 95.7973 133.81 91.1163 134.483L92.9664 147.351ZM96.304 158.085C100.981 157.504 105.659 156.921 110.336 156.338L108.728 143.438C104.052 144.021 99.3758 144.603 94.6987 145.185L96.304 158.085ZM98.1529 165.471C102.829 164.593 107.505 163.715 112.181 162.838L109.784 150.061C105.107 150.938 100.43 151.816 95.7538 152.694L98.1529 165.471ZM99.1409 169.78C101.48 169.255 103.819 168.73 106.158 168.205C108.496 167.68 110.835 167.155 113.174 166.63L110.327 153.946C107.988 154.471 105.649 154.996 103.31 155.521C100.971 156.046 98.6327 156.571 96.2938 157.096L99.1409 169.78ZM102.7 180.333C105.067 179.473 107.435 178.612 109.803 177.752C112.17 176.891 114.538 176.031 116.906 175.17L112.465 162.952C110.098 163.813 107.73 164.673 105.362 165.534C102.994 166.394 100.627 167.255 98.2589 168.115L102.7 180.333Z" fill="white"/>
<path d="M87.618 37.743C88.813 37.179 89.604 35.853 89.533 34.534C89.461 33.214 88.435 32.074 87.186 31.644C88.752 30.115 89.106 27.493 88.003 25.603C86.899 23.713 84.291 23.265 82.104 23.352C75.843 23.601 69.548 24.59 63.767 27.006C57.985 29.422 52.726 33.342 49.366 38.632C46.006 43.921 44.702 50.637 46.531 56.631L78.654 55.184C81.181 55.0389 83.627 53.797 85.234 51.842C86.842 49.887 87.363 47.204 87.017 44.696C88.245 44.058 89.097 42.748 89.182 41.367C89.267 39.984 88.758 38.528 87.618 37.743Z" fill="#36241A"/>
<path d="M83.9363 21.2676C76.9493 21.5076 69.8573 22.4226 63.5073 25.3466C57.1573 28.2706 51.5863 33.4346 49.4343 40.0856C48.5023 39.7606 47.5033 39.2246 46.5703 38.8996" stroke="#36241A" stroke-miterlimit="10" stroke-linecap="round" stroke-linejoin="round"/>
<path d="M19.002 86.7221C30.389 81.7891 53.616 73.7031 53.616 73.7031L75.563 75.5281C75.563 75.5281 94.044 79.5981 102.981 81.6971C111.918 83.7961 123.096 94.0291 142.13 133.507L64.309 160.035L19.002 86.7221Z" fill="#88BAFF"/>
<path d="M77.6775 130.96C44.0065 123.511 65.5575 92.9964 75.3985 110.046C82.1015 90.3444 107.693 115.238 77.6775 130.96Z" fill="#FA6C3A"/>
<path d="M105.42 82.918C108.643 97.838 111.867 112.758 115.091 127.677" stroke="#36241A" stroke-miterlimit="10" stroke-linecap="round" stroke-linejoin="round"/>
<path d="M73.5548 72.4415C71.1098 74.6085 67.7678 75.7305 64.5098 75.4775C61.2528 75.2245 57.6768 73.8315 55.5958 71.3125C52.5018 72.4235 49.5188 74.3025 46.4238 75.4145C50.4388 82.1255 54.4538 88.8365 58.4688 95.5465C61.4228 90.7045 64.4198 86.5345 67.3738 81.6925C72.0028 85.4515 76.5528 89.4125 81.1818 93.1715L84.0788 76.0945C80.4678 75.0175 77.1648 73.5175 73.5548 72.4415Z" fill="white"/>
<path d="M136.543 109.443C136.573 97.9545 141.082 86.3975 149.384 78.4575C152.53 75.4485 156.223 73.0045 160.21 71.2445C168.544 67.5675 176.094 77.8835 170.178 84.8095C161.108 95.4295 149.538 103.825 136.543 109.443Z" fill="#419D4A"/>
<path d="M135.209 120.638C135.432 105.638 143.705 90.9945 156.439 83.0625" stroke="#36241A" stroke-miterlimit="10" stroke-linecap="round" stroke-linejoin="round"/>
<path d="M135.77 110.965C129.308 100.852 122.845 90.7403 116.383 80.6273C111.493 72.9743 106.583 65.2833 102.949 56.9603C101.933 54.6333 101.018 52.2483 100.24 49.8233C97.4165 41.0263 107.726 34.0583 114.813 39.9863C119.629 44.0143 123.739 48.9173 126.925 54.4003C131.832 62.8413 134.288 72.5253 135.326 82.2333C136.362 91.9403 136.097 101.207 135.77 110.965Z" fill="#419D4A"/>
<path d="M120.625 62.6348C128.279 78.2178 133.404 95.0388 135.741 112.242" stroke="#36241A" stroke-miterlimit="10" stroke-linecap="round" stroke-linejoin="round"/>
<path d="M137.752 92.9214C139.109 78.4804 140.649 63.8284 146.054 50.3684C149.384 42.0764 154.402 34.2114 160.937 28.1974C165.699 23.8154 173.175 28.4264 171.349 34.6344C164.984 56.2764 153.2 77.0344 137.752 92.9214Z" fill="#74CF80"/>
<path d="M135.77 112C134.687 100.508 138.665 89.1817 143.058 78.5077C147.604 67.4627 152.663 56.6297 158.215 46.0547" stroke="#36241A" stroke-miterlimit="10" stroke-linecap="round" stroke-linejoin="round"/>
<path d="M136.887 86.0442C134.117 77.1782 131.348 68.3122 128.578 59.4452C125.403 49.2802 122.218 39.0752 120.477 28.5692C119.897 25.0682 119.481 21.5242 119.283 17.9732C118.724 7.95723 131.886 3.63423 137.207 12.1382C138.991 14.9892 140.453 18.0542 141.544 21.2892C145.055 31.6882 145.441 42.9392 144.187 53.8422C142.932 64.7472 139.722 75.4402 136.887 86.0442Z" fill="#74CF80"/>
<path d="M132.221 29.2285C135.516 50.9375 137.114 72.9035 136.997 94.8615" stroke="#36241A" stroke-miterlimit="10" stroke-linecap="round" stroke-linejoin="round"/>
<path d="M149.518 134.848C144.409 129.497 139.231 124.296 134.122 118.945C129.203 124.048 124.582 129.438 120.289 135.078C124.646 138.173 129.798 140.045 135.139 139.875C140.482 139.704 145.367 138.214 149.518 134.848Z" fill="#85412E"/>
<path d="M75.5618 75.529C75.5888 73.705 75.8648 72.075 75.8918 70.25C78.7948 69.132 81.2678 66.937 82.7218 64.187C84.1758 61.437 84.6278 58.171 84.0938 55.107C83.4298 51.297 82.7158 47.592 80.4028 44.491C77.2758 40.298 71.7068 38.137 66.5198 38.811C65.9478 41.333 63.2228 43.287 60.6468 43.068C60.9478 44.055 60.8368 45.161 60.3458 46.068C59.8548 46.976 58.8958 47.823 57.9058 48.111C58.8828 49.397 58.5248 51.482 57.1748 52.368C55.8248 53.254 53.5478 52.866 52.7578 51.459C49.7728 51.374 46.8118 53.138 45.4668 55.804C44.1208 58.47 44.4598 61.9 46.3018 64.251C48.1438 66.602 51.3918 67.753 54.3028 67.085C54.0758 69.397 53.8428 71.393 53.6158 73.705C56.3048 77.044 60.3618 79.461 64.6358 79.799C68.9088 80.135 72.3828 78.406 75.5618 75.529Z" fill="#FBA778"/>
<path d="M66.3746 53.8738C66.3746 53.3028 65.9116 52.8398 65.3406 52.8398C64.7696 52.8398 64.3066 53.3028 64.3066 53.8738C64.3066 54.4448 64.7696 54.9078 65.3406 54.9078C65.9116 54.9078 66.3746 54.4448 66.3746 53.8738Z" fill="#36241A"/>
<path d="M81.0465 50.8993C81.0465 50.3283 80.5835 49.8652 80.0125 49.8652C79.4415 49.8652 78.9785 50.3283 78.9785 50.8993C78.9785 51.4703 79.4415 51.9333 80.0125 51.9333C80.5835 51.9323 81.0465 51.4703 81.0465 50.8993Z" fill="#36241A"/>
<path d="M69.7252 57.6699C69.6912 58.2479 69.9952 58.8329 70.4872 59.1359C70.9792 59.4399 71.6392 59.4489 72.1402 59.1589C72.6402 58.8689 72.9612 58.2929 72.9432 57.7139L69.7252 57.6699Z" fill="white"/>
<path d="M62.2129 47.8307C62.4999 46.8707 63.3059 46.0837 64.2719 45.8197C65.2379 45.5547 66.3319 45.8217 67.0679 46.5017" stroke="#36241A" stroke-miterlimit="10" stroke-linecap="round" stroke-linejoin="round"/>
<path d="M75.7422 43.9135C76.5932 43.6295 77.4442 43.3455 78.2952 43.0625" stroke="#36241A" stroke-miterlimit="10" stroke-linecap="round" stroke-linejoin="round"/>
<path d="M73.2715 51.4082C73.9945 52.7492 74.7185 54.0902 75.4415 55.4312C74.8335 55.4722 73.9165 55.5292 73.3085 55.5702" stroke="#36241A" stroke-miterlimit="10" stroke-linecap="round" stroke-linejoin="round"/>
<path d="M48.3887 56.8867C50.0927 57.0737 51.7967 57.2597 53.5007 57.4467" stroke="#36241A" stroke-miterlimit="10" stroke-linecap="round" stroke-linejoin="round"/>
<path d="M76.0617 70.3141C71.5637 72.2651 66.2547 72.2561 61.7637 70.2891" stroke="#36241A" stroke-miterlimit="10" stroke-linecap="round" stroke-linejoin="round"/>
<path d="M54.0996 67.2491C54.5456 67.2061 54.9906 67.1631 55.4366 67.1191" stroke="#36241A" stroke-miterlimit="10" stroke-linecap="round" stroke-linejoin="round"/>
<path d="M164.121 117.854C162.757 116.738 160.405 116.513 159.27 117.861C159.045 117.201 158.322 116.812 157.625 116.779C156.929 116.746 156.253 117 155.613 117.279C153.026 118.405 150.602 120.155 148.358 121.866C143.803 125.338 138.911 128.587 134.357 132.059C132.596 131.914 131.128 131.327 129.367 131.182C131.492 127.593 133.383 122.98 135.983 119.719C137.044 118.388 137.181 116.028 136.12 114.697C129.986 117.872 123.357 121.177 117.38 124.637C113.892 126.656 111.324 130.199 110.49 134.142C106.357 135.12 101.642 136.267 97.5098 137.245L110.683 168.04C125.604 164.095 140.228 158.365 153.679 150.797C156.885 141.953 160.151 132.951 163.357 124.107C162.808 124.09 162.205 124.282 161.656 124.265C162.477 122.209 163.3 119.909 164.121 117.854Z" fill="#FBA778"/>
<path d="M161.568 124.398C158.446 131.185 155.325 137.972 152.203 144.76" stroke="#36241A" stroke-miterlimit="10" stroke-linecap="round" stroke-linejoin="round"/>
<path d="M158.975 117.43C153.752 124.243 148.529 131.057 143.305 137.87" stroke="#36241A" stroke-miterlimit="10" stroke-linecap="round" stroke-linejoin="round"/>
<path d="M163.372 118.988C158.214 126.844 153.056 134.7 147.898 142.557" stroke="#36241A" stroke-miterlimit="10" stroke-linecap="round" stroke-linejoin="round"/>
<path d="M130.096 130.883C129.326 130.92 128.556 130.957 127.785 130.994" stroke="#36241A" stroke-miterlimit="10" stroke-linecap="round" stroke-linejoin="round"/>
<path d="M106.226 130.459C89.8793 131.993 73.4493 133.732 57.1023 135.266C55.2603 123.151 51.8823 111.271 47.0773 99.9983C45.4653 96.2173 43.6323 92.4163 40.6803 89.5563C35.0933 84.1423 25.9223 83.1683 19.0013 86.7233C12.0803 90.2773 7.60935 97.8573 7.15535 105.624C6.00035 125.398 7.17135 144.924 12.1943 164.085C14.3563 172.332 20.6303 179.216 27.8313 183.781C35.0323 188.346 43.8633 190.278 52.3123 189.136C74.7473 186.105 96.6883 179.907 117.575 171.173L106.226 130.459Z" fill="#88BAFF"/>
<path d="M24.4316 84.7815C28.7926 83.9865 33.4256 84.7815 37.2716 86.9835C41.1186 89.1855 44.1496 92.7785 45.6726 96.9415C50.2926 109.571 54.6306 122.19 57.3496 135.36C74.0096 133.877 90.4327 132.344 107.093 130.861" stroke="#36241A" stroke-miterlimit="10" stroke-linecap="round" stroke-linejoin="round"/>
<path d="M89.5 133.404C92.562 148.32 95.623 163.236 98.685 178.152" stroke="#36241A" stroke-miterlimit="10" stroke-linecap="round" stroke-linejoin="round"/>
<path d="M91.6875 137.036C96.0635 136.593 100.439 136.15 104.815 135.707" stroke="#36241A" stroke-miterlimit="10" stroke-linecap="round" stroke-linejoin="round"/>
<path d="M92.041 140.918C96.722 140.245 101.403 139.572 106.083 138.9" stroke="#36241A" stroke-miterlimit="10" stroke-linecap="round" stroke-linejoin="round"/>
<path d="M95.502 151.636C100.179 151.054 104.856 150.472 109.533 149.889" stroke="#36241A" stroke-miterlimit="10" stroke-linecap="round" stroke-linejoin="round"/>
<path d="M96.9531 159.082C101.629 158.204 106.306 157.326 110.982 156.449" stroke="#36241A" stroke-miterlimit="10" stroke-linecap="round" stroke-linejoin="round"/>
<path d="M97.7168 163.439C102.395 162.389 107.072 161.339 111.75 160.289" stroke="#36241A" stroke-miterlimit="10" stroke-linecap="round" stroke-linejoin="round"/>
<path d="M100.479 174.225C105.214 172.504 109.95 170.783 114.685 169.062" stroke="#36241A" stroke-miterlimit="10" stroke-linecap="round" stroke-linejoin="round"/>
</svg>
