<svg width="1261" height="1024" viewBox="0 0 1261 1024" fill="none" xmlns="http://www.w3.org/2000/svg">
<g opacity="0.3" clip-path="url(#clip0_2531_20649)">
<rect width="1048.86" height="1703.36" transform="translate(392.844 -449.99) rotate(34.1884)" fill="white"/>
<path d="M73.7965 19.6788L392.844 -449.99L394.579 -448.811L391.389 -444.115L247.32 137.553L245.376 136.233L387.813 -438.852L75.5317 20.8576L73.7965 19.6788ZM563.16 -327.395L562.952 -327.537L564.423 -333.436L566.367 -332.116L563.16 -327.395Z" fill="#D5D9E2"/>
<path d="M247.32 137.554L566.367 -332.115L568.102 -330.936L564.912 -326.24L420.843 255.428L418.899 254.108L561.337 -320.977L249.055 138.733L247.32 137.554ZM736.684 -209.52L736.475 -209.662L737.947 -215.561L739.89 -214.241L736.684 -209.52Z" fill="#D5D9E2"/>
<path d="M420.841 255.429L739.889 -214.24L741.624 -213.061L738.433 -208.365L594.364 373.303L592.421 371.983L734.858 -203.102L422.577 256.608L420.841 255.429ZM910.205 -91.6453L909.997 -91.7868L911.468 -97.6858L913.412 -96.3656L910.205 -91.6453Z" fill="#D5D9E2"/>
<path d="M594.365 373.302L913.412 -96.3672L915.147 -95.1884L911.957 -90.4918L767.888 491.176L765.944 489.856L908.382 -85.2286L596.1 374.481L594.365 373.302ZM1083.73 26.2277L1083.52 26.0863L1084.99 20.1872L1086.94 21.5074L1083.73 26.2277Z" fill="#D5D9E2"/>
<path d="M767.888 491.177L1086.94 21.5078L1088.67 22.6866L1085.48 27.3832L941.411 609.051L939.468 607.731L1081.91 32.6464L769.623 492.356L767.888 491.177ZM1257.25 144.103L1257.04 143.961L1258.52 138.062L1260.46 139.382L1257.25 144.103Z" fill="#D5D9E2"/>
<path d="M-245.25 489.349L73.7969 19.6797L75.5321 20.8584L72.3416 25.5551L-71.7274 607.223L-73.6708 605.903L68.7664 30.8182L-243.515 490.527L-245.25 489.349ZM244.113 142.275L243.905 142.133L245.376 136.234L247.32 137.554L244.113 142.275Z" fill="#D5D9E2"/>
<path d="M-71.727 607.222L247.32 137.553L249.056 138.731L245.865 143.428L101.796 725.096L99.8526 723.776L242.29 148.691L-69.9917 608.401L-71.727 607.222ZM417.637 260.148L417.429 260.006L418.9 254.107L420.843 255.427L417.637 260.148Z" fill="#D5D9E2"/>
<path d="M101.795 725.099L420.842 255.43L422.577 256.608L419.387 261.305L275.318 842.973L273.374 841.653L415.811 266.568L103.53 726.277L101.795 725.099ZM591.158 378.025L590.95 377.883L592.421 371.984L594.365 373.304L591.158 378.025Z" fill="#D5D9E2"/>
<path d="M275.318 842.97L594.365 373.301L596.1 374.48L592.91 379.176L448.841 960.844L446.898 959.524L589.335 384.439L277.053 844.149L275.318 842.97ZM764.682 495.896L764.474 495.754L765.945 489.855L767.888 491.175L764.682 495.896Z" fill="#D5D9E2"/>
<path d="M448.841 960.845L767.889 491.176L769.624 492.355L766.433 497.051L622.364 1078.72L620.421 1077.4L762.858 502.314L450.577 962.024L448.841 960.845ZM938.205 613.771L937.997 613.629L939.468 607.73L941.412 609.05L938.205 613.771Z" fill="#D5D9E2"/>
<path d="M-390.774 1076.89L-71.7266 607.223L-69.9913 608.401L-73.1818 613.098L-217.251 1194.77L-219.194 1193.45L-76.7571 618.361L-389.039 1078.07L-390.774 1076.89ZM98.59 729.818L98.3817 729.676L99.853 723.777L101.796 725.097L98.59 729.818Z" fill="#D5D9E2"/>
<path d="M-217.252 1194.77L101.795 725.098L103.53 726.276L100.34 730.973L-43.7293 1312.64L-45.6728 1311.32L96.7644 736.236L-215.517 1195.95L-217.252 1194.77ZM272.111 847.693L271.903 847.551L273.374 841.652L275.318 842.972L272.111 847.693Z" fill="#D5D9E2"/>
<path d="M-43.7289 1312.64L275.318 842.973L277.054 844.151L273.863 848.848L129.794 1430.52L127.851 1429.2L270.288 854.111L-41.9937 1313.82L-43.7289 1312.64ZM445.635 965.568L445.427 965.426L446.898 959.527L448.841 960.847L445.635 965.568Z" fill="#D5D9E2"/>
<path d="M129.795 1430.52L448.842 960.848L450.577 962.026L447.387 966.723L303.318 1548.39L301.374 1547.07L443.811 971.986L131.53 1431.7L129.795 1430.52ZM619.158 1083.44L618.95 1083.3L620.421 1077.4L622.365 1078.72L619.158 1083.44Z" fill="#D5D9E2"/>
</g>
<defs>
<clipPath id="clip0_2531_20649">
<rect width="1048.86" height="1703.36" fill="white" transform="translate(392.844 -449.99) rotate(34.1884)"/>
</clipPath>
</defs>
</svg>
