<svg width="192" height="33" viewBox="0 0 192 33" fill="none" xmlns="http://www.w3.org/2000/svg">
<g clip-path="url(#clip0_2531_20667)">
<path d="M30.0294 14.6893C32.14 14.8882 34.2135 15.4567 36.0865 16.4571C41.5233 19.362 43.2667 24.2334 43.2667 30.6769V31.9756C43.2667 32.2241 43.0662 32.4292 42.8162 32.4292H33.5254C33.2786 32.4292 33.0749 32.2272 33.0749 31.9756V27.4769C33.0749 27.1756 32.862 26.9177 32.5658 26.8618L22.3585 24.9728C21.5995 24.833 20.8651 24.5814 20.1801 24.2303L0.5 14.0276C0.5 12.3996 2.03664 11.2191 3.59488 11.6509L20.0937 17.0226C20.0937 17.9701 20.6892 18.8152 21.5779 19.1259L28.9093 21.1919C29.0636 21.2354 29.2179 21.1173 29.2179 20.9558V20.6233C29.2179 20.2101 28.9402 19.8497 28.5452 19.7472L23.0744 18.3212C22.1827 18.0105 21.5841 17.1655 21.5841 16.2148C21.5841 14.9348 22.7011 13.9468 23.9631 14.1146L30.0294 14.6893Z" fill="#34D39E"/>
<path d="M34.0661 1.49728C30.6257 0.832427 26.0497 0.5 21.2515 0.5C16.4534 0.5 11.8743 0.832427 8.43695 1.49728C4.27754 2.3299 2.43851 3.16252 2.35828 4.66C2.35828 6.24136 4.19731 7.23864 8.43695 7.98738C11.8743 8.56835 16.4534 8.90388 21.2515 8.90388C26.0497 8.90388 30.6287 8.57146 34.0661 7.98738C38.3058 7.23864 40.1448 6.24136 40.1448 4.66C40.0646 3.16252 38.2225 2.3299 34.0661 1.49728ZM37.5189 4.66932C37.0777 4.99243 35.5071 5.37146 33.0232 5.81262C29.8234 6.31282 25.5652 6.64524 21.2485 6.64524C16.9317 6.64524 12.6612 6.38117 9.47372 5.81262C6.98054 5.36835 5.44699 5.01417 4.97797 4.66932C4.82061 4.55437 4.78975 4.34311 4.96872 4.26233C6.45907 3.59748 11.5935 2.1932 21.2485 2.1932C30.9034 2.1932 36.8 3.80563 37.5282 4.26233C37.6948 4.36485 37.6794 4.55126 37.5189 4.66932Z" fill="#34D39E"/>
<path d="M62.0065 14.6008V20.9511H72.0131V24.2287H62.0065V32.2163H58.1587V11.3511H73.2875V14.6008H62.0065Z" fill="#34D39E"/>
<path d="M78.9978 31.3842C77.7142 30.6883 76.7145 29.719 75.9924 28.4794C75.2704 27.2367 74.9125 25.8324 74.9125 24.2604C74.9125 22.6914 75.2735 21.2903 75.9924 20.0569C76.7114 18.8266 77.7142 17.8604 78.9978 17.1644C80.2815 16.4685 81.7225 16.1205 83.3208 16.1205C84.9377 16.1205 86.391 16.4685 87.6715 17.1644C88.9551 17.8604 89.9549 18.8235 90.6769 20.0569C91.3959 21.2903 91.7569 22.6914 91.7569 24.2604C91.7569 25.8293 91.3959 27.2367 90.6769 28.4794C89.9549 29.7221 88.9551 30.6914 87.6715 31.3842C86.3879 32.0802 84.9377 32.4281 83.3208 32.4281C81.7225 32.4281 80.2815 32.0802 78.9978 31.3842ZM86.6965 27.8673C87.5851 26.9539 88.0295 25.7516 88.0295 24.2604C88.0295 22.7691 87.5851 21.5668 86.6965 20.6534C85.8078 19.74 84.6846 19.2833 83.3208 19.2833C81.957 19.2833 80.84 19.74 79.9605 20.6534C79.0811 21.5668 78.643 22.7691 78.643 24.2604C78.643 25.7516 79.0811 26.9539 79.9605 27.8673C80.84 28.7807 81.96 29.2374 83.3208 29.2374C84.6816 29.2374 85.8078 28.7807 86.6965 27.8673Z" fill="#34D39E"/>
<path d="M98.0966 31.3842C96.813 30.6883 95.8133 29.719 95.0912 28.4794C94.3692 27.2367 94.0113 25.8324 94.0113 24.2604C94.0113 22.6914 94.3723 21.2903 95.0912 20.0569C95.8102 18.8266 96.813 17.8604 98.0966 17.1644C99.3803 16.4685 100.821 16.1205 102.42 16.1205C104.036 16.1205 105.49 16.4685 106.77 17.1644C108.054 17.8604 109.054 18.8235 109.776 20.0569C110.495 21.2903 110.856 22.6914 110.856 24.2604C110.856 25.8293 110.495 27.2367 109.776 28.4794C109.054 29.7221 108.054 30.6914 106.77 31.3842C105.487 32.0802 104.036 32.4281 102.42 32.4281C100.821 32.4281 99.3803 32.0802 98.0966 31.3842ZM105.795 27.8673C106.684 26.9539 107.128 25.7516 107.128 24.2604C107.128 22.7691 106.684 21.5668 105.795 20.6534C104.907 19.74 103.783 19.2833 102.42 19.2833C101.059 19.2833 99.9388 19.74 99.0594 20.6534C98.18 21.5668 97.7418 22.7691 97.7418 24.2604C97.7418 25.7516 98.18 26.9539 99.0594 27.8673C99.9388 28.7807 101.059 29.2374 102.42 29.2374C103.78 29.2374 104.907 28.7807 105.795 27.8673Z" fill="#34D39E"/>
<path d="M129.893 10.0994V32.2167H126.342V30.16C125.731 30.9149 124.975 31.4804 124.077 31.8594C123.179 32.2353 122.185 32.4248 121.102 32.4248C119.581 32.4248 118.214 32.0862 117.001 31.412C115.789 30.7379 114.835 29.7779 114.144 28.5351C113.453 27.2924 113.107 25.8664 113.107 24.2571C113.107 22.6478 113.453 21.228 114.144 19.9946C114.835 18.7643 115.789 17.8074 117.001 17.1332C118.214 16.459 119.581 16.1204 121.102 16.1204C122.148 16.1204 123.105 16.3006 123.975 16.6579C124.842 17.0151 125.583 17.5526 126.197 18.2672V10.0994H129.893ZM123.941 28.6252C124.651 28.2182 125.215 27.6373 125.629 26.8823C126.042 26.1274 126.252 25.2544 126.252 24.2602C126.252 23.266 126.045 22.393 125.629 21.638C125.215 20.8831 124.651 20.3021 123.941 19.8951C123.231 19.4881 122.432 19.2831 121.544 19.2831C120.655 19.2831 119.856 19.4881 119.146 19.8951C118.436 20.3021 117.872 20.8831 117.458 21.638C117.045 22.393 116.838 23.2691 116.838 24.2602C116.838 25.2544 117.045 26.1274 117.458 26.8823C117.872 27.6373 118.436 28.2182 119.146 28.6252C119.856 29.0322 120.655 29.2373 121.544 29.2373C122.432 29.2373 123.231 29.0322 123.941 28.6252Z" fill="#34D39E"/>
<path d="M149.552 25.4506H137.147C137.363 26.6219 137.931 27.5508 138.851 28.2374C139.767 28.924 140.909 29.2658 142.27 29.2658C144.007 29.2658 145.438 28.691 146.562 27.5384L148.546 29.8343C147.836 30.6887 146.938 31.3349 145.852 31.773C144.766 32.211 143.544 32.4285 142.18 32.4285C140.443 32.4285 138.912 32.0805 137.592 31.3846C136.268 30.6887 135.247 29.7194 134.528 28.4797C133.806 27.237 133.448 25.8328 133.448 24.2607C133.448 22.7104 133.8 21.3155 134.5 20.0728C135.2 18.83 136.172 17.8638 137.416 17.1679C138.659 16.472 140.06 16.124 141.618 16.124C143.158 16.124 144.534 16.4658 145.747 17.1524C146.96 17.839 147.907 18.8021 148.589 20.0448C149.271 21.2875 149.61 22.7229 149.61 24.3539C149.61 24.6087 149.589 24.9753 149.552 25.4506ZM138.61 20.1597C137.789 20.865 137.292 21.8032 137.113 22.9776H146.083C145.926 21.825 145.442 20.8898 144.633 20.1753C143.825 19.4607 142.816 19.1034 141.612 19.1034C140.431 19.1034 139.431 19.4545 138.61 20.1597Z" fill="#34D39E"/>
<path d="M164.1 17.8039C165.334 18.9254 165.951 20.6217 165.951 22.8866V32.2163H162.459V30.2776C162.005 30.9736 161.357 31.5048 160.521 31.8714C159.681 32.238 158.669 32.4213 157.488 32.4213C156.306 32.4213 155.266 32.2163 154.38 31.8093C153.492 31.4023 152.807 30.8369 152.322 30.1099C151.838 29.386 151.597 28.5658 151.597 27.6493C151.597 26.2171 152.125 25.0706 153.18 24.207C154.235 23.3433 155.899 22.9114 158.17 22.9114H162.255V22.6722C162.255 21.56 161.925 20.7056 161.264 20.1091C160.604 19.5126 159.62 19.2143 158.318 19.2143C157.429 19.2143 156.556 19.3541 155.698 19.6306C154.84 19.9103 154.115 20.2955 153.523 20.7926L152.072 18.0804C152.902 17.4435 153.899 16.9588 155.062 16.6202C156.226 16.2815 157.46 16.1138 158.762 16.1138C161.085 16.12 162.866 16.6823 164.1 17.8039ZM160.728 29.0722C161.446 28.6435 161.956 28.0345 162.252 27.2392V25.3906H158.432C156.3 25.3906 155.235 26.0959 155.235 27.5064C155.235 28.1805 155.5 28.718 156.034 29.1157C156.568 29.5134 157.309 29.7122 158.256 29.7122C159.182 29.7122 160.006 29.5009 160.728 29.0722Z" fill="#34D39E"/>
<path d="M170.689 10.0994H174.389V32.2167H170.689V10.0994Z" fill="#34D39E"/>
<path d="M180.367 31.9186C179.142 31.58 178.167 31.1543 177.436 30.6355L178.858 27.8021C179.568 28.2805 180.423 28.6627 181.419 28.9485C182.416 29.2374 183.397 29.3804 184.366 29.3804C186.575 29.3804 187.683 28.7932 187.683 27.6219C187.683 27.0658 187.402 26.6774 186.841 26.46C186.279 26.2425 185.375 26.0312 184.132 25.8355C182.829 25.6367 181.768 25.4068 180.95 25.1489C180.133 24.891 179.42 24.4374 178.818 23.7943C178.216 23.1481 177.914 22.2503 177.914 21.0976C177.914 19.5877 178.54 18.3792 179.793 17.4751C181.046 16.571 182.74 16.1205 184.869 16.1205C185.955 16.1205 187.041 16.2448 188.124 16.4934C189.211 16.7419 190.099 17.0743 190.79 17.4906L189.368 20.324C188.026 19.5287 186.517 19.131 184.838 19.131C183.752 19.131 182.928 19.2957 182.367 19.6219C181.805 19.9481 181.524 20.3831 181.524 20.9174C181.524 21.5139 181.824 21.9365 182.428 22.185C183.03 22.4336 183.962 22.6666 185.227 22.884C186.489 23.0829 187.526 23.3128 188.334 23.5706C189.143 23.8285 189.84 24.2666 190.42 24.8817C191.003 25.4969 191.293 26.373 191.293 27.5038C191.293 28.9951 190.652 30.1881 189.368 31.0798C188.084 31.9745 186.338 32.4219 184.128 32.4219C182.845 32.4281 181.592 32.2572 180.367 31.9186Z" fill="#34D39E"/>
</g>
<defs>
<clipPath id="clip0_2531_20667">
<rect width="191" height="32" fill="white" transform="translate(0.5 0.5)"/>
</clipPath>
</defs>
</svg>
