<svg width="191" height="71" viewBox="0 0 191 71" fill="none" xmlns="http://www.w3.org/2000/svg">
<path d="M29.7169 14.8788C31.8275 15.0776 33.901 15.6462 35.774 16.6466C41.2108 19.5514 42.9542 24.4229 42.9542 30.8664V32.165C42.9542 32.4136 42.7537 32.6186 42.5037 32.6186H33.2129C32.9661 32.6186 32.7624 32.4167 32.7624 32.165V27.6664C32.7624 27.365 32.5495 27.1072 32.2533 27.0512L22.046 25.1623C21.287 25.0225 20.5526 24.7708 19.8676 24.4198L0.1875 14.2171C0.1875 12.5891 1.72414 11.4085 3.28238 11.8404L19.7812 17.212C19.7812 18.1596 20.3767 19.0046 21.2654 19.3153L28.5968 21.3813C28.7511 21.4248 28.9054 21.3068 28.9054 21.1452V20.8128C28.9054 20.3996 28.6277 20.0392 28.2327 19.9367L22.7619 18.5106C21.8702 18.2 21.2716 17.3549 21.2716 16.4042C21.2716 15.1242 22.3886 14.1363 23.6506 14.304L29.7169 14.8788Z" fill="#06B6D4"/>
<path d="M33.7536 1.68673C30.3132 1.02188 25.7372 0.689453 20.939 0.689453C16.1409 0.689453 11.5618 1.02188 8.12445 1.68673C3.96504 2.51936 2.12601 3.35198 2.04578 4.84945C2.04578 6.43081 3.88481 7.42809 8.12445 8.17683C11.5618 8.7578 16.1409 9.09334 20.939 9.09334C25.7372 9.09334 30.3162 8.76091 33.7536 8.17683C37.9933 7.42809 39.8323 6.43081 39.8323 4.84945C39.7521 3.35198 37.91 2.51936 33.7536 1.68673ZM37.2064 4.85877C36.7652 5.18188 35.1946 5.56091 32.7107 6.00207C29.5109 6.50227 25.2527 6.8347 20.936 6.8347C16.6192 6.8347 12.3487 6.57062 9.16122 6.00207C6.66804 5.5578 5.13449 5.20363 4.66547 4.85877C4.50811 4.74382 4.47725 4.53256 4.65621 4.45178C6.14657 3.78693 11.281 2.38266 20.936 2.38266C30.5909 2.38266 36.4875 3.99508 37.2157 4.45178C37.3823 4.55431 37.3669 4.74072 37.2064 4.85877Z" fill="#06B6D4"/>
<path d="M61.694 14.7902V21.1405H71.7006V24.4182H61.694V32.4058H57.8462V11.5405H72.975V14.7902H61.694Z" fill="#06B6D4"/>
<path d="M78.6853 31.5737C77.4017 30.8778 76.402 29.9084 75.6799 28.6688C74.9579 27.4261 74.6 26.0218 74.6 24.4498C74.6 22.8809 74.961 21.4797 75.6799 20.2463C76.3989 19.016 77.4017 18.0498 78.6853 17.3539C79.9689 16.658 81.41 16.31 83.0083 16.31C84.6252 16.31 86.0785 16.658 87.359 17.3539C88.6426 18.0498 89.6424 19.0129 90.3644 20.2463C91.0834 21.4797 91.4444 22.8809 91.4444 24.4498C91.4444 26.0187 91.0834 27.4261 90.3644 28.6688C89.6424 29.9115 88.6426 30.8809 87.359 31.5737C86.0754 32.2696 84.6252 32.6176 83.0083 32.6176C81.41 32.6176 79.9689 32.2696 78.6853 31.5737ZM86.384 28.0568C87.2726 27.1434 87.717 25.9411 87.717 24.4498C87.717 22.9585 87.2726 21.7562 86.384 20.8428C85.4953 19.9294 84.3721 19.4727 83.0083 19.4727C81.6445 19.4727 80.5275 19.9294 79.648 20.8428C78.7686 21.7562 78.3305 22.9585 78.3305 24.4498C78.3305 25.9411 78.7686 27.1434 79.648 28.0568C80.5275 28.9702 81.6475 29.4269 83.0083 29.4269C84.3691 29.4269 85.4953 28.9702 86.384 28.0568Z" fill="#06B6D4"/>
<path d="M97.7841 31.5737C96.5005 30.8778 95.5008 29.9084 94.7787 28.6688C94.0567 27.4261 93.6988 26.0218 93.6988 24.4498C93.6988 22.8809 94.0598 21.4797 94.7787 20.2463C95.4977 19.016 96.5005 18.0498 97.7841 17.3539C99.0678 16.658 100.509 16.31 102.107 16.31C103.724 16.31 105.177 16.658 106.458 17.3539C107.741 18.0498 108.741 19.0129 109.463 20.2463C110.182 21.4797 110.543 22.8809 110.543 24.4498C110.543 26.0187 110.182 27.4261 109.463 28.6688C108.741 29.9115 107.741 30.8809 106.458 31.5737C105.174 32.2696 103.724 32.6176 102.107 32.6176C100.509 32.6176 99.0678 32.2696 97.7841 31.5737ZM105.483 28.0568C106.371 27.1434 106.816 25.9411 106.816 24.4498C106.816 22.9585 106.371 21.7562 105.483 20.8428C104.594 19.9294 103.471 19.4727 102.107 19.4727C100.746 19.4727 99.6263 19.9294 98.7469 20.8428C97.8675 21.7562 97.4293 22.9585 97.4293 24.4498C97.4293 25.9411 97.8675 27.1434 98.7469 28.0568C99.6263 28.9702 100.746 29.4269 102.107 29.4269C103.468 29.4269 104.594 28.9702 105.483 28.0568Z" fill="#06B6D4"/>
<path d="M129.581 10.2889V32.4061H126.029V30.3494C125.418 31.1044 124.662 31.6698 123.764 32.0489C122.866 32.4248 121.873 32.6143 120.79 32.6143C119.269 32.6143 117.902 32.2757 116.689 31.6015C115.476 30.9273 114.523 29.9673 113.832 28.7246C113.141 27.4819 112.795 26.0559 112.795 24.4465C112.795 22.8372 113.141 21.4174 113.832 20.184C114.523 18.9537 115.476 17.9968 116.689 17.3226C117.902 16.6485 119.269 16.3098 120.79 16.3098C121.836 16.3098 122.792 16.49 123.662 16.8473C124.53 17.2046 125.27 17.7421 125.884 18.4566V10.2889H129.581ZM123.629 28.8147C124.338 28.4077 124.903 27.8267 125.316 27.0718C125.73 26.3168 125.94 25.4438 125.94 24.4496C125.94 23.4555 125.733 22.5825 125.316 21.8275C124.903 21.0725 124.338 20.4916 123.629 20.0846C122.919 19.6776 122.12 19.4725 121.231 19.4725C120.342 19.4725 119.543 19.6776 118.833 20.0846C118.124 20.4916 117.559 21.0725 117.146 21.8275C116.732 22.5825 116.525 23.4586 116.525 24.4496C116.525 25.4438 116.732 26.3168 117.146 27.0718C117.559 27.8267 118.124 28.4077 118.833 28.8147C119.543 29.2217 120.342 29.4267 121.231 29.4267C122.12 29.4267 122.919 29.2217 123.629 28.8147Z" fill="#06B6D4"/>
<path d="M149.239 25.6401H136.835C137.051 26.8113 137.619 27.7403 138.538 28.4269C139.455 29.1135 140.596 29.4552 141.957 29.4552C143.694 29.4552 145.126 28.8805 146.249 27.7278L148.233 30.0238C147.524 30.8781 146.626 31.5243 145.539 31.9624C144.453 32.4005 143.231 32.6179 141.868 32.6179C140.13 32.6179 138.6 32.27 137.279 31.5741C135.956 30.8781 134.934 29.9088 134.215 28.6692C133.493 27.4265 133.135 26.0222 133.135 24.4502C133.135 22.8999 133.487 21.5049 134.187 20.2622C134.888 19.0195 135.86 18.0533 137.103 17.3574C138.347 16.6614 139.748 16.3135 141.306 16.3135C142.846 16.3135 144.222 16.6552 145.435 17.3418C146.647 18.0284 147.594 18.9915 148.276 20.2342C148.958 21.477 149.298 22.9123 149.298 24.5434C149.298 24.7981 149.276 25.1647 149.239 25.6401ZM138.298 20.3492C137.477 21.0544 136.98 21.9927 136.801 23.1671H145.771C145.614 22.0144 145.129 21.0793 144.321 20.3647C143.512 19.6502 142.503 19.2929 141.3 19.2929C140.118 19.2929 139.118 19.644 138.298 20.3492Z" fill="#06B6D4"/>
<path d="M163.788 17.9933C165.022 19.1149 165.639 20.8112 165.639 23.076V32.4057H162.146V30.4671C161.692 31.163 161.044 31.6943 160.208 32.0609C159.369 32.4275 158.357 32.6108 157.175 32.6108C155.993 32.6108 154.953 32.4057 154.068 31.9987C153.179 31.5917 152.494 31.0263 152.01 30.2993C151.525 29.5754 151.285 28.7552 151.285 27.8387C151.285 26.4065 151.812 25.2601 152.868 24.3964C153.923 23.5327 155.586 23.1009 157.857 23.1009H161.942V22.8617C161.942 21.7494 161.612 20.8951 160.952 20.2985C160.292 19.702 159.307 19.4038 158.005 19.4038C157.117 19.4038 156.243 19.5436 155.385 19.8201C154.528 20.0997 153.803 20.485 153.21 20.982L151.76 18.2698C152.59 17.6329 153.587 17.1483 154.75 16.8096C155.913 16.471 157.147 16.3032 158.449 16.3032C160.773 16.3094 162.553 16.8718 163.788 17.9933ZM160.415 29.2617C161.134 28.8329 161.643 28.224 161.939 27.4286V25.5801H158.119C155.987 25.5801 154.923 26.2853 154.923 27.6958C154.923 28.37 155.188 28.9075 155.722 29.3051C156.256 29.7028 156.996 29.9017 157.943 29.9017C158.869 29.9017 159.693 29.6904 160.415 29.2617Z" fill="#06B6D4"/>
<path d="M170.376 10.2889H174.076V32.4061H170.376V10.2889Z" fill="#06B6D4"/>
<path d="M180.055 32.1081C178.83 31.7694 177.855 31.3438 177.123 30.8249L178.546 27.9916C179.255 28.47 180.11 28.8521 181.107 29.138C182.103 29.4269 183.085 29.5698 184.054 29.5698C186.263 29.5698 187.371 28.9826 187.371 27.8114C187.371 27.2552 187.09 26.8669 186.528 26.6494C185.967 26.4319 185.063 26.2207 183.819 26.0249C182.517 25.8261 181.455 25.5962 180.638 25.3383C179.82 25.0805 179.107 24.6269 178.506 23.9838C177.904 23.3376 177.602 22.4397 177.602 21.2871C177.602 19.7772 178.228 18.5686 179.481 17.6646C180.733 16.7605 182.427 16.31 184.557 16.31C185.643 16.31 186.729 16.4343 187.812 16.6828C188.898 16.9314 189.787 17.2638 190.478 17.6801L189.055 20.5135C187.713 19.7182 186.204 19.3205 184.526 19.3205C183.44 19.3205 182.616 19.4851 182.054 19.8114C181.493 20.1376 181.212 20.5725 181.212 21.1069C181.212 21.7034 181.511 22.1259 182.116 22.3745C182.718 22.623 183.649 22.856 184.914 23.0735C186.176 23.2723 187.213 23.5022 188.022 23.7601C188.83 24.018 189.527 24.456 190.108 25.0712C190.691 25.6863 190.981 26.5624 190.981 27.6933C190.981 29.1846 190.339 30.3776 189.055 31.2692C187.772 32.164 186.025 32.6114 183.816 32.6114C182.532 32.6176 181.28 32.4467 180.055 32.1081Z" fill="#06B6D4"/>
<path d="M151.721 48.0347C151.721 45.749 150.766 43.775 148.855 42.1126C146.626 40.4503 144.292 39.6191 141.85 39.6191H141.086C139.303 39.6191 137.244 40.0555 134.931 40.949C133.614 41.4893 132.277 42.2581 130.897 43.2347C130.324 43.5464 129.242 44.523 127.671 46.1646C126.419 47.7438 125.591 49.0321 125.188 50.0711V50.175C125.188 50.2997 125.23 50.4243 125.294 50.549C125.93 51.3178 126.588 51.7127 127.268 51.7127H127.459C127.65 51.7127 127.82 51.6295 127.968 51.4841C128.371 50.6321 128.881 49.7802 129.497 48.8659C130.261 47.7646 131.407 46.5802 132.956 45.3334C136.416 42.8607 139.707 41.6139 142.869 41.6139H143.166C144.143 41.6139 144.992 41.7802 145.756 42.0919C148.049 43.0477 149.174 44.814 149.174 47.4114V47.5776C149.174 48.762 148.961 50.0919 148.516 51.588C147.794 54.0607 146.032 57.0737 143.273 60.6062C138.815 65.9049 135.058 68.5438 132.022 68.5438C131.81 68.5438 131.513 68.523 131.11 68.4815C130.728 68.4815 130.473 67.8373 130.388 66.5282C130.388 65.3646 130.813 63.9516 131.683 62.3308C132.405 61.0217 133.19 59.8581 134.081 58.8191C133.466 61.5828 133.169 63.0581 133.169 63.2243V63.2867C133.339 63.7646 133.699 63.9932 134.273 63.9932H134.485C134.824 63.9932 135.1 63.8477 135.313 63.5776C136.204 60.4399 137.074 57.4685 137.945 54.7049C137.945 54.601 138.454 54.1023 139.473 53.188C141.235 51.7127 142.848 50.5282 144.313 49.6139C145.353 49.1152 145.883 48.8243 145.905 48.7412V48.5542C145.692 47.9932 145.332 47.7023 144.865 47.7023C143.782 47.8477 141.808 49.0737 138.964 51.401C139.961 48.1802 140.449 46.5386 140.449 46.4555L140.407 46.2269C139.94 45.562 139.24 45.2088 138.348 45.2088H138.136C137.923 45.2088 137.732 45.3126 137.52 45.4997C136.968 47.3075 136.225 49.988 135.291 53.5412C135.079 54.7672 134.888 55.3698 134.718 55.3698C130.239 60.2529 127.989 64.0139 127.989 66.6529V66.7984C127.989 67.2971 128.096 67.7542 128.329 68.1698C129.284 69.6451 130.664 70.3724 132.447 70.3724H132.744C134.676 70.3724 136.926 69.4581 139.537 67.6088C140.428 67.0685 141.872 65.801 143.867 63.8062C145.862 61.6659 147.391 59.775 148.431 58.1127C150.617 54.4763 151.7 51.3178 151.7 48.6373V48.0347H151.721Z" fill="#23272E"/>
<path d="M180.568 61.5206C180.377 61.3543 180.271 60.9803 180.271 60.3777V60.2738C180.271 57.6349 181.035 53.7284 182.542 48.5543C184.261 48.3465 185.62 48.2426 186.66 48.2426H187C187.445 48.2426 187.891 48.2842 188.294 48.3673C188.655 48.492 188.868 48.5751 188.91 48.5751H188.974C189.271 48.5751 189.568 48.492 189.908 48.3258C190.268 48.1388 190.438 47.9517 190.438 47.8063V47.7439C190.438 47.7232 190.438 47.6816 190.417 47.6401C189.61 47.0582 187.997 46.7673 185.577 46.7673C184.516 46.7881 183.667 46.8297 183.073 46.8712H183.051C183.391 45.853 183.582 45.3336 183.582 45.3128L183.54 45.1465C183.221 44.8141 182.839 44.6271 182.351 44.6271H182.181C181.905 44.6271 181.693 44.6894 181.544 44.8349C181.502 44.8349 181.247 45.5621 180.78 47.0375C180.78 47.1206 180.632 47.1413 180.334 47.1413C177.745 47.5154 176.068 47.8478 175.282 48.1388C174.837 48.2426 174.624 48.3465 174.624 48.4712V48.492C174.624 48.5751 174.646 48.679 174.709 48.8245C175.176 49.4894 175.601 49.8426 175.962 49.8426C177.044 49.5102 178.466 49.1985 180.207 48.9284H180.228C179.443 51.6297 178.912 53.9154 178.594 55.7855C178.36 56.2011 177.978 56.9284 177.426 57.9465C176.874 58.944 176.365 59.6504 175.898 60.066H175.728C175.643 59.7543 175.601 59.4427 175.601 59.1517V58.9647C175.601 57.4063 176.089 55.3907 177.087 52.8764V52.8556C177.087 52.5024 176.683 52.2738 175.877 52.1491H175.58C175.113 52.1491 174.773 52.3985 174.518 52.8972C174.518 52.918 174.518 52.9388 174.497 52.9388C173.945 52.5232 173.415 52.3154 172.863 52.3154C171.716 52.3154 170.74 52.9388 169.955 54.1647C169.764 54.4972 169.615 54.8089 169.466 55.1206C169.445 55.1414 169.424 55.1414 169.403 55.1621C168.787 55.9517 167.789 57.344 166.431 59.318C166.155 59.692 165.964 59.8998 165.815 59.9829C165.815 59.9829 165.794 59.9621 165.794 59.9414C165.9 59.0894 166.07 58.1336 166.325 57.1362C166.94 54.7465 167.259 53.3751 167.259 53.0427C167.259 52.8764 167.216 52.7517 167.153 52.6686C166.877 52.3985 166.537 52.2738 166.134 52.2738H165.964C165.306 52.2738 164.563 52.7102 163.735 53.5829C163.056 54.4141 162.462 55.2245 161.973 56.0349H161.952C162.037 55.6401 162.228 54.892 162.546 53.8115V53.7491L162.504 53.6452C162.207 53.292 161.782 53.105 161.209 53.105C160.848 53.105 160.594 53.1881 160.445 53.3751C160.296 53.7907 160.105 54.6011 159.851 55.8063C159.829 55.8478 159.787 55.8894 159.766 55.931C159.426 56.2634 159.193 56.4712 159.065 56.5336C158.747 56.7621 158.216 57.0323 157.473 57.3232H157.452C157.686 56.5128 157.792 55.8271 157.792 55.2245V55.1621C157.792 54.6219 157.707 54.1647 157.516 53.7699C157.07 52.918 156.306 52.5024 155.202 52.5024H155.032C154.799 52.5024 154.523 52.544 154.226 52.6271C153.483 52.918 152.91 53.4167 152.485 54.1232C152.188 54.7258 152.06 55.2245 152.06 55.6608C151.551 56.3465 151.296 57.1154 151.296 57.9673V58.1751C151.296 58.8193 151.487 59.4634 151.848 60.1076C152.294 60.7102 152.825 61.0219 153.44 61.0219H153.61C154.417 61.0219 155.244 60.6063 156.072 59.7959C156.518 59.2972 156.858 58.8401 157.07 58.4037C157.07 58.2998 157.176 58.2375 157.367 58.1959C158.11 57.9466 158.768 57.6349 159.362 57.2401C159.426 57.1985 159.49 57.1569 159.553 57.1154C159.299 58.279 159.129 59.2764 159.023 60.0868V60.253C159.023 60.2946 159.023 60.3777 159.044 60.5024C159.256 60.9388 159.681 61.1673 160.296 61.1673C160.424 61.1673 160.551 61.1466 160.678 61.0842C160.763 61.0219 160.976 60.6271 161.358 59.879C162.334 58.1959 163.48 56.4297 164.796 54.5595H164.818V54.5803C164.245 56.5543 163.969 57.9881 163.969 58.8608V59.1933C163.969 59.6297 164.054 60.0452 164.223 60.4193C164.542 60.9595 164.945 61.2297 165.391 61.2297H165.518C165.858 61.2297 166.282 60.9388 166.771 60.3777C167.238 59.7543 167.853 58.9024 168.596 57.8011C168.575 58.0089 168.554 58.2167 168.554 58.4245V58.7154C168.554 59.0271 168.617 59.3595 168.766 59.692C169.169 60.4816 169.891 60.8764 170.931 60.8764C171.504 60.8764 172.289 60.1699 173.287 58.7777H173.308V59.0063C173.308 59.2556 173.351 59.5258 173.415 59.8167C173.733 60.8556 174.242 61.3543 174.943 61.3543H175.113C175.983 61.3543 177.023 60.3154 178.254 58.2582C178.233 58.5907 178.212 58.9024 178.212 59.1725C178.212 59.9829 178.318 60.6894 178.509 61.292C178.827 62.0816 179.358 62.4764 180.101 62.4764H180.271C180.716 62.4764 180.95 62.331 181.014 62.0608C181.035 61.8323 180.886 61.666 180.568 61.5206ZM154.035 59.8375C153.95 59.8375 153.886 59.8167 153.801 59.7543C153.546 59.3803 153.419 58.9024 153.419 58.279C153.419 58.1336 153.44 58.0297 153.44 57.9881H153.461L153.695 58.1128C154.077 58.3206 154.544 58.4452 155.138 58.5284C154.671 59.3803 154.311 59.8375 154.035 59.8375ZM156.072 55.0167C156.072 55.744 155.881 56.6167 155.499 57.6556C154.693 57.6556 154.141 57.2816 153.865 56.5336C153.928 56.4089 154.035 56.2634 154.204 56.0764C154.459 55.931 154.586 55.7855 154.586 55.6608V55.6401C154.586 55.4323 154.374 55.2453 153.928 55.079C153.928 55.0375 153.95 54.9543 153.971 54.8504C154.077 54.6011 154.247 54.331 154.459 54.0608C154.905 53.5829 155.266 53.3336 155.542 53.3336C155.584 53.3543 155.627 53.3751 155.669 53.3959C155.924 53.7907 156.051 54.2478 156.051 54.7881V55.0167H156.072ZM172.289 58.1959C171.95 58.8401 171.568 59.2764 171.122 59.5258C170.931 59.5258 170.825 59.3388 170.825 58.9647V58.7569C170.825 58.5699 170.867 58.279 170.995 57.8842C171.95 55.0582 172.735 53.6452 173.351 53.6452C173.669 53.6452 173.924 54.1439 174.073 55.1621C173.351 56.5128 172.756 57.531 172.289 58.1959Z" fill="#23272E"/>
<path d="M190.778 54.9958H190.714C190.459 54.9958 190.184 55.1412 189.908 55.4114C189.61 55.8685 189.207 56.4296 188.676 57.0945C187.021 59.0893 185.811 60.0867 185.047 60.0867C184.962 60.0867 184.877 60.0659 184.75 60.0244C184.367 59.8166 184.176 59.3179 184.176 58.5283V58.0919C184.389 58.0919 184.601 58.0503 184.834 58.0088C185.217 57.9257 185.577 57.801 185.917 57.6763C186.342 57.4893 186.724 57.2399 187.127 56.8867C187.955 56.0971 188.379 55.1828 188.379 54.1231C188.379 53.6451 188.273 53.2503 188.04 52.9386C187.594 52.4815 187.063 52.2529 186.469 52.2529H186.299C185.28 52.2529 184.304 52.8347 183.391 54.0192C182.436 55.2867 181.969 56.6373 181.969 58.0088V58.2581C181.969 58.8399 182.096 59.3802 182.33 59.8789C182.945 60.8555 183.646 61.3335 184.452 61.3335H184.58C185.45 61.3335 186.49 60.7516 187.679 59.6088C188.231 59.0477 188.655 58.5906 188.931 58.2373C189.632 57.3438 190.205 56.5334 190.651 55.7854C190.863 55.4737 190.969 55.2451 190.969 55.162V55.1412C191.011 55.0789 190.948 55.0166 190.778 54.9958ZM184.558 56.7205C185.386 54.8296 185.959 53.8737 186.278 53.8737H186.299C186.469 53.8737 186.575 54.1646 186.617 54.7672C186.617 55.0789 186.554 55.4114 186.448 55.7438C186.129 56.5958 185.514 57.0322 184.537 57.0322H184.431L184.558 56.7205Z" fill="#23272E"/>
</svg>
