<svg width="191" height="50" viewBox="0 0 191 50" fill="none" xmlns="http://www.w3.org/2000/svg">
<path d="M29.5294 14.1893C31.64 14.3882 33.7135 14.9567 35.5865 15.9571C41.0233 18.862 42.7667 23.7334 42.7667 30.1769V31.4756C42.7667 31.7241 42.5662 31.9292 42.3162 31.9292H33.0254C32.7786 31.9292 32.5749 31.7272 32.5749 31.4756V26.9769C32.5749 26.6756 32.362 26.4177 32.0658 26.3618L21.8585 24.4728C21.0995 24.333 20.3651 24.0814 19.6801 23.7303L0 13.5276C0 11.8996 1.53664 10.7191 3.09488 11.1509L19.5937 16.5226C19.5937 17.4701 20.1892 18.3152 21.0779 18.6259L28.4093 20.6919C28.5636 20.7354 28.7179 20.6173 28.7179 20.4558V20.1233C28.7179 19.7101 28.4402 19.3497 28.0452 19.2472L22.5744 17.8212C21.6827 17.5105 21.0841 16.6655 21.0841 15.7148C21.0841 14.4348 22.2011 13.4468 23.4631 13.6146L29.5294 14.1893Z" fill="#34D39E"/>
<path d="M33.5661 0.997282C30.1257 0.332427 25.5497 0 20.7515 0C15.9534 0 11.3743 0.332427 7.93695 0.997282C3.77754 1.8299 1.93851 2.66252 1.85828 4.16C1.85828 5.74136 3.69731 6.73864 7.93695 7.48738C11.3743 8.06835 15.9534 8.40388 20.7515 8.40388C25.5497 8.40388 30.1287 8.07146 33.5661 7.48738C37.8058 6.73864 39.6448 5.74136 39.6448 4.16C39.5646 2.66252 37.7225 1.8299 33.5661 0.997282ZM37.0189 4.16932C36.5777 4.49243 35.0071 4.87146 32.5232 5.31262C29.3234 5.81282 25.0652 6.14524 20.7485 6.14524C16.4317 6.14524 12.1612 5.88117 8.97372 5.31262C6.48054 4.86835 4.94699 4.51417 4.47797 4.16932C4.32061 4.05437 4.28975 3.84311 4.46872 3.76233C5.95907 3.09748 11.0935 1.6932 20.7485 1.6932C30.4034 1.6932 36.3 3.30563 37.0282 3.76233C37.1948 3.86485 37.1794 4.05126 37.0189 4.16932Z" fill="#34D39E"/>
<path d="M61.5065 14.1008V20.4511H71.5131V23.7287H61.5065V31.7163H57.6587V10.8511H72.7875V14.1008H61.5065Z" fill="#34D39E"/>
<path d="M78.4978 30.8842C77.2142 30.1883 76.2145 29.219 75.4924 27.9794C74.7704 26.7367 74.4125 25.3324 74.4125 23.7604C74.4125 22.1914 74.7735 20.7903 75.4924 19.5569C76.2114 18.3266 77.2142 17.3604 78.4978 16.6644C79.7815 15.9685 81.2225 15.6205 82.8208 15.6205C84.4377 15.6205 85.891 15.9685 87.1715 16.6644C88.4551 17.3604 89.4549 18.3235 90.1769 19.5569C90.8959 20.7903 91.2569 22.1914 91.2569 23.7604C91.2569 25.3293 90.8959 26.7367 90.1769 27.9794C89.4549 29.2221 88.4551 30.1914 87.1715 30.8842C85.8879 31.5802 84.4377 31.9281 82.8208 31.9281C81.2225 31.9281 79.7815 31.5802 78.4978 30.8842ZM86.1965 27.3673C87.0851 26.4539 87.5295 25.2516 87.5295 23.7604C87.5295 22.2691 87.0851 21.0668 86.1965 20.1534C85.3078 19.24 84.1846 18.7833 82.8208 18.7833C81.457 18.7833 80.34 19.24 79.4605 20.1534C78.5811 21.0668 78.143 22.2691 78.143 23.7604C78.143 25.2516 78.5811 26.4539 79.4605 27.3673C80.34 28.2807 81.46 28.7374 82.8208 28.7374C84.1816 28.7374 85.3078 28.2807 86.1965 27.3673Z" fill="#34D39E"/>
<path d="M97.5966 30.8842C96.313 30.1883 95.3133 29.219 94.5912 27.9794C93.8692 26.7367 93.5113 25.3324 93.5113 23.7604C93.5113 22.1914 93.8723 20.7903 94.5912 19.5569C95.3102 18.3266 96.313 17.3604 97.5966 16.6644C98.8803 15.9685 100.321 15.6205 101.92 15.6205C103.536 15.6205 104.99 15.9685 106.27 16.6644C107.554 17.3604 108.554 18.3235 109.276 19.5569C109.995 20.7903 110.356 22.1914 110.356 23.7604C110.356 25.3293 109.995 26.7367 109.276 27.9794C108.554 29.2221 107.554 30.1914 106.27 30.8842C104.987 31.5802 103.536 31.9281 101.92 31.9281C100.321 31.9281 98.8803 31.5802 97.5966 30.8842ZM105.295 27.3673C106.184 26.4539 106.628 25.2516 106.628 23.7604C106.628 22.2691 106.184 21.0668 105.295 20.1534C104.407 19.24 103.283 18.7833 101.92 18.7833C100.559 18.7833 99.4388 19.24 98.5594 20.1534C97.68 21.0668 97.2418 22.2691 97.2418 23.7604C97.2418 25.2516 97.68 26.4539 98.5594 27.3673C99.4388 28.2807 100.559 28.7374 101.92 28.7374C103.28 28.7374 104.407 28.2807 105.295 27.3673Z" fill="#34D39E"/>
<path d="M129.393 9.59941V31.7167H125.842V29.66C125.231 30.4149 124.475 30.9804 123.577 31.3594C122.679 31.7353 121.685 31.9248 120.602 31.9248C119.081 31.9248 117.714 31.5862 116.501 30.912C115.289 30.2379 114.335 29.2779 113.644 28.0351C112.953 26.7924 112.607 25.3664 112.607 23.7571C112.607 22.1478 112.953 20.728 113.644 19.4946C114.335 18.2643 115.289 17.3074 116.501 16.6332C117.714 15.959 119.081 15.6204 120.602 15.6204C121.648 15.6204 122.605 15.8006 123.475 16.1579C124.342 16.5151 125.083 17.0526 125.697 17.7672V9.59941H129.393ZM123.441 28.1252C124.151 27.7182 124.715 27.1373 125.129 26.3823C125.542 25.6274 125.752 24.7544 125.752 23.7602C125.752 22.766 125.545 21.893 125.129 21.138C124.715 20.3831 124.151 19.8021 123.441 19.3951C122.731 18.9881 121.932 18.7831 121.044 18.7831C120.155 18.7831 119.356 18.9881 118.646 19.3951C117.936 19.8021 117.372 20.3831 116.958 21.138C116.545 21.893 116.338 22.7691 116.338 23.7602C116.338 24.7544 116.545 25.6274 116.958 26.3823C117.372 27.1373 117.936 27.7182 118.646 28.1252C119.356 28.5322 120.155 28.7373 121.044 28.7373C121.932 28.7373 122.731 28.5322 123.441 28.1252Z" fill="#34D39E"/>
<path d="M149.052 24.9506H136.647C136.863 26.1219 137.431 27.0508 138.351 27.7374C139.267 28.424 140.409 28.7658 141.77 28.7658C143.507 28.7658 144.938 28.191 146.062 27.0384L148.046 29.3343C147.336 30.1887 146.438 30.8349 145.352 31.273C144.266 31.711 143.044 31.9285 141.68 31.9285C139.943 31.9285 138.412 31.5805 137.092 30.8846C135.768 30.1887 134.747 29.2194 134.028 27.9797C133.306 26.737 132.948 25.3328 132.948 23.7607C132.948 22.2104 133.3 20.8155 134 19.5728C134.7 18.33 135.672 17.3638 136.916 16.6679C138.159 15.972 139.56 15.624 141.118 15.624C142.658 15.624 144.034 15.9658 145.247 16.6524C146.46 17.339 147.407 18.3021 148.089 19.5448C148.771 20.7875 149.11 22.2229 149.11 23.8539C149.11 24.1087 149.089 24.4753 149.052 24.9506ZM138.11 19.6597C137.289 20.365 136.792 21.3032 136.613 22.4776H145.583C145.426 21.325 144.942 20.3898 144.133 19.6753C143.325 18.9607 142.316 18.6034 141.112 18.6034C139.931 18.6034 138.931 18.9545 138.11 19.6597Z" fill="#34D39E"/>
<path d="M163.6 17.3039C164.834 18.4254 165.451 20.1217 165.451 22.3866V31.7163H161.959V29.7776C161.505 30.4736 160.857 31.0048 160.021 31.3714C159.181 31.738 158.169 31.9213 156.988 31.9213C155.806 31.9213 154.766 31.7163 153.88 31.3093C152.992 30.9023 152.307 30.3369 151.822 29.6099C151.338 28.886 151.097 28.0658 151.097 27.1493C151.097 25.7171 151.625 24.5706 152.68 23.707C153.735 22.8433 155.399 22.4114 157.67 22.4114H161.755V22.1722C161.755 21.06 161.425 20.2056 160.764 19.6091C160.104 19.0126 159.12 18.7143 157.818 18.7143C156.929 18.7143 156.056 18.8541 155.198 19.1306C154.34 19.4103 153.615 19.7955 153.023 20.2926L151.572 17.5804C152.402 16.9435 153.399 16.4588 154.562 16.1202C155.726 15.7815 156.96 15.6138 158.262 15.6138C160.585 15.62 162.366 16.1823 163.6 17.3039ZM160.228 28.5722C160.946 28.1435 161.456 27.5345 161.752 26.7392V24.8906H157.932C155.8 24.8906 154.735 25.5959 154.735 27.0064C154.735 27.6805 155 28.218 155.534 28.6157C156.068 29.0134 156.809 29.2122 157.756 29.2122C158.682 29.2122 159.506 29.0009 160.228 28.5722Z" fill="#34D39E"/>
<path d="M170.189 9.59941H173.889V31.7167H170.189V9.59941Z" fill="#34D39E"/>
<path d="M179.867 31.4186C178.642 31.08 177.667 30.6543 176.936 30.1355L178.358 27.3021C179.068 27.7805 179.923 28.1627 180.919 28.4485C181.916 28.7374 182.897 28.8804 183.866 28.8804C186.075 28.8804 187.183 28.2932 187.183 27.1219C187.183 26.5658 186.902 26.1774 186.341 25.96C185.779 25.7425 184.875 25.5312 183.632 25.3355C182.329 25.1367 181.268 24.9068 180.45 24.6489C179.633 24.391 178.92 23.9374 178.318 23.2943C177.716 22.6481 177.414 21.7503 177.414 20.5976C177.414 19.0877 178.04 17.8792 179.293 16.9751C180.546 16.071 182.24 15.6205 184.369 15.6205C185.455 15.6205 186.541 15.7448 187.624 15.9934C188.711 16.2419 189.599 16.5743 190.29 16.9906L188.868 19.824C187.526 19.0287 186.017 18.631 184.338 18.631C183.252 18.631 182.428 18.7957 181.867 19.1219C181.305 19.4481 181.024 19.8831 181.024 20.4174C181.024 21.0139 181.324 21.4365 181.928 21.685C182.53 21.9336 183.462 22.1666 184.727 22.384C185.989 22.5829 187.026 22.8128 187.834 23.0706C188.643 23.3285 189.34 23.7666 189.92 24.3817C190.503 24.9969 190.793 25.873 190.793 27.0038C190.793 28.4951 190.152 29.6881 188.868 30.5798C187.584 31.4745 185.838 31.9219 183.628 31.9219C182.345 31.9281 181.092 31.7572 179.867 31.4186Z" fill="#34D39E"/>
<rect x="139.793" y="36.9287" width="51" height="13" rx="6.5" fill="#EF4444"/>
<path d="M151.52 47.9289V39.5289H155.564C156.348 39.5289 157.024 39.6569 157.592 39.9129C158.168 40.1689 158.612 40.5369 158.924 41.0169C159.236 41.4889 159.392 42.0489 159.392 42.6969C159.392 43.3449 159.236 43.9049 158.924 44.3769C158.612 44.8489 158.168 45.2169 157.592 45.4809C157.024 45.7369 156.348 45.8649 155.564 45.8649H153.092L154.352 44.6529V47.9289H151.52ZM154.352 44.9649L153.092 43.6809H155.384C155.776 43.6809 156.064 43.5929 156.248 43.4169C156.44 43.2409 156.536 43.0009 156.536 42.6969C156.536 42.3929 156.44 42.1529 156.248 41.9769C156.064 41.8009 155.776 41.7129 155.384 41.7129H153.092L154.352 40.4289V44.9649Z" fill="white"/>
<path d="M160.32 47.9289V39.5289H164.364C165.148 39.5289 165.824 39.6569 166.392 39.9129C166.968 40.1689 167.412 40.5369 167.724 41.0169C168.036 41.4889 168.192 42.0489 168.192 42.6969C168.192 43.3449 168.036 43.9049 167.724 44.3769C167.412 44.8409 166.968 45.1969 166.392 45.4449C165.824 45.6929 165.148 45.8169 164.364 45.8169H161.892L163.152 44.6529V47.9289H160.32ZM165.348 47.9289L163.284 44.8689H166.284L168.372 47.9289H165.348ZM163.152 44.9649L161.892 43.6809H164.184C164.576 43.6809 164.864 43.5929 165.048 43.4169C165.24 43.2409 165.336 43.0009 165.336 42.6969C165.336 42.3929 165.24 42.1529 165.048 41.9769C164.864 41.8009 164.576 41.7129 164.184 41.7129H161.892L163.152 40.4289V44.9649Z" fill="white"/>
<path d="M173.678 48.1209C172.99 48.1209 172.354 48.0129 171.77 47.7969C171.194 47.5809 170.694 47.2769 170.27 46.8849C169.846 46.4849 169.514 46.0169 169.274 45.4809C169.042 44.9449 168.926 44.3609 168.926 43.7289C168.926 43.0889 169.042 42.5049 169.274 41.9769C169.514 41.4409 169.846 40.9769 170.27 40.5849C170.694 40.1849 171.194 39.8769 171.77 39.6609C172.354 39.4449 172.986 39.3369 173.666 39.3369C174.354 39.3369 174.986 39.4449 175.562 39.6609C176.138 39.8769 176.638 40.1849 177.062 40.5849C177.486 40.9769 177.814 41.4409 178.046 41.9769C178.286 42.5049 178.406 43.0889 178.406 43.7289C178.406 44.3609 178.286 44.9449 178.046 45.4809C177.814 46.0169 177.486 46.4849 177.062 46.8849C176.638 47.2769 176.138 47.5809 175.562 47.7969C174.986 48.0129 174.358 48.1209 173.678 48.1209ZM173.666 45.8289C173.93 45.8289 174.174 45.7809 174.398 45.6849C174.63 45.5889 174.83 45.4529 174.998 45.2769C175.174 45.0929 175.31 44.8729 175.406 44.6169C175.502 44.3529 175.55 44.0569 175.55 43.7289C175.55 43.4009 175.502 43.1089 175.406 42.8529C175.31 42.5889 175.174 42.3689 174.998 42.1929C174.83 42.0089 174.63 41.8689 174.398 41.7729C174.174 41.6769 173.93 41.6289 173.666 41.6289C173.402 41.6289 173.154 41.6769 172.922 41.7729C172.698 41.8689 172.498 42.0089 172.322 42.1929C172.154 42.3689 172.022 42.5889 171.926 42.8529C171.83 43.1089 171.782 43.4009 171.782 43.7289C171.782 44.0569 171.83 44.3529 171.926 44.6169C172.022 44.8729 172.154 45.0929 172.322 45.2769C172.498 45.4529 172.698 45.5889 172.922 45.6849C173.154 45.7809 173.402 45.8289 173.666 45.8289Z" fill="white"/>
</svg>
