<svg width="191" height="51" viewBox="0 0 191 51" fill="none" xmlns="http://www.w3.org/2000/svg">
<path d="M29.7189 14.7538C31.8294 14.9526 33.903 15.5212 35.7759 16.5216C41.2128 19.4264 42.9562 24.2979 42.9562 30.7414V32.04C42.9562 32.2886 42.7556 32.4936 42.5057 32.4936H33.2149C32.968 32.4936 32.7644 32.2917 32.7644 32.04V27.5414C32.7644 27.24 32.5515 26.9822 32.2552 26.9262L22.048 25.0373C21.2889 24.8975 20.5546 24.6458 19.8696 24.2948L0.189453 14.0921C0.189453 12.4641 1.72609 11.2835 3.28433 11.7154L19.7832 17.087C19.7832 18.0346 20.3787 18.8796 21.2673 19.1903L28.5988 21.2563C28.7531 21.2998 28.9073 21.1818 28.9073 21.0202V20.6878C28.9073 20.2746 28.6296 19.9142 28.2347 19.8117L22.7639 18.3856C21.8721 18.075 21.2735 17.2299 21.2735 16.2792C21.2735 14.9992 22.3905 14.0113 23.6525 14.179L29.7189 14.7538Z" fill="#FAC215"/>
<path d="M33.7556 1.56173C30.3151 0.89688 25.7391 0.564453 20.941 0.564453C16.1428 0.564453 11.5638 0.89688 8.12641 1.56173C3.96699 2.39436 2.12796 3.22698 2.04773 4.72445C2.04773 6.30581 3.88676 7.30309 8.12641 8.05183C11.5638 8.6328 16.1428 8.96834 20.941 8.96834C25.7391 8.96834 30.3182 8.63591 33.7556 8.05183C37.9952 7.30309 39.8342 6.30581 39.8342 4.72445C39.754 3.22698 37.9119 2.39436 33.7556 1.56173ZM37.2084 4.73377C36.7671 5.05688 35.1966 5.43591 32.7126 5.87707C29.5128 6.37727 25.2547 6.7097 20.9379 6.7097C16.6211 6.7097 12.3506 6.44562 9.16317 5.87707C6.66999 5.4328 5.13644 5.07863 4.66743 4.73377C4.51006 4.61882 4.4792 4.40756 4.65817 4.32678C6.14852 3.66193 11.283 2.25766 20.9379 2.25766C30.5928 2.25766 36.4894 3.87008 37.2176 4.32678C37.3843 4.42931 37.3688 4.61572 37.2084 4.73377Z" fill="#FAC215"/>
<path d="M61.6959 14.6652V21.0155H71.7026V24.2932H61.6959V32.2808H57.8481V11.4155H72.9769V14.6652H61.6959Z" fill="#FAC215"/>
<path d="M78.6873 31.4487C77.4037 30.7528 76.4039 29.7834 75.6819 28.5438C74.9599 27.3011 74.6019 25.8968 74.6019 24.3248C74.6019 22.7559 74.963 21.3547 75.6819 20.1213C76.4008 18.891 77.4037 17.9248 78.6873 17.2289C79.9709 16.533 81.4119 16.185 83.0103 16.185C84.6271 16.185 86.0804 16.533 87.361 17.2289C88.6446 17.9248 89.6443 18.8879 90.3664 20.1213C91.0853 21.3547 91.4463 22.7559 91.4463 24.3248C91.4463 25.8937 91.0853 27.3011 90.3664 28.5438C89.6443 29.7865 88.6446 30.7559 87.361 31.4487C86.0774 32.1446 84.6271 32.4926 83.0103 32.4926C81.4119 32.4926 79.9709 32.1446 78.6873 31.4487ZM86.3859 27.9318C87.2746 27.0184 87.7189 25.8161 87.7189 24.3248C87.7189 22.8335 87.2746 21.6312 86.3859 20.7178C85.4973 19.8044 84.3741 19.3477 83.0103 19.3477C81.6464 19.3477 80.5294 19.8044 79.65 20.7178C78.7706 21.6312 78.3324 22.8335 78.3324 24.3248C78.3324 25.8161 78.7706 27.0184 79.65 27.9318C80.5294 28.8452 81.6495 29.3019 83.0103 29.3019C84.371 29.3019 85.4973 28.8452 86.3859 27.9318Z" fill="#FAC215"/>
<path d="M97.7861 31.4487C96.5025 30.7528 95.5027 29.7834 94.7807 28.5438C94.0587 27.3011 93.7007 25.8968 93.7007 24.3248C93.7007 22.7559 94.0617 21.3547 94.7807 20.1213C95.4996 18.891 96.5025 17.9248 97.7861 17.2289C99.0697 16.533 100.511 16.185 102.109 16.185C103.726 16.185 105.179 16.533 106.46 17.2289C107.743 17.9248 108.743 18.8879 109.465 20.1213C110.184 21.3547 110.545 22.7559 110.545 24.3248C110.545 25.8937 110.184 27.3011 109.465 28.5438C108.743 29.7865 107.743 30.7559 106.46 31.4487C105.176 32.1446 103.726 32.4926 102.109 32.4926C100.511 32.4926 99.0697 32.1446 97.7861 31.4487ZM105.485 27.9318C106.373 27.0184 106.818 25.8161 106.818 24.3248C106.818 22.8335 106.373 21.6312 105.485 20.7178C104.596 19.8044 103.473 19.3477 102.109 19.3477C100.748 19.3477 99.6282 19.8044 98.7488 20.7178C97.8694 21.6312 97.4313 22.8335 97.4313 24.3248C97.4313 25.8161 97.8694 27.0184 98.7488 27.9318C99.6282 28.8452 100.748 29.3019 102.109 29.3019C103.47 29.3019 104.596 28.8452 105.485 27.9318Z" fill="#FAC215"/>
<path d="M129.583 10.1639V32.2811H126.031V30.2244C125.42 30.9794 124.664 31.5448 123.766 31.9239C122.868 32.2998 121.875 32.4893 120.792 32.4893C119.271 32.4893 117.904 32.1507 116.691 31.4765C115.478 30.8023 114.525 29.8423 113.834 28.5996C113.142 27.3569 112.797 25.9309 112.797 24.3215C112.797 22.7122 113.142 21.2924 113.834 20.059C114.525 18.8287 115.478 17.8718 116.691 17.1976C117.904 16.5235 119.271 16.1848 120.792 16.1848C121.838 16.1848 122.794 16.365 123.664 16.7223C124.531 17.0796 125.272 17.6171 125.886 18.3316V10.1639H129.583ZM123.63 28.6897C124.34 28.2827 124.905 27.7017 125.318 26.9468C125.732 26.1918 125.942 25.3188 125.942 24.3246C125.942 23.3305 125.735 22.4575 125.318 21.7025C124.905 20.9475 124.34 20.3666 123.63 19.9596C122.921 19.5526 122.122 19.3475 121.233 19.3475C120.344 19.3475 119.545 19.5526 118.835 19.9596C118.126 20.3666 117.561 20.9475 117.148 21.7025C116.734 22.4575 116.527 23.3336 116.527 24.3246C116.527 25.3188 116.734 26.1918 117.148 26.9468C117.561 27.7017 118.126 28.2827 118.835 28.6897C119.545 29.0967 120.344 29.3017 121.233 29.3017C122.122 29.3017 122.921 29.0967 123.63 28.6897Z" fill="#FAC215"/>
<path d="M149.241 25.5151H136.837C137.053 26.6863 137.621 27.6153 138.54 28.3019C139.457 28.9885 140.598 29.3302 141.959 29.3302C143.696 29.3302 145.128 28.7555 146.251 27.6028L148.235 29.8988C147.525 30.7531 146.628 31.3993 145.541 31.8374C144.455 32.2755 143.233 32.4929 141.87 32.4929C140.132 32.4929 138.602 32.145 137.281 31.4491C135.957 30.7531 134.936 29.7838 134.217 28.5442C133.495 27.3015 133.137 25.8972 133.137 24.3252C133.137 22.7749 133.489 21.3799 134.189 20.1372C134.89 18.8945 135.862 17.9283 137.105 17.2324C138.349 16.5364 139.75 16.1885 141.308 16.1885C142.848 16.1885 144.224 16.5302 145.436 17.2168C146.649 17.9034 147.596 18.8665 148.278 20.1092C148.96 21.352 149.3 22.7873 149.3 24.4184C149.3 24.6731 149.278 25.0397 149.241 25.5151ZM138.299 20.2242C137.479 20.9294 136.982 21.8677 136.803 23.0421H145.773C145.615 21.8894 145.131 20.9543 144.323 20.2397C143.514 19.5252 142.505 19.1679 141.302 19.1679C140.12 19.1679 139.12 19.519 138.299 20.2242Z" fill="#FAC215"/>
<path d="M163.79 17.8683C165.024 18.9899 165.641 20.6862 165.641 22.951V32.2807H162.148V30.3421C161.694 31.038 161.046 31.5693 160.21 31.9359C159.371 32.3025 158.359 32.4858 157.177 32.4858C155.995 32.4858 154.955 32.2807 154.07 31.8737C153.181 31.4667 152.496 30.9013 152.012 30.1743C151.527 29.4504 151.287 28.6302 151.287 27.7137C151.287 26.2815 151.814 25.1351 152.87 24.2714C153.925 23.4077 155.588 22.9759 157.859 22.9759H161.944V22.7367C161.944 21.6244 161.614 20.7701 160.954 20.1735C160.294 19.577 159.309 19.2788 158.007 19.2788C157.118 19.2788 156.245 19.4186 155.387 19.6951C154.53 19.9747 153.805 20.36 153.212 20.857L151.762 18.1448C152.592 17.5079 153.589 17.0233 154.752 16.6846C155.915 16.346 157.149 16.1782 158.451 16.1782C160.775 16.1844 162.555 16.7468 163.79 17.8683ZM160.417 29.1367C161.136 28.7079 161.645 28.099 161.941 27.3036V25.4551H158.121C155.989 25.4551 154.925 26.1603 154.925 27.5708C154.925 28.245 155.19 28.7825 155.724 29.1801C156.258 29.5778 156.998 29.7767 157.945 29.7767C158.871 29.7767 159.695 29.5654 160.417 29.1367Z" fill="#FAC215"/>
<path d="M170.378 10.1639H174.078V32.2811H170.378V10.1639Z" fill="#FAC215"/>
<path d="M180.057 31.9831C178.832 31.6444 177.857 31.2188 177.125 30.6999L178.548 27.8665C179.257 28.345 180.112 28.7271 181.109 29.013C182.105 29.3019 183.087 29.4448 184.056 29.4448C186.265 29.4448 187.373 28.8576 187.373 27.6864C187.373 27.1302 187.092 26.7419 186.53 26.5244C185.969 26.3069 185.065 26.0957 183.821 25.9C182.519 25.7011 181.457 25.4712 180.64 25.2133C179.822 24.9555 179.109 24.5019 178.508 23.8588C177.906 23.2126 177.604 22.3147 177.604 21.1621C177.604 19.6522 178.23 18.4436 179.483 17.5396C180.735 16.6355 182.429 16.185 184.559 16.185C185.645 16.185 186.731 16.3093 187.814 16.5578C188.9 16.8064 189.789 17.1388 190.48 17.5551L189.057 20.3885C187.715 19.5932 186.206 19.1955 184.528 19.1955C183.441 19.1955 182.618 19.3601 182.056 19.6864C181.494 20.0126 181.214 20.4475 181.214 20.9819C181.214 21.5784 181.513 22.0009 182.118 22.2495C182.719 22.498 183.651 22.731 184.916 22.9485C186.178 23.1473 187.215 23.3772 188.024 23.6351C188.832 23.893 189.529 24.331 190.11 24.9462C190.693 25.5613 190.983 26.4374 190.983 27.5683C190.983 29.0596 190.341 30.2526 189.057 31.1442C187.774 32.039 186.027 32.4864 183.818 32.4864C182.534 32.4926 181.282 32.3217 180.057 31.9831Z" fill="#FAC215"/>
<rect x="139.982" y="37.4941" width="51" height="13" rx="6.5" fill="#FAC215"/>
<path d="M153.1 48.4943V40.0943H157.24C158.176 40.0943 159 40.2663 159.712 40.6103C160.424 40.9463 160.98 41.4263 161.38 42.0503C161.78 42.6743 161.98 43.4183 161.98 44.2823C161.98 45.1543 161.78 45.9063 161.38 46.5383C160.98 47.1623 160.424 47.6463 159.712 47.9903C159 48.3263 158.176 48.4943 157.24 48.4943H153.1ZM155.932 46.2863H157.12C157.52 46.2863 157.868 46.2103 158.164 46.0583C158.468 45.9063 158.704 45.6823 158.872 45.3863C159.04 45.0823 159.124 44.7143 159.124 44.2823C159.124 43.8583 159.04 43.4983 158.872 43.2023C158.704 42.9063 158.468 42.6823 158.164 42.5303C157.868 42.3783 157.52 42.3023 157.12 42.3023H155.932V46.2863Z" fill="white"/>
<path d="M163.014 48.4943V40.0943H165.846V46.2983H169.638V48.4943H163.014Z" fill="white"/>
<path d="M174.647 48.6863C173.975 48.6863 173.351 48.5823 172.775 48.3743C172.207 48.1583 171.711 47.8543 171.287 47.4623C170.871 47.0703 170.547 46.6063 170.315 46.0703C170.083 45.5343 169.967 44.9423 169.967 44.2943C169.967 43.6463 170.083 43.0543 170.315 42.5183C170.547 41.9823 170.871 41.5183 171.287 41.1263C171.711 40.7343 172.207 40.4343 172.775 40.2263C173.351 40.0103 173.975 39.9023 174.647 39.9023C175.471 39.9023 176.199 40.0463 176.831 40.3343C177.471 40.6223 177.999 41.0383 178.415 41.5823L176.627 43.1783C176.379 42.8663 176.103 42.6263 175.799 42.4583C175.503 42.2823 175.167 42.1943 174.791 42.1943C174.495 42.1943 174.227 42.2423 173.987 42.3383C173.747 42.4343 173.539 42.5743 173.363 42.7583C173.195 42.9423 173.063 43.1663 172.967 43.4303C172.871 43.6863 172.823 43.9743 172.823 44.2943C172.823 44.6143 172.871 44.9063 172.967 45.1703C173.063 45.4263 173.195 45.6463 173.363 45.8303C173.539 46.0143 173.747 46.1543 173.987 46.2503C174.227 46.3463 174.495 46.3943 174.791 46.3943C175.167 46.3943 175.503 46.3103 175.799 46.1423C176.103 45.9663 176.379 45.7223 176.627 45.4103L178.415 47.0063C177.999 47.5423 177.471 47.9583 176.831 48.2543C176.199 48.5423 175.471 48.6863 174.647 48.6863Z" fill="white"/>
</svg>
