<svg width="191" height="51" viewBox="0 0 191 51" fill="none" xmlns="http://www.w3.org/2000/svg">
<path d="M29.7169 14.7538C31.8275 14.9526 33.901 15.5212 35.774 16.5216C41.2108 19.4264 42.9542 24.2979 42.9542 30.7414V32.04C42.9542 32.2886 42.7537 32.4936 42.5037 32.4936H33.2129C32.9661 32.4936 32.7624 32.2917 32.7624 32.04V27.5414C32.7624 27.24 32.5495 26.9822 32.2533 26.9262L22.046 25.0373C21.287 24.8975 20.5526 24.6458 19.8676 24.2948L0.1875 14.0921C0.1875 12.4641 1.72414 11.2835 3.28238 11.7154L19.7812 17.087C19.7812 18.0346 20.3767 18.8796 21.2654 19.1903L28.5968 21.2563C28.7511 21.2998 28.9054 21.1818 28.9054 21.0202V20.6878C28.9054 20.2746 28.6277 19.9142 28.2327 19.8117L22.7619 18.3856C21.8702 18.075 21.2716 17.2299 21.2716 16.2792C21.2716 14.9992 22.3886 14.0113 23.6506 14.179L29.7169 14.7538Z" fill="#A855F7"/>
<path d="M33.7536 1.56173C30.3132 0.89688 25.7372 0.564453 20.939 0.564453C16.1409 0.564453 11.5618 0.89688 8.12445 1.56173C3.96504 2.39436 2.12601 3.22698 2.04578 4.72445C2.04578 6.30581 3.88481 7.30309 8.12445 8.05183C11.5618 8.6328 16.1409 8.96834 20.939 8.96834C25.7372 8.96834 30.3162 8.63591 33.7536 8.05183C37.9933 7.30309 39.8323 6.30581 39.8323 4.72445C39.7521 3.22698 37.91 2.39436 33.7536 1.56173ZM37.2064 4.73377C36.7652 5.05688 35.1946 5.43591 32.7107 5.87707C29.5109 6.37727 25.2527 6.7097 20.936 6.7097C16.6192 6.7097 12.3487 6.44562 9.16122 5.87707C6.66804 5.4328 5.13449 5.07863 4.66547 4.73377C4.50811 4.61882 4.47725 4.40756 4.65622 4.32678C6.14657 3.66193 11.281 2.25766 20.936 2.25766C30.5909 2.25766 36.4875 3.87008 37.2157 4.32678C37.3823 4.42931 37.3669 4.61572 37.2064 4.73377Z" fill="#A855F7"/>
<path d="M61.694 14.6652V21.0155H71.7006V24.2932H61.694V32.2808H57.8462V11.4155H72.975V14.6652H61.694Z" fill="#A855F7"/>
<path d="M78.6853 31.4487C77.4017 30.7528 76.402 29.7834 75.6799 28.5438C74.9579 27.3011 74.6 25.8968 74.6 24.3248C74.6 22.7559 74.961 21.3547 75.6799 20.1213C76.3989 18.891 77.4017 17.9248 78.6853 17.2289C79.969 16.533 81.41 16.185 83.0083 16.185C84.6252 16.185 86.0785 16.533 87.359 17.2289C88.6426 17.9248 89.6424 18.8879 90.3644 20.1213C91.0834 21.3547 91.4444 22.7559 91.4444 24.3248C91.4444 25.8937 91.0834 27.3011 90.3644 28.5438C89.6424 29.7865 88.6426 30.7559 87.359 31.4487C86.0754 32.1446 84.6252 32.4926 83.0083 32.4926C81.41 32.4926 79.969 32.1446 78.6853 31.4487ZM86.384 27.9318C87.2726 27.0184 87.717 25.8161 87.717 24.3248C87.717 22.8335 87.2726 21.6312 86.384 20.7178C85.4953 19.8044 84.3721 19.3477 83.0083 19.3477C81.6445 19.3477 80.5275 19.8044 79.648 20.7178C78.7686 21.6312 78.3305 22.8335 78.3305 24.3248C78.3305 25.8161 78.7686 27.0184 79.648 27.9318C80.5275 28.8452 81.6475 29.3019 83.0083 29.3019C84.3691 29.3019 85.4953 28.8452 86.384 27.9318Z" fill="#A855F7"/>
<path d="M97.7841 31.4487C96.5005 30.7528 95.5008 29.7834 94.7787 28.5438C94.0567 27.3011 93.6988 25.8968 93.6988 24.3248C93.6988 22.7559 94.0598 21.3547 94.7787 20.1213C95.4977 18.891 96.5005 17.9248 97.7841 17.2289C99.0678 16.533 100.509 16.185 102.107 16.185C103.724 16.185 105.177 16.533 106.458 17.2289C107.741 17.9248 108.741 18.8879 109.463 20.1213C110.182 21.3547 110.543 22.7559 110.543 24.3248C110.543 25.8937 110.182 27.3011 109.463 28.5438C108.741 29.7865 107.741 30.7559 106.458 31.4487C105.174 32.1446 103.724 32.4926 102.107 32.4926C100.509 32.4926 99.0678 32.1446 97.7841 31.4487ZM105.483 27.9318C106.371 27.0184 106.816 25.8161 106.816 24.3248C106.816 22.8335 106.371 21.6312 105.483 20.7178C104.594 19.8044 103.471 19.3477 102.107 19.3477C100.746 19.3477 99.6263 19.8044 98.7469 20.7178C97.8675 21.6312 97.4293 22.8335 97.4293 24.3248C97.4293 25.8161 97.8675 27.0184 98.7469 27.9318C99.6263 28.8452 100.746 29.3019 102.107 29.3019C103.468 29.3019 104.594 28.8452 105.483 27.9318Z" fill="#A855F7"/>
<path d="M129.581 10.1639V32.2811H126.029V30.2244C125.418 30.9794 124.662 31.5448 123.764 31.9239C122.866 32.2998 121.873 32.4893 120.79 32.4893C119.269 32.4893 117.902 32.1507 116.689 31.4765C115.476 30.8023 114.523 29.8423 113.832 28.5996C113.141 27.3569 112.795 25.9309 112.795 24.3215C112.795 22.7122 113.141 21.2924 113.832 20.059C114.523 18.8287 115.476 17.8718 116.689 17.1976C117.902 16.5235 119.269 16.1848 120.79 16.1848C121.836 16.1848 122.792 16.365 123.662 16.7223C124.53 17.0796 125.27 17.6171 125.884 18.3316V10.1639H129.581ZM123.629 28.6897C124.338 28.2827 124.903 27.7017 125.316 26.9468C125.73 26.1918 125.94 25.3188 125.94 24.3246C125.94 23.3305 125.733 22.4575 125.316 21.7025C124.903 20.9475 124.338 20.3666 123.629 19.9596C122.919 19.5526 122.12 19.3475 121.231 19.3475C120.342 19.3475 119.543 19.5526 118.833 19.9596C118.124 20.3666 117.559 20.9475 117.146 21.7025C116.732 22.4575 116.525 23.3336 116.525 24.3246C116.525 25.3188 116.732 26.1918 117.146 26.9468C117.559 27.7017 118.124 28.2827 118.833 28.6897C119.543 29.0967 120.342 29.3017 121.231 29.3017C122.12 29.3017 122.919 29.0967 123.629 28.6897Z" fill="#A855F7"/>
<path d="M149.239 25.5151H136.835C137.051 26.6863 137.619 27.6153 138.538 28.3019C139.455 28.9885 140.596 29.3302 141.957 29.3302C143.694 29.3302 145.126 28.7555 146.249 27.6028L148.233 29.8988C147.524 30.7531 146.626 31.3993 145.539 31.8374C144.453 32.2755 143.231 32.4929 141.868 32.4929C140.13 32.4929 138.6 32.145 137.279 31.4491C135.956 30.7531 134.934 29.7838 134.215 28.5442C133.493 27.3015 133.135 25.8972 133.135 24.3252C133.135 22.7749 133.487 21.3799 134.187 20.1372C134.888 18.8945 135.86 17.9283 137.103 17.2324C138.347 16.5364 139.748 16.1885 141.306 16.1885C142.846 16.1885 144.222 16.5302 145.435 17.2168C146.647 17.9034 147.594 18.8665 148.276 20.1092C148.958 21.352 149.298 22.7873 149.298 24.4184C149.298 24.6731 149.276 25.0397 149.239 25.5151ZM138.298 20.2242C137.477 20.9294 136.98 21.8677 136.801 23.0421H145.771C145.614 21.8894 145.129 20.9543 144.321 20.2397C143.512 19.5252 142.503 19.1679 141.3 19.1679C140.118 19.1679 139.118 19.519 138.298 20.2242Z" fill="#A855F7"/>
<path d="M163.788 17.8683C165.022 18.9899 165.639 20.6862 165.639 22.951V32.2807H162.146V30.3421C161.692 31.038 161.044 31.5693 160.208 31.9359C159.369 32.3025 158.357 32.4858 157.175 32.4858C155.993 32.4858 154.953 32.2807 154.068 31.8737C153.179 31.4667 152.494 30.9013 152.01 30.1743C151.525 29.4504 151.285 28.6302 151.285 27.7137C151.285 26.2815 151.812 25.1351 152.868 24.2714C153.923 23.4077 155.586 22.9759 157.857 22.9759H161.942V22.7367C161.942 21.6244 161.612 20.7701 160.952 20.1735C160.292 19.577 159.307 19.2788 158.005 19.2788C157.117 19.2788 156.243 19.4186 155.385 19.6951C154.528 19.9747 153.803 20.36 153.21 20.857L151.76 18.1448C152.59 17.5079 153.587 17.0233 154.75 16.6846C155.913 16.346 157.147 16.1782 158.449 16.1782C160.773 16.1844 162.553 16.7468 163.788 17.8683ZM160.415 29.1367C161.134 28.7079 161.643 28.099 161.939 27.3036V25.4551H158.119C155.987 25.4551 154.923 26.1603 154.923 27.5708C154.923 28.245 155.188 28.7825 155.722 29.1801C156.256 29.5778 156.996 29.7767 157.943 29.7767C158.869 29.7767 159.693 29.5654 160.415 29.1367Z" fill="#A855F7"/>
<path d="M170.376 10.1639H174.076V32.2811H170.376V10.1639Z" fill="#A855F7"/>
<path d="M180.055 31.9831C178.83 31.6444 177.855 31.2188 177.123 30.6999L178.546 27.8665C179.255 28.345 180.11 28.7271 181.107 29.013C182.103 29.3019 183.085 29.4448 184.054 29.4448C186.263 29.4448 187.371 28.8576 187.371 27.6864C187.371 27.1302 187.09 26.7419 186.528 26.5244C185.967 26.3069 185.063 26.0957 183.819 25.9C182.517 25.7011 181.455 25.4712 180.638 25.2133C179.82 24.9555 179.107 24.5019 178.506 23.8588C177.904 23.2126 177.602 22.3147 177.602 21.1621C177.602 19.6522 178.228 18.4436 179.481 17.5396C180.733 16.6355 182.427 16.185 184.557 16.185C185.643 16.185 186.729 16.3093 187.812 16.5578C188.898 16.8064 189.787 17.1388 190.478 17.5551L189.055 20.3885C187.713 19.5932 186.204 19.1955 184.526 19.1955C183.44 19.1955 182.616 19.3601 182.054 19.6864C181.493 20.0126 181.212 20.4475 181.212 20.9819C181.212 21.5784 181.511 22.0009 182.116 22.2495C182.718 22.498 183.649 22.731 184.914 22.9485C186.176 23.1473 187.213 23.3772 188.022 23.6351C188.83 23.893 189.527 24.331 190.108 24.9462C190.691 25.5613 190.981 26.4374 190.981 27.5683C190.981 29.0596 190.339 30.2526 189.055 31.1442C187.772 32.039 186.025 32.4864 183.816 32.4864C182.532 32.4926 181.28 32.3217 180.055 31.9831Z" fill="#A855F7"/>
<rect x="117.984" y="37.4941" width="73" height="13" rx="6.5" fill="#A855F7"/>
<path d="M127.398 47.9247V39.4827H131.559C132.5 39.4827 133.328 39.6556 134.043 40.0013C134.759 40.339 135.318 40.8214 135.72 41.4485C136.122 42.0756 136.323 42.8233 136.323 43.6916C136.323 44.568 136.122 45.3238 135.72 45.9589C135.318 46.586 134.759 47.0725 134.043 47.4182C133.328 47.7559 132.5 47.9247 131.559 47.9247H127.398ZM130.245 45.7057H131.439C131.841 45.7057 132.19 45.6293 132.488 45.4765C132.793 45.3238 133.03 45.0986 133.199 44.8012C133.368 44.4956 133.453 44.1258 133.453 43.6916C133.453 43.2655 133.368 42.9037 133.199 42.6062C133.03 42.3088 132.793 42.0836 132.488 41.9309C132.19 41.7781 131.841 41.7017 131.439 41.7017H130.245V45.7057Z" fill="white"/>
<path d="M140.92 48.0453C140.116 48.0453 139.412 47.8966 138.809 47.5991C138.214 47.3016 137.752 46.8956 137.422 46.381C137.093 45.8584 136.928 45.2715 136.928 44.6203C136.928 43.9529 137.089 43.362 137.41 42.8474C137.74 42.3329 138.186 41.9309 138.749 41.6414C139.32 41.352 139.959 41.2073 140.667 41.2073C141.318 41.2073 141.917 41.3359 142.463 41.5932C143.018 41.8505 143.46 42.2324 143.79 42.7389C144.128 43.2454 144.297 43.8725 144.297 44.6203C144.297 44.7167 144.293 44.8253 144.285 44.9459C144.276 45.0584 144.268 45.163 144.26 45.2594H139.183V43.9449H142.813L141.788 44.2946C141.788 44.0374 141.74 43.8203 141.643 43.6434C141.555 43.4585 141.43 43.3178 141.27 43.2213C141.109 43.1168 140.916 43.0645 140.691 43.0645C140.466 43.0645 140.269 43.1168 140.1 43.2213C139.939 43.3178 139.814 43.4585 139.726 43.6434C139.637 43.8203 139.593 44.0374 139.593 44.2946V44.7047C139.593 44.9861 139.649 45.2273 139.762 45.4283C139.875 45.6293 140.035 45.782 140.244 45.8866C140.453 45.983 140.707 46.0313 141.004 46.0313C141.31 46.0313 141.559 45.9911 141.752 45.9107C141.953 45.8303 142.162 45.7097 142.379 45.5489L143.802 46.984C143.481 47.3297 143.083 47.5951 142.608 47.78C142.142 47.9569 141.579 48.0453 140.92 48.0453Z" fill="white"/>
<path d="M145.157 47.9247V38.9762H147.882V47.9247H145.157Z" fill="white"/>
<path d="M149.09 47.9247V41.3279H151.816V47.9247H149.09ZM150.453 40.7972C149.955 40.7972 149.557 40.6646 149.259 40.3993C148.962 40.1339 148.813 39.8043 148.813 39.4103C148.813 39.0164 148.962 38.6867 149.259 38.4214C149.557 38.1561 149.955 38.0234 150.453 38.0234C150.952 38.0234 151.35 38.1481 151.647 38.3973C151.945 38.6465 152.093 38.9681 152.093 39.3621C152.093 39.7802 151.945 40.1259 151.647 40.3993C151.35 40.6646 150.952 40.7972 150.453 40.7972Z" fill="white"/>
<path d="M154.893 47.9247L152.24 41.3279H155.038L157.052 46.6825H155.641L157.788 41.3279H160.368L157.715 47.9247H154.893Z" fill="white"/>
<path d="M164.251 48.0453C163.447 48.0453 162.743 47.8966 162.14 47.5991C161.545 47.3016 161.083 46.8956 160.753 46.381C160.424 45.8584 160.259 45.2715 160.259 44.6203C160.259 43.9529 160.42 43.362 160.741 42.8474C161.071 42.3329 161.517 41.9309 162.08 41.6414C162.651 41.352 163.29 41.2073 163.997 41.2073C164.649 41.2073 165.248 41.3359 165.794 41.5932C166.349 41.8505 166.791 42.2324 167.121 42.7389C167.459 43.2454 167.627 43.8725 167.627 44.6203C167.627 44.7167 167.623 44.8253 167.615 44.9459C167.607 45.0584 167.599 45.163 167.591 45.2594H162.514V43.9449H166.144L165.119 44.2946C165.119 44.0374 165.071 43.8203 164.974 43.6434C164.886 43.4585 164.761 43.3178 164.6 43.2213C164.44 43.1168 164.247 43.0645 164.022 43.0645C163.796 43.0645 163.599 43.1168 163.431 43.2213C163.27 43.3178 163.145 43.4585 163.057 43.6434C162.968 43.8203 162.924 44.0374 162.924 44.2946V44.7047C162.924 44.9861 162.98 45.2273 163.093 45.4283C163.205 45.6293 163.366 45.782 163.575 45.8866C163.784 45.983 164.038 46.0313 164.335 46.0313C164.641 46.0313 164.89 45.9911 165.083 45.9107C165.284 45.8303 165.493 45.7097 165.71 45.5489L167.133 46.984C166.811 47.3297 166.413 47.5951 165.939 47.78C165.473 47.9569 164.91 48.0453 164.251 48.0453Z" fill="white"/>
<path d="M168.488 47.9247V41.3279H171.081V43.3178L170.658 42.751C170.859 42.2364 171.181 41.8505 171.623 41.5932C172.065 41.3359 172.596 41.2073 173.215 41.2073V43.6193C173.095 43.6032 172.986 43.5911 172.89 43.5831C172.801 43.5751 172.709 43.571 172.612 43.571C172.202 43.571 171.864 43.6796 171.599 43.8967C171.342 44.1057 171.213 44.4715 171.213 44.9941V47.9247H168.488Z" fill="white"/>
<path d="M175.611 50.3849C175.25 50.3849 174.88 50.3287 174.502 50.2161C174.132 50.1116 173.835 49.9709 173.61 49.794L174.514 47.9247C174.651 48.0292 174.803 48.1136 174.972 48.178C175.149 48.2423 175.318 48.2744 175.479 48.2744C175.72 48.2744 175.905 48.2222 176.034 48.1177C176.162 48.0212 176.267 47.8724 176.347 47.6714L176.625 46.972L176.817 46.7066L178.928 41.3279H181.509L178.795 48.0574C178.554 48.6604 178.273 49.1307 177.951 49.4684C177.638 49.8061 177.284 50.0432 176.89 50.1799C176.504 50.3166 176.078 50.3849 175.611 50.3849ZM176.251 48.2262L173.38 41.3279H176.178L178.156 46.4654L176.251 48.2262Z" fill="white"/>
</svg>
