<svg width="346" height="227" viewBox="0 0 346 227" fill="none" xmlns="http://www.w3.org/2000/svg">
<path d="M339.867 53.4132L334.46 79.6004L330.98 76.2048L325.059 80.4309L320.533 74.8093L310.386 82.188L301.713 67.6848L292.041 73.3516L288.204 68.0633L275.922 74.9844L272.227 67.0689L280.837 25.3672L326.996 34.8985L339.867 53.4132Z" fill="#EBEBEB"/>
<path d="M327.001 34.8984L339.871 53.4131L323.859 50.1079L327.001 34.8984Z" fill="#DBDBDB"/>
<path d="M333.307 84.8305L325.38 123.25L263.203 110.413L271.073 72.3047L274.768 80.2145L287.057 73.2934L290.888 78.5817L300.566 72.9205L309.233 87.4238L319.386 80.045L323.905 85.661L329.832 81.4405L333.307 84.8305Z" fill="#EBEBEB"/>
<path d="M244.319 80.33L180.956 84.251L175.922 2.91534L222.974 0L240.246 14.4919L244.319 80.33Z" fill="#EBEBEB"/>
<path d="M222.969 0L240.24 14.4919L223.924 15.5033L222.969 0Z" fill="#DBDBDB"/>
<path d="M205.431 54.7299L205.182 52.8937C204.544 49.0913 205.584 44.837 208.889 40.3905C211.872 36.4356 213.488 33.6107 213.307 30.4015C213.104 26.7856 210.702 24.5031 206.233 24.6838C203.679 24.8165 201.226 25.7229 199.199 27.2828L197.25 22.9154C199.51 21.0792 203.465 19.7233 207.222 19.5255C215.375 19.0735 219.341 23.8985 219.652 29.2828C219.923 34.1022 217.426 37.7238 214.25 41.9555C211.335 45.8144 210.38 48.9953 210.793 52.5942L210.968 54.4361L205.431 54.7299ZM204.425 64.7358C204.278 62.1143 205.945 60.1707 208.425 60.0351C210.906 59.8995 212.714 61.6397 212.861 64.2669C212.996 66.7472 211.476 68.7472 208.855 68.8941C206.352 69.0354 204.544 67.2161 204.403 64.7358H204.425Z" fill="#DBDBDB"/>
<path d="M46.9401 40.8949L40.5671 38.0078L39.68 39.957C39.5491 40.2356 39.3447 40.4732 39.0889 40.6444C38.8331 40.8156 38.5355 40.9139 38.228 40.9288C37.8778 40.9403 37.5287 40.9743 37.1828 41.0305C36.8792 41.0756 36.569 41.0374 36.2854 40.92C36.0018 40.8025 35.7555 40.6103 35.5726 40.3638L34.3239 38.618L28.6345 42.6972L29.8831 44.443C30.0568 44.695 30.159 44.9893 30.1789 45.2947C30.1988 45.6001 30.1356 45.9052 29.9961 46.1775C29.8351 46.4882 29.6899 46.8069 29.5611 47.1324C29.4492 47.4193 29.2612 47.6704 29.0173 47.8585C28.7734 48.0467 28.4829 48.1648 28.1769 48.2002L26.0469 48.4092L26.7305 55.3755L28.8718 55.1608C29.1789 55.1363 29.4869 55.1959 29.7626 55.3333C30.0384 55.4707 30.2715 55.6806 30.4368 55.9405C30.5272 56.0874 30.6233 56.2287 30.725 56.3699C30.8267 56.5112 30.9284 56.6468 31.0357 56.7824C31.2307 57.0196 31.3561 57.3062 31.398 57.6104C31.4399 57.9146 31.3966 58.2245 31.273 58.5056L30.3803 60.4717L36.759 63.3645L37.6461 61.404C37.7783 61.1256 37.9839 60.8886 38.2407 60.7184C38.4975 60.5482 38.7959 60.4512 39.1037 60.4378C39.45 60.4235 39.7952 60.3896 40.1377 60.3361C40.4413 60.291 40.7514 60.3293 41.035 60.4467C41.3186 60.5641 41.565 60.7563 41.7479 61.0028L42.9965 62.7486L48.6916 58.6694L47.443 56.9236C47.264 56.6739 47.1585 56.3791 47.1385 56.0725C47.1185 55.7659 47.1849 55.4599 47.33 55.1891C47.4874 54.8802 47.6288 54.5633 47.7537 54.2399C47.8624 53.9508 48.0495 53.6978 48.294 53.5092C48.5385 53.3205 48.8307 53.2038 49.1379 53.1721L51.2792 52.9574L50.59 45.9911L48.4486 46.2001C48.1435 46.2269 47.8368 46.1688 47.5626 46.0322C47.2884 45.8956 47.0573 45.6859 46.8949 45.4261C46.7989 45.2792 46.7028 45.138 46.6011 44.9967C46.4994 44.8555 46.3977 44.7142 46.2904 44.5843C46.0967 44.3441 45.9723 44.0557 45.9305 43.75C45.8887 43.4444 45.9311 43.1331 46.0531 42.8498L46.9401 40.8949ZM43.3242 47.3414C43.9849 48.2634 44.3573 49.3606 44.3944 50.4943C44.4315 51.628 44.1315 52.7472 43.5325 53.7104C42.9334 54.6735 42.0622 55.4374 41.029 55.9054C39.9958 56.3735 38.847 56.5246 37.7279 56.3396C36.6088 56.1547 35.5696 55.642 34.7419 54.8665C33.9142 54.0909 33.3351 53.0874 33.0777 51.9827C32.8204 50.878 32.8965 49.7217 33.2963 48.6603C33.6961 47.5988 34.4018 46.6797 35.324 46.0193C36.5603 45.134 38.0976 44.7759 39.5978 45.0238C41.0981 45.2718 42.4385 46.1054 43.3242 47.3414Z" fill="#EBEBEB"/>
<path d="M335.023 133.324L330.775 135.776L331.526 137.076C331.638 137.262 331.694 137.477 331.687 137.695C331.68 137.912 331.61 138.123 331.486 138.302C331.357 138.505 331.232 138.714 331.119 138.935C331.026 139.129 330.88 139.294 330.696 139.408C330.513 139.522 330.301 139.581 330.085 139.579H328.594V144.488H330.097C330.312 144.486 330.525 144.545 330.708 144.659C330.891 144.773 331.038 144.938 331.131 145.132C331.244 145.353 331.368 145.562 331.498 145.765C331.622 145.944 331.691 146.155 331.698 146.372C331.705 146.59 331.65 146.805 331.537 146.991L330.786 148.291L335.035 150.743L335.792 149.438C335.901 149.253 336.06 149.102 336.251 149.002C336.442 148.902 336.656 148.857 336.871 148.873H337.594C337.809 148.858 338.023 148.903 338.213 149.003C338.404 149.102 338.563 149.253 338.673 149.438L339.43 150.748L343.673 148.296L342.922 146.991C342.815 146.804 342.763 146.59 342.771 146.375C342.779 146.159 342.847 145.95 342.967 145.771C343.097 145.568 343.221 145.353 343.334 145.138C343.427 144.943 343.574 144.779 343.757 144.665C343.94 144.551 344.152 144.491 344.368 144.494H345.871V139.584H344.357C344.141 139.587 343.929 139.528 343.746 139.413C343.562 139.299 343.416 139.135 343.323 138.94C343.21 138.726 343.086 138.511 342.956 138.307C342.835 138.128 342.767 137.919 342.759 137.704C342.751 137.488 342.804 137.274 342.911 137.087L343.662 135.782L339.419 133.33L338.662 134.618C338.552 134.803 338.393 134.954 338.203 135.054C338.012 135.154 337.797 135.198 337.583 135.183H337.221H336.86C336.644 135.198 336.429 135.152 336.238 135.053C336.047 134.953 335.886 134.803 335.775 134.618L335.023 133.324ZM337.221 138.014C338.017 138.013 338.796 138.248 339.458 138.689C340.121 139.131 340.637 139.759 340.942 140.494C341.247 141.23 341.327 142.039 341.172 142.82C341.017 143.601 340.634 144.318 340.071 144.881C339.508 145.444 338.791 145.827 338.01 145.982C337.229 146.137 336.42 146.057 335.685 145.752C334.949 145.447 334.321 144.93 333.88 144.268C333.438 143.605 333.203 142.827 333.204 142.031C333.203 141.503 333.307 140.98 333.508 140.492C333.71 140.004 334.006 139.56 334.379 139.187C334.752 138.813 335.195 138.517 335.683 138.314C336.17 138.112 336.693 138.008 337.221 138.008V138.014Z" fill="#EBEBEB"/>
<path d="M59.8356 20.0172L55.9428 23.0003L56.8411 24.1925C56.9751 24.3623 57.0575 24.5671 57.0786 24.7824C57.0996 24.9978 57.0584 25.2146 56.9598 25.4072C56.8517 25.6271 56.7573 25.8535 56.6773 26.0852C56.6077 26.2892 56.4824 26.4698 56.3157 26.6065C56.149 26.7433 55.9475 26.8308 55.7338 26.8592L54.2422 27.0513L54.875 31.9159L56.3665 31.7238C56.5837 31.6935 56.8049 31.7252 57.0048 31.8151C57.2047 31.9051 57.3752 32.0497 57.4965 32.2322C57.6326 32.4288 57.7797 32.6174 57.9372 32.7972C58.0828 32.9573 58.1793 33.1558 58.2154 33.3691C58.2514 33.5824 58.2255 33.8016 58.1406 34.0007L57.5756 35.3905L62.0955 37.2719L62.6605 35.8821C62.7446 35.6827 62.8828 35.5108 63.0596 35.386C63.2363 35.2612 63.4445 35.1884 63.6605 35.1758L64.0221 35.1363L64.3781 35.0798C64.5872 35.0404 64.803 35.059 65.0023 35.1338C65.2015 35.2085 65.3764 35.3364 65.508 35.5035L66.429 36.7069L70.3217 33.7238L69.4121 32.5317C69.2807 32.3595 69.2 32.154 69.1791 31.9384C69.1581 31.7228 69.1977 31.5056 69.2935 31.3113C69.4006 31.0929 69.4949 30.8684 69.576 30.639C69.6456 30.4349 69.7708 30.2544 69.9375 30.1176C70.1042 29.9809 70.3058 29.8934 70.5195 29.8649L72.0111 29.6728L71.3783 24.8083L69.8867 25.0004C69.6701 25.0312 69.4493 25.0004 69.2494 24.9115C69.0495 24.8226 68.8788 24.6791 68.7567 24.4976C68.6155 24.2942 68.4686 24.1021 68.3104 23.9326C68.1788 23.7691 68.0936 23.5732 68.0638 23.3654C68.0339 23.1576 68.0606 22.9457 68.1409 22.7517L68.7059 21.3619L64.186 19.4805L63.621 20.8703C63.5358 21.069 63.3973 21.2401 63.2208 21.3648C63.0442 21.4894 62.8366 21.5627 62.621 21.5766L62.2594 21.6105L61.926 21.6218C61.7169 21.6612 61.5011 21.6425 61.3018 21.5678C61.1026 21.4931 60.9277 21.3652 60.7961 21.198L59.8356 20.0172ZM62.621 24.3846C63.408 24.2834 64.2073 24.4176 64.9182 24.7702C65.629 25.1228 66.2195 25.678 66.6152 26.3658C67.0108 27.0536 67.1939 27.8432 67.1414 28.635C67.0888 29.4267 66.8029 30.1852 66.3198 30.8146C65.8367 31.4441 65.178 31.9164 64.4268 32.1719C63.6755 32.4274 62.8655 32.4548 62.0987 32.2504C61.332 32.0461 60.6429 31.6193 60.1185 31.0238C59.5941 30.4283 59.2577 29.6909 59.1519 28.9045C59.0813 28.3797 59.1152 27.8461 59.2515 27.3344C59.3879 26.8228 59.6241 26.3431 59.9464 25.9231C60.2688 25.503 60.6711 25.1508 61.1301 24.8868C61.5891 24.6228 62.0958 24.4521 62.621 24.3846Z" fill="#EBEBEB"/>
<path d="M30.7458 147.49C30.9581 142.028 30.8826 136.559 30.5198 131.106C29.7114 119.844 27.9939 108.666 25.3841 97.6808C23.949 91.4999 22.1863 85.4206 20.3444 79.347C20.2879 79.1605 19.9941 79.2114 20.0449 79.4035C25.7344 100.817 30.4012 122.908 30.0791 145.168C29.9887 151.383 29.2656 157.513 28.678 163.705C28.678 163.869 28.9322 163.937 28.9718 163.767C30.1413 158.451 30.5255 152.903 30.7458 147.49Z" fill="#EBEBEB"/>
<path d="M20.043 79.3867C20.043 79.3867 11.4325 101.252 13.3592 106.371C15.2858 111.489 19.2633 112.585 19.2633 112.585C19.2633 112.585 13.9919 120.111 17.6757 127.168C21.3594 134.224 29.5404 133.891 30.1054 141.891C30.0884 141.931 30.5404 108.478 20.043 79.3867Z" fill="#EBEBEB"/>
<path d="M29.1539 128.115C29.1678 128.079 29.1678 128.038 29.1539 128.002C28.0238 113.075 25.2227 98.3209 20.8033 84.0178C20.8033 83.9782 20.7186 83.9895 20.7299 84.0178C22.4361 90.421 23.9428 96.8505 25.2498 103.306C24.0922 102.21 22.678 101.421 21.1367 101.013C21.1367 101.013 21.0915 101.047 21.1367 101.058C22.7559 101.651 24.2118 102.619 25.3854 103.883C25.634 105.154 25.8826 106.42 26.1142 107.691C24.1876 105.538 21.5209 104.47 18.8485 103.453C18.8424 103.456 18.8373 103.46 18.8337 103.466C18.8301 103.471 18.8281 103.478 18.8281 103.484C18.8281 103.491 18.8301 103.497 18.8337 103.503C18.8373 103.509 18.8424 103.513 18.8485 103.516C21.6339 104.645 24.4023 106.103 26.2894 108.504C26.9448 112.132 27.521 115.772 28.0182 119.426C26.6271 117.968 24.8431 116.946 22.8825 116.482C22.8203 116.482 22.7864 116.555 22.8486 116.572C24.8626 117.166 26.6607 118.332 28.0239 119.928H28.0578C28.2273 121.209 28.3892 122.495 28.5437 123.787C27.4675 122.877 26.2525 122.144 24.9447 121.618C24.9108 121.618 24.8882 121.657 24.9447 121.669C26.2793 122.247 27.5014 123.056 28.555 124.058C28.555 124.058 28.5832 124.058 28.6002 124.058C28.7414 125.284 28.8827 126.511 29.007 127.737C27.0669 125.391 24.549 123.592 21.7017 122.516C21.6897 122.516 21.6782 122.521 21.6697 122.529C21.6612 122.538 21.6565 122.549 21.6565 122.561C21.6565 122.573 21.6612 122.585 21.6697 122.593C21.6782 122.602 21.6897 122.606 21.7017 122.606C24.5133 123.846 26.983 125.747 28.8996 128.149C28.9207 128.175 28.9492 128.195 28.9814 128.205C29.0136 128.215 29.0481 128.215 29.0804 128.205C29.2669 130.087 29.4363 131.968 29.5719 133.855C29.5719 133.884 29.6171 133.884 29.6171 133.855C29.4702 131.961 29.3158 130.047 29.1539 128.115Z" fill="white"/>
<path d="M22.2326 98.862C20.6733 97.8915 18.8919 97.3353 17.0573 97.2461C17.0483 97.2461 17.0397 97.2497 17.0334 97.256C17.027 97.2624 17.0234 97.271 17.0234 97.28C17.0234 97.289 17.027 97.2976 17.0334 97.304C17.0397 97.3103 17.0483 97.3139 17.0573 97.3139C18.831 97.6502 20.5522 98.2202 22.1761 99.0089C22.2439 99.0258 22.2948 98.9072 22.2326 98.862Z" fill="white"/>
<path d="M23.2747 122.007C22.0762 121.32 20.7565 120.869 19.3876 120.68C19.3424 120.68 19.3368 120.742 19.3876 120.753C20.7243 121.021 22.0173 121.474 23.2295 122.098C23.2804 122.126 23.3256 122.036 23.2747 122.007Z" fill="white"/>
<path d="M53.3956 106.748C49.753 109.266 46.4076 112.189 43.4235 115.461C40.346 118.925 37.9722 122.954 36.4346 127.325C33.1621 136.432 31.4025 146.013 31.2254 155.688C31.1157 161.046 31.6295 166.398 32.7565 171.637C32.7657 171.675 32.7891 171.709 32.822 171.73C32.8549 171.751 32.8947 171.759 32.9332 171.752C32.9717 171.744 33.0059 171.723 33.0287 171.691C33.0516 171.659 33.0614 171.62 33.056 171.581C31.6536 162.335 31.7069 152.928 33.2142 143.699C34.6945 134.659 37.0166 124.817 42.7681 117.466C45.8982 113.461 49.8022 110.314 53.6611 107.059C53.8645 106.878 53.6046 106.602 53.3956 106.748Z" fill="#EBEBEB"/>
<path d="M32.4844 149.166C34.5578 145.812 36.9944 142.697 39.7501 139.877C44.061 135.566 47.6882 132.504 48.2532 129.657C48.8182 126.809 43.9367 124.707 43.9367 124.707C43.9367 124.707 49.8973 125.781 51.5301 123.278C53.1629 120.775 53.9483 106.277 53.9483 106.277C53.9483 106.277 43.1005 114.023 38.0439 124.882C32.9872 135.741 32.4844 149.166 32.4844 149.166Z" fill="#EBEBEB"/>
<path d="M50.0557 119.881C49.3414 119.775 48.6173 119.75 47.8974 119.808C47.8127 119.808 47.8183 119.954 47.8974 119.96C48.6093 119.96 49.3268 119.926 50.0387 119.96C50.0468 119.958 50.0542 119.954 50.0601 119.948C50.0659 119.942 50.0699 119.934 50.0716 119.926C50.0734 119.918 50.0728 119.909 50.07 119.901C50.0672 119.893 50.0622 119.886 50.0557 119.881Z" fill="white"/>
<path d="M42.2666 133.941C41.1211 133.965 39.9888 134.19 38.9219 134.608C38.9219 134.608 38.9219 134.665 38.9219 134.659C40.0519 134.393 41.1423 134.286 42.261 134.094C42.2756 134.088 42.2881 134.077 42.297 134.064C42.306 134.051 42.3111 134.035 42.3117 134.019C42.3123 134.004 42.3083 133.988 42.3004 133.974C42.2924 133.96 42.2807 133.949 42.2666 133.941Z" fill="white"/>
<path d="M39.932 129.082C39.4564 129.078 38.9815 129.12 38.5138 129.207C38.5052 129.21 38.4977 129.216 38.4925 129.223C38.4872 129.231 38.4844 129.24 38.4844 129.249C38.4844 129.258 38.4872 129.267 38.4925 129.275C38.4977 129.282 38.5052 129.288 38.5138 129.291C38.9874 129.319 39.4626 129.298 39.932 129.229C39.9514 129.229 39.9701 129.221 39.9839 129.208C39.9977 129.194 40.0054 129.175 40.0054 129.156C40.0054 129.136 39.9977 129.118 39.9839 129.104C39.9701 129.09 39.9514 129.082 39.932 129.082Z" fill="white"/>
<path d="M0.685613 122.127C4.21633 123.324 7.59969 124.918 10.7706 126.879C14.0608 128.97 16.914 131.679 19.172 134.857C23.923 141.47 27.5605 148.816 29.9407 156.603C31.2681 160.915 32.0873 165.367 32.3814 169.869C32.3753 169.898 32.3593 169.924 32.3361 169.943C32.313 169.962 32.2841 169.972 32.2543 169.972C32.2245 169.972 32.1956 169.962 32.1725 169.943C32.1494 169.924 32.1334 169.898 32.1272 169.869C31.1299 162.063 28.9146 154.462 25.562 147.343C22.2682 140.365 18.1155 132.941 11.765 128.32C8.3073 125.806 4.42018 124.156 0.544366 122.416C0.34097 122.348 0.482217 122.06 0.685613 122.127Z" fill="#EBEBEB"/>
<path d="M27.4083 151.624C24.9537 149.39 22.2614 147.433 19.3798 145.787C14.8938 143.296 11.2496 141.657 10.1366 139.482C9.02355 137.307 12.4869 134.482 12.4869 134.482C12.4869 134.482 7.91053 136.742 6.01217 135.075C4.11381 133.409 0.125 121.883 0.125 121.883C0.125 121.883 10.6959 125.64 17.2893 133.262C23.8827 140.883 27.4083 151.624 27.4083 151.624Z" fill="#EBEBEB"/>
<path d="M18.6282 141.016C17.5889 140.943 16.5454 141.072 15.5547 141.394C15.5547 141.394 15.5547 141.445 15.5547 141.439C16.5654 141.266 17.5865 141.16 18.6113 141.123C18.6847 141.123 18.7017 141.021 18.6282 141.016Z" fill="white"/>
<path d="M9.41896 128.923C8.94486 128.885 8.46769 128.911 8.00084 129.003C7.94999 129.003 7.96694 129.093 8.00084 129.087C8.46978 129.036 8.92742 129.053 9.39071 129.042C9.4051 129.043 9.41924 129.038 9.43072 129.03C9.4422 129.021 9.4503 129.008 9.45364 128.994C9.45697 128.98 9.45534 128.966 9.44901 128.953C9.44269 128.94 9.43206 128.929 9.41896 128.923Z" fill="white"/>
<path d="M41.0391 184.441H17.1797L20.5809 159.519L21.451 153.129H36.7678L37.6379 159.519L41.0391 184.441Z" fill="#DBDBDB"/>
<path d="M37.6429 159.519H20.5859L21.456 153.129H36.7728L37.6429 159.519Z" fill="#C7C7C7"/>
<path d="M38.9611 150.914H19.2656V156.327H38.9611V150.914Z" fill="#DBDBDB"/>
<path d="M2.00781 184.439L44.9525 184.303L87.8973 184.252L173.787 184.156L259.676 184.252L302.621 184.303L345.566 184.439L302.621 184.58L259.676 184.625L173.787 184.721L87.8973 184.625L44.9525 184.574L2.00781 184.439Z" fill="#263238"/>
<path d="M174.919 226.551C264.391 226.551 336.923 218.603 336.923 208.799C336.923 198.995 264.391 191.047 174.919 191.047C85.446 191.047 12.9141 198.995 12.9141 208.799C12.9141 218.603 85.446 226.551 174.919 226.551Z" fill="#EBEBEB"/>
<path d="M137.205 205.86C135.889 206.306 98.1417 206.425 96.6953 205.532C96.1304 205.193 95.8083 199.696 95.5654 193.04C95.5145 191.605 95.475 190.119 95.4411 188.616L92.4297 168.48L117.668 168.316L120.046 188.458L119.95 192.888C119.95 192.888 134.425 199.3 135.906 200.464C137.386 201.628 138.521 205.413 137.205 205.86Z" fill="#EB9481"/>
<path d="M137.21 205.859C135.894 206.305 98.1468 206.424 96.7004 205.531C96.0337 205.113 95.6721 197.084 95.4688 188.615L120.023 188.457L119.927 192.887C119.927 192.887 134.402 199.299 135.882 200.463C137.363 201.627 138.526 205.412 137.21 205.859Z" fill="white"/>
<path d="M137.202 205.859C135.886 206.305 98.1388 206.424 96.6925 205.531C96.1275 205.192 95.8054 199.695 95.5625 193.039L119.897 192.887C119.897 192.887 134.372 199.299 135.852 200.463C137.332 201.627 138.519 205.412 137.202 205.859Z" fill="#A6A6A6"/>
<path d="M136.654 204.352C130.326 204.216 104.788 204.278 98.5225 204.628C98.4717 204.628 98.4717 204.662 98.5225 204.668C104.794 204.934 130.331 204.668 136.654 204.453C136.789 204.448 136.789 204.352 136.654 204.352Z" fill="#263238"/>
<path d="M133.447 199.115C132.743 199.099 132.044 199.229 131.393 199.498C130.742 199.766 130.155 200.167 129.667 200.674C128.778 201.579 128.275 202.795 128.266 204.064C128.266 204.103 128.333 204.103 128.339 204.064C128.549 202.814 129.158 201.665 130.074 200.79C130.991 199.914 132.166 199.358 133.424 199.205C133.436 199.208 133.449 199.206 133.459 199.2C133.47 199.193 133.477 199.183 133.48 199.171C133.483 199.159 133.482 199.146 133.475 199.136C133.469 199.125 133.459 199.118 133.447 199.115Z" fill="#263238"/>
<path d="M122.378 193.508C119.846 193.48 116.914 194.384 115.343 196.463C115.287 196.542 115.4 196.627 115.473 196.588C117.685 195.42 120.014 194.492 122.423 193.819C122.46 193.809 122.492 193.786 122.513 193.753C122.534 193.721 122.543 193.682 122.538 193.644C122.532 193.606 122.513 193.571 122.483 193.546C122.454 193.521 122.416 193.508 122.378 193.508Z" fill="#263238"/>
<path d="M124.341 194.258C121.804 194.258 118.872 195.139 117.307 197.213C117.245 197.297 117.358 197.382 117.437 197.343C119.645 196.171 121.973 195.241 124.381 194.569C124.417 194.558 124.449 194.535 124.47 194.504C124.492 194.472 124.501 194.434 124.496 194.396C124.491 194.358 124.473 194.323 124.444 194.298C124.416 194.273 124.379 194.258 124.341 194.258Z" fill="#263238"/>
<path d="M126.299 195.016C123.768 195.016 120.836 195.891 119.265 197.971C119.209 198.05 119.322 198.134 119.395 198.095C121.607 196.928 123.936 196 126.345 195.326C126.382 195.316 126.414 195.293 126.435 195.26C126.456 195.228 126.465 195.189 126.459 195.151C126.454 195.113 126.434 195.078 126.405 195.053C126.376 195.028 126.338 195.015 126.299 195.016Z" fill="#263238"/>
<path d="M128.255 195.774C125.718 195.746 122.786 196.65 121.221 198.729C121.158 198.808 121.277 198.893 121.35 198.853C123.561 197.685 125.891 196.757 128.3 196.085C128.337 196.075 128.369 196.051 128.39 196.019C128.412 195.987 128.42 195.948 128.415 195.909C128.409 195.871 128.39 195.836 128.36 195.811C128.331 195.787 128.293 195.773 128.255 195.774Z" fill="#263238"/>
<path d="M100.119 198.609C97.2938 198.609 97.2938 203.045 100.119 203.028C102.944 203.011 102.966 198.592 100.119 198.609Z" fill="#263238"/>
<path d="M125.092 186.74C123.81 185.678 122.194 186.74 121.408 187.83C120.101 189.758 119.322 191.994 119.148 194.317C119.148 194.367 119.188 194.39 119.228 194.39C119.238 194.438 119.259 194.483 119.29 194.52C119.321 194.558 119.36 194.588 119.405 194.607C119.45 194.627 119.499 194.635 119.548 194.632C119.596 194.628 119.643 194.613 119.685 194.588C121.482 193.339 123.561 192.22 124.923 190.452C125.697 189.424 126.329 187.729 125.092 186.74ZM122.007 192.13C121.137 192.768 120.239 193.362 119.391 194.034C119.843 192.768 120.233 191.492 120.81 190.271C121.076 189.686 121.382 189.12 121.725 188.576C122.29 187.734 124.753 185.61 125.013 188.362C125.16 189.87 123.041 191.373 122.007 192.13Z" fill="#263238"/>
<path d="M112.845 195.275C115.049 195.602 117.326 194.969 119.49 194.625C119.537 194.613 119.58 194.589 119.616 194.557C119.653 194.525 119.681 194.485 119.699 194.44C119.718 194.395 119.725 194.346 119.721 194.298C119.717 194.25 119.701 194.203 119.676 194.162C119.684 194.155 119.691 194.147 119.695 194.138C119.7 194.128 119.702 194.118 119.702 194.108C119.702 194.097 119.7 194.087 119.695 194.078C119.691 194.069 119.684 194.061 119.676 194.054C117.937 192.504 115.821 191.438 113.54 190.964C112.207 190.709 110.32 191.077 110.15 192.732C109.947 194.291 111.557 195.071 112.845 195.275ZM111.309 193.839C109.614 191.67 112.851 191.483 113.823 191.709C114.453 191.867 115.072 192.067 115.676 192.308C116.912 192.821 118.12 193.396 119.297 194.032C118.224 194.139 117.167 194.331 116.1 194.478C114.823 194.647 112.258 195.032 111.309 193.839Z" fill="#263238"/>
<path d="M55.3203 75.4062C55.3203 75.4062 84.6262 125.261 85.4116 128.764C86.615 134.142 92.9937 187.257 92.9937 187.257L123.503 186.692C123.503 186.692 118.249 139.86 113.271 124.43C109.689 113.317 83.8239 76.4571 83.8239 76.4571L55.3203 75.4062Z" fill="#37474F"/>
<path d="M120.73 182.038C116.351 182.004 100.831 181.829 95.0006 182.372C94.9554 182.372 94.961 182.451 95.0006 182.456C97.0063 182.744 116.346 182.298 120.724 182.157C120.734 182.16 120.743 182.161 120.753 182.16C120.763 182.159 120.772 182.156 120.78 182.15C120.788 182.145 120.795 182.137 120.8 182.129C120.804 182.121 120.807 182.111 120.808 182.101C120.808 182.092 120.806 182.082 120.802 182.073C120.798 182.064 120.792 182.056 120.785 182.05C120.777 182.044 120.768 182.04 120.759 182.038C120.749 182.036 120.74 182.036 120.73 182.038Z" fill="#263238"/>
<path d="M60.3238 79.9861C62.2447 82.9975 64.2787 85.9467 66.2336 88.9355C68.1884 91.9243 70.1546 94.9131 72.0925 97.8962C75.957 103.923 79.7236 109.989 83.3922 116.094C85.1827 118.925 86.7144 121.91 87.9687 125.016C89.1136 128.121 89.974 131.325 90.5393 134.587C91.1382 137.858 91.5337 141.163 91.901 144.468C92.2776 147.982 92.6712 151.498 93.0818 155.016C93.8841 162.214 94.6882 169.412 95.4943 176.61C95.5903 177.492 95.6864 178.373 95.7768 179.26C95.7768 179.39 95.5564 179.413 95.5395 179.26C94.6412 172.113 93.8954 164.938 93.0818 157.791C92.675 154.224 92.2701 150.659 91.8671 147.095C91.4885 143.779 91.1269 140.457 90.6128 137.163C90.141 133.912 89.4233 130.701 88.4658 127.558C87.4109 124.304 85.9973 121.177 84.251 118.236C80.7199 112.14 76.9796 106.151 73.2394 100.156C69.4992 94.1616 65.6573 88.1163 61.7137 82.1952C61.2278 81.4664 60.7362 80.7375 60.2277 80.02C60.1882 79.9804 60.2899 79.9296 60.3238 79.9861Z" fill="#263238"/>
<path d="M64.9276 208.795C63.5377 208.711 27.6383 194.168 26.644 192.789C26.5997 192.708 26.58 192.616 26.5875 192.524C26.5875 191.286 29.0791 186.97 31.1582 181.297C31.2882 180.936 32.2148 179.252 33.4973 176.986C37.0623 170.777 43.2772 160.082 43.2772 160.082L66.7412 169.404L55.5092 186.213L53.7634 190.281C53.7634 190.281 64.775 201.665 65.7016 203.275C66.6282 204.886 66.3118 208.874 64.9276 208.795Z" fill="#EB9481"/>
<path d="M64.9276 208.797C63.5377 208.712 27.6383 194.17 26.644 192.791C26.5997 192.71 26.58 192.618 26.5875 192.525C26.5875 191.288 29.0791 186.972 31.1582 181.299C31.2882 180.938 32.2148 179.254 33.4973 176.988L55.5318 186.215L53.786 190.282C53.786 190.282 64.7976 201.667 65.7242 203.277C66.6508 204.887 66.3118 208.876 64.9276 208.797Z" fill="white"/>
<path d="M64.9333 208.795C63.5434 208.71 27.6441 194.167 26.6497 192.789C26.2655 192.263 27.8701 187.365 31.1696 181.297L53.7691 190.286C53.7691 190.286 64.7807 201.659 65.7129 203.281C66.6452 204.902 66.3175 208.874 64.9333 208.795Z" fill="#A6A6A6"/>
<path d="M64.982 207.19C59.1683 204.693 35.4727 195.167 29.5347 193.145C29.4838 193.145 29.4725 193.145 29.5347 193.178C35.2467 195.777 59.0157 205.111 64.9594 207.303C65.0724 207.331 65.1063 207.241 64.982 207.19Z" fill="#263238"/>
<path d="M63.9681 201.129C63.3234 200.845 62.6269 200.699 61.9228 200.699C61.2187 200.699 60.5222 200.845 59.8775 201.129C58.7184 201.636 57.7997 202.571 57.3125 203.739C57.3125 203.773 57.3634 203.801 57.3803 203.767C58.0464 202.684 59.0456 201.846 60.2282 201.378C61.4108 200.911 62.7131 200.839 63.9398 201.174C63.9493 201.171 63.9575 201.165 63.9627 201.157C63.9679 201.148 63.9698 201.138 63.9681 201.129Z" fill="#263238"/>
<path d="M55.8112 191.784C53.4778 190.806 50.4155 190.546 48.1838 191.885C48.0991 191.936 48.1838 192.055 48.2573 192.049C50.7451 191.797 53.2527 191.81 55.7377 192.089C55.776 192.093 55.8144 192.083 55.8458 192.061C55.8773 192.039 55.8996 192.006 55.9086 191.969C55.9176 191.931 55.9127 191.892 55.8948 191.858C55.8768 191.824 55.8471 191.797 55.8112 191.784Z" fill="#263238"/>
<path d="M57.3502 193.217C55.0168 192.24 51.9546 191.98 49.7229 193.319C49.6381 193.37 49.7229 193.488 49.7963 193.483C52.284 193.228 54.7919 193.241 57.2768 193.522C57.315 193.527 57.3535 193.517 57.3849 193.494C57.4164 193.472 57.4387 193.44 57.4477 193.402C57.4567 193.365 57.4518 193.325 57.4338 193.291C57.4159 193.257 57.3862 193.231 57.3502 193.217Z" fill="#263238"/>
<path d="M58.8841 194.655C56.5451 193.677 53.4828 193.417 51.2568 194.756C51.1664 194.807 51.2568 194.926 51.3246 194.92C53.8123 194.665 56.3202 194.678 58.805 194.96C58.844 194.966 58.8841 194.958 58.9173 194.937C58.9505 194.915 58.9744 194.882 58.9843 194.844C58.9942 194.805 58.9895 194.765 58.9709 194.73C58.9524 194.695 58.9214 194.668 58.8841 194.655Z" fill="#263238"/>
<path d="M60.4154 196.089C58.0763 195.112 55.0197 194.852 52.788 196.185C52.6976 196.242 52.788 196.36 52.8558 196.355C55.3435 196.099 57.8514 196.113 60.3363 196.394C60.3753 196.401 60.4153 196.392 60.4485 196.371C60.4817 196.349 60.5056 196.316 60.5156 196.278C60.5255 196.24 60.5207 196.199 60.5022 196.164C60.4836 196.129 60.4527 196.102 60.4154 196.089Z" fill="#263238"/>
<path d="M33.2642 188.163C30.6257 187.112 28.9872 191.219 31.637 192.27C34.2868 193.321 35.9309 189.214 33.2642 188.163Z" fill="#263238"/>
<path d="M60.8753 186.532C60.0787 185.069 58.1973 185.43 57.0504 186.159C55.1183 187.453 53.5598 189.232 52.5305 191.317C52.5259 191.327 52.5235 191.337 52.5234 191.347C52.5233 191.357 52.5256 191.367 52.5299 191.376C52.5342 191.386 52.5406 191.394 52.5485 191.4C52.5565 191.407 52.5657 191.411 52.5757 191.413C52.5757 191.6 52.7 191.82 52.9203 191.775C55.0616 191.283 57.4063 191.029 59.3273 189.899C60.429 189.244 61.6268 187.916 60.8753 186.532ZM55.9882 190.368C54.943 190.634 53.8921 190.848 52.8582 191.154C53.7134 190.123 54.6204 189.137 55.5758 188.199C56.0461 187.751 56.5463 187.336 57.073 186.956C57.8922 186.391 60.9883 185.345 60.1974 187.995C59.7623 189.459 57.2368 190.052 55.9882 190.368Z" fill="#263238"/>
<path d="M46.3136 189.844C48.2346 190.973 50.5793 191.239 52.7149 191.736C52.9353 191.787 53.0822 191.567 53.0652 191.375C53.0758 191.373 53.086 191.37 53.0947 191.363C53.1033 191.357 53.1103 191.349 53.1148 191.339C53.1194 191.33 53.1213 191.319 53.1206 191.308C53.1198 191.298 53.1163 191.287 53.1104 191.279C52.0828 189.189 50.5241 187.406 48.5905 186.109C47.4606 185.374 45.5679 185.007 44.7656 186.465C43.9633 187.923 45.1893 189.182 46.3136 189.844ZM45.4323 187.934C44.6469 185.284 47.7374 186.335 48.5566 186.906C49.0827 187.286 49.5811 187.703 50.0482 188.154C51.0017 189.094 51.9069 190.083 52.7601 191.115C51.7262 190.81 50.6753 190.589 49.6301 190.324C48.3645 189.985 45.8616 189.42 45.4323 187.934Z" fill="#263238"/>
<path d="M57.3288 185.275L31.0625 174.67C31.0625 174.67 63.6284 126.787 63.8657 123.222C64.0804 120.07 49.7749 92.5999 49.2156 84.5941C48.6054 75.9498 52.7637 69.2659 57.3401 65.1133L84.4313 76.6334C84.4313 76.6334 81.5724 81.2041 77.0864 83.7522C77.0864 83.7522 90.9795 115.505 90.1885 125.268C89.3975 135.031 57.3288 185.275 57.3288 185.275Z" fill="#37474F"/>
<path d="M58.4996 180.279C54.7029 178.646 55.8159 179.058 51.9966 177.454C50.1321 176.674 37.8719 171.572 35.9848 171.148C35.9452 171.148 35.917 171.205 35.9565 171.228C37.5894 172.228 49.9513 177.115 51.8327 177.86C55.6803 179.375 54.5899 178.9 58.4544 180.369C58.4601 180.377 58.4678 180.383 58.4766 180.387C58.4854 180.391 58.495 180.392 58.5046 180.391C58.5142 180.391 58.5234 180.387 58.5314 180.382C58.5394 180.376 58.5458 180.369 58.5501 180.36C58.5544 180.352 58.5564 180.342 58.556 180.333C58.5556 180.323 58.5527 180.314 58.5476 180.305C58.5426 180.297 58.5355 180.29 58.5271 180.286C58.5187 180.281 58.5092 180.279 58.4996 180.279Z" fill="#263238"/>
<path d="M81.5338 83.1727C78.7133 83.8301 75.9538 84.726 73.285 85.8507C73.2742 85.8544 73.2643 85.8602 73.2558 85.8678C73.2473 85.8753 73.2403 85.8845 73.2353 85.8947C73.2303 85.9049 73.2274 85.916 73.2267 85.9274C73.226 85.9387 73.2276 85.9501 73.2313 85.9609C73.235 85.9716 73.2408 85.9816 73.2483 85.9901C73.2559 85.9986 73.265 86.0056 73.2753 86.0105C73.2855 86.0155 73.2966 86.0184 73.308 86.0191C73.3193 86.0198 73.3307 86.0183 73.3415 86.0146C76.1099 85.2066 78.9236 84.4495 81.6468 83.4947C81.8558 83.4213 81.7485 83.1275 81.5338 83.1727Z" fill="#263238"/>
<path d="M78.3087 82.0764C78.0454 82.5446 77.8133 83.0297 77.6138 83.5284C77.4187 83.9069 77.2979 84.3192 77.2578 84.7431C77.2578 84.8279 77.3708 84.8448 77.4217 84.794C77.7051 84.4549 77.9339 84.0737 78.0996 83.664C78.3313 83.2177 78.5686 82.777 78.7889 82.3193C78.9415 81.986 78.4838 81.7713 78.3087 82.0764Z" fill="#263238"/>
<path d="M78.6513 79.5106C78.8208 79.0925 78.9846 78.6801 79.1598 78.262C79.3349 77.8439 79.5553 77.4145 79.7248 76.9738C79.7248 76.906 79.8604 76.9738 79.8321 77.0247C79.6626 77.4428 79.5553 77.8835 79.4253 78.3129C79.2954 78.7422 79.1485 79.1716 79.0072 79.601C78.7417 80.3977 78.4423 81.1886 78.075 81.9627C78.5196 81.9849 78.9635 81.9077 79.3745 81.7367C79.7943 81.468 80.117 81.072 80.2954 80.6067C80.5327 80.1434 80.7531 79.6688 80.996 79.2055C81.295 78.7047 81.5466 78.1769 81.7474 77.6292C81.7474 77.5614 81.883 77.6292 81.8548 77.6801C81.4864 78.8381 81.0038 79.9566 80.4141 81.0192C80.1598 81.4316 79.9621 81.8666 79.4988 82.0248C78.9973 82.1651 78.4725 82.2016 77.9564 82.1322C77.8886 82.1322 77.8095 82.1322 77.8321 82.0305C78.0634 81.1775 78.3368 80.3366 78.6513 79.5106Z" fill="#263238"/>
<path d="M77.4918 84.7875C78.4579 86.8271 79.3054 88.8611 80.2038 90.8951C81.1021 92.929 81.8987 94.8952 82.7067 96.9178C84.3225 100.997 85.7689 105.155 87.0401 109.348C87.6673 111.427 88.2492 113.523 88.769 115.636C89.3415 117.742 89.7607 119.887 90.0233 122.054C90.2499 124.217 90.0581 126.404 89.4583 128.495C88.8352 130.562 88.0356 132.571 87.0684 134.501C86.4751 135.721 86.2774 135.557 86.5599 134.942C87.3678 133.19 89.4865 127.885 89.334 123.427C89.2104 121.293 88.8812 119.176 88.3509 117.105C87.8575 114.969 87.3019 112.85 86.6842 110.749C85.4807 106.602 84.0513 102.539 82.5824 98.4828C81.7575 96.2229 80.8874 93.9629 80.0399 91.703C79.1924 89.443 78.3449 87.3639 77.3958 84.8666C77.3675 84.7649 77.4636 84.7254 77.4918 84.7875Z" fill="#263238"/>
<path d="M57.5493 78.0466C58.0182 77.8714 58.6792 78.1596 59.1538 78.2387C59.7685 78.343 60.3895 78.4053 61.0126 78.4251C61.6292 78.4468 62.2465 78.4261 62.8602 78.363C63.4782 78.347 64.0839 78.1864 64.6286 77.894C65.5223 77.243 66.2884 76.4328 66.8885 75.5041C67.6036 74.5552 68.1942 73.5184 68.6456 72.4193C68.6456 72.3515 68.7643 72.4193 68.7417 72.4645C68.5439 73.0916 68.397 73.7244 68.1767 74.3403C67.9331 74.9189 67.6421 75.4763 67.3066 76.007C66.7627 77.0748 65.9582 77.9881 64.9676 78.6624C63.8771 79.2839 62.476 79.2274 61.2612 79.1766C60.5567 79.1355 59.8562 79.043 59.1651 78.8997C58.668 78.7924 57.8318 78.7133 57.5154 78.2782C57.5005 78.2616 57.4895 78.2419 57.483 78.2205C57.4766 78.1991 57.4749 78.1766 57.4782 78.1545C57.4814 78.1324 57.4894 78.1113 57.5017 78.0926C57.514 78.074 57.5303 78.0583 57.5493 78.0466Z" fill="#263238"/>
<path d="M38.5642 169.647C42.8807 163.108 47.1181 156.516 51.2765 149.872C55.4348 143.228 59.5366 136.533 63.5819 129.787C64.548 128.176 65.6611 126.572 66.2825 124.787C66.9605 122.849 66.5763 120.967 65.9661 119.069C64.8139 115.606 63.4671 112.21 61.9321 108.899C60.418 105.56 58.7851 102.277 57.1806 98.9835C55.576 95.6896 53.898 92.4353 52.6607 89.0002C51.5307 85.7176 51.0731 82.3164 51.9544 78.9152C52.8358 75.5139 54.7342 72.5082 56.7173 69.6776C57.2371 68.9318 57.7738 68.1917 58.2993 67.4177C58.3388 67.3612 58.4236 67.4177 58.384 67.4855C56.1975 70.4347 54.0675 73.5591 52.785 77.0225C52.1295 78.7296 51.7629 80.534 51.7002 82.3616C51.6895 84.2167 51.9776 86.0615 52.5533 87.825C53.6155 91.2601 55.2935 94.5088 56.8585 97.7406C58.4236 100.972 60.0959 104.317 61.6383 107.645C63.2296 110.994 64.644 114.424 65.8757 117.922C66.4012 119.476 67.0057 121.103 66.9605 122.77C66.921 124.594 66.0509 126.239 65.1469 127.775C61.192 134.47 57.141 141.086 53.0166 147.663C48.8922 154.239 44.6492 160.816 40.3552 167.324L38.7281 169.782C38.6433 169.884 38.4964 169.765 38.5642 169.647Z" fill="#263238"/>
<path d="M85.938 46.1801C88.3844 51.5475 100.741 58.9432 106.526 59.7399C110.684 60.3048 123.329 60.5082 127.662 59.8472C132.747 59.0675 128.86 45.3666 125.86 45.7225C117.611 46.683 110.605 47.7565 108.402 47.7565C105.713 47.7565 91.1641 43.0897 89.4127 42.4286C85.1188 40.8297 84.5538 43.1349 85.938 46.1801Z" fill="#EB9481"/>
<path d="M86.0225 47.6116C89.1186 52.1936 99.407 59.6854 99.407 59.6854L100.836 56.5214L105.565 46.0578C105.565 46.0578 96.1132 43.0917 89.8926 41.7357C89.1606 41.5691 88.4161 41.4633 87.6666 41.4193C83.6947 41.2046 83.3501 43.6566 86.0225 47.6116Z" fill="#10B981"/>
<path d="M86.0225 47.6094C89.1186 52.1915 99.407 59.6832 99.407 59.6832L100.836 56.5193C97.0002 52.0615 91.0735 45.3099 87.6666 41.4285C83.6947 41.2025 83.3501 43.6545 86.0225 47.6094Z" fill="#263238"/>
<path d="M97.5466 57.56C98.3319 55.6334 101.824 47.8761 102.694 46.2603C102.75 46.1473 102.841 46.1586 102.79 46.2603C101.275 50.1179 99.5512 53.8901 97.6257 57.56C97.6031 57.6278 97.5127 57.6052 97.5466 57.56Z" fill="#263238"/>
<path d="M124.344 45.8668C129.361 45.2114 135.57 44.087 140.83 46.3187C141.421 46.5505 141.916 46.9744 142.237 47.5222C144.61 48.4826 144.87 49.8895 144.87 49.8895C146.808 51.4601 146.875 52.9404 146.875 52.9404C146.875 52.9404 149.655 54.0704 149.231 55.8896C148.768 57.901 144.96 55.8896 142.192 56.0535C135.836 56.449 126.937 58.7824 125.101 59.0762L124.344 45.8668Z" fill="#EB9481"/>
<path d="M135.24 51.786C137.098 51.6589 138.963 51.6589 140.822 51.786C142.846 52.04 144.848 52.446 146.811 53.0008C146.823 53.0053 146.837 53.0045 146.85 52.9987C146.862 52.9929 146.871 52.9824 146.876 52.9697C146.88 52.957 146.879 52.943 146.874 52.9308C146.868 52.9186 146.857 52.9092 146.845 52.9047C143.157 51.4579 139.143 51.0514 135.24 51.7295C135.149 51.7182 135.149 51.7917 135.24 51.786Z" fill="#263238"/>
<path d="M134.062 45.9169C137.164 46.075 139.102 46.5722 142.221 47.5101V47.4762C138.785 46.0411 137.379 45.9055 134.045 45.7812C133.938 45.8264 133.944 45.9169 134.062 45.9169Z" fill="#263238"/>
<path d="M134.565 57.0117C133.757 57.3903 133.955 57.814 135.497 58.1699C137.04 58.5259 143.452 58.6332 143.226 60.8706C143 63.1079 133.955 62.8254 131.429 62.0345C128.904 61.2435 125.102 59.0739 125.102 59.0739C126.893 58.7745 131.096 57.6389 134.565 57.0117Z" fill="#EB9481"/>
<path d="M92.6568 54.7348C92.6172 55.7009 92.5268 56.684 92.3912 57.6614C92.3912 57.6219 92.3912 57.588 92.4308 57.5541C92.6172 57.0456 92.8037 56.5258 93.0297 56.0343C93.0297 56.0343 93.0862 56.0343 93.0805 56.0343C92.9719 56.5729 92.8092 57.0991 92.5946 57.6049C92.4929 57.8479 92.3969 58.0852 92.2896 58.3225C92.2218 58.7575 92.1427 59.1869 92.0579 59.6163C91.8884 60.4242 91.1257 63.8593 90.9279 64.4413C90.894 64.5599 90.7471 64.5317 90.7584 64.3961C90.798 63.7633 91.4364 60.1869 91.5664 59.3734C91.8188 57.8025 92.1564 56.2464 92.5777 54.7122C92.6059 54.684 92.6624 54.7065 92.6568 54.7348Z" fill="#263238"/>
<path d="M86.7802 80.4244C85.2717 81.1984 83.3281 82.4019 74.5708 80.6786C74.0058 80.5656 73.4747 80.4301 72.921 80.2662C64.7118 77.8029 54.8414 68.1472 54.3047 67.4636C54.3047 67.4636 67.3503 46.3161 84.0343 39.6662C86.0966 38.8469 89.5091 40.4289 91.3792 42.4007C92.0515 43.107 93.5148 48.2992 92.9555 52.5027C92.3962 56.7062 88.2831 79.6504 86.7802 80.4244Z" fill="#10B981"/>
<path d="M85.6056 52.3125C85.6686 53.2061 85.5435 54.103 85.2383 54.9453C85.1667 54.0514 85.2921 53.1527 85.6056 52.3125Z" fill="white"/>
<path d="M79.9195 66.7109C79.9555 67.1557 79.9403 67.603 79.8743 68.0443C79.8199 68.4889 79.7118 68.9252 79.5523 69.3438C79.5133 68.8973 79.5285 68.4477 79.5975 68.0048C79.6552 67.5626 79.7633 67.1286 79.9195 66.7109Z" fill="white"/>
<path d="M70.2537 55.8242C70.3174 56.7197 70.1923 57.6186 69.8865 58.4627C69.8155 57.567 69.9408 56.6665 70.2537 55.8242Z" fill="white"/>
<path d="M89.3336 65.9766C89.3696 66.4232 89.3545 66.8724 89.2884 67.3156C89.234 67.7602 89.1258 68.1965 88.9663 68.6151C88.9274 68.1685 88.9426 67.7189 89.0115 67.276C89.0686 66.832 89.1767 66.3959 89.3336 65.9766Z" fill="white"/>
<path d="M76.9219 53.9624C77.3664 53.9246 77.8138 53.9379 78.2552 54.002C78.7 54.0583 79.1364 54.1684 79.5547 54.3297C78.661 54.3938 77.7639 54.2687 76.9219 53.9624Z" fill="white"/>
<path d="M65.9453 64.3635C66.839 64.3005 67.7359 64.4256 68.5782 64.7308C67.6842 64.8024 66.7855 64.677 65.9453 64.3635Z" fill="white"/>
<path d="M78.875 75.6218C79.7687 75.5576 80.6658 75.6828 81.5078 75.9891C80.614 76.0596 79.7155 75.9343 78.875 75.6218Z" fill="white"/>
<path d="M62.5625 71.5354C63.4561 71.4724 64.353 71.5975 65.1953 71.9026C64.3015 71.9732 63.403 71.8478 62.5625 71.5354Z" fill="white"/>
<path d="M85.5234 42.1838C86.4171 42.1208 87.314 42.2459 88.1563 42.5511C87.2626 42.6141 86.3657 42.489 85.5234 42.1838Z" fill="white"/>
<path d="M82.3283 45.7891C82.0427 46.1324 81.7164 46.4398 81.3565 46.7043C81.0065 46.9751 80.6275 47.2062 80.2266 47.3936C80.5103 47.0525 80.8326 46.7453 81.187 46.4783C81.5405 46.2066 81.9233 45.9754 82.3283 45.7891Z" fill="white"/>
<path d="M64.9355 56.0352C64.6464 56.3755 64.3184 56.6808 63.9581 56.9448C63.6116 57.2206 63.232 57.4522 62.8281 57.6341C63.1188 57.2951 63.4466 56.99 63.8056 56.7244C64.1529 56.4498 64.5324 56.2183 64.9355 56.0352Z" fill="white"/>
<path d="M86.6543 60.6562C86.3653 60.9984 86.0372 61.3056 85.6769 61.5715C85.3295 61.8462 84.9501 62.0776 84.5469 62.2608C84.8359 61.9187 85.1639 61.6115 85.5243 61.3455C85.8736 61.0736 86.2527 60.8424 86.6543 60.6562Z" fill="white"/>
<path d="M72.584 69.5156C72.2949 69.8578 71.9669 70.1649 71.6065 70.4309C71.2586 70.7048 70.8793 70.9361 70.4766 71.1202C70.7656 70.778 71.0936 70.4709 71.454 70.2049C71.8033 69.933 72.1824 69.7018 72.584 69.5156Z" fill="white"/>
<path d="M92.0449 48.5547C91.7559 48.8968 91.4278 49.204 91.0675 49.47C90.7174 49.7407 90.3384 49.9719 89.9375 50.1593C90.2265 49.8171 90.5546 49.5099 90.9149 49.244C91.2629 48.9701 91.6422 48.7387 92.0449 48.5547Z" fill="white"/>
<path d="M91.753 58.8222C91.4109 58.5332 91.1037 58.2052 90.8377 57.8448C90.5627 57.4977 90.3313 57.1182 90.1484 56.7148C90.4918 57.0005 90.7991 57.3268 91.0637 57.6866C91.3336 58.0393 91.5647 58.42 91.753 58.8222Z" fill="white"/>
<path d="M60.3936 65.8926C60.0515 65.6035 59.7443 65.2755 59.4783 64.9151C59.2064 64.5659 58.9752 64.1868 58.7891 63.7852C59.1312 64.0742 59.4384 64.4022 59.7043 64.7626C59.9782 65.1105 60.2096 65.4898 60.3936 65.8926Z" fill="white"/>
<path d="M87.9405 74.3049C87.5971 74.0193 87.2898 73.6929 87.0252 73.3331C86.7545 72.983 86.5233 72.6041 86.3359 72.2031C86.6781 72.4921 86.9853 72.8202 87.2512 73.1806C87.5239 73.5273 87.7552 73.9046 87.9405 74.3049Z" fill="white"/>
<path d="M74.1358 50.3244C73.7938 50.0374 73.4866 49.7112 73.2205 49.3526C72.951 49.0018 72.7199 48.6229 72.5312 48.2227C72.8746 48.5083 73.182 48.8346 73.4465 49.1944C73.7161 49.5453 73.9472 49.9241 74.1358 50.3244Z" fill="white"/>
<path d="M74.3858 79.0957C74.0437 78.8067 73.7365 78.4786 73.4705 78.1183C73.1995 77.7684 72.9683 77.3894 72.7812 76.9883C73.1246 77.2739 73.432 77.6002 73.6965 77.9601C73.9684 78.3114 74.1996 78.6923 74.3858 79.0957Z" fill="white"/>
<path d="M76.7239 62.123C76.385 61.8324 76.0799 61.5045 75.8143 61.1456C75.5384 60.7991 75.3069 60.4195 75.125 60.0156C75.4654 60.3048 75.7707 60.6328 76.0346 60.9931C76.3093 61.3404 76.5407 61.7199 76.7239 62.123Z" fill="white"/>
<path d="M88.3218 48.0346C86.1918 47.6391 84.1917 43.2378 83.9375 40.2773C83.9375 40.0739 84.9319 38.4637 86.0675 36.4467C86.7568 35.2206 87.4856 33.8364 88.0676 32.5257C88.1862 32.2601 88.8811 33.1584 88.8811 33.1584L90.3953 34.2884L95.3955 38.1247C94.2048 39.5535 93.1935 41.1226 92.3841 42.7971C92.3041 42.9786 92.2435 43.168 92.2033 43.3621C92.201 43.3941 92.201 43.4262 92.2033 43.4582C91.8925 44.5768 90.3727 48.4131 88.3218 48.0346Z" fill="#EB9481"/>
<path d="M92.2061 43.3898C92.2039 43.4218 92.2039 43.4539 92.2061 43.4858C91.9092 43.3988 91.6201 43.2873 91.3417 43.1525C85.8669 40.5875 88.2794 33.2539 88.2794 33.2539L90.4264 34.3161L95.4265 38.1524C94.2359 39.5811 93.2245 41.1503 92.4151 42.8248C92.3255 43.0051 92.2554 43.1945 92.2061 43.3898Z" fill="#263238"/>
<path d="M101.141 22.5156C101.141 22.5156 103.644 24.1032 103.655 26.9282C103.666 29.7531 102.525 32.5159 102.288 32.6176C102.05 32.7193 101.141 22.5156 101.141 22.5156Z" fill="#263238"/>
<path d="M88.7285 23.9813C87.2256 26.9475 87.3047 36.2981 89.1805 38.7049C91.9038 42.1966 97.1468 43.4 100.316 39.9479C103.384 36.6032 103.068 24.422 100.881 22.1508C97.7005 18.7948 90.9546 19.5914 88.7285 23.9813Z" fill="#EB9481"/>
<path d="M96.7044 31.4688C96.7044 31.4688 96.6536 31.5026 96.6592 31.5252C96.6931 32.1637 96.6253 32.8982 96.0547 33.1242C96.0547 33.1242 96.0547 33.1637 96.0547 33.1581C96.7609 33.0451 96.84 32.0676 96.7044 31.4688Z" fill="#263238"/>
<path d="M96.1264 30.8175C95.0981 30.7611 95.0642 32.8176 96.0191 32.8685C96.9739 32.9193 96.9852 30.8627 96.1264 30.8175Z" fill="#263238"/>
<path d="M100.184 31.4453C100.184 31.4453 100.234 31.4453 100.234 31.5018C100.201 32.1402 100.274 32.8747 100.85 33.0951C100.85 33.0951 100.85 33.1346 100.85 33.129C100.138 33.0216 100.054 32.0442 100.184 31.4453Z" fill="#263238"/>
<path d="M100.773 30.7904C101.796 30.7283 101.847 32.7848 100.898 32.8413C99.9485 32.8978 99.9146 30.8413 100.773 30.7904Z" fill="#263238"/>
<path d="M95.4721 29.2547C95.7421 29.1779 96.008 29.0873 96.2688 28.9835C96.5655 28.9298 96.8359 28.7787 97.0372 28.5541C97.086 28.4719 97.1064 28.3758 97.0951 28.2808C97.0839 28.1859 97.0417 28.0972 96.975 28.0287C96.8221 27.9124 96.641 27.8391 96.4503 27.8163C96.2596 27.7934 96.0663 27.8219 95.8902 27.8987C95.509 28.0008 95.179 28.2403 94.9637 28.571C94.9207 28.6497 94.9011 28.7391 94.9074 28.8286C94.9136 28.918 94.9454 29.0038 94.9989 29.0757C95.0524 29.1477 95.1255 29.2028 95.2093 29.2345C95.2932 29.2662 95.3844 29.2732 95.4721 29.2547Z" fill="#263238"/>
<path d="M101.471 30.1631C101.196 30.1016 100.925 30.0262 100.658 29.9371C100.36 29.8977 100.084 29.7606 99.8723 29.5473C99.8179 29.4687 99.7916 29.374 99.7978 29.2786C99.8039 29.1832 99.8421 29.0927 99.9062 29.0218C100.052 28.8972 100.229 28.8142 100.417 28.7814C100.606 28.7486 100.801 28.7672 100.98 28.8354C101.366 28.9155 101.709 29.1371 101.94 29.4569C101.989 29.5325 102.014 29.6206 102.013 29.7105C102.012 29.8003 101.986 29.888 101.936 29.9628C101.886 30.0376 101.816 30.0964 101.733 30.132C101.651 30.1675 101.56 30.1783 101.471 30.1631Z" fill="#263238"/>
<path d="M95.2575 37.5079C95.4101 37.6604 95.557 37.8638 95.7886 37.8864C96.0261 37.8863 96.261 37.8362 96.4779 37.7395C96.4779 37.7395 96.5175 37.7395 96.4779 37.7734C96.3853 37.8976 96.2607 37.9943 96.1174 38.053C95.974 38.1117 95.8174 38.1303 95.6643 38.1068C95.5353 38.0716 95.4194 37.9993 95.331 37.8989C95.2426 37.7984 95.1856 37.6743 95.1671 37.5418C95.1626 37.5298 95.1631 37.5165 95.1684 37.5049C95.1737 37.4932 95.1834 37.4841 95.1954 37.4796C95.2074 37.4751 95.2207 37.4756 95.2323 37.4809C95.244 37.4862 95.253 37.4959 95.2575 37.5079Z" fill="#263238"/>
<path d="M98.9544 34.782C98.9544 34.782 98.9827 35.7312 98.9544 36.1776C98.0863 36.0854 97.2095 36.1159 96.3498 36.268C96.1464 36.3132 96.169 36.1493 96.4007 36.042C97.0931 35.7255 97.8644 35.6232 98.6154 35.7482C98.6606 35.6295 98.542 34.2792 98.6154 34.2848C98.9572 34.3519 99.288 34.466 99.5985 34.6238C99.5985 32.6351 99.2821 30.6689 99.3104 28.6802C99.3104 28.6124 99.4177 28.6011 99.429 28.6802C99.8305 30.784 100.02 32.9229 99.994 35.0645C99.9996 35.3075 99.1239 34.8724 98.9544 34.782Z" fill="#263238"/>
<path d="M97.6755 35.8403C97.4503 36.4328 97.0324 36.9322 96.489 37.2585C95.6359 37.6031 95.3591 36.8291 96.2179 36.1285C96.6682 35.9009 97.1724 35.8012 97.6755 35.8403Z" fill="#263238"/>
<path d="M96.7967 37.0848C96.7065 37.1582 96.6055 37.2173 96.4972 37.2599C95.7119 37.5763 95.4012 36.9492 96.034 36.3164C96.4633 36.3503 96.9549 36.5085 96.7967 37.0848Z" fill="#FF99BA"/>
<path d="M88.2932 31.9775C89.3271 32.2939 90.5136 29.1865 90.8526 28.0226C91.1464 26.9717 91.4853 23.6326 91.5362 23.401C91.587 23.1693 96.0561 26.3559 98.6437 25.5988C101.231 24.8417 102.988 22.497 103.028 21.4066C103.068 20.3162 99.8302 17.5477 97.0335 17.4065C94.2368 17.2652 90.4458 20.7964 90.4458 20.7964C90.9037 20.2767 91.3193 19.7213 91.6887 19.1353C91.6435 19.011 89.8356 19.7342 89.5022 21.0224C89.5022 21.0224 89.8638 19.4009 89.7282 19.3726C89.5926 19.3444 88.1858 20.7286 88.5022 21.7795C88.5022 21.7795 86.875 23.1863 86.7281 24.7287C86.5812 26.2711 87.0784 31.6046 88.2932 31.9775Z" fill="#263238"/>
<path d="M100.5 25.0098C99.7303 25.427 98.9015 25.7243 98.0421 25.8912C97.0775 25.9772 96.1067 25.8219 95.2172 25.4392C94.321 25.093 93.4886 24.6004 92.7538 23.9815C92.1041 23.4504 91.5222 22.8007 90.8272 22.3261C90.6521 22.2018 90.4543 22.456 90.5617 22.6142C91.7211 24.2519 93.3774 25.4723 95.285 26.0946C96.1709 26.3834 97.1167 26.4374 98.0298 26.2512C98.9429 26.065 99.792 25.6451 100.494 25.0324C100.494 25.0324 100.511 25.0098 100.5 25.0098Z" fill="#263238"/>
<path d="M89.3743 31.7004C89.3743 31.7004 87.7698 28.446 86.3234 28.9715C84.877 29.4969 85.7584 33.9999 87.2443 34.8247C87.4263 34.9425 87.6303 35.0223 87.8439 35.0593C88.0575 35.0964 88.2763 35.0899 88.4874 35.0403C88.6984 34.9907 88.8973 34.899 89.072 34.7707C89.2467 34.6424 89.3938 34.4802 89.5043 34.2937L89.3743 31.7004Z" fill="#EB9481"/>
<path d="M86.6166 30.2539C86.6166 30.2539 86.5827 30.2539 86.6166 30.2991C87.6449 30.9093 88.063 31.9941 88.3116 33.124C88.2648 33.0044 88.1926 32.8964 88.0999 32.8074C88.0072 32.7185 87.8964 32.6507 87.7749 32.6088C87.6535 32.5669 87.5244 32.5518 87.3966 32.5647C87.2688 32.5776 87.1453 32.6181 87.0347 32.6834C87.0008 32.6834 87.0347 32.7455 87.0347 32.7455C87.2368 32.7141 87.4437 32.7461 87.6269 32.8372C87.81 32.9282 87.9604 33.0739 88.0573 33.254C88.2191 33.5557 88.3479 33.8739 88.4415 34.2032C88.4754 34.3105 88.6619 34.2823 88.6449 34.1636C88.8879 32.7568 88.0969 30.6268 86.6166 30.2539Z" fill="#263238"/>
<path d="M78.7788 46.2311C77.6489 52.6324 84.5869 74.198 89.0334 78.2263C95.6494 84.2152 107.881 88.1532 112.317 89.4357C114.249 90.0007 119.594 76.4014 117.639 75.5031C113.452 73.5991 100.446 69.5312 99.2088 68.5142C97.9715 67.4972 90.5136 56.7229 87.1915 50.5193C82.7451 42.1688 79.3382 42.9937 78.7788 46.2311Z" fill="#EB9481"/>
<path d="M114.351 74.3047C114.351 74.3047 120.125 75.7793 123.848 76.9149C125.928 77.5534 129.397 78.9602 130.713 80.1241C132.679 81.8699 139.787 90.4125 137.753 92.1809C135.911 93.7855 130.736 85.6666 130.736 85.6666C130.736 85.6666 136.679 93.3956 134.126 94.9154C131.572 96.4353 126.899 86.4858 126.899 86.4858C126.899 86.4858 132.826 94.5652 129.928 95.7121C127.736 96.5765 123.035 87.8022 123.035 87.8022C123.035 87.8022 128.086 94.7799 125.86 95.7686C123.408 96.8647 118.566 89.0339 118.566 89.0339C112.509 90.5989 108.961 88.8644 106.628 87.339C106.08 86.9661 114.351 74.3047 114.351 74.3047Z" fill="#EB9481"/>
<path d="M128.843 82.8609C129.578 83.7423 130.323 84.635 130.973 85.5785C131.623 86.522 132.239 87.4938 132.798 88.4939C133.556 89.7873 134.163 91.1636 134.606 92.5957C133.634 90.1097 131.357 86.6915 130.708 85.748C130.058 84.8045 129.453 83.827 128.809 82.8835C128.792 82.8609 128.826 82.8383 128.843 82.8609Z" fill="#263238"/>
<path d="M125.393 85.1476C126.647 86.142 129.274 89.837 130.286 92.3173C130.331 92.419 130.286 92.4134 130.212 92.3173C129.421 91.0913 126.212 86.3454 125.365 85.1646C125.348 85.1476 125.376 85.1307 125.393 85.1476Z" fill="#263238"/>
<path d="M122.076 86.5953C123.634 88.2299 124.865 90.1477 125.703 92.2452C125.742 92.3469 125.663 92.3299 125.601 92.2452C124.432 90.3412 123.528 88.8552 122.013 86.6461C121.991 86.5953 122.042 86.5444 122.076 86.5953Z" fill="#263238"/>
<path d="M85.0878 46.7027C79.9295 39.4087 76.8447 42.1093 77.8786 50.0305C78.8504 57.4374 81.4437 66.2626 81.4437 66.2626L94.4384 59.9573C94.4384 59.9573 88.3704 51.3751 85.0878 46.7027Z" fill="#10B981"/>
<path d="M88.2267 49.5703C88.398 49.9823 88.5212 50.4126 88.5939 50.8528C88.6733 51.2945 88.7017 51.7437 88.6787 52.1919C88.5092 51.7777 88.3879 51.3455 88.3171 50.9037C88.2331 50.4645 88.2027 50.0168 88.2267 49.5703Z" fill="white"/>
<path d="M80.5234 54.0049C81.3527 53.6676 82.245 53.5134 83.1393 53.5529C82.7271 53.7224 82.2968 53.8437 81.8568 53.9145C81.4176 53.9984 80.9699 54.0287 80.5234 54.0049Z" fill="white"/>
<path d="M80.8592 42.6602C80.5094 43.4859 79.9874 44.2274 79.3281 44.8354C79.678 44.0097 80.2 43.2681 80.8592 42.6602Z" fill="white"/>
<path d="M91.8671 57.4102C91.6955 57.8234 91.4776 58.2157 91.2173 58.5797C90.9639 58.9483 90.6681 59.2858 90.3359 59.5854C90.6858 58.7597 91.2078 58.0181 91.8671 57.4102Z" fill="white"/>
<path d="M82.8236 61.8358C82.4094 61.6663 82.0168 61.4482 81.6541 61.1861C81.2854 60.9329 80.9478 60.637 80.6484 60.3047C81.4741 60.6546 82.2157 61.1765 82.8236 61.8358Z" fill="white"/>
<path d="M86.7817 48.8984C87.4767 49.8533 88.1942 50.7855 88.9061 51.7234C88.7253 51.2488 88.5671 50.7685 88.4315 50.2827H88.4654C88.6066 50.6555 88.7705 51.0228 88.9061 51.4126L89.1095 51.9776C89.127 52.0162 89.1421 52.0558 89.1547 52.0963C89.7197 52.8251 90.2847 53.5539 90.8045 54.2997C91.4429 55.1924 92.0587 56.0964 92.6802 57.0004C93.3017 57.9043 93.9288 59.0287 94.6012 59.9383C94.6633 60.0174 93.4712 60.5033 93.3413 60.5654C93.2113 60.6276 93.1435 60.5202 93.2678 60.4807C93.3921 60.4411 94.3413 59.8592 94.3526 59.8479C93.7311 58.9326 93.0136 58.0908 92.3638 57.2038C91.7141 56.3167 91.07 55.4297 90.4429 54.5314C89.1716 52.7008 88.0078 50.8024 86.7422 48.9662L86.7817 48.8984Z" fill="#263238"/>
<path d="M78.182 55.2734C78.3797 55.6576 78.5944 56.0361 78.747 56.4316L78.9617 56.9232C78.6622 55.5163 78.3967 54.0982 78.0859 52.6914C78.6848 54.9514 79.2894 57.2622 79.8431 59.556C80.3685 61.7482 81.0069 63.9629 81.312 66.2003C81.706 66.0274 82.1143 65.8894 82.5324 65.7878C82.1129 66.0593 81.6612 66.2776 81.1877 66.4376C80.5067 64.1624 79.9409 61.8543 79.4928 59.5221C79.3515 58.8893 79.2216 58.2565 79.086 57.6237C78.9391 57.2396 78.7639 56.8723 78.5888 56.4938C78.4136 56.1152 78.2554 55.6915 78.0972 55.2903C78.1311 55.2677 78.1707 55.2451 78.182 55.2734Z" fill="#263238"/>
<path d="M81.6318 64.0804C83.4398 63.0635 90.9937 59.1537 92.683 58.4306C92.8016 58.3797 92.8638 58.4306 92.7451 58.5097C89.1595 60.5932 85.4628 62.4793 81.6714 64.1595C81.6262 64.1708 81.581 64.1087 81.6318 64.0804Z" fill="#263238"/>
<path d="M288.664 212.619H116.523L141.411 71.457H313.552L288.664 212.619Z" fill="#10B981"/>
<path d="M200.331 56.8359H143.996L141.414 71.4578H201.704L200.331 56.8359Z" fill="#10B981"/>
<g opacity="0.1">
<path d="M288.672 212.619H116.531L141.419 71.457H313.559L288.672 212.619Z" fill="black"/>
<path d="M200.331 56.8359H143.996L141.414 71.4578H201.704L200.331 56.8359Z" fill="black"/>
</g>
<path d="M137.915 62.8021C137.539 61.1853 137.539 59.5035 137.915 57.8867C138.292 59.5035 138.292 61.1853 137.915 62.8021Z" fill="#263238"/>
<path d="M132.909 64.2487C132.333 63.6522 131.838 62.9837 131.434 62.26C131.011 61.5513 130.678 60.7919 130.445 60C131.022 60.593 131.518 61.2598 131.92 61.9831C132.342 62.6943 132.675 63.4553 132.909 64.2487Z" fill="#263238"/>
<path d="M129.293 68.0046C127.706 67.5219 126.25 66.681 125.039 65.5469C125.831 65.7771 126.591 66.1075 127.299 66.5299C128.023 66.9362 128.693 67.4316 129.293 68.0046Z" fill="#263238"/>
<path d="M128.033 73.0677C126.416 73.4444 124.734 73.4444 123.117 73.0677C124.734 72.691 126.416 72.691 128.033 73.0677Z" fill="#263238"/>
<path d="M129.499 78.0742C128.9 78.6465 128.232 79.1419 127.51 79.5488C126.802 79.9713 126.042 80.3017 125.25 80.5319C125.847 79.9566 126.515 79.461 127.239 79.0573C127.946 78.6328 128.706 78.3023 129.499 78.0742Z" fill="#263238"/>
<path d="M133.247 81.6836C132.766 83.2736 131.925 84.7313 130.789 85.9436C131.019 85.1505 131.351 84.3908 131.778 83.6836C132.181 82.9573 132.674 82.2852 133.247 81.6836Z" fill="#263238"/>
<path d="M138.315 82.9336C138.512 83.7377 138.607 84.5635 138.598 85.3913C138.61 86.2193 138.515 87.0454 138.315 87.849C138.113 87.0459 138.018 86.2194 138.033 85.3913C138.023 84.5635 138.118 83.7377 138.315 82.9336Z" fill="#263238"/>
<path d="M143.312 81.5152C143.888 82.1117 144.383 82.7802 144.787 83.504C145.212 84.2114 145.542 84.9711 145.77 85.7639C144.634 84.5517 143.793 83.0939 143.312 81.5039V81.5152Z" fill="#263238"/>
<path d="M146.93 77.7305C147.723 77.9586 148.482 78.289 149.19 78.7135C149.913 79.1172 150.582 79.6129 151.178 80.1882C150.386 79.9601 149.626 79.6296 148.918 79.2051C148.195 78.8014 147.526 78.3057 146.93 77.7305Z" fill="#263238"/>
<path d="M148.18 72.6692C149.798 72.2926 151.482 72.2926 153.101 72.6692C151.482 73.0457 149.798 73.0457 148.18 72.6692Z" fill="#263238"/>
<path d="M146.73 67.6608C147.328 67.089 147.996 66.5954 148.719 66.1919C149.425 65.7633 150.185 65.4308 150.979 65.2031C149.766 66.3388 148.309 67.1798 146.719 67.6608H146.73Z" fill="#263238"/>
<path d="M142.977 64.0495C143.209 63.2583 143.539 62.4991 143.96 61.7895C144.363 61.0658 144.859 60.3973 145.434 59.8008C145.206 60.5936 144.876 61.3533 144.451 62.0607C144.047 62.7845 143.552 63.453 142.977 64.0495Z" fill="#263238"/>
<path d="M288.412 212.62H115.904L91.4062 76.582H263.92L288.412 212.62Z" fill="#10B981"/>
<path d="M140.634 22.3678C140.363 24.9629 139.377 27.4317 137.785 29.4987C136.192 31.5658 134.057 33.1497 131.617 34.0738C129.177 34.9979 126.528 35.2258 123.966 34.732C121.404 34.2383 119.03 33.0424 117.108 31.2777L110.062 32.3116L113.588 26.221C112.782 24.2393 112.438 22.0998 112.582 19.9652C112.727 17.8306 113.356 15.757 114.421 13.9019C115.487 12.0467 116.962 10.4589 118.733 9.25892C120.504 8.05896 122.526 7.27845 124.644 6.97669C126.762 6.67493 128.921 6.85984 130.957 7.51739C132.993 8.17494 134.852 9.28783 136.393 10.7715C137.935 12.2552 139.118 14.0707 139.853 16.08C140.588 18.0894 140.855 20.2398 140.634 22.3678Z" fill="white"/>
<path d="M140.633 22.3658C140.368 24.9595 139.39 27.4293 137.808 29.5016C137.035 30.5497 136.103 31.4704 135.045 32.2305C134.011 33.019 132.869 33.6563 131.655 34.1232C130.44 34.6016 129.164 34.9059 127.864 35.0272C127.214 35.0855 126.561 35.0987 125.909 35.0667C125.255 35.0499 124.603 34.9819 123.96 34.8633C121.363 34.3856 118.951 33.1941 116.994 31.4226L117.158 31.4734L110.124 32.5525L109.609 32.6316L109.869 32.1796L113.372 26.0778V26.3207C112.546 24.3024 112.194 22.121 112.345 19.9451C112.496 17.7693 113.145 15.6573 114.242 13.7723C115.338 11.8933 116.845 10.2863 118.649 9.07163C120.451 7.87305 122.5 7.09793 124.644 6.80438C126.788 6.51084 128.971 6.70649 131.028 7.37667C133.064 8.06922 134.919 9.20814 136.458 10.7101C137.993 12.2083 139.167 14.0365 139.89 16.0561C140.614 18.0757 140.868 20.2335 140.633 22.3658ZM140.633 22.3658C140.861 20.244 140.599 18.0981 139.866 16.0937C139.133 14.0894 137.95 12.2803 136.407 10.8061C134.864 9.33185 133.002 8.23195 130.967 7.59128C128.931 6.95062 126.776 6.78634 124.666 7.11112C122.578 7.42019 120.589 8.205 118.853 9.40497C117.131 10.6144 115.693 12.1836 114.638 14.004C113.599 15.8284 112.987 17.8642 112.847 19.9589C112.709 22.0678 113.049 24.1806 113.841 26.1399L113.892 26.2642L113.824 26.3829L110.276 32.4621L110.027 32.0892L117.079 31.1005H117.175L117.242 31.1627C119.127 32.917 121.463 34.1122 123.988 34.6147C124.618 34.743 125.256 34.8204 125.898 34.8464C126.539 34.8916 127.183 34.8916 127.825 34.8464C129.111 34.7427 130.377 34.4633 131.587 34.0158C132.801 33.5742 133.943 32.9574 134.977 32.1853C136.03 31.4314 136.964 30.5228 137.746 29.4903C139.348 27.428 140.348 24.9619 140.633 22.3658Z" fill="#263238"/>
<path d="M119.744 27.4664C119.734 27.2794 119.761 27.0921 119.826 26.9162C119.89 26.7403 119.99 26.5795 120.12 26.4439C120.249 26.3083 120.405 26.2007 120.577 26.1278C120.75 26.0548 120.936 26.0182 121.123 26.02C121.507 26.02 121.875 26.1724 122.146 26.4437C122.417 26.7149 122.569 27.0828 122.569 27.4664C122.569 27.85 122.417 28.2179 122.146 28.4891C121.875 28.7604 121.507 28.9128 121.123 28.9128C120.936 28.9146 120.75 28.878 120.577 28.8051C120.405 28.7321 120.249 28.6245 120.12 28.4889C119.99 28.3533 119.89 28.1925 119.826 28.0166C119.761 27.8407 119.734 27.6535 119.744 27.4664ZM120.309 24.1273L119.982 12.918H122.242L121.914 24.1273H120.309Z" fill="#10B981"/>
<path d="M125.119 27.4664C125.109 27.2798 125.136 27.093 125.2 26.9175C125.265 26.742 125.364 26.5815 125.493 26.446C125.621 26.3104 125.777 26.2027 125.948 26.1295C126.12 26.0562 126.306 26.019 126.492 26.02C126.876 26.02 127.244 26.1724 127.515 26.4437C127.786 26.7149 127.939 27.0828 127.939 27.4664C127.939 27.85 127.786 28.2179 127.515 28.4891C127.244 28.7604 126.876 28.9128 126.492 28.9128C126.306 28.9139 126.12 28.8766 125.948 28.8034C125.777 28.7301 125.621 28.6224 125.493 28.4868C125.364 28.3513 125.265 28.1908 125.2 28.0153C125.136 27.8398 125.109 27.653 125.119 27.4664ZM125.684 24.1273L125.374 12.918H127.634L127.306 24.1273H125.684Z" fill="#10B981"/>
<path d="M130.487 27.4664C130.476 27.2794 130.504 27.0921 130.568 26.9162C130.633 26.7403 130.733 26.5795 130.862 26.4439C130.991 26.3083 131.147 26.2007 131.32 26.1278C131.492 26.0548 131.678 26.0182 131.865 26.02C132.249 26.02 132.617 26.1724 132.888 26.4437C133.159 26.7149 133.312 27.0828 133.312 27.4664C133.312 27.85 133.159 28.2179 132.888 28.4891C132.617 28.7604 132.249 28.9128 131.865 28.9128C131.678 28.9146 131.492 28.878 131.32 28.8051C131.147 28.7321 130.991 28.6245 130.862 28.4889C130.733 28.3533 130.633 28.1925 130.568 28.0166C130.504 27.8407 130.476 27.6535 130.487 27.4664ZM131.052 24.1273L130.724 12.918H132.984L132.662 24.1273H131.052Z" fill="#10B981"/>
</svg>
