<svg width="32" height="32" viewBox="0 0 32 32" fill="none" xmlns="http://www.w3.org/2000/svg">
<path d="M0 6.19355C0 2.77295 2.72893 0 6.09524 0H25.9048C29.2711 0 32 2.77295 32 6.19355V25.8064C32 29.2271 29.2711 32 25.9048 32H6.09524C2.72893 32 0 29.2271 0 25.8064V6.19355Z" fill="#34D39E"/>
<path d="M19.8995 15.1721C20.8644 15.263 21.8123 15.5229 22.6685 15.9802C25.1539 17.3082 25.9509 19.5351 25.9509 22.4807V23.0744C25.9509 23.188 25.8592 23.2817 25.7449 23.2817H21.4977C21.3849 23.2817 21.2918 23.1894 21.2918 23.0744V21.0179C21.2918 20.8801 21.1944 20.7622 21.059 20.7366L16.3929 19.8731C16.0459 19.8092 15.7102 19.6942 15.397 19.5337L6.40039 14.8696C6.40039 14.1254 7.10285 13.5857 7.81519 13.7831L15.3575 16.2387C15.3575 16.6719 15.6298 17.0582 16.036 17.2002L19.3875 18.1447C19.458 18.1646 19.5286 18.1106 19.5286 18.0367V17.8848C19.5286 17.6959 19.4016 17.5311 19.2211 17.4843L16.7201 16.8324C16.3125 16.6904 16.0388 16.304 16.0388 15.8694C16.0388 15.2843 16.5494 14.8327 17.1264 14.9094L19.8995 15.1721Z" fill="white"/>
<path d="M21.7449 9.14145C20.1721 8.83751 18.0802 8.68555 15.8868 8.68555C13.6934 8.68555 11.6001 8.83751 10.0287 9.14145C8.12726 9.52207 7.28656 9.9027 7.24989 10.5873C7.24989 11.3102 8.09059 11.7661 10.0287 12.1083C11.6001 12.3739 13.6934 12.5273 15.8868 12.5273C18.0802 12.5273 20.1735 12.3754 21.7449 12.1083C23.683 11.7661 24.5237 11.3102 24.5237 10.5873C24.4871 9.9027 23.6449 9.52207 21.7449 9.14145ZM23.3233 10.5915C23.1216 10.7392 22.4036 10.9125 21.2681 11.1142C19.8054 11.3428 17.8588 11.4948 15.8854 11.4948C13.912 11.4948 11.9598 11.3741 10.5027 11.1142C9.36292 10.9111 8.66187 10.7492 8.44746 10.5915C8.37552 10.539 8.36142 10.4424 8.44323 10.4055C9.12454 10.1015 11.4717 9.45958 15.8854 9.45958C20.2991 9.45958 22.9947 10.1967 23.3276 10.4055C23.4037 10.4523 23.3967 10.5376 23.3233 10.5915Z" fill="white"/>
</svg>
