<svg width="191" height="201" viewBox="0 0 191 201" fill="none" xmlns="http://www.w3.org/2000/svg">
<path d="M116.163 58.0815C117.782 64.4617 122.875 69.8449 129.156 71.8143C135.437 73.7837 142.692 72.271 147.663 67.9562M87 153.172C103.189 148.876 119.379 144.58 135.568 140.285C141.777 128.09 148.402 115.354 154.612 103.16C156.542 99.3701 157.839 95.4579 161.162 92.8038C164.484 90.1488 168.702 88.6342 172.954 88.5677M79.7131 77.1966C52.4251 83.1798 44.0897 126.822 73.8533 140.353M79.7131 77.1966C63.708 91.1886 61.8867 123.591 73.8533 140.353M79.7131 77.1966C83.4791 102.462 79.9306 127.901 73.8533 140.353M79.7131 77.1966C102.504 88.7633 106.225 129.48 73.8533 140.353M80.3251 73.7166C80.0126 75.2245 79.7012 76.7334 79.3897 78.2413M126.252 39.4633C126.962 38.6087 128.146 38.1747 129.239 38.3684C130.333 38.5622 131.296 39.375 131.67 40.4214M128.653 39.9044C127.762 41.8473 126.871 43.7901 125.979 45.7339C126.571 45.6171 127.162 45.4993 127.754 45.3825M128.807 48.6268C129.079 49.3077 129.794 49.7853 130.526 49.7749C131.258 49.7644 131.96 49.2678 132.212 48.5793M123.622 31.9369C124.262 31.5922 125.066 31.5703 125.724 31.8799C126.382 32.1904 126.877 32.8247 127.019 33.5379M135.89 33.3784C136.762 33.6158 137.634 33.8532 138.506 34.0905M145.943 47.2166C147.126 47.1302 148.31 47.0447 149.493 46.9583M70.99 144.697C78.8867 142.626 85.9829 137.639 90.6054 130.91C95.2279 124.181 97.3379 115.768 96.4367 107.654M93.1608 98.6176C94.9517 98.1029 96.7426 97.5882 98.5344 97.0735M94.1581 99.864C95.8901 99.4595 97.6221 99.0559 99.3542 98.6514M37.7551 107.116C38.2317 108.497 38.7094 109.877 39.1861 111.257M61.4304 131.386C61.8919 130.462 62.3534 129.538 62.8149 128.614M62.3952 108.375C62.6838 109.183 62.9725 109.991 63.2612 110.799M77.0115 108.523C77.3581 107.715 77.7037 106.907 78.0503 106.099M86.1927 110.602C86.2506 111.699 86.3085 112.796 86.3655 113.893M76.1471 122.379C76.8403 121.86 77.5326 121.34 78.2258 120.82M45.7514 65.6631C34.5597 76.0002 25.6859 88.8318 19.9628 102.952M19.0085 115.141C37.7626 102.23 54.7021 86.6855 69.1718 69.105M75.9389 66.382C68.8104 95.025 52.9297 121.427 30.9679 141.148M39.6794 150.767C68.3442 135.968 93.2944 114.037 111.648 87.5078M99.7274 69.1384C83.7878 99.0938 60.2174 124.95 31.8602 143.584M115.435 99.3304C106.127 120.441 92.3703 139.578 75.3254 155.127M32.3342 69.6379C47.4638 99.4584 70.1501 125.407 97.6821 144.383M25.6236 85.4814C26.0756 111.23 37.7383 136.588 56.9938 153.688M49.1257 66.2611C69.6575 86.5127 90.8131 106.133 112.551 125.084M78.5669 64.1155C92.408 72.9484 104.579 84.388 114.253 97.6536M52.9374 18.6353C53.8262 25.1057 54.715 31.5771 55.6028 38.0475M62.406 17.2547C62.9881 23.8353 63.5701 30.4168 64.1522 36.9974M71.3545 16.3672C71.8264 22.9477 72.2983 29.5283 72.7703 36.1098M56.0915 38.1554C58.5366 39.8874 62.3197 39.2891 64.1116 36.8877C65.2919 38.0889 66.7666 39.0024 68.4445 38.8628C70.1224 38.7223 71.7196 37.804 72.6844 36.4243C73.5257 37.183 75.0289 37.2628 76.1104 36.9266C77.192 36.5905 78.0666 35.6551 78.3296 34.5536M24.5024 141.039C28.7518 147.829 33.0012 154.62 37.2505 161.41M54.801 154.164C55.7885 154.611 56.777 155.059 57.7646 155.507M182.495 111.129C182.161 101.964 179.075 92.7945 172.393 86.513C162.952 77.6373 153.261 69.3979 143.82 60.5222C141.688 63.9055 137.135 65.5369 133.339 64.2787C129.544 63.0195 126.683 58.8879 126.995 54.9016C116.682 55.253 105.933 54.5047 95.7942 56.4285C84.6404 58.5451 73.6652 60.808 62.5106 62.9246C66.4855 52.7527 70.4595 42.5809 74.4344 32.409C76.6764 26.6717 74.3841 19.83 74.4942 13.672C68.4226 8.72371 59.8404 6.59286 52.4014 9.04277C46.3526 11.035 41.3312 15.4401 37.5206 20.5412C33.7099 25.6433 30.9818 31.4556 28.2821 37.2224C22.5951 49.3675 16.9081 61.5126 11.222 73.6577C6.76757 83.1715 7.57281 95.3783 13.8979 103.766C20.2231 112.154 31.3692 116.616 41.7348 114.91L78.2128 149.898C74.8332 160.754 71.6455 171.277 68.265 182.133C91.8686 195.229 121.741 196.336 146.25 185.024C156.578 180.257 166.196 172.416 171.181 162.192C178.825 146.515 183.132 128.556 182.495 111.129ZM79.7358 77.185C96.2121 78.0098 108.858 92.8763 107.981 110.39C107.105 127.904 93.0371 141.434 76.5608 140.609C60.0844 139.784 47.4384 124.917 48.3152 107.403C49.192 89.8894 63.2594 76.3602 79.7358 77.185ZM144.789 63.3203C144.789 60.6263 144.789 57.9324 144.789 55.2375L119.322 55.5385C119.309 59.4156 121.399 63.1579 124.494 65.492C127.59 67.826 131.59 68.8079 135.46 68.5667C139.33 68.3255 142.761 66.8461 146.065 64.8168C145.641 64.3544 145.212 63.7817 144.789 63.3203ZM149.192 32.3152C148.638 31.1539 147.347 30.3572 146.121 30.7428C146.422 29.702 146.173 28.5189 145.479 27.688C144.784 26.8571 143.495 26.4545 142.418 26.5675C142.046 24.7367 140.572 23.1756 138.765 22.7008C136.958 22.226 134.661 22.565 133.438 23.977C132.066 22.3305 129.435 21.9126 127.621 23.0531C125.808 24.1935 125.045 26.7469 125.936 28.6955C123.956 33.016 121.962 37.6452 119.982 41.9658C118.677 41.6429 117.451 41.3961 116.146 41.0732C115.157 43.1518 114.3 45.3226 113.83 47.5759C113.36 49.8283 113.462 52.2811 114.585 54.2894C115.707 56.2978 117.99 57.7392 120.272 57.4392C120.693 58.9661 121.911 60.1379 123.4 60.6772C124.889 61.2166 126.633 60.9906 127.934 60.0885C128.783 61.7028 130.228 62.8498 132.041 63.0512C133.853 63.2534 135.746 62.5051 136.93 61.1169C137.87 61.6619 139.261 61.6059 140.271 61.2042C141.28 60.8025 142.125 60.0714 142.86 59.2709C144.42 57.5711 145.569 55.4973 146.184 53.2743L149.336 46.6909C149.449 43.1613 149.562 39.6317 149.676 36.1022C149.715 34.8183 149.745 33.4766 149.192 32.3152ZM144.882 40.0512C142.773 43.69 140.661 47.229 138.551 50.8678C137.82 50.8327 136.833 50.7843 136.102 50.7491C134.872 48.5385 132.617 46.9261 130.128 46.4779C127.638 46.0297 125.131 46.4495 123.207 48.0913C121.204 47.8824 119.2 47.6744 117.196 47.4664C116.782 43.6586 117.191 39.5441 118.673 36.0127C120.259 32.2352 123.598 28.8652 127.475 27.5405C131.327 26.2235 135.915 26.9176 139.268 29.2279C142.619 31.5383 144.709 35.9832 144.882 40.0512ZM126.026 39.3158C126.026 41.7151 124.081 43.6601 121.681 43.6601C119.282 43.6601 117.337 41.7151 117.337 39.3158C117.337 36.9165 119.282 34.9715 121.681 34.9715C124.081 34.9715 126.026 36.9165 126.026 39.3158ZM139.975 42.7467C139.975 40.3471 138.03 38.4023 135.63 38.4023C133.231 38.4023 131.286 40.3471 131.286 42.7467C131.286 45.1462 133.231 47.091 135.63 47.091C138.029 47.0919 139.975 45.1462 139.975 42.7467ZM122.157 40.9229C122.157 40.3807 121.717 39.941 121.175 39.941C120.632 39.941 120.193 40.3807 120.193 40.9229C120.193 41.4651 120.632 41.9047 121.175 41.9047C121.717 41.9047 122.157 41.4651 122.157 40.9229ZM134.799 44.0181C134.799 43.4759 134.359 43.0362 133.817 43.0362C133.275 43.0362 132.836 43.4759 132.836 44.0181C132.836 44.5603 133.276 45 133.817 45C134.358 45 134.799 44.5603 134.799 44.0181ZM151.418 46.4814C150.729 44.0049 148.379 42.0839 145.814 41.9035L141.745 53.2823C143.843 54.7684 146.878 54.7731 148.981 53.2946C151.085 51.8152 152.106 48.9579 151.418 46.4814ZM108.134 129.233C110.512 121.009 109.848 109.735 101.747 105.723C100.555 102.015 99.6928 98.2406 98.502 94.5334C96.5449 95.1668 94.5518 95.9426 92.5947 96.576L95.2659 107.1C93.9953 114.982 90.047 122.406 84.2232 127.866C78.3985 133.326 70.7345 136.788 62.7875 137.546C64.6496 141.197 67.7737 143.824 71.817 144.493C69.9938 144.98 68.4469 145.513 66.6238 145.999C68.9892 149.214 72.5862 151.25 76.5297 151.865C80.4743 152.479 84.5385 151.817 88.3026 150.491C97.8981 147.11 105.309 139.007 108.134 129.233ZM58.198 123.861C58.198 131.653 51.8813 137.969 44.0892 137.969C36.2971 137.969 29.9804 131.653 29.9804 123.861C29.9804 116.069 36.2971 109.752 44.0892 109.752C51.8813 109.752 58.198 116.069 58.198 123.861ZM66.0485 139.577C66.0485 145.252 61.4481 149.852 55.7732 149.852C50.0982 149.852 45.4978 145.252 45.4978 139.577C45.4978 133.902 50.0982 129.301 55.7732 129.301C61.4481 129.301 66.0485 133.902 66.0485 139.577ZM69.7983 116.078C69.7983 113.312 67.5564 111.069 64.7893 111.069C62.0232 111.069 59.7803 113.312 59.7803 116.078C59.7803 118.845 62.0232 121.087 64.7893 121.087C67.5564 121.087 69.7983 118.845 69.7983 116.078ZM81.5485 112.988C81.5485 110.222 79.3056 107.979 76.5395 107.979C73.7734 107.979 71.5304 110.222 71.5304 112.988C71.5304 115.754 73.7734 117.997 76.5395 117.997C79.3056 117.997 81.5485 115.754 81.5485 112.988ZM91.983 118.024C91.983 115.258 89.7401 113.015 86.974 113.015C84.2079 113.015 81.965 115.258 81.965 118.024C81.965 120.79 84.2079 123.033 86.974 123.033C89.7401 123.032 91.983 120.79 91.983 118.024ZM77.1499 124.881C77.1499 122.115 74.907 119.872 72.1409 119.872C69.3747 119.872 67.1319 122.115 67.1319 124.881C67.1319 127.647 69.3747 129.89 72.1409 129.89C74.907 129.89 77.1499 127.648 77.1499 124.881ZM76.4242 19.7199C66.747 21.2297 57.1763 23.5315 47.4991 25.0413C43.8024 36.7534 40.1057 48.4645 36.409 60.1766C43.3713 67.5045 53.8765 71.5544 63.9714 71.0549C74.0664 70.5555 83.8043 65.0811 90.0088 57.1009C85.5847 44.707 80.8482 32.1137 76.4242 19.7199ZM77.1762 56.5236C74.0882 60.1234 69.4068 62.1564 64.6798 62.541C59.9946 62.9218 55.1024 61.7044 51.4512 58.7427C47.8001 55.7819 45.1024 50.7159 46.1061 46.1238C47.2256 41.0027 48.3452 35.8807 49.4647 30.7597L75.1014 29.4302C76.6891 33.9911 78.3566 38.6782 79.9699 43.2304C81.5538 47.701 80.2652 52.9237 77.1762 56.5236ZM70.9304 157.939L70.8421 157.934C69.3456 157.86 67.8243 157.817 66.2908 157.773C60.9323 157.62 55.3906 157.462 50.2458 155.988C38.038 152.489 27.474 143.565 21.9873 132.114C16.6773 121.035 16.024 107.557 20.1945 95.1397C24.5122 82.2882 30.2144 69.8668 37.1416 58.2202L37.981 56.8082L39.2934 57.7986C46.0629 62.9064 55.1817 65.6677 63.6861 65.1853C72.144 64.7058 80.5183 61.086 86.6601 55.2528L87.6999 54.2652L88.715 55.2794C104.499 71.0547 114.167 83.7078 116.883 101.703C118.842 114.679 114.771 128.89 105.995 139.716C97.5195 150.171 84.4448 156.981 71.0196 157.932L70.9304 157.939ZM38.8575 61.1107C32.4023 72.1761 27.0666 83.9309 22.9853 96.0779C19.056 107.776 19.6599 120.448 24.6414 130.842C29.771 141.546 39.6456 149.888 51.0558 153.157C55.8454 154.529 61.1982 154.682 66.3743 154.829C67.8984 154.873 69.4111 154.916 70.8981 154.989C83.4942 154.07 95.7533 147.671 103.707 137.86C111.97 127.667 115.807 114.314 113.97 102.142C111.418 85.2271 102.731 73.5748 87.624 58.3579C81.0975 64.0933 72.5152 67.6343 63.8504 68.1252C55.2149 68.62 46.0031 66.0086 38.8575 61.1107ZM79.4527 32.6069C79.4508 26.1023 79.201 21.061 79.4698 13.076C78.6892 11.6051 77.092 10.6033 75.4274 10.5415C73.7638 10.4798 71.8836 11.7352 70.9967 13.1453C70.0063 11.5244 68.053 10.5472 66.1624 10.7267C64.2718 10.9062 62.3698 12.3173 61.7013 14.0949C60.5779 12.7218 58.7396 11.9678 56.9753 12.1587C55.211 12.3495 53.5501 13.7264 52.7468 15.3084C51.4345 13.9505 49.3539 13.3931 47.5384 13.9106C45.7228 14.4291 44.2509 16.0016 43.8521 17.8466C45.2651 25.4347 46.5204 31.23 48.166 38.0831C48.544 39.6584 50.4545 40.3526 52.0745 40.3298C53.6945 40.307 55.2318 39.1352 55.6829 37.5798C56.5014 39.2159 58.8896 39.8578 60.709 39.6632C62.5284 39.4685 64.155 38.0603 64.6089 36.2884C65.5537 37.6206 66.829 38.1448 68.4613 38.0935C70.0946 38.0422 71.6756 37.1287 72.535 35.7395C73.8065 36.6748 75.3344 36.7784 76.8034 36.201C78.2733 35.6237 79.4527 34.1851 79.4527 32.6069ZM76.9935 32.2964C74.6946 30.2377 70.2306 31.1853 67.2869 32.1121C64.3432 33.0399 62.6691 36.0377 60.1148 37.7697C58.8063 38.6566 57.4711 39.5692 56.5415 40.8463C55.6109 42.1245 55.1513 43.8613 55.779 45.3113C62.2902 44.4386 68.7853 43.7577 75.2975 42.8851C77.4103 42.6021 78.5869 40.1835 78.9724 38.0869C79.3579 35.9912 78.5812 33.7179 76.9935 32.2964ZM72.4006 153.044C72.4006 153.044 60.2251 142.846 54.108 137.716C53.1878 138.207 52.47 139.066 52.149 140.058C51.828 141.05 51.9743 142.266 52.2496 143.272C53.2382 146.87 54.2267 150.469 55.2152 154.067C49.9336 151.942 39.682 147.072 39.682 147.072C35.8476 144.179 32.7596 141.546 29.3459 138.878C28.5026 138.219 27.6233 137.542 26.5807 137.298C25.5381 137.054 24.2827 137.373 23.7709 138.314C24.352 139.539 24.9332 140.538 25.5143 141.764C24.7129 141.516 23.7063 140.988 22.9267 140.676C22.1471 140.365 21.2944 140.149 20.4711 140.311C19.6478 140.472 18.8701 141.093 18.7448 141.923C20.2803 143.447 21.471 144.984 23.0065 146.508C28.1314 151.598 31.8271 158.091 36.2901 163.77C47.0479 169.575 59.0942 175.07 70.4331 180.823L79.2509 155.751C77.0127 154.909 72.4006 153.044 72.4006 153.044Z" stroke="white" stroke-width="15" stroke-miterlimit="10" stroke-linecap="round" stroke-linejoin="round"/>
<path d="M182.496 111.129C182.162 101.964 179.076 92.7945 172.394 86.513C162.953 77.6373 153.262 69.3979 143.821 60.5222C141.689 63.9055 137.136 65.5369 133.34 64.2787C129.545 63.0196 126.684 58.8879 126.996 54.9016C116.683 55.253 105.934 54.5047 95.7952 56.4285C84.6414 58.5451 73.6662 60.808 62.5115 62.9246C66.4865 52.7527 70.4605 42.5809 74.4354 32.409C76.6773 26.6717 74.385 19.83 74.4952 13.672C68.4236 8.72371 59.8413 6.59286 52.4024 9.04277C46.3535 11.035 41.3322 15.4401 37.5215 20.5412C33.7109 25.6433 30.9828 31.4556 28.2831 37.2224C22.5961 49.3675 16.9091 61.5126 11.223 73.6577C6.76855 83.1715 7.57378 95.3783 13.8989 103.766C20.224 112.154 31.3702 116.616 41.7358 114.91L78.2138 149.898C74.8342 160.754 71.6465 171.277 68.266 182.133C91.8696 195.229 121.742 196.336 146.251 185.024C156.579 180.257 166.197 172.416 171.182 162.192C178.826 146.515 183.132 128.556 182.496 111.129Z" fill="#85412E"/>
<path d="M116.164 58.0811C117.783 64.4613 122.877 69.8444 129.157 71.8138C135.439 73.7833 142.693 72.2706 147.664 67.9557" stroke="#36241A" stroke-miterlimit="10" stroke-linecap="round" stroke-linejoin="round"/>
<path d="M87.001 153.172C103.19 148.876 119.38 144.58 135.569 140.284C141.778 128.09 148.403 115.354 154.613 103.16C156.543 99.3698 157.84 95.4575 161.163 92.8034C164.485 90.1484 168.703 88.6339 172.955 88.5674" stroke="#36241A" stroke-miterlimit="10" stroke-linecap="round" stroke-linejoin="round"/>
<path d="M107.982 110.39C108.859 92.8762 96.213 78.0096 79.7366 77.1848C63.2602 76.36 49.1928 89.8893 48.316 107.403C47.4393 124.917 60.0852 139.784 76.5616 140.609C93.038 141.433 107.105 127.904 107.982 110.39Z" fill="#74CF80"/>
<path d="M79.7144 77.1963C52.4264 83.1796 44.091 126.822 73.8545 140.353C61.888 123.591 63.7092 91.1883 79.7144 77.1963Z" fill="#419D4A"/>
<path d="M79.7133 77.1963C83.4794 102.462 79.9308 127.901 73.8535 140.353C106.226 129.48 102.504 88.7631 79.7133 77.1963Z" fill="#419D4A"/>
<path d="M80.326 73.7168C80.0136 75.2247 79.7021 76.7336 79.3906 78.2415" stroke="#36241A" stroke-miterlimit="10" stroke-linecap="round" stroke-linejoin="round"/>
<path d="M144.789 63.3201C144.789 60.6261 144.789 57.9322 144.789 55.2373L119.322 55.5383C119.309 59.4154 121.399 63.1577 124.495 65.4918C127.59 67.8259 131.591 68.8077 135.46 68.5665C139.33 68.3253 142.762 66.8459 146.065 64.8166C145.642 64.3542 145.213 63.7816 144.789 63.3201Z" fill="#FBA778"/>
<path d="M149.193 32.3155C148.639 31.1541 147.348 30.3575 146.122 30.743C146.423 29.7023 146.174 28.5191 145.48 27.6882C144.785 26.8573 143.495 26.4547 142.419 26.5677C142.047 24.7369 140.573 23.1758 138.765 22.701C136.958 22.2262 134.661 22.5652 133.438 23.9773C132.067 22.3307 129.436 21.9129 127.622 23.0533C125.809 24.1938 125.046 26.7472 125.937 28.6957C123.957 33.0163 121.963 37.6455 119.983 41.966C118.678 41.6432 117.451 41.3963 116.147 41.0734C115.158 43.1521 114.301 45.3228 113.831 47.5761C113.361 49.8285 113.463 52.2813 114.585 54.2897C115.708 56.298 117.991 57.7395 120.272 57.4394C120.694 58.9663 121.911 60.1381 123.4 60.6774C124.889 61.2168 126.634 60.9908 127.935 60.0887C128.784 61.703 130.229 62.8501 132.042 63.0514C133.854 63.2536 135.747 62.5054 136.931 61.1171C137.871 61.6621 139.262 61.6061 140.272 61.2045C141.281 60.8028 142.126 60.0716 142.861 59.2711C144.421 57.5714 145.57 55.4975 146.185 53.2746L149.337 46.6911C149.45 43.1616 149.563 39.632 149.677 36.1024C149.716 34.8186 149.745 33.4768 149.193 32.3155Z" fill="#FA6C3A"/>
<path d="M144.883 40.051C142.774 43.6898 140.662 47.2289 138.552 50.8677C137.821 50.8325 136.834 50.7841 136.103 50.749C134.873 48.5383 132.618 46.926 130.129 46.4778C127.639 46.0296 125.132 46.4493 123.208 48.0911C121.205 47.8822 119.201 47.6742 117.197 47.4663C116.783 43.6585 117.192 39.544 118.674 36.0125C120.26 32.2351 123.599 28.865 127.476 27.5404C131.328 26.2233 135.916 26.9174 139.269 29.2278C142.62 31.5381 144.71 35.983 144.883 40.051Z" fill="#FBA778"/>
<path d="M121.682 43.6603C124.082 43.6603 126.027 41.7153 126.027 39.316C126.027 36.9167 124.082 34.9717 121.682 34.9717C119.283 34.9717 117.338 36.9167 117.338 39.316C117.338 41.7153 119.283 43.6603 121.682 43.6603Z" stroke="#36241A" stroke-miterlimit="10" stroke-linecap="round" stroke-linejoin="round"/>
<path d="M139.976 42.7467C139.976 40.3471 138.031 38.4023 135.631 38.4023C133.232 38.4023 131.287 40.3471 131.287 42.7467C131.287 45.1462 133.232 47.091 135.631 47.091C138.03 47.0919 139.976 45.1462 139.976 42.7467Z" stroke="#36241A" stroke-miterlimit="10" stroke-linecap="round" stroke-linejoin="round"/>
<path d="M126.253 39.4637C126.963 38.6091 128.146 38.1752 129.24 38.3689C130.334 38.5626 131.297 39.3754 131.671 40.4219" stroke="#36241A" stroke-miterlimit="10" stroke-linecap="round" stroke-linejoin="round"/>
<path d="M122.157 40.9233C122.157 40.3811 121.717 39.9414 121.175 39.9414C120.633 39.9414 120.193 40.3811 120.193 40.9233C120.193 41.4655 120.633 41.9051 121.175 41.9051C121.717 41.9051 122.157 41.4655 122.157 40.9233Z" fill="#36241A"/>
<path d="M134.8 44.018C134.8 43.4758 134.36 43.0361 133.818 43.0361C133.276 43.0361 132.837 43.4758 132.837 44.018C132.837 44.5602 133.277 44.9999 133.818 44.9999C134.359 44.9999 134.8 44.5602 134.8 44.018Z" fill="#36241A"/>
<path d="M128.654 39.9043C127.762 41.8471 126.871 43.79 125.979 45.7338C126.571 45.617 127.163 45.4992 127.754 45.3824" stroke="#36241A" stroke-miterlimit="10" stroke-linecap="round" stroke-linejoin="round"/>
<path d="M128.808 48.6266C129.079 49.3074 129.794 49.7851 130.526 49.7746C131.258 49.7642 131.96 49.2675 132.213 48.5791" stroke="#36241A" stroke-miterlimit="10" stroke-linecap="round" stroke-linejoin="round"/>
<path d="M123.623 31.9368C124.263 31.5921 125.067 31.5703 125.725 31.8799C126.383 32.1904 126.878 32.8247 127.02 33.5378" stroke="#36241A" stroke-miterlimit="10" stroke-linecap="round" stroke-linejoin="round"/>
<path d="M135.891 33.3779C136.762 33.6153 137.635 33.8527 138.507 34.0901" stroke="#36241A" stroke-miterlimit="10" stroke-linecap="round" stroke-linejoin="round"/>
<path d="M151.418 46.4812C150.73 44.0047 148.38 42.0837 145.815 41.9033L141.746 53.2821C143.844 54.7682 146.879 54.7729 148.982 53.2944C151.085 51.815 152.107 48.9577 151.418 46.4812Z" fill="#FBA778"/>
<path d="M145.943 47.2163C147.127 47.1299 148.311 47.0444 149.494 46.958" stroke="#36241A" stroke-miterlimit="10" stroke-linecap="round" stroke-linejoin="round"/>
<path d="M108.135 129.233C110.513 121.009 109.848 109.735 101.747 105.723C100.556 102.015 99.6934 98.2404 98.5026 94.5332C96.5455 95.1666 94.5524 95.9424 92.5953 96.5757L95.2665 107.1C93.9959 114.981 90.0476 122.406 84.2238 127.866C78.3991 133.326 70.7351 136.787 62.7881 137.546C64.6502 141.196 67.7743 143.824 71.8176 144.493C69.9944 144.979 68.4475 145.513 66.6244 145.998C68.9897 149.214 72.5868 151.25 76.5303 151.865C80.4749 152.479 84.5391 151.816 88.3032 150.491C97.8987 147.109 105.309 139.007 108.135 129.233Z" fill="#FFCA5E"/>
<path d="M70.9902 144.696C78.8869 142.625 85.9831 137.638 90.6056 130.909C95.2282 124.181 97.3381 115.767 96.437 107.653" stroke="#36241A" stroke-miterlimit="10" stroke-linecap="round" stroke-linejoin="round"/>
<path d="M93.1611 98.6173C94.952 98.1026 96.7429 97.5879 98.5348 97.0732" stroke="#36241A" stroke-miterlimit="10" stroke-linecap="round" stroke-linejoin="round"/>
<path d="M94.1582 99.864C95.8902 99.4595 97.6223 99.0559 99.3543 98.6514" stroke="#36241A" stroke-miterlimit="10" stroke-linecap="round" stroke-linejoin="round"/>
<path d="M44.0903 137.97C51.8823 137.97 58.1991 131.653 58.1991 123.861C58.1991 116.069 51.8823 109.752 44.0903 109.752C36.2982 109.752 29.9814 116.069 29.9814 123.861C29.9814 131.653 36.2982 137.97 44.0903 137.97Z" fill="#FA6C3A"/>
<path d="M37.7559 107.116C38.2325 108.497 38.7102 109.877 39.1869 111.257" stroke="#36241A" stroke-miterlimit="10" stroke-linecap="round" stroke-linejoin="round"/>
<path d="M55.7744 149.852C61.4493 149.852 66.0498 145.252 66.0498 139.577C66.0498 133.902 61.4493 129.302 55.7744 129.302C50.0994 129.302 45.499 133.902 45.499 139.577C45.499 145.252 50.0994 149.852 55.7744 149.852Z" fill="#FA6C3A"/>
<path d="M61.4316 131.386C61.8931 130.462 62.3546 129.538 62.8161 128.614" stroke="#36241A" stroke-miterlimit="10" stroke-linecap="round" stroke-linejoin="round"/>
<path d="M69.7993 116.077C69.7993 113.311 67.5574 111.068 64.7903 111.068C62.0242 111.068 59.7812 113.311 59.7812 116.077C59.7812 118.843 62.0242 121.086 64.7903 121.086C67.5574 121.086 69.7993 118.843 69.7993 116.077Z" fill="#FFCA5E"/>
<path d="M62.3965 108.374C62.6852 109.182 62.9738 109.99 63.2625 110.798" stroke="#36241A" stroke-miterlimit="10" stroke-linecap="round" stroke-linejoin="round"/>
<path d="M81.5493 112.988C81.5493 110.221 79.3064 107.979 76.5403 107.979C73.7742 107.979 71.5312 110.221 71.5312 112.988C71.5312 115.754 73.7742 117.997 76.5403 117.997C79.3064 117.997 81.5493 115.754 81.5493 112.988Z" fill="#FFCA5E"/>
<path d="M77.0127 108.523C77.3593 107.715 77.7049 106.907 78.0515 106.099" stroke="#36241A" stroke-miterlimit="10" stroke-linecap="round" stroke-linejoin="round"/>
<path d="M91.9839 118.024C91.9839 115.258 89.741 113.015 86.9749 113.015C84.2087 113.015 81.9658 115.258 81.9658 118.024C81.9658 120.79 84.2087 123.033 86.9749 123.033C89.741 123.032 91.9839 120.79 91.9839 118.024Z" fill="#FA6C3A"/>
<path d="M86.1934 110.602C86.2513 111.698 86.3092 112.795 86.3662 113.893" stroke="#36241A" stroke-miterlimit="10" stroke-linecap="round" stroke-linejoin="round"/>
<path d="M77.1509 124.88C77.1509 122.114 74.9079 119.871 72.1418 119.871C69.3757 119.871 67.1328 122.114 67.1328 124.88C67.1328 127.646 69.3757 129.889 72.1418 129.889C74.9079 129.889 77.1509 127.647 77.1509 124.88Z" fill="#FA6C3A"/>
<path d="M76.1484 122.379C76.8416 121.859 77.5339 121.34 78.2271 120.819" stroke="#36241A" stroke-miterlimit="10" stroke-linecap="round" stroke-linejoin="round"/>
<path d="M76.4253 19.7197C66.7482 21.2296 57.1774 23.5313 47.5003 25.0412C43.8036 36.7532 40.1069 48.4644 36.4102 60.1764C43.3725 67.5043 53.8776 71.5543 63.9726 71.0548C74.0675 70.5553 83.8054 65.081 90.01 57.1008C85.5859 44.7069 80.8494 32.1136 76.4253 19.7197ZM77.1774 56.5234C74.0894 60.1233 69.4079 62.1563 64.681 62.5409C59.9957 62.9217 55.1035 61.7043 51.4524 58.7426C47.8013 55.7818 45.1035 50.7158 46.1072 46.1237C47.2268 41.0026 48.3464 35.8806 49.4659 30.7595L75.1026 29.4301C76.6903 33.9909 78.3577 38.678 79.9711 43.2303C81.555 47.7009 80.2664 52.9236 77.1774 56.5234Z" fill="#36241A"/>
<path d="M70.9314 157.938L70.8431 157.934C69.3465 157.86 67.8253 157.816 66.2917 157.772C60.9333 157.619 55.3915 157.462 50.2467 155.987C38.039 152.489 27.4749 143.565 21.9883 132.114C16.6782 121.034 16.0249 107.557 20.1955 95.1392C24.5132 82.2876 30.2154 69.8662 37.1426 58.2196L37.982 56.8076L39.2943 57.798C46.0639 62.9058 55.1826 65.6672 63.687 65.1848C72.1449 64.7052 80.5192 61.0855 86.6611 55.2522L87.7009 54.2646L88.716 55.2788C104.5 71.0541 114.168 83.7072 116.884 101.703C118.843 114.679 114.772 128.889 105.996 139.715C97.5205 150.17 84.4457 156.98 71.0206 157.932L70.9314 157.938ZM38.8584 61.1102C32.4032 72.1756 27.0676 83.9304 22.9863 96.0773C19.0569 107.775 19.6609 120.447 24.6424 130.841C29.772 141.545 39.6466 149.887 51.0567 153.156C55.8464 154.529 61.1991 154.681 66.3753 154.829C67.8993 154.872 69.412 154.915 70.8991 154.988C83.4952 154.07 95.7542 147.671 103.708 137.86C111.971 127.666 115.808 114.313 113.971 102.141C111.418 85.2265 102.732 73.5743 87.6249 58.3573C81.0985 64.0928 72.5162 67.6337 63.8513 68.1247C55.2159 68.6194 46.004 66.0081 38.8584 61.1102Z" fill="#36241A"/>
<path d="M45.7515 65.6631C34.5598 76.0002 25.686 88.8318 19.9629 102.952" stroke="#36241A" stroke-miterlimit="10" stroke-linecap="round" stroke-linejoin="round"/>
<path d="M19.0088 115.141C37.7629 102.23 54.7024 86.685 69.1721 69.1045" stroke="#36241A" stroke-miterlimit="10" stroke-linecap="round" stroke-linejoin="round"/>
<path d="M75.9398 66.3818C68.8113 95.0249 52.9306 121.427 30.9688 141.148" stroke="#36241A" stroke-miterlimit="10" stroke-linecap="round" stroke-linejoin="round"/>
<path d="M39.6797 150.767C68.3446 135.968 93.2947 114.037 111.648 87.5078" stroke="#36241A" stroke-miterlimit="10" stroke-linecap="round" stroke-linejoin="round"/>
<path d="M99.7276 69.1377C83.788 99.093 60.2176 124.949 31.8604 143.584" stroke="#36241A" stroke-miterlimit="10" stroke-linecap="round" stroke-linejoin="round"/>
<path d="M115.435 99.3301C106.128 120.441 92.3711 139.578 75.3262 155.126" stroke="#36241A" stroke-miterlimit="10" stroke-linecap="round" stroke-linejoin="round"/>
<path d="M32.335 69.6377C47.4646 99.4582 70.1509 125.406 97.6829 144.383" stroke="#36241A" stroke-miterlimit="10" stroke-linecap="round" stroke-linejoin="round"/>
<path d="M25.624 85.4814C26.076 111.23 37.7387 136.588 56.9942 153.688" stroke="#36241A" stroke-miterlimit="10" stroke-linecap="round" stroke-linejoin="round"/>
<path d="M49.126 66.2607C69.6577 86.5124 90.8133 106.133 112.551 125.083" stroke="#36241A" stroke-miterlimit="10" stroke-linecap="round" stroke-linejoin="round"/>
<path d="M78.5674 64.1152C92.4084 72.9482 104.579 84.3877 114.253 97.6533" stroke="#36241A" stroke-miterlimit="10" stroke-linecap="round" stroke-linejoin="round"/>
<path d="M79.4541 32.6066C79.4522 26.102 79.2025 21.0607 79.4712 13.0757C78.6906 11.6048 77.0934 10.603 75.4288 10.5412C73.7652 10.4795 71.885 11.7349 70.9981 13.145C70.0077 11.5241 68.0544 10.5469 66.1638 10.7264C64.2732 10.9059 62.3712 12.317 61.7027 14.0946C60.5794 12.7215 58.741 11.9675 56.9767 12.1584C55.2124 12.3492 53.5515 13.7261 52.7482 15.3081C51.4359 13.9502 49.3554 13.3928 47.5398 13.9103C45.7242 14.4288 44.2523 16.0013 43.8535 17.8463C45.2665 25.4344 46.5218 31.2297 48.1674 38.0828C48.5454 39.6581 50.4559 40.3523 52.0759 40.3295C53.6959 40.3067 55.2332 39.1349 55.6843 37.5795C56.5028 39.2156 58.891 39.8575 60.7104 39.6629C62.5298 39.4682 64.1564 38.06 64.6103 36.2881C65.5551 37.6203 66.8304 38.1445 68.4627 38.0932C70.096 38.0419 71.6771 37.1284 72.5364 35.7392C73.8079 36.6745 75.3358 36.7781 76.8048 36.2007C78.2747 35.6234 79.4541 34.1848 79.4541 32.6066Z" fill="#FBA778"/>
<path d="M76.9945 32.2956C74.6956 30.237 70.2316 31.1846 67.2879 32.1114C64.3442 33.0392 62.6701 36.037 60.1158 37.769C58.8072 38.6559 57.4721 39.5685 56.5425 40.8456C55.6119 42.1238 55.1523 43.8605 55.78 45.3106C62.2912 44.4379 68.7863 43.757 75.2985 42.8844C77.4113 42.6014 78.5879 40.1828 78.9734 38.0862C79.3589 35.9905 78.5822 33.7172 76.9945 32.2956Z" fill="#FBA778"/>
<path d="M52.9385 18.6348C53.8273 25.1052 54.7161 31.5765 55.6039 38.047" stroke="#36241A" stroke-miterlimit="10" stroke-linecap="round" stroke-linejoin="round"/>
<path d="M62.4072 17.2549C62.9893 23.8354 63.5714 30.417 64.1535 36.9975" stroke="#36241A" stroke-miterlimit="10" stroke-linecap="round" stroke-linejoin="round"/>
<path d="M71.3555 16.3672C71.8274 22.9478 72.2993 29.5283 72.7713 36.1098" stroke="#36241A" stroke-miterlimit="10" stroke-linecap="round" stroke-linejoin="round"/>
<path d="M56.0928 38.1555C58.5379 39.8875 62.3211 39.2892 64.1129 36.8878C65.2932 38.089 66.7679 39.0025 68.4458 38.8629C70.1237 38.7223 71.7209 37.8041 72.6857 36.4244C73.527 37.1831 75.0302 37.2628 76.1117 36.9267C77.1933 36.5905 78.0679 35.6552 78.3309 34.5537" stroke="#36241A" stroke-miterlimit="10" stroke-linecap="round" stroke-linejoin="round"/>
<path d="M72.4019 153.044C72.4019 153.044 60.2265 142.846 54.1093 137.716C53.1891 138.207 52.4713 139.066 52.1503 140.058C51.8294 141.05 51.9756 142.266 52.251 143.272C53.2395 146.87 54.228 150.469 55.2165 154.067C49.935 151.942 39.6833 147.072 39.6833 147.072C35.8489 144.179 32.7609 141.546 29.3472 138.878C28.5039 138.219 27.6247 137.542 26.582 137.298C25.5394 137.054 24.284 137.373 23.7722 138.314C24.3533 139.539 24.9345 140.538 25.5156 141.764C24.7142 141.516 23.7076 140.988 22.928 140.676C22.1484 140.365 21.2957 140.149 20.4724 140.311C19.6491 140.472 18.8714 141.093 18.7461 141.923C20.2816 143.447 21.4723 144.984 23.0078 146.508C28.1327 151.598 31.8284 158.091 36.2914 163.77C47.0492 169.575 59.0955 175.07 70.4344 180.823L79.2522 155.751C77.014 154.909 72.4019 153.044 72.4019 153.044Z" fill="#FBA778"/>
<path d="M24.5039 141.039C28.7533 147.829 33.0026 154.62 37.252 161.41" stroke="#36241A" stroke-miterlimit="10" stroke-linecap="round" stroke-linejoin="round"/>
<path d="M54.8027 154.164C55.7903 154.611 56.7788 155.06 57.7663 155.507" stroke="#36241A" stroke-miterlimit="10" stroke-linecap="round" stroke-linejoin="round"/>
</svg>
