<svg width="150" height="173" viewBox="0 0 150 173" fill="none" xmlns="http://www.w3.org/2000/svg">
<mask id="path-1-outside-1_2151_5650" maskUnits="userSpaceOnUse" x="-0.595703" y="-0.963867" width="150" height="174" fill="black">
<rect fill="white" x="-0.595703" y="-0.963867" width="150" height="174"/>
<path d="M121.845 141.52L111.294 147.896L60.4784 137.789C1.47284 126.053 -12.2365 47.8808 39.2536 16.7666C90.7437 -14.3492 153.574 34.1388 136.526 91.8337L121.845 141.52Z"/>
<path d="M14.2896 66.985C15.9112 54.3811 21.7429 42.3554 30.6358 33.2776C39.5287 24.1997 51.433 18.1223 63.9996 16.2427"/>
<path d="M132.26 80.1372C131.209 93.8528 124.807 107.086 114.706 116.424L132.26 80.1372Z"/>
<path d="M44.5989 39.8758C30.5476 44.0066 20.3208 58.554 21.1899 73.1744C30.0268 80.4177 42.825 82.8539 53.7344 79.4554C64.6437 76.0568 73.5817 66.9198 76.7408 55.939L82.3036 55.2098C75.1239 42.4457 58.6503 35.7465 44.5989 39.8758Z"/>
<path d="M92.5392 67.771C94.1856 59.7768 102.197 53.6124 110.347 54.0695C118.495 54.5265 125.768 61.5476 126.511 69.674C123.65 75.3844 117.054 78.8887 110.673 78.5653C104.294 78.2419 94.8075 73.7426 92.5392 67.771Z"/>
<path d="M42.7857 60.8187C52.2321 56.5868 62.5802 54.3869 72.9298 54.4071C76.8368 54.4148 81.0314 54.8471 84.0195 57.3641C86.7169 59.6355 87.9513 63.2782 88.0726 66.8027C88.1939 70.3272 87.3326 73.8035 86.479 77.2254C85.1327 82.6171 80.6303 87.6264 80.2478 93.1704C79.8638 98.7145 82.9374 104.925 88.3602 106.143C94.5464 107.531 100.705 100.939 99.7453 94.6722C98.786 88.4053 92.0604 83.9821 85.7499 84.5885C79.4394 85.1948 74.029 90.033 71.6238 95.8973C67.535 105.865 72.1882 118.579 81.745 123.551C86.9967 126.282 93.0881 126.766 98.7954 128.338C104.503 129.91 110.409 133.184 112.2 138.826"/>
<path d="M87.8614 74.2076C90.2199 70.1685 94.0445 67.0077 98.4552 65.4499C102.866 63.8921 107.827 63.9512 112.199 65.6132"/>
<path d="M43.1132 71.7201C46.1573 66.9612 49.2014 62.2038 52.2455 57.4464C48.2623 55.2979 44.4626 52.4714 40.4795 50.3228"/>
<path d="M59.9254 48.3491C61.3884 50.3002 62.8529 52.2514 64.3159 54.201L59.9254 48.3491Z"/>
<path d="M133.622 137.396C128.373 128.71 117.075 125.922 108.387 131.173C99.6998 136.423 96.9137 147.719 102.164 156.407C107.414 165.095 118.711 167.881 127.398 162.63C136.084 157.38 138.87 146.084 133.622 137.396Z"/>
<path d="M126.168 159.697C130.03 157.954 132.606 153.699 132.36 149.468L126.168 159.697Z"/>
<path d="M134.672 123.77L89.6172 150.996C88.1915 151.857 86.3367 151.4 85.4754 149.974L83.7388 147.101C82.8775 145.676 83.3346 143.821 84.7602 142.96L129.815 115.734C131.241 114.872 133.096 115.33 133.957 116.755L135.694 119.628C136.555 121.055 136.098 122.909 134.672 123.77Z"/>
<path d="M140.621 140.257L101.447 163.928C100.022 164.79 98.1671 164.333 97.3058 162.907L95.5692 160.034C94.7078 158.608 95.165 156.754 96.5906 155.892L135.764 132.22C137.19 131.359 139.045 131.816 139.906 133.242L141.643 136.115C142.504 137.542 142.047 139.395 140.621 140.257Z"/>
<path d="M133.127 134.463L99.8002 154.603C98.3745 155.464 96.5198 155.007 95.6584 153.581L93.9218 150.708C93.0605 149.282 93.5176 147.428 94.9433 146.566L128.27 126.427C129.696 125.565 131.55 126.022 132.412 127.448L134.147 130.321C135.011 131.747 134.552 133.6 133.127 134.463Z"/>
</mask>
<path d="M91.7373 145.626C90.0829 146.626 89.5522 148.777 90.5519 150.432C91.5517 152.086 93.7033 152.617 95.3577 151.617L91.7373 145.626ZM132.686 129.06C134.34 128.06 134.871 125.909 133.871 124.254C132.872 122.6 130.72 122.069 129.066 123.069L132.686 129.06ZM136.07 136.198C137.731 135.209 138.275 133.061 137.286 131.4C136.297 129.74 134.149 129.195 132.488 130.184L136.07 136.198ZM95.9046 151.97C94.2438 152.959 93.6992 155.107 94.6882 156.768C95.6773 158.429 97.8254 158.973 99.4862 157.984L95.9046 151.97ZM95.3577 151.617L132.686 129.06L129.066 123.069L91.7373 145.626L95.3577 151.617ZM132.488 130.184L95.9046 151.97L99.4862 157.984L136.07 136.198L132.488 130.184ZM121.845 141.52L125.466 147.512C126.96 146.608 128.064 145.179 128.559 143.504L121.845 141.52ZM111.294 147.896L109.928 154.762C111.641 155.102 113.419 154.791 114.914 153.887L111.294 147.896ZM60.4784 137.789L59.1128 144.655H59.1128L60.4784 137.789ZM39.2536 16.7666L42.8739 22.7577L42.874 22.7577L39.2536 16.7666ZM136.526 91.8337L129.813 89.8502V89.8502L136.526 91.8337ZM7.34686 66.0918C6.85355 69.9262 9.56203 73.4345 13.3964 73.9278C17.2308 74.4211 20.7391 71.7126 21.2324 67.8782L7.34686 66.0918ZM65.0351 23.1657C68.8586 22.5938 71.4945 19.0307 70.9226 15.2072C70.3507 11.3838 66.7876 8.74783 62.9641 9.31972L65.0351 23.1657ZM139.24 80.6721C139.535 76.8174 136.65 73.4531 132.795 73.1577C128.94 72.8623 125.576 75.7477 125.281 79.6024L139.24 80.6721ZM109.954 111.284C107.115 113.908 106.941 118.337 109.566 121.176C112.19 124.014 116.619 124.188 119.458 121.564L109.954 111.284ZM44.5989 39.8758L42.6253 33.1598L42.6246 33.16L44.5989 39.8758ZM21.1899 73.1744L14.2022 73.5897C14.318 75.5386 15.2425 77.3505 16.7524 78.5881L21.1899 73.1744ZM53.7344 79.4554L51.6524 72.7721L53.7344 79.4554ZM76.7408 55.939L75.8311 48.9983C73.0687 49.3604 70.784 51.3262 70.0137 54.0036L76.7408 55.939ZM82.3036 55.2098L83.2133 62.1504C85.5183 61.8483 87.5229 60.4216 88.5633 58.3428C89.6038 56.2639 89.5443 53.8042 88.4046 51.778L82.3036 55.2098ZM92.5392 67.771L85.6831 66.359C85.4148 67.6615 85.5231 69.0135 85.9954 70.2567L92.5392 67.771ZM110.347 54.0695L110.739 47.0804L110.739 47.0804L110.347 54.0695ZM126.511 69.674L132.77 72.8092C133.354 71.6426 133.601 70.3359 133.482 69.0365L126.511 69.674ZM110.673 78.5653L110.319 85.5563L110.319 85.5563L110.673 78.5653ZM39.9239 54.4304C36.3957 56.011 34.8169 60.1524 36.3975 63.6805C37.9781 67.2087 42.1195 68.7875 45.6476 67.2069L39.9239 54.4304ZM72.9298 54.4071L72.9438 47.4071L72.9435 47.4071L72.9298 54.4071ZM84.0195 57.3641L79.5098 62.7178L79.5106 62.7186L84.0195 57.3641ZM86.479 77.2254L93.2705 78.9213L93.2709 78.9195L86.479 77.2254ZM80.2478 93.1704L87.2311 93.6541L87.2312 93.6522L80.2478 93.1704ZM88.3602 106.143L86.827 112.973L86.8273 112.973L88.3602 106.143ZM71.6238 95.8973L78.1001 98.5541L78.1003 98.5535L71.6238 95.8973ZM81.745 123.551L78.5142 129.761L78.5149 129.761L81.745 123.551ZM105.528 140.944C106.698 144.628 110.633 146.667 114.318 145.498C118.003 144.328 120.042 140.393 118.872 136.708L105.528 140.944ZM81.8165 70.6779C79.8671 74.0164 80.9932 78.3031 84.3317 80.2525C87.6702 82.2019 91.9569 81.0758 93.9063 77.7373L81.8165 70.6779ZM109.711 72.1563C113.325 73.5301 117.368 71.7143 118.742 68.1006C120.116 64.4869 118.3 60.4438 114.686 59.07L109.711 72.1563ZM37.2164 67.9482C35.1332 71.2049 36.0845 75.5338 39.3412 77.617C42.5979 79.7001 46.9268 78.7488 49.01 75.4921L37.2164 67.9482ZM52.2455 57.4464L58.1417 61.2193C59.1911 59.5792 59.5101 57.5761 59.0218 55.6913C58.5336 53.8064 57.2824 52.21 55.5687 51.2856L52.2455 57.4464ZM43.8028 44.162C40.4003 42.3266 36.1541 43.597 34.3187 46.9995C32.4833 50.4021 33.7537 54.6482 37.1562 56.4836L43.8028 44.162ZM65.5259 44.1498C63.2067 41.0567 58.8192 40.4293 55.7261 42.7485C52.633 45.0677 52.0057 49.4553 54.3249 52.5484L65.5259 44.1498ZM58.717 58.4024C61.0373 61.4946 65.4251 62.1203 68.5173 59.7999C71.6095 57.4795 72.2352 53.0917 69.9148 49.9995L58.717 58.4024ZM133.622 137.396L139.613 133.776L139.613 133.776L133.622 137.396ZM102.164 156.407L108.155 152.786L102.164 156.407ZM127.398 162.63L131.019 168.621L131.019 168.621L127.398 162.63ZM123.288 153.316C119.765 154.906 118.197 159.052 119.787 162.576C121.378 166.1 125.523 167.667 129.047 166.077L123.288 153.316ZM139.348 149.062C139.124 145.203 135.814 142.256 131.954 142.48C128.095 142.704 125.148 146.014 125.372 149.874L139.348 149.062ZM134.672 123.77L131.053 117.779L131.052 117.779L134.672 123.77ZM89.6172 150.996L93.2369 156.987L93.2375 156.987L89.6172 150.996ZM85.4754 149.974L91.4669 146.355L91.4661 146.353L85.4754 149.974ZM83.7388 147.101L77.7474 150.721L77.7481 150.722L83.7388 147.101ZM84.7602 142.96L88.38 148.951L88.3805 148.951L84.7602 142.96ZM129.815 115.734L126.196 109.742L126.195 109.743L129.815 115.734ZM133.957 116.755L127.966 120.375L127.966 120.376L133.957 116.755ZM135.694 119.628L141.687 116.011L141.684 116.007L135.694 119.628ZM140.621 140.257L137.002 134.265L137.001 134.265L140.621 140.257ZM101.447 163.928L105.067 169.92L105.068 169.92L101.447 163.928ZM97.3058 162.907L103.297 159.287L103.296 159.286L97.3058 162.907ZM95.5692 160.034L89.5777 163.654L89.5785 163.655L95.5692 160.034ZM96.5906 155.892L100.21 161.884L100.211 161.883L96.5906 155.892ZM135.764 132.22L132.145 126.229L132.144 126.229L135.764 132.22ZM139.906 133.242L133.915 136.862L133.915 136.863L139.906 133.242ZM141.643 136.115L147.636 132.498L147.633 132.494L141.643 136.115ZM133.127 134.463L136.747 140.454L136.751 140.451L133.127 134.463ZM99.8002 154.603L103.42 160.594L103.421 160.594L99.8002 154.603ZM95.6584 153.581L101.65 149.961L101.649 149.96L95.6584 153.581ZM93.9218 150.708L87.9304 154.328L87.9312 154.329L93.9218 150.708ZM94.9433 146.566L98.563 152.558L98.5637 152.557L94.9433 146.566ZM128.27 126.427L124.65 120.435L124.649 120.436L128.27 126.427ZM132.412 127.448L138.404 123.829L138.403 123.828L132.412 127.448ZM134.147 130.321L128.154 133.94L128.161 133.95L134.147 130.321ZM118.225 135.529L107.674 141.905L114.914 153.887L125.466 147.512L118.225 135.529ZM112.659 141.031L61.8439 130.924L59.1128 144.655L109.928 154.762L112.659 141.031ZM61.8439 130.924C9.10661 120.434 -3.14619 50.5665 42.8739 22.7577L35.6333 10.7755C-21.3268 45.1951 -6.16094 131.671 59.1128 144.655L61.8439 130.924ZM42.874 22.7577C88.8942 -5.05264 145.05 38.2843 129.813 89.8502L143.24 93.8173C162.098 29.9933 92.5931 -23.6457 35.6332 10.7756L42.874 22.7577ZM129.813 89.8502L115.132 139.537L128.559 143.504L143.24 93.8173L129.813 89.8502ZM21.2324 67.8782C22.6596 56.7852 27.8093 46.1658 35.6362 38.1761L25.6353 28.379C15.6764 38.5451 9.1628 51.9769 7.34686 66.0918L21.2324 67.8782ZM35.6362 38.1761C43.4628 30.1867 53.975 24.82 65.0351 23.1657L62.9641 9.31972C48.891 11.4247 35.5945 18.2127 25.6353 28.379L35.6362 38.1761ZM125.281 79.6024C124.365 91.5566 118.758 103.145 109.954 111.284L119.458 121.564C130.856 111.028 138.054 96.149 139.24 80.6721L125.281 79.6024ZM42.6246 33.16C25.4453 38.2104 13.1397 55.715 14.2022 73.5897L28.1775 72.759C27.5019 61.393 35.6499 49.8029 46.5733 46.5916L42.6246 33.16ZM16.7524 78.5881C27.43 87.3402 42.6828 90.23 55.8164 86.1386L51.6524 72.7721C42.9673 75.4778 32.6235 73.4952 25.6273 67.7606L16.7524 78.5881ZM55.8164 86.1386C68.9746 82.0394 79.6578 71.118 83.468 57.8743L70.0137 54.0036C67.5056 62.7216 60.3128 70.0742 51.6524 72.7721L55.8164 86.1386ZM77.6506 62.8796L83.2133 62.1504L81.3938 48.2692L75.8311 48.9983L77.6506 62.8796ZM88.4046 51.778C79.6264 36.1719 59.8041 28.1114 42.6253 33.1598L46.5726 46.5918C57.4965 43.3816 70.6215 48.7195 76.2025 58.6416L88.4046 51.778ZM99.3953 69.1831C100.342 64.5873 105.269 60.7957 109.955 61.0585L110.739 47.0804C99.1247 46.4291 88.0294 54.9662 85.6831 66.359L99.3953 69.1831ZM109.955 61.0585C114.639 61.3213 119.113 65.6405 119.54 70.3115L133.482 69.0365C132.423 57.4547 122.35 47.7318 110.739 47.0804L109.955 61.0585ZM120.252 66.5387C118.749 69.5396 114.896 71.7703 111.028 71.5743L110.319 85.5563C119.212 86.0071 128.552 81.2291 132.77 72.8092L120.252 66.5387ZM111.028 71.5743C109.089 71.476 106.153 70.656 103.456 69.1623C100.601 67.5819 99.358 66.0094 99.083 65.2854L85.9954 70.2567C87.9886 75.5042 92.623 79.1672 96.6739 81.4102C100.881 83.7399 105.878 85.3312 110.319 85.5563L111.028 71.5743ZM45.6476 67.2069C54.189 63.3804 63.5569 61.3888 72.9162 61.4071L72.9435 47.4071C61.6035 47.3849 50.2752 49.7931 39.9239 54.4304L45.6476 67.2069ZM72.9159 61.4071C76.7327 61.4147 78.6022 61.9533 79.5098 62.7178L88.5292 52.0104C83.4605 47.7408 76.9409 47.415 72.9438 47.4071L72.9159 61.4071ZM79.5106 62.7186C80.1991 63.2983 80.9977 64.7457 81.0767 67.0434L95.0685 66.562C94.905 61.8107 93.2347 55.9728 88.5284 52.0097L79.5106 62.7186ZM81.0767 67.0434C81.1586 69.4232 80.5816 71.9454 79.6871 75.5313L93.2709 78.9195C94.0835 75.6617 95.2291 71.2312 95.0685 66.562L81.0767 67.0434ZM79.6876 75.5295C79.2624 77.2323 78.332 78.9035 76.7718 81.9494C75.447 84.5356 73.5651 88.329 73.2644 92.6887L87.2312 93.6522C87.3129 92.4677 87.8735 90.9845 89.2321 88.3321C90.3553 86.1395 92.3493 82.6102 93.2705 78.9213L79.6876 75.5295ZM73.2645 92.6867C72.9772 96.8351 73.9622 101.174 76.0794 104.805C78.2129 108.464 81.7899 111.842 86.827 112.973L89.8934 99.3128C89.5078 99.2262 88.8365 98.8902 88.1735 97.7531C87.4942 96.5881 87.1344 95.0497 87.2311 93.6541L73.2645 92.6867ZM86.8273 112.973C92.8798 114.331 98.3276 111.683 101.754 108.155C105.169 104.639 107.537 99.3123 106.665 93.6131L92.8259 95.7314C92.9128 96.2992 92.6816 97.4018 91.7109 98.4012C90.7511 99.3894 90.0267 99.3427 89.8931 99.3127L86.8273 112.973ZM106.665 93.6131C105.048 83.0484 94.4212 76.7231 85.0804 77.6206L86.4194 91.5564C89.6996 91.2412 92.5244 93.7621 92.8259 95.7314L106.665 93.6131ZM85.0804 77.6206C75.6444 78.5272 68.3139 85.5204 65.1474 93.2412L78.1003 98.5535C79.744 94.5457 83.2344 91.8624 86.4194 91.5564L85.0804 77.6206ZM65.1476 93.2406C59.6846 106.557 65.7447 123.117 78.5142 129.761L84.9757 117.341C78.6317 114.04 75.3854 105.172 78.1001 98.5541L65.1476 93.2406ZM78.5149 129.761C81.9406 131.543 85.4688 132.504 88.5449 133.204C91.9538 133.981 94.2412 134.344 96.9367 135.086L100.654 121.589C97.6423 120.76 94.0303 120.095 91.6537 119.554C88.9444 118.937 86.8011 118.29 84.9751 117.341L78.5149 129.761ZM96.9367 135.086C102.061 136.498 104.861 138.841 105.528 140.944L118.872 136.708C115.957 127.526 106.944 123.321 100.654 121.589L96.9367 135.086ZM93.9063 77.7373C95.4286 75.1302 97.9366 73.0569 100.786 72.0504L96.124 58.8495C90.1524 60.9586 85.0112 65.2067 81.8165 70.6779L93.9063 77.7373ZM100.786 72.0504C103.635 71.0444 106.888 71.0831 109.711 72.1563L114.686 59.07C108.766 56.8193 102.097 56.7399 96.124 58.8495L100.786 72.0504ZM49.01 75.4921C52.0537 70.7337 55.0976 65.9767 58.1417 61.2193L46.3492 53.6736C43.3051 58.4309 40.2608 63.1887 37.2164 67.9482L49.01 75.4921ZM55.5687 51.2856C53.8447 50.3556 52.1182 49.2559 50.1326 47.9867C48.2268 46.7684 46.0619 45.3806 43.8028 44.162L37.1562 56.4836C38.8803 57.4136 40.6067 58.5133 42.5923 59.7826C44.4981 61.0008 46.6631 62.3887 48.9222 63.6073L55.5687 51.2856ZM54.3249 52.5484C55.7889 54.5009 57.2547 56.4538 58.717 58.4024L69.9148 49.9995C68.4511 48.049 66.9879 46.0995 65.5259 44.1498L54.3249 52.5484ZM139.613 133.776C132.365 121.781 116.763 117.932 104.767 125.182L112.008 137.164C117.387 133.913 124.381 135.639 127.631 141.016L139.613 133.776ZM104.767 125.182C92.7705 132.431 88.9231 148.031 96.173 160.028L108.155 152.786C104.904 147.408 106.629 140.414 112.008 137.164L104.767 125.182ZM96.173 160.028C103.423 172.024 119.022 175.871 131.019 168.621L123.778 156.639C118.399 159.89 111.406 158.165 108.155 152.786L96.173 160.028ZM131.019 168.621C143.014 161.371 146.861 145.772 139.613 133.776L127.63 141.016C130.88 146.395 129.155 153.389 123.777 156.64L131.019 168.621ZM129.047 166.077C135.552 163.141 139.762 156.187 139.348 149.062L125.372 149.874C125.45 151.21 124.507 152.766 123.288 153.316L129.047 166.077ZM131.052 117.779L85.9969 145.005L93.2375 156.987L138.293 129.761L131.052 117.779ZM85.9975 145.004C87.8786 143.868 90.3278 144.469 91.4669 146.355L79.484 153.594C82.3457 158.331 88.5044 159.846 93.2369 156.987L85.9975 145.004ZM91.4661 146.353L89.7295 143.48L77.7481 150.722L79.4847 153.595L91.4661 146.353ZM89.7303 143.482C90.8667 145.363 90.2656 147.812 88.38 148.951L81.1405 136.968C76.4036 139.83 74.8884 145.989 77.7474 150.721L89.7303 143.482ZM88.3805 148.951L133.436 121.725L126.195 109.743L81.1399 136.969L88.3805 148.951ZM133.435 121.725C131.554 122.862 129.105 122.26 127.966 120.375L139.949 113.135C137.087 108.399 130.928 106.883 126.196 109.742L133.435 121.725ZM127.966 120.376L129.703 123.249L141.684 116.007L139.948 113.134L127.966 120.376ZM129.701 123.245C128.568 121.368 129.166 118.918 131.053 117.779L138.292 129.761C143.03 126.899 144.543 120.743 141.687 116.011L129.701 123.245ZM137.001 134.265L97.8272 157.937L105.068 169.92L144.242 146.248L137.001 134.265ZM97.8278 157.937C99.7089 156.801 102.158 157.402 103.297 159.287L91.3143 166.527C94.176 171.264 100.335 172.779 105.067 169.92L97.8278 157.937ZM103.296 159.286L101.56 156.413L89.5785 163.655L91.3151 166.528L103.296 159.286ZM101.561 156.414C102.697 158.295 102.096 160.745 100.21 161.884L92.9709 149.901C88.2341 152.762 86.7185 158.921 89.5777 163.654L101.561 156.414ZM100.211 161.883L139.385 138.211L132.144 126.229L92.9703 149.901L100.211 161.883ZM139.384 138.212C137.503 139.348 135.054 138.747 133.915 136.862L145.898 129.622C143.036 124.885 136.877 123.37 132.145 126.229L139.384 138.212ZM133.915 136.863L135.652 139.736L147.633 132.494L145.897 129.621L133.915 136.863ZM135.649 139.732C134.517 137.854 135.115 135.405 137.002 134.265L144.241 146.248C148.979 143.386 150.491 137.23 147.636 132.498L135.649 139.732ZM129.506 128.472L96.1797 148.611L103.421 160.594L136.747 140.454L129.506 128.472ZM96.1805 148.611C98.0617 147.475 100.511 148.076 101.65 149.961L89.667 157.201C92.5287 161.938 98.6873 163.453 103.42 160.594L96.1805 148.611ZM101.649 149.96L99.9125 147.087L87.9312 154.329L89.6678 157.202L101.649 149.96ZM99.9133 147.088C101.05 148.969 100.448 151.419 98.563 152.558L91.3236 140.575C86.5868 143.437 85.0713 149.595 87.9304 154.328L99.9133 147.088ZM98.5637 152.557L131.89 132.418L124.649 120.436L91.3229 140.575L98.5637 152.557ZM131.89 132.418C130.008 133.555 127.559 132.953 126.42 131.068L138.403 123.828C135.541 119.092 129.383 117.576 124.65 120.435L131.89 132.418ZM126.419 131.067L128.154 133.94L140.139 126.703L138.404 123.829L126.419 131.067ZM128.161 133.95C127.013 132.056 127.631 129.607 129.502 128.474L136.751 140.451C141.474 137.593 143.01 131.437 140.132 126.692L128.161 133.95Z" fill="white" mask="url(#path-1-outside-1_2151_5650)"/>
<path d="M121.845 141.52L111.294 147.896L60.4784 137.789C1.47284 126.053 -12.2365 47.8808 39.2536 16.7666C90.7437 -14.3492 153.574 34.1388 136.526 91.8337L121.845 141.52Z" fill="#FFCA5E"/>
<path d="M14.29 66.9855C15.9116 54.3815 21.7433 42.3559 30.6362 33.278C39.5291 24.2001 51.4334 18.1228 64 16.2432" stroke="white" stroke-miterlimit="10" stroke-linecap="round" stroke-linejoin="round"/>
<path d="M132.26 80.1377C131.209 93.8533 124.807 107.087 114.706 116.424" stroke="#36241A" stroke-miterlimit="10" stroke-linecap="round" stroke-linejoin="round"/>
<path d="M44.5993 39.8755C30.5479 44.0063 20.3211 58.5536 21.1902 73.174C30.0271 80.4174 42.8253 82.8536 53.7347 79.455C64.644 76.0564 73.582 66.9195 76.7411 55.9386L82.3039 55.2095C75.1243 42.4454 58.6506 35.7462 44.5993 39.8755Z" fill="#419D4A"/>
<path d="M92.5391 67.7704C94.1855 59.7761 102.197 53.6117 110.347 54.0688C118.495 54.5259 125.768 61.5469 126.511 69.6733C123.65 75.3837 117.054 78.888 110.673 78.5646C104.294 78.2413 94.8074 73.742 92.5391 67.7704Z" fill="#74CF80"/>
<path d="M42.7861 60.818C52.2325 56.5861 62.5806 54.3862 72.9302 54.4064C76.8372 54.4142 81.0318 54.8464 84.0199 57.3634C86.7173 59.6348 87.9517 63.2775 88.073 66.802C88.1943 70.3265 87.333 73.8028 86.4794 77.2247C85.1331 82.6164 80.6307 87.6257 80.2482 93.1697C79.8642 98.7138 82.9378 104.925 88.3606 106.142C94.5468 107.53 100.705 100.939 99.7457 94.6716C98.7864 88.4046 92.0608 83.9815 85.7503 84.5878C79.4398 85.1941 74.0294 90.0323 71.6242 95.8967C67.5354 105.864 72.1886 118.578 81.7453 123.55C86.9971 126.282 93.0885 126.765 98.7958 128.337C104.503 129.909 110.409 133.183 112.2 138.825" stroke="#36241A" stroke-miterlimit="10" stroke-linecap="round" stroke-linejoin="round"/>
<path d="M87.8613 74.2071C90.2198 70.168 94.0444 67.0073 98.4551 65.4495C102.866 63.8917 107.827 63.9508 112.199 65.6127" stroke="#36241A" stroke-miterlimit="10" stroke-linecap="round" stroke-linejoin="round"/>
<path d="M43.1132 71.7196C46.1573 66.9607 49.2013 62.2033 52.2455 57.4459C48.2623 55.2973 44.4626 52.4709 40.4795 50.3223" stroke="#36241A" stroke-miterlimit="10" stroke-linecap="round" stroke-linejoin="round"/>
<path d="M59.9258 48.3486C61.3888 50.2998 62.8533 52.2509 64.3163 54.2005" stroke="#36241A" stroke-miterlimit="10" stroke-linecap="round" stroke-linejoin="round"/>
<path d="M133.622 137.396C128.373 128.71 117.075 125.922 108.387 131.172C99.6998 136.423 96.9138 147.719 102.164 156.407C107.414 165.094 118.711 167.88 127.398 162.63C136.084 157.38 138.87 146.084 133.622 137.396Z" fill="#85412E"/>
<path d="M126.168 159.696C130.03 157.953 132.606 153.698 132.36 149.468" stroke="#36241A" stroke-miterlimit="10" stroke-linecap="round" stroke-linejoin="round"/>
<path d="M134.672 123.77L89.6171 150.996C88.1915 151.857 86.3367 151.4 85.4754 149.975L83.7388 147.102C82.8775 145.676 83.3345 143.821 84.7602 142.96L129.815 115.734C131.241 114.873 133.096 115.33 133.957 116.755L135.694 119.628C136.555 121.056 136.098 122.909 134.672 123.77Z" fill="#FA6C3A"/>
<path d="M140.621 140.256L101.447 163.928C100.022 164.79 98.1668 164.333 97.3055 162.907L95.5689 160.034C94.7076 158.608 95.1647 156.753 96.5903 155.892L135.764 132.22C137.19 131.359 139.045 131.816 139.906 133.242L141.642 136.115C142.504 137.542 142.047 139.395 140.621 140.256Z" fill="#FA6C3A"/>
<path d="M133.126 134.463L99.7997 154.603C98.3741 155.464 96.5193 155.007 95.658 153.582L93.9214 150.709C93.0601 149.283 93.5172 147.428 94.9429 146.567L128.269 126.427C129.695 125.566 131.55 126.023 132.411 127.449L134.146 130.322C135.011 131.747 134.552 133.601 133.126 134.463Z" fill="#FA6C3A"/>
<path d="M93.5479 148.622L130.876 126.064" stroke="#36241A" stroke-miterlimit="10" stroke-linecap="round" stroke-linejoin="round"/>
<path d="M134.279 133.191L97.6953 154.977" stroke="#36241A" stroke-miterlimit="10" stroke-linecap="round" stroke-linejoin="round"/>
</svg>
