<svg width="179" height="196" viewBox="0 0 179 196" fill="none" xmlns="http://www.w3.org/2000/svg">
<path d="M87.6173 37.545L84.843 31.6668L74.624 36.4898L83.9309 42.8985L87.6173 37.545ZM89.5323 34.336L96.023 33.9866L96.0227 33.982L89.5323 34.336ZM87.1853 31.446L82.6444 26.7952L75.1012 34.1602L85.0694 37.592L87.1853 31.446ZM88.0023 25.405L93.6163 22.1287L93.615 22.1265L88.0023 25.405ZM82.1033 23.154L82.3616 29.6489L82.3617 29.6489L82.1033 23.154ZM63.7664 26.808L66.2724 32.8055L66.2728 32.8053L63.7664 26.808ZM49.3654 38.434L54.8518 41.9195L54.8521 41.919L49.3654 38.434ZM46.5304 56.433L40.3133 58.3301L41.7851 63.1533L46.8229 62.9264L46.5304 56.433ZM78.6533 54.986L78.9458 61.4794L78.9858 61.4776L79.0257 61.4753L78.6533 54.986ZM85.2334 51.644L80.2133 47.515L80.212 47.5165L85.2334 51.644ZM87.0163 44.498L84.0196 38.73L79.9507 40.844L80.5773 45.3863L87.0163 44.498ZM89.1814 41.169L95.6691 41.5683L95.6691 41.5677L89.1814 41.169ZM84.1585 27.5662C87.7462 27.4429 90.5548 24.4346 90.4315 20.8469C90.3083 17.2591 87.2999 14.4506 83.7122 14.5738L84.1585 27.5662ZM49.4333 39.888L47.2931 46.0255C48.9449 46.6015 50.7592 46.4874 52.3258 45.7089C53.8924 44.9305 55.0791 43.5534 55.6177 41.889L49.4333 39.888ZM48.7075 32.5637C45.3175 31.3829 41.612 33.1737 40.4311 36.5638C39.2502 39.9539 41.0411 43.6594 44.4312 44.8402L48.7075 32.5637ZM53.6153 73.505L54.154 67.0273L52.7802 66.9131L51.4783 67.3663L53.6153 73.505ZM142.129 133.309L144.227 139.461L151.17 137.094L147.984 130.486L142.129 133.309ZM64.3083 159.837L58.779 163.254L61.5023 167.661L66.4056 165.989L64.3083 159.837ZM77.6763 130.763L76.2723 137.11L78.5898 137.622L80.6924 136.521L77.6763 130.763ZM75.3973 109.849L69.7678 113.098L76.9338 125.514L81.551 111.943L75.3973 109.849ZM111.773 81.3465C111.015 77.8376 107.556 75.6075 104.047 76.3655C100.538 77.1235 98.3079 80.5825 99.0659 84.0914L111.773 81.3465ZM108.737 128.851C109.495 132.36 112.954 134.59 116.463 133.831C119.972 133.073 122.202 129.614 121.444 126.105L108.737 128.851ZM73.5543 72.244L75.411 66.0148L71.9476 64.9825L69.243 67.3796L73.5543 72.244ZM64.5093 75.28L64.006 81.7605L64.0061 81.7605L64.5093 75.28ZM55.5953 71.115L60.6065 66.9752L57.6974 63.4538L53.3986 64.9974L55.5953 71.115ZM46.4233 75.217L44.2255 69.0998L36.7879 71.7721L40.8454 78.5541L46.4233 75.217ZM58.4683 95.349L52.8906 98.6865L58.4144 107.918L64.0172 98.7342L58.4683 95.349ZM67.3733 81.495L71.4708 76.4491L65.6977 71.761L61.8245 78.1097L67.3733 81.495ZM81.1813 92.974L77.0838 98.0198L85.7275 105.039L87.5898 94.0611L81.1813 92.974ZM84.0784 75.897L90.4868 76.9841L91.449 71.3124L85.9361 69.6681L84.0784 75.897ZM136.542 109.245L130.042 109.228L130.016 119.148L139.122 115.211L136.542 109.245ZM149.383 78.26L153.876 82.9575L153.876 82.9573L149.383 78.26ZM160.209 71.047L157.586 65.1001L157.584 65.1006L160.209 71.047ZM170.177 84.612L165.235 80.3903L165.235 80.3907L170.177 84.612ZM128.709 120.344C128.656 123.934 131.522 126.887 135.112 126.94C138.701 126.994 141.654 124.127 141.708 120.538L128.709 120.344ZM159.875 88.3822C162.922 86.4842 163.854 82.4754 161.956 79.4284C160.058 76.3813 156.049 75.4498 153.002 77.3478L159.875 88.3822ZM135.769 110.768L130.292 114.268L141.562 131.906L142.266 110.986L135.769 110.768ZM116.383 80.43L110.906 83.9298L110.906 83.9299L116.383 80.43ZM102.948 56.763L96.9914 59.3639L96.9914 59.3639L102.948 56.763ZM100.239 49.626L106.429 47.6403L106.428 47.6399L100.239 49.626ZM114.813 39.789L110.643 44.7747L110.643 44.7749L114.813 39.789ZM126.925 54.203L121.305 57.4687L121.306 57.4697L126.925 54.203ZM135.325 82.036L141.789 81.3455L141.789 81.3449L135.325 82.036ZM126.46 59.5724C124.877 56.3502 120.982 55.0211 117.76 56.6038C114.538 58.1864 113.208 62.0815 114.791 65.3036L126.46 59.5724ZM129.301 112.92C129.784 116.477 133.059 118.969 136.616 118.486C140.174 118.003 142.665 114.727 142.182 111.17L129.301 112.92ZM137.752 92.724L131.281 92.1159L129.555 110.478L142.412 97.2553L137.752 92.724ZM146.054 50.171L140.023 47.7487L140.023 47.7489L146.054 50.171ZM160.937 28L156.536 23.2169L156.536 23.2171L160.937 28ZM171.349 34.437L165.114 32.6028L165.113 32.603L171.349 34.437ZM129.298 112.412C129.635 115.986 132.805 118.61 136.379 118.273C139.953 117.937 142.577 114.766 142.241 111.192L129.298 112.412ZM143.057 78.31L137.047 75.836L137.047 75.8362L143.057 78.31ZM163.969 48.8785C165.638 45.7 164.414 41.7706 161.236 40.1019C158.057 38.4332 154.128 39.6571 152.459 42.8355L163.969 48.8785ZM136.886 85.846L130.682 87.7844L137.372 109.196L143.166 87.5248L136.886 85.846ZM128.577 59.247L122.373 61.1849L122.373 61.1852L128.577 59.247ZM120.476 28.371L114.064 29.4333L114.064 29.4336L120.476 28.371ZM119.282 17.775L125.772 17.4131L125.772 17.4128L119.282 17.775ZM137.206 11.94L131.696 15.3878L131.696 15.3879L137.206 11.94ZM141.543 21.091L135.384 23.1682L135.385 23.1703L141.543 21.091ZM144.186 53.644L150.644 54.3871L150.644 54.3867L144.186 53.644ZM138.646 28.0546C138.107 24.5054 134.793 22.0649 131.244 22.6036C127.695 23.1423 125.254 26.4562 125.793 30.0054L138.646 28.0546ZM130.495 94.6283C130.476 98.2181 133.371 101.144 136.961 101.163C140.551 101.182 143.476 98.2874 143.495 94.6976L130.495 94.6283ZM149.517 134.65L153.611 139.699L159.086 135.259L154.219 130.161L149.517 134.65ZM134.121 118.747L138.823 114.258L134.144 109.358L129.442 114.236L134.121 118.747ZM120.288 134.88L115.116 130.943L111.047 136.289L116.524 140.179L120.288 134.88ZM135.138 139.677L135.345 146.174L135.346 146.174L135.138 139.677ZM75.8923 70.051L73.5563 63.9853L69.458 65.5636L69.3931 69.9548L75.8923 70.051ZM84.0943 54.908L77.6909 56.024V56.024L84.0943 54.908ZM80.4033 44.292L75.1928 48.1778L75.1931 48.1782L80.4033 44.292ZM66.5203 38.612L65.6828 32.1662L61.1846 32.7507L60.1813 37.1743L66.5203 38.612ZM60.6473 42.869L61.198 36.3924L51.6286 35.5788L54.43 44.7651L60.6473 42.869ZM60.3463 45.869L54.6302 42.7746L54.6287 42.7772L60.3463 45.869ZM57.9063 47.912L56.0907 41.6707L47.0088 44.3127L52.7306 51.8441L57.9063 47.912ZM52.7583 51.26L58.4261 48.0777L56.6236 44.8674L52.9434 44.7626L52.7583 51.26ZM45.4673 55.605L51.2698 58.5345L51.2706 58.5328L45.4673 55.605ZM54.3033 66.886L60.7722 67.5211L61.655 58.53L52.8495 60.5507L54.3033 66.886ZM53.6163 73.506L47.1475 72.8709L46.8879 75.5143L48.5539 77.5829L53.6163 73.506ZM64.6363 79.6L64.1239 86.0798L64.1268 86.08L64.6363 79.6ZM80.0123 51.735V58.235L80.0237 58.235L80.0123 51.735ZM69.7253 57.472L69.8142 50.9726L63.6014 50.8877L63.2366 57.0903L69.7253 57.472ZM70.4873 58.938L73.904 53.4084L73.8959 53.4034L70.4873 58.938ZM72.1403 58.961L75.3966 64.5865L75.4015 64.5837L72.1403 58.961ZM72.9433 57.516L79.4402 57.314L79.2471 51.1015L73.0322 51.0166L72.9433 57.516ZM55.9857 45.7702C54.9574 49.2096 56.9121 52.8314 60.3515 53.8597C63.791 54.8879 67.4128 52.9333 68.441 49.4938L55.9857 45.7702ZM64.2723 45.621L65.9859 51.8911L65.9919 51.8894L64.2723 45.621ZM62.6574 51.0772C65.2941 53.5133 69.4065 53.3507 71.8426 50.714C74.2787 48.0772 74.1161 43.9649 71.4793 41.5288L62.6574 51.0772ZM73.6857 37.5493C70.2805 38.6857 68.4412 42.3674 69.5776 45.7726C70.714 49.1779 74.3958 51.0171 77.801 49.8807L73.6857 37.5493ZM80.3475 49.0319C83.7539 47.8991 85.597 44.2193 84.4642 40.8129C83.3314 37.4064 79.6516 35.5633 76.2452 36.6961L80.3475 49.0319ZM78.9938 48.1243C77.2901 44.9644 73.3475 43.7839 70.1876 45.4876C67.0278 47.1912 65.8473 51.1339 67.5509 54.2937L78.9938 48.1243ZM75.4423 55.232L75.8797 61.7173C78.0853 61.5685 80.064 60.309 81.1326 58.3739C82.2011 56.4387 82.2128 54.0931 81.1638 52.1473L75.4423 55.232ZM72.872 48.8857C69.2903 49.1272 66.5825 52.2266 66.8241 55.8083C67.0656 59.39 70.165 62.0978 73.7467 61.8563L72.872 48.8857ZM49.0974 50.2268C45.529 49.8352 42.3187 52.4105 41.9271 55.9789C41.5355 59.5474 44.1109 62.7576 47.6793 63.1492L49.0974 50.2268ZM52.7913 63.7092C56.3597 64.1008 59.5699 61.5255 59.9616 57.9571C60.3532 54.3886 57.7778 51.1784 54.2094 50.7868L52.7913 63.7092ZM78.6479 76.0792C81.9413 74.6507 83.4531 70.8228 82.0246 67.5294C80.5961 64.2361 76.7682 62.7243 73.4748 64.1528L78.6479 76.0792ZM64.3711 64.137C61.0828 62.6968 57.2496 64.195 55.8094 67.4832C54.3692 70.7715 55.8673 74.6047 59.1556 76.0449L64.3711 64.137ZM53.4746 60.581C49.9013 60.9255 47.2838 64.1015 47.6283 67.6748C47.9729 71.2481 51.1488 73.8655 54.7221 73.521L53.4746 60.581ZM56.0735 73.3896C59.646 73.0372 62.2564 69.8554 61.9039 66.2828C61.5515 62.7103 58.3697 60.1 54.7972 60.4524L56.0735 73.3896ZM164.121 117.657L170.157 120.069L171.925 115.644L168.237 112.626L164.121 117.657ZM159.27 117.664L153.118 119.761L156.831 130.653L164.243 121.851L159.27 117.664ZM157.625 116.582L157.318 123.075L157.318 123.075L157.625 116.582ZM155.613 117.082L158.207 123.042L158.211 123.04L155.613 117.082ZM148.358 121.669L152.299 126.838L152.299 126.838L148.358 121.669ZM134.357 131.862L133.824 138.34L136.313 138.545L138.298 137.031L134.357 131.862ZM129.367 130.985L123.774 127.673L118.483 136.611L128.834 137.463L129.367 130.985ZM135.983 119.522L141.066 123.574L141.066 123.574L135.983 119.522ZM136.12 114.5L141.203 110.448L137.875 106.273L133.132 108.727L136.12 114.5ZM117.38 124.44L120.637 130.066L120.637 130.065L117.38 124.44ZM110.49 133.945L111.987 140.27L115.997 139.321L116.85 135.29L110.49 133.945ZM97.5103 137.048L96.0132 130.723L88.496 132.502L91.5342 139.604L97.5103 137.048ZM110.683 167.843L104.707 170.399L106.916 175.562L112.345 174.127L110.683 167.843ZM153.679 150.6L156.867 156.265L158.968 155.082L159.79 152.815L153.679 150.6ZM163.357 123.91L169.468 126.125L172.526 117.691L163.559 117.413L163.357 123.91ZM161.656 124.068L155.62 121.657L152.178 130.278L161.455 130.565L161.656 124.068ZM167.474 126.917C168.974 123.656 167.546 119.796 164.285 118.296C161.023 116.796 157.163 118.223 155.663 121.485L167.474 126.917ZM146.298 141.847C144.798 145.108 146.226 148.968 149.487 150.468C152.749 151.968 156.609 150.54 158.109 147.279L146.298 141.847ZM164.134 121.188C166.318 118.339 165.779 114.259 162.93 112.074C160.081 109.89 156.001 110.429 153.817 113.278L164.134 121.188ZM138.147 133.718C135.963 136.567 136.501 140.647 139.35 142.831C142.199 145.016 146.279 144.477 148.464 141.628L138.147 133.718ZM168.806 122.359C170.776 119.359 169.941 115.329 166.94 113.358C163.939 111.388 159.909 112.224 157.939 115.225L168.806 122.359ZM142.465 138.794C140.495 141.795 141.33 145.825 144.331 147.795C147.332 149.765 151.362 148.929 153.332 145.928L142.465 138.794ZM130.409 137.177C133.995 137.005 136.762 133.959 136.59 130.373C136.418 126.787 133.371 124.02 129.785 124.192L130.409 137.177ZM127.475 124.303C123.889 124.476 121.122 127.522 121.294 131.108C121.466 134.693 124.512 137.461 128.098 137.289L127.475 124.303ZM106.226 130.261L112.488 128.516L111.029 123.282L105.619 123.789L106.226 130.261ZM57.1023 135.068L50.6762 136.045L51.5988 142.113L57.7096 141.54L57.1023 135.068ZM47.0773 99.8L53.0568 97.2513L53.0566 97.2508L47.0773 99.8ZM40.6803 89.358L36.157 94.0259L36.1575 94.0263L40.6803 89.358ZM7.15535 105.426L0.666421 105.047L0.666406 105.047L7.15535 105.426ZM12.1943 163.887L5.9068 165.535L5.90682 165.535L12.1943 163.887ZM52.3123 188.938L51.4421 182.497L51.4417 182.497L52.3123 188.938ZM117.575 170.975L120.083 176.972L125.378 174.758L123.837 169.23L117.575 170.975ZM23.2666 78.1884C19.735 78.8322 17.3939 82.2171 18.0377 85.7487C18.6815 89.2804 22.0664 91.6214 25.5981 90.9776L23.2666 78.1884ZM37.2723 86.785L34.0427 92.4258L34.0433 92.4262L37.2723 86.785ZM45.6733 96.743L51.7777 94.5099L51.7777 94.5098L45.6733 96.743ZM57.3503 135.161L50.9846 136.475C51.6522 139.709 54.6379 141.928 57.9267 141.635L57.3503 135.161ZM107.67 137.136C111.245 136.818 113.886 133.661 113.568 130.086C113.249 126.51 110.093 123.869 106.517 124.188L107.67 137.136ZM95.8676 131.898C95.1457 128.381 91.7098 126.116 88.1933 126.838C84.6768 127.56 82.4112 130.996 83.1331 134.512L95.8676 131.898ZM92.3181 179.26C93.04 182.777 96.4759 185.042 99.9924 184.32C103.509 183.598 105.774 180.162 105.053 176.646L92.3181 179.26ZM91.0337 130.371C87.4621 130.733 84.8598 133.921 85.2214 137.493C85.583 141.064 88.7714 143.667 92.343 143.305L91.0337 130.371ZM105.47 141.976C109.042 141.614 111.644 138.426 111.282 134.854C110.921 131.283 107.732 128.68 104.161 129.042L105.47 141.976ZM91.1163 134.285C87.563 134.796 85.0966 138.091 85.6075 141.644C86.1184 145.197 89.413 147.664 92.9664 147.153L91.1163 134.285ZM107.007 145.135C110.561 144.625 113.028 141.331 112.517 137.777C112.007 134.224 108.713 131.757 105.159 132.267L107.007 145.135ZM94.6987 144.987C91.1363 145.43 88.6078 148.677 89.0511 152.24C89.4944 155.802 92.7416 158.331 96.304 157.887L94.6987 144.987ZM110.336 156.14C113.899 155.696 116.426 152.448 115.982 148.886C115.538 145.324 112.291 142.796 108.728 143.24L110.336 156.14ZM95.7538 152.496C92.2256 153.158 89.9025 156.555 90.565 160.084C91.2275 163.612 94.6247 165.935 98.1529 165.272L95.7538 152.496ZM112.181 162.64C115.709 161.978 118.033 158.581 117.371 155.053C116.709 151.524 113.312 149.201 109.784 149.862L112.181 162.64ZM96.2938 156.898C92.7911 157.684 90.5889 161.161 91.3751 164.664C92.1613 168.166 95.6382 170.368 99.1409 169.582L96.2938 156.898ZM113.174 166.432C116.677 165.646 118.879 162.169 118.093 158.666C117.306 155.164 113.83 152.962 110.327 153.748L113.174 166.432ZM98.2589 167.917C94.885 169.143 93.1441 172.872 94.3703 176.246C95.5966 179.62 99.3258 181.361 102.7 180.135L98.2589 167.917ZM116.906 174.972C120.28 173.746 122.021 170.016 120.794 166.643C119.568 163.269 115.839 161.528 112.465 162.754L116.906 174.972ZM90.3917 43.4232C93.9763 41.7314 96.2359 37.9434 96.0229 33.9866L83.0417 34.6854C83.002 33.9463 83.2024 33.3378 83.4678 32.893C83.7332 32.4481 84.1737 31.9827 84.843 31.6668L90.3917 43.4232ZM96.0227 33.982C95.7793 29.519 92.5387 26.4146 89.3013 25.3L85.0694 37.592C84.5732 37.4211 84.151 37.1298 83.8157 36.7291C83.4719 36.3183 83.0932 35.6291 83.042 34.69L96.0227 33.982ZM91.7263 36.0968C95.4275 32.483 96.2214 26.5926 93.6163 22.1287L82.3884 28.6813C82.1333 28.244 82.1269 27.8856 82.1533 27.6902C82.1797 27.4946 82.2813 27.1497 82.6444 26.7952L91.7263 36.0968ZM93.615 22.1265C91.9924 19.3487 89.4527 17.9859 87.4246 17.3425C85.4132 16.7043 83.4058 16.597 81.845 16.6591L82.3617 29.6489C82.6433 29.6377 82.9017 29.6456 83.1191 29.6683C83.3414 29.6914 83.4618 29.7238 83.4933 29.7338C83.5267 29.7444 83.3917 29.7077 83.173 29.5533C82.9355 29.3856 82.6337 29.1012 82.3897 28.6835L93.615 22.1265ZM81.845 16.6591C75.1124 16.9269 67.9882 17.9988 61.2599 20.8107L66.2728 32.8053C71.1065 30.7852 76.5723 29.8791 82.3616 29.6489L81.845 16.6591ZM61.2603 20.8105C54.5264 23.6243 48.0965 28.3083 43.8786 34.949L54.8521 41.919C57.3542 37.9797 61.4423 34.8237 66.2724 32.8055L61.2603 20.8105ZM43.8789 34.9485C39.6655 41.5808 37.8471 50.2477 40.3133 58.3301L52.7474 54.536C51.5556 50.6303 52.3452 45.8652 54.8518 41.9195L43.8789 34.9485ZM46.8229 62.9264L78.9458 61.4794L78.3608 48.4926L46.2379 49.9396L46.8229 62.9264ZM79.0257 61.4753C83.3628 61.2264 87.4948 59.1291 90.2547 55.7715L80.212 47.5165C79.758 48.0689 78.9979 48.4555 78.281 48.4967L79.0257 61.4753ZM90.2534 55.773C93.2723 52.1027 93.9876 47.4679 93.4554 43.6097L80.5773 45.3863C80.7371 46.5442 80.4104 47.2753 80.2133 47.515L90.2534 55.773ZM90.0131 50.266C93.2661 48.5759 95.4438 45.2284 95.6691 41.5683L82.6936 40.7697C82.7246 40.2672 82.8847 39.8664 83.0785 39.5683C83.2723 39.2703 83.5736 38.9618 84.0196 38.73L90.0131 50.266ZM95.6691 41.5677C95.8515 38.5995 94.8293 34.6191 91.3038 32.1915L83.9309 42.8985C83.3035 42.4665 82.9836 41.9393 82.8405 41.5886C82.7037 41.2533 82.6807 40.9795 82.6936 40.7703L95.6691 41.5677ZM83.7122 14.5738C76.3967 14.8251 68.2938 15.7885 60.7877 19.2449L66.225 31.0531C71.4189 28.6615 77.5 27.7949 84.1585 27.5662L83.7122 14.5738ZM60.7877 19.2449C53.2683 22.7073 46.1045 29.0617 43.249 37.887L55.6177 41.889C57.0662 37.4122 61.0444 33.4387 66.225 31.0531L60.7877 19.2449ZM51.5736 33.7504C51.4122 33.6942 51.186 33.5979 50.6481 33.3581C50.2192 33.1669 49.4795 32.8326 48.7075 32.5637L44.4312 44.8402C44.5922 44.8964 44.8185 44.9926 45.3553 45.2319C45.7832 45.4226 46.5225 45.7568 47.2931 46.0255L51.5736 33.7504ZM21.5852 92.4884C27.083 90.1067 35.5725 86.9104 42.8065 84.2708C46.3984 82.9602 49.6384 81.8022 51.9803 80.9718C53.1509 80.5568 54.0962 80.2239 54.7479 79.9952C55.0737 79.8809 55.326 79.7926 55.4963 79.733C55.5814 79.7033 55.646 79.6807 55.6891 79.6657C55.7106 79.6582 55.7267 79.6526 55.7373 79.6489C55.7426 79.647 55.7465 79.6457 55.7491 79.6448C55.7503 79.6444 55.7512 79.6441 55.7518 79.6439C55.7521 79.6438 55.7522 79.6437 55.7524 79.6437C55.7524 79.6436 55.7524 79.6436 53.6153 73.505C51.4783 67.3663 51.4781 67.3664 51.4778 67.3665C51.4776 67.3666 51.4772 67.3667 51.4768 67.3669C51.4759 67.3672 51.4747 67.3676 51.4732 67.3681C51.47 67.3692 51.4655 67.3708 51.4596 67.3728C51.4478 67.377 51.4304 67.383 51.4077 67.391C51.3621 67.4068 51.2949 67.4303 51.2072 67.461C51.0317 67.5223 50.7738 67.6125 50.4423 67.7289C49.7792 67.9617 48.8209 68.2991 47.6361 68.7192C45.2671 69.5591 41.9886 70.7309 38.3504 72.0584C31.1242 74.6951 22.3067 78.0083 16.4175 80.5596L21.5852 92.4884ZM53.0767 79.9826L75.0237 81.8076L76.101 68.8524L54.154 67.0273L53.0767 79.9826ZM75.5623 75.33C74.1644 81.6779 74.1644 81.6779 74.1646 81.6779C74.1647 81.678 74.1649 81.678 74.1651 81.6781C74.1657 81.6782 74.1665 81.6784 74.1676 81.6786C74.1698 81.6791 74.1731 81.6798 74.1775 81.6808C74.1863 81.6827 74.1995 81.6856 74.217 81.6895C74.252 81.6972 74.3042 81.7087 74.3727 81.7238C74.5098 81.754 74.7121 81.7986 74.973 81.8562C75.4947 81.9714 76.2503 82.1383 77.1851 82.3452C79.0548 82.759 81.6405 83.3325 84.5048 83.9714C90.2438 85.2517 97.0655 86.7866 101.494 87.8268L104.467 75.1712C99.9582 74.1123 93.0709 72.5628 87.3352 71.2833C84.4621 70.6424 81.869 70.0672 79.9942 69.6523C79.0568 69.4448 78.2987 69.2774 77.7748 69.1617C77.5129 69.1039 77.3095 69.0591 77.1714 69.0286C77.1024 69.0134 77.0498 69.0018 77.0143 68.994C76.9965 68.9901 76.9831 68.9871 76.9741 68.9851C76.9696 68.9841 76.9661 68.9834 76.9639 68.9829C76.9627 68.9826 76.9618 68.9824 76.9612 68.9823C76.9609 68.9823 76.9607 68.9822 76.9606 68.9822C76.9604 68.9821 76.9603 68.9821 75.5623 75.33ZM101.494 87.8268C104.048 88.4265 107.937 90.3514 113.72 97.4817C119.542 104.659 126.838 116.561 136.274 136.132L147.984 130.486C138.386 110.579 130.576 97.6256 123.817 89.2921C117.019 80.9116 110.85 76.6704 104.467 75.1712L101.494 87.8268ZM140.032 127.157L62.2111 153.685L66.4056 165.989L144.227 139.461L140.032 127.157ZM69.8377 156.42L24.5307 83.1069L13.472 89.9411L58.779 163.254L69.8377 156.42ZM79.0804 124.416C71.6304 122.768 68.3675 120.092 67.0485 118.216C65.8067 116.45 65.8027 114.744 66.3065 113.4C66.9085 111.793 67.9434 111.29 68.1498 111.248C68.1779 111.243 68.1721 111.247 68.1491 111.244C68.1234 111.24 68.1454 111.237 68.2261 111.28C68.3844 111.365 68.9951 111.76 69.7678 113.098L81.0269 106.6C77.5416 100.561 71.8589 97.2407 65.5838 98.5042C60.0338 99.6217 55.9402 104.016 54.1332 108.838C52.228 113.922 52.5345 120.176 56.4143 125.694C60.2169 131.102 66.8868 135.033 76.2723 137.11L79.0804 124.416ZM81.551 111.943C82.6904 108.594 83.8209 109.041 83.2336 109.08C83.1316 109.087 83.9518 109.083 84.7531 110.4C85.4252 111.505 85.8471 113.317 84.9013 115.651C83.9292 118.049 81.2528 121.552 74.6603 125.005L80.6924 136.521C89.1074 132.113 94.4877 126.608 96.9496 120.533C99.4377 114.393 98.6708 108.265 95.8591 103.643C93.1767 99.2346 88.2183 95.7194 82.3706 96.1084C76.0378 96.5298 71.4558 101.253 69.2437 107.755L81.551 111.943ZM99.0659 84.0914C102.289 99.0117 105.513 113.932 108.737 128.851L121.444 126.105C118.22 111.186 114.996 96.2663 111.773 81.3465L99.0659 84.0914ZM69.243 67.3796C68.1173 68.3773 66.5129 68.916 65.0126 68.7995L64.0061 81.7605C69.0218 82.15 74.1014 80.4447 77.8657 77.1084L69.243 67.3796ZM65.0127 68.7995C62.9083 68.636 61.2292 67.7289 60.6065 66.9752L50.5842 75.2548C54.1235 79.5391 59.5964 81.4179 64.006 81.7605L65.0127 68.7995ZM53.3986 64.9974C51.4472 65.6982 49.597 66.6165 48.1399 67.3334C46.558 68.1118 45.3691 68.689 44.2255 69.0998L48.6212 81.3341C50.5726 80.633 52.4227 79.7146 53.8795 78.9978C55.4612 78.2195 56.6495 77.6428 57.792 77.2326L53.3986 64.9974ZM40.8454 78.5541C44.8604 85.2651 48.8755 91.9763 52.8906 98.6865L64.0461 92.0115C60.0312 85.3017 56.0163 78.5909 52.0013 71.8799L40.8454 78.5541ZM64.0172 98.7342C65.4243 96.4279 66.8489 94.2693 68.345 92.0037C69.8244 89.7633 71.3753 87.4159 72.9222 84.8802L61.8245 78.1097C60.4174 80.4161 58.9928 82.5746 57.4967 84.8402C56.0173 87.0806 54.4664 89.4281 52.9195 91.9637L64.0172 98.7342ZM63.2758 86.5408C65.5396 88.3791 67.7915 90.2728 70.0935 92.209C72.381 94.1328 74.7186 96.0991 77.0838 98.0198L85.2788 87.9281C83.0151 86.0899 80.7632 84.1961 78.4612 82.26C76.1737 80.3361 73.8361 78.3699 71.4708 76.4491L63.2758 86.5408ZM87.5898 94.0611L90.4868 76.9841L77.6699 74.8098L74.7729 91.8868L87.5898 94.0611ZM85.9361 69.6681C84.3727 69.2018 82.8453 68.635 81.0859 67.9793C79.3882 67.3467 77.4586 66.6251 75.411 66.0148L71.6977 78.4732C73.2601 78.9389 74.787 79.5053 76.5461 80.1609C78.2434 80.7934 80.173 81.5152 82.2206 82.1258L85.9361 69.6681ZM143.042 109.262C143.068 99.37 146.971 89.5612 153.876 82.9575L144.891 73.5625C135.191 82.8388 130.077 96.144 130.042 109.228L143.042 109.262ZM153.876 82.9573C156.461 80.485 159.518 78.4575 162.834 76.9934L157.584 65.1006C152.927 67.1564 148.598 70.017 144.891 73.5627L153.876 82.9573ZM162.833 76.9939C163.48 76.7086 163.893 76.7572 164.177 76.8457C164.533 76.9568 164.953 77.2308 165.296 77.698C165.639 78.165 165.786 78.6668 165.788 79.0745C165.789 79.4101 165.699 79.8465 165.235 80.3903L175.12 88.8337C185.353 76.8532 172.487 58.5255 157.586 65.1001L162.833 76.9939ZM165.235 80.3907C156.838 90.2227 146.089 98.0364 133.963 103.279L139.122 115.211C152.986 109.218 165.377 100.241 175.12 88.8333L165.235 80.3907ZM141.708 120.538C141.898 107.747 149.017 95.1455 159.875 88.3822L153.002 77.3478C138.391 86.4485 128.965 103.135 128.709 120.344L141.708 120.538ZM141.247 107.268C138.016 102.212 134.785 97.1552 131.554 92.099C128.323 87.0427 125.092 81.9865 121.861 76.9301L110.906 83.9299C114.137 88.9864 117.368 94.0427 120.599 99.099C123.83 104.155 127.061 109.211 130.292 114.268L141.247 107.268ZM121.861 76.9302C116.924 69.2048 112.301 61.9388 108.905 54.1621L96.9914 59.3639C100.864 68.2331 106.062 76.3492 110.906 83.9298L121.861 76.9302ZM108.905 54.1621C107.968 52.0149 107.133 49.8355 106.429 47.6403L94.0501 51.6117C94.9018 54.2665 95.8969 56.8571 96.9914 59.3639L108.905 54.1621ZM106.428 47.6399C105.58 44.9968 108.59 43.0578 110.643 44.7747L118.984 34.8032C106.862 24.6642 89.2524 36.6612 94.0502 51.6121L106.428 47.6399ZM110.643 44.7749C114.868 48.3081 118.491 52.6253 121.305 57.4687L132.545 50.9373C128.988 44.8147 124.391 39.3259 118.983 34.803L110.643 44.7749ZM121.306 57.4697C125.611 64.8756 127.886 73.5947 128.862 82.7271L141.789 81.3449C140.689 71.0613 138.054 60.4124 132.545 50.9362L121.306 57.4697ZM128.862 82.7265C129.844 91.9197 129.602 100.758 129.273 110.55L142.266 110.986C142.593 101.262 142.88 91.5663 141.789 81.3455L128.862 82.7265ZM114.791 65.3036C122.137 80.2598 127.057 96.4086 129.301 112.92L142.182 111.17C139.751 93.2754 134.421 75.7822 126.46 59.5724L114.791 65.3036ZM144.224 93.3321C145.59 78.7902 147.083 65.0527 152.086 52.5932L140.023 47.7489C134.216 62.2093 132.628 77.7757 131.281 92.1159L144.224 93.3321ZM152.086 52.5933C155.122 45.0345 159.637 38.0305 165.339 32.7829L156.536 23.2171C149.168 29.9975 143.647 38.7235 140.023 47.7487L152.086 52.5933ZM165.339 32.7831C165.407 32.7202 165.425 32.7221 165.386 32.739C165.348 32.7552 165.299 32.7674 165.25 32.7705C165.206 32.7734 165.18 32.7676 165.176 32.7666C165.174 32.766 165.184 32.7685 165.198 32.7775C165.213 32.7865 165.218 32.7928 165.213 32.7878C165.208 32.7815 165.188 32.7568 165.168 32.709C165.146 32.6575 165.134 32.6011 165.131 32.5537C165.129 32.5042 165.139 32.5153 165.114 32.6028L177.585 36.2712C181.301 23.6398 166.071 14.4428 156.536 23.2169L165.339 32.7831ZM165.113 32.603C159.027 53.2967 147.757 73.1108 133.092 88.1926L142.412 97.2553C158.643 80.5631 170.941 58.8612 177.585 36.271L165.113 32.603ZM142.241 111.192C141.322 101.447 144.678 91.451 149.068 80.7838L137.047 75.8362C132.651 86.517 128.05 99.1726 129.298 112.412L142.241 111.192ZM149.068 80.784C153.538 69.9251 158.511 59.2748 163.969 48.8785L152.459 42.8355C146.813 53.5892 141.669 64.6049 137.047 75.836L149.068 80.784ZM143.091 83.9076C140.321 75.0415 137.552 66.1766 134.782 57.3088L122.373 61.1852C125.143 70.0514 127.912 78.9184 130.682 87.7844L143.091 83.9076ZM134.782 57.3091C131.584 47.0719 128.544 37.2955 126.889 27.3083L114.064 29.4336C115.891 40.4585 119.22 51.0921 122.373 61.1849L134.782 57.3091ZM126.889 27.3086C126.342 24.0092 125.956 20.7006 125.772 17.4131L112.792 18.1369C113.005 21.9514 113.45 25.7308 114.064 29.4333L126.889 27.3086ZM125.772 17.4128C125.678 15.7235 126.597 14.5685 128.058 14.091C128.8 13.8486 129.521 13.8598 130.094 14.044C130.603 14.2076 131.177 14.5589 131.696 15.3878L142.717 8.49219C133.676 -5.95631 111.875 1.70382 112.792 18.1372L125.772 17.4128ZM131.696 15.3879C133.216 17.8164 134.458 20.4221 135.384 23.1682L147.703 19.0138C146.447 15.2898 144.765 11.7656 142.716 8.49204L131.696 15.3879ZM135.385 23.1703C138.494 32.38 138.914 42.6011 137.729 52.9013L150.644 54.3867C151.967 42.8808 151.614 30.5999 147.702 19.0117L135.385 23.1703ZM137.729 52.9008C136.544 63.1992 133.519 73.2741 130.607 84.1672L143.166 87.5248C145.924 77.2098 149.319 65.8988 150.644 54.3871L137.729 52.9008ZM125.793 30.0054C129.037 51.38 130.611 73.0083 130.495 94.6283L143.495 94.6976C143.614 72.4017 141.992 50.098 138.646 28.0546L125.793 30.0054ZM154.219 130.161C151.637 127.457 149.042 124.795 146.474 122.161C143.898 119.519 141.35 116.905 138.823 114.258L129.42 123.236C132.002 125.94 134.597 128.602 137.165 131.236C139.741 133.878 142.289 136.492 144.816 139.139L154.219 130.161ZM129.442 114.236C124.347 119.521 119.562 125.103 115.116 130.943L125.46 138.817C129.601 133.377 134.058 128.179 138.801 123.258L129.442 114.236ZM116.524 140.179C121.814 143.937 128.332 146.397 135.345 146.174L134.932 133.18C131.262 133.297 127.477 132.013 124.053 129.581L116.524 140.179ZM135.346 146.174C141.817 145.967 148.151 144.126 153.611 139.699L145.423 129.601C142.581 131.906 139.146 133.045 134.93 133.18L135.346 146.174ZM82.0616 75.4262C82.0711 74.7868 82.1241 74.1529 82.2025 73.2588C82.2756 72.4254 82.3741 71.3322 82.3916 70.1471L69.3931 69.9548C69.3836 70.5947 69.3306 71.2291 69.2522 72.1229C69.1791 72.9561 69.0806 74.0492 69.0631 75.2338L82.0616 75.4262ZM78.2284 76.1167C82.5959 74.4347 86.2805 71.1646 88.4686 67.0262L76.9761 60.9498C76.2562 62.3114 74.9948 63.4313 73.5563 63.9853L78.2284 76.1167ZM88.4686 67.0262C90.6391 62.921 91.2629 58.1816 90.4978 53.792L77.6909 56.024C77.9938 57.7624 77.7136 59.555 76.9761 60.9498L88.4686 67.0262ZM90.4978 53.792C89.8617 50.1421 88.981 44.9203 85.6136 40.4057L75.1931 48.1782C76.4517 49.8656 76.999 52.0539 77.6909 56.024L90.4978 53.792ZM85.6139 40.4061C80.98 34.1925 73.0263 31.212 65.6828 32.1662L67.3579 45.0578C70.3884 44.664 73.5727 46.0054 75.1928 48.1778L85.6139 40.4061ZM60.1813 37.1743C60.2447 36.895 60.3473 36.7173 60.4083 36.6307C60.4679 36.5459 60.5125 36.5114 60.5291 36.4993C60.5459 36.4873 60.5853 36.4611 60.669 36.4355C60.754 36.4095 60.9339 36.3699 61.198 36.3924L60.0967 49.3456C63.1711 49.607 66.0125 48.5754 68.1416 47.0374C70.271 45.4991 72.166 43.1069 72.8594 40.0497L60.1813 37.1743ZM54.43 44.7651C54.2239 44.0892 54.2929 43.3977 54.6302 42.7746L66.0625 48.9634C67.3818 46.5263 67.6728 43.6228 66.8647 40.9729L54.43 44.7651ZM54.6287 42.7772C54.8008 42.459 54.9728 42.2817 55.103 42.171C55.2249 42.0674 55.5325 41.8331 56.0907 41.6707L59.722 54.1533C62.6049 53.3146 64.8635 51.1807 66.0639 48.9608L54.6287 42.7772ZM52.7306 51.8441C51.9592 50.8288 51.8896 49.7756 52.0072 49.0905C52.1249 48.4054 52.542 47.435 53.6089 46.7348L60.7418 57.6032C63.1587 56.017 64.4298 53.5611 64.8197 51.2905C65.2096 49.0199 64.8305 46.2812 63.0821 43.9799L52.7306 51.8441ZM53.6089 46.7348C54.6241 46.0685 55.5188 46.1011 55.9933 46.193C56.4577 46.283 57.633 46.6653 58.4261 48.0777L47.0906 54.4423C48.6737 57.2617 51.3825 58.5414 53.5204 58.9557C55.6684 59.3719 58.3765 59.1555 60.7418 57.6032L53.6089 46.7348ZM52.9434 44.7626C47.4406 44.6059 42.145 47.7596 39.6641 52.6772L51.2706 58.5328C51.4797 58.1184 52.1061 57.7441 52.5733 57.7574L52.9434 44.7626ZM39.6649 52.6755C37.1829 57.5916 37.7892 63.7256 41.1858 68.0608L51.4189 60.0432C51.1315 59.6763 51.0598 58.9504 51.2698 58.5345L39.6649 52.6755ZM41.1858 68.0608C44.5809 72.3941 50.3887 74.4532 55.7571 73.2213L52.8495 60.5507C52.3959 60.6548 51.7078 60.4119 51.4189 60.0432L41.1858 68.0608ZM47.8344 66.2509C47.7241 67.3753 47.6119 68.4257 47.4966 69.5059C47.3819 70.5797 47.2641 71.6833 47.1475 72.8709L60.0852 74.1411C60.1956 73.0167 60.3078 71.9663 60.4231 70.8861C60.5378 69.8123 60.6556 68.7087 60.7722 67.5211L47.8344 66.2509ZM48.5539 77.5829C52.1931 82.1019 57.8121 85.5806 64.1239 86.0798L65.1488 73.1202C62.9126 72.9434 60.4176 71.5881 58.6788 69.429L48.5539 77.5829ZM64.1268 86.08C70.7573 86.6014 75.9171 83.7756 79.9239 80.1494L71.2008 70.5106C68.8496 72.6384 67.0614 73.2706 65.1459 73.12L64.1268 86.08ZM72.8753 53.676C72.8753 49.5151 69.5022 46.142 65.3413 46.142V59.142C62.3225 59.142 59.8753 56.6948 59.8753 53.676H72.8753ZM65.3413 46.142C61.1806 46.142 57.8073 49.5151 57.8073 53.676H70.8073C70.8073 56.6949 68.3601 59.142 65.3413 59.142V46.142ZM57.8073 53.676C57.8073 57.8369 61.1806 61.21 65.3413 61.21V48.21C68.3601 48.21 70.8073 50.6571 70.8073 53.676H57.8073ZM65.3413 61.21C69.5022 61.21 72.8753 57.8368 72.8753 53.676H59.8753C59.8753 50.6571 62.3225 48.21 65.3413 48.21V61.21ZM87.5463 50.701C87.5463 46.5403 84.1734 43.167 80.0123 43.167V56.167C76.9933 56.167 74.5463 53.7197 74.5463 50.701H87.5463ZM80.0123 43.167C75.8512 43.167 72.4783 46.5404 72.4783 50.701H85.4783C85.4783 53.7196 83.0314 56.167 80.0123 56.167V43.167ZM72.4783 50.701C72.4783 54.8619 75.8515 58.235 80.0123 58.235V45.235C83.0312 45.235 85.4783 47.6822 85.4783 50.701H72.4783ZM80.0237 58.235C84.1652 58.2277 87.5463 54.8723 87.5463 50.701H74.5463C74.5463 47.6717 77.0014 45.2403 80.001 45.235L80.0237 58.235ZM63.2366 57.0903C63.0625 60.0499 64.5432 62.9111 67.0788 64.4726L73.8959 53.4034C75.4474 54.3589 76.3202 56.0501 76.2141 57.8537L63.2366 57.0903ZM67.0707 64.4676C69.6044 66.0331 72.8283 66.0732 75.3966 64.5865L68.884 53.3355C70.4504 52.4288 72.3543 52.4509 73.904 53.4084L67.0707 64.4676ZM75.4015 64.5837C77.9646 63.0971 79.5326 60.2867 79.4402 57.314L66.4465 57.718C66.3901 55.9032 67.3161 54.2449 68.8792 53.3383L75.4015 64.5837ZM73.0322 51.0166L69.8142 50.9726L69.6365 63.9714L72.8545 64.0154L73.0322 51.0166ZM68.441 49.4938C68.0853 50.6836 67.1851 51.5633 65.9859 51.8911L62.5588 39.3509C59.4276 40.2066 56.9154 42.6604 55.9857 45.7702L68.441 49.4938ZM65.9919 51.8894C64.7914 52.2188 63.5683 51.9188 62.6574 51.0772L71.4793 41.5288C69.0964 39.3272 65.6853 38.4932 62.5527 39.3526L65.9919 51.8894ZM77.801 49.8807C78.6524 49.5966 79.5002 49.3136 80.3475 49.0319L76.2452 36.6961C75.3904 36.9804 74.5363 37.2654 73.6857 37.5493L77.801 49.8807ZM67.5509 54.2937C67.913 54.9652 68.2752 55.6365 68.6368 56.3069C68.9987 56.9775 69.36 57.6472 69.7209 58.3167L81.1638 52.1473C80.8017 51.4758 80.4395 50.8045 80.0779 50.1341C79.716 49.4635 79.3547 48.7938 78.9938 48.1243L67.5509 54.2937ZM75.005 48.7467C74.7134 48.7664 74.3436 48.7901 73.959 48.8149C73.5811 48.8391 73.1884 48.8644 72.872 48.8857L73.7467 61.8563C74.0382 61.8366 74.4081 61.8128 74.7927 61.7881C75.1706 61.7638 75.5632 61.7386 75.8797 61.7173L75.005 48.7467ZM47.6793 63.1492C48.5324 63.2428 49.3853 63.3362 50.2372 63.4294C51.0893 63.5227 51.9404 63.6158 52.7913 63.7092L54.2094 50.7868C53.3563 50.6932 52.5034 50.5998 51.6515 50.5066C50.7994 50.4133 49.9483 50.3202 49.0974 50.2268L47.6793 63.1492ZM73.4748 64.1528C70.6339 65.385 67.2068 65.379 64.3711 64.137L59.1556 76.0449C65.3019 78.737 72.4928 78.7489 78.6479 76.0792L73.4748 64.1528ZM54.7221 73.521C55.1679 73.478 55.6195 73.4344 56.0735 73.3896L54.7972 60.4524C54.3592 60.4956 53.9208 60.538 53.4746 60.581L54.7221 73.521ZM168.237 112.626C166.39 111.115 164.065 110.308 161.807 110.239C159.539 110.171 156.497 110.866 154.298 113.477L164.243 121.851C163.179 123.113 161.88 123.248 161.413 123.234C160.956 123.22 160.489 123.083 160.005 122.688L168.237 112.626ZM165.423 115.567C164.056 111.557 160.305 110.202 157.933 110.089L157.318 123.075C156.621 123.042 155.891 122.841 155.195 122.409C154.482 121.967 153.583 121.125 153.118 119.761L165.423 115.567ZM157.933 110.089C155.587 109.978 153.677 110.835 153.016 111.124L158.211 123.04C158.455 122.934 158.457 122.945 158.354 122.973C158.232 123.008 157.857 123.1 157.318 123.075L157.933 110.089ZM153.019 111.122C149.642 112.592 146.671 114.782 144.417 116.5L152.299 126.838C154.534 125.134 156.411 123.824 158.207 123.042L153.019 111.122ZM144.418 116.5C142.24 118.16 139.966 119.778 137.589 121.469C135.243 123.139 132.793 124.881 130.416 126.693L138.298 137.031C140.476 135.371 142.749 133.753 145.126 132.062C147.472 130.393 149.922 128.65 152.299 126.838L144.418 116.5ZM134.891 125.384C134.535 125.355 134.16 125.279 133.299 125.084C132.546 124.913 131.306 124.623 129.901 124.507L128.834 137.463C129.189 137.492 129.565 137.568 130.425 137.763C131.179 137.934 132.418 138.224 133.824 138.34L134.891 125.384ZM134.96 134.297C136.126 132.327 137.318 129.918 138.242 128.171C139.277 126.215 140.167 124.702 141.066 123.574L130.901 115.47C129.2 117.603 127.844 120.027 126.752 122.09C125.55 124.362 124.733 126.054 123.774 127.673L134.96 134.297ZM141.066 123.574C142.617 121.629 143.267 119.294 143.343 117.252C143.418 115.225 142.95 112.64 141.203 110.448L131.038 118.552C130.351 117.691 130.345 116.952 130.352 116.77C130.359 116.573 130.411 116.084 130.901 115.47L141.066 123.574ZM133.132 108.727C127.127 111.836 120.276 115.253 114.124 118.815L120.637 130.065C126.439 126.707 132.845 123.514 139.108 120.273L133.132 108.727ZM114.124 118.814C109.042 121.756 105.346 126.855 104.131 132.6L116.85 135.29C117.303 133.149 118.743 131.162 120.637 130.066L114.124 118.814ZM108.994 127.62C106.915 128.112 104.692 128.646 102.482 129.176C100.268 129.708 98.0668 130.237 96.0132 130.723L99.0075 143.373C101.086 142.881 103.308 142.347 105.518 141.817C107.732 141.285 109.933 140.756 111.987 140.27L108.994 127.62ZM91.5342 139.604L104.707 170.399L116.66 165.287L103.487 134.492L91.5342 139.604ZM112.345 174.127C127.746 170.055 142.89 164.129 156.867 156.265L150.492 144.935C137.567 152.207 123.463 157.741 109.022 161.559L112.345 174.127ZM159.79 152.815C161.393 148.394 163.011 143.933 164.629 139.471C166.247 135.01 167.865 130.548 169.468 126.125L157.246 121.695C155.644 126.116 154.026 130.577 152.408 135.039C150.79 139.5 149.172 143.962 147.568 148.385L159.79 152.815ZM163.559 117.413C163.02 117.396 162.559 117.433 162.24 117.467C161.934 117.5 161.65 117.545 161.531 117.563C161.362 117.588 161.358 117.588 161.38 117.586C161.413 117.582 161.593 117.563 161.858 117.571L161.455 130.565C161.994 130.582 162.455 130.545 162.773 130.511C163.08 130.478 163.364 130.433 163.483 130.415C163.652 130.39 163.656 130.39 163.634 130.392C163.6 130.396 163.421 130.415 163.156 130.407L163.559 117.413ZM167.693 126.478C168.13 125.383 168.564 124.234 168.97 123.158C169.385 122.057 169.774 121.028 170.157 120.069L158.085 115.245C157.648 116.341 157.214 117.49 156.808 118.567C156.392 119.668 156.003 120.697 155.62 121.657L167.693 126.478ZM155.663 121.485C152.541 128.272 149.42 135.06 146.298 141.847L158.109 147.279C161.231 140.49 164.352 133.704 167.474 126.917L155.663 121.485ZM153.817 113.278C148.593 120.092 143.371 126.905 138.147 133.718L148.464 141.628C153.688 134.815 158.911 128 164.134 121.188L153.817 113.278ZM157.939 115.225C152.781 123.08 147.623 130.937 142.465 138.794L153.332 145.928C158.49 138.071 163.648 130.215 168.806 122.359L157.939 115.225ZM129.785 124.192C129.015 124.229 128.246 124.266 127.475 124.303L128.098 137.289C128.869 137.252 129.64 137.214 130.409 137.177L129.785 124.192ZM105.619 123.789C97.423 124.559 89.2095 125.379 81.0185 126.197C72.821 127.015 64.646 127.832 56.4951 128.596L57.7096 141.54C65.9057 140.77 74.1192 139.95 82.3102 139.132C90.5077 138.314 98.6827 137.497 106.834 136.733L105.619 123.789ZM63.5285 134.091C61.6042 121.435 58.076 109.027 53.0568 97.2513L41.0979 102.349C45.6887 113.119 48.9165 124.471 50.6762 136.045L63.5285 134.091ZM53.0566 97.2508C51.4283 93.4316 49.1767 88.5392 45.2032 84.6896L36.1575 94.0263C38.088 95.8967 39.5024 98.6064 41.0981 102.349L53.0566 97.2508ZM45.2037 84.6901C37.4297 77.1568 25.1921 76.0367 16.0315 80.7421L21.9712 92.3059C26.6525 89.9013 32.757 90.7312 36.157 94.0259L45.2037 84.6901ZM16.0321 80.7418C6.84556 85.4592 1.23969 95.2393 0.666421 105.047L13.6443 105.805C13.979 100.079 17.3151 94.6968 21.9706 92.3062L16.0321 80.7418ZM0.666406 105.047C-0.517816 125.321 0.669698 145.558 5.9068 165.535L18.4819 162.239C13.673 143.894 12.5185 125.079 13.6443 105.805L0.666406 105.047ZM5.90682 165.535C8.61289 175.858 16.2549 183.94 24.3511 189.073L31.3116 178.093C25.0058 174.096 20.0998 168.41 18.4819 162.239L5.90682 165.535ZM24.3511 189.073C32.8449 194.457 43.2166 196.727 53.183 195.379L51.4417 182.497C44.5101 183.433 37.2198 181.839 31.3116 178.093L24.3511 189.073ZM53.1826 195.379C76.2239 192.267 98.714 185.907 120.083 176.972L115.068 164.978C94.6628 173.511 73.2708 179.547 51.4421 182.497L53.1826 195.379ZM123.837 169.23L112.488 128.516L99.9651 132.006L111.314 172.72L123.837 169.23ZM25.5981 90.9776C28.4506 90.4576 31.5268 90.9854 34.0427 92.4258L40.502 81.1441C35.3259 78.1806 29.1361 77.1184 23.2666 78.1884L25.5981 90.9776ZM34.0433 92.4262C36.5597 93.8666 38.5725 96.2524 39.569 98.9762L51.7777 94.5098C49.7282 88.9076 45.6789 84.1074 40.5014 81.1437L34.0433 92.4262ZM39.569 98.9761C44.1745 111.565 48.3687 123.805 50.9846 136.475L63.7161 133.847C60.894 120.177 56.4122 107.179 51.7777 94.5099L39.569 98.9761ZM57.9267 141.635C66.2647 140.893 74.5423 140.139 82.812 139.385C91.0838 138.631 99.3477 137.877 107.67 137.136L106.517 124.188C98.179 124.93 89.9014 125.684 81.6317 126.438C73.3599 127.192 65.096 127.946 56.774 128.687L57.9267 141.635ZM83.1331 134.512C84.6641 141.97 86.1948 149.428 87.7256 156.886C89.2563 164.344 90.7871 171.802 92.3181 179.26L105.053 176.646C103.522 169.188 101.991 161.73 100.46 154.272C98.9294 146.814 97.3986 139.356 95.8676 131.898L83.1331 134.512ZM92.343 143.305C94.5311 143.083 96.7189 142.862 98.9066 142.64C101.094 142.419 103.282 142.197 105.47 141.976L104.161 129.042C101.973 129.264 99.7848 129.485 97.5971 129.707C95.4093 129.928 93.2216 130.15 91.0337 130.371L92.343 143.305ZM92.9664 147.153C97.6474 146.48 102.328 145.807 107.007 145.135L105.159 132.267C100.479 132.939 95.7973 133.612 91.1163 134.285L92.9664 147.153ZM96.304 157.887C100.981 157.305 105.659 156.723 110.336 156.14L108.728 143.24C104.052 143.823 99.3758 144.405 94.6987 144.987L96.304 157.887ZM98.1529 165.272C102.829 164.394 107.505 163.516 112.181 162.64L109.784 149.862C105.107 150.74 100.43 151.618 95.7538 152.496L98.1529 165.272ZM99.1409 169.582C101.48 169.057 103.819 168.532 106.158 168.007C108.496 167.482 110.835 166.957 113.174 166.432L110.327 153.748C107.988 154.273 105.649 154.798 103.31 155.323C100.971 155.848 98.6327 156.373 96.2938 156.898L99.1409 169.582ZM102.7 180.135C105.067 179.275 107.435 178.414 109.803 177.554C112.17 176.693 114.538 175.833 116.906 174.972L112.465 162.754C110.098 163.614 107.73 164.475 105.362 165.335C102.994 166.196 100.627 167.056 98.2589 167.917L102.7 180.135Z" fill="white"/>
<path d="M87.617 37.5457C88.812 36.9817 89.603 35.6557 89.532 34.3367C89.46 33.0167 88.434 31.8767 87.185 31.4467C88.751 29.9177 89.105 27.2957 88.002 25.4057C86.898 23.5157 84.29 23.0677 82.103 23.1547C75.842 23.4037 69.547 24.3927 63.766 26.8087C57.984 29.2247 52.725 33.1447 49.365 38.4347C46.005 43.7237 44.701 50.4397 46.53 56.4337L78.653 54.9867C81.18 54.8417 83.626 53.5997 85.233 51.6447C86.841 49.6897 87.362 47.0067 87.016 44.4987C88.244 43.8607 89.096 42.5507 89.181 41.1697C89.266 39.7867 88.757 38.3307 87.617 37.5457Z" fill="#36241A"/>
<path d="M83.9353 21.0703C76.9483 21.3103 69.8563 22.2253 63.5063 25.1493C57.1563 28.0733 51.5853 33.2373 49.4333 39.8883C48.5013 39.5633 47.5023 39.0273 46.5693 38.7023" stroke="#36241A" stroke-miterlimit="10" stroke-linecap="round" stroke-linejoin="round"/>
<path d="M19.001 86.5239C30.388 81.5909 53.615 73.5049 53.615 73.5049L75.562 75.3299C75.562 75.3299 94.043 79.3999 102.98 81.4989C111.917 83.5979 123.095 93.8309 142.129 133.309L64.308 159.837L19.001 86.5239Z" fill="#88BAFF"/>
<path d="M77.6756 130.763C44.0046 123.314 65.5556 92.7991 75.3966 109.849C82.0996 90.1471 107.691 115.041 77.6756 130.763Z" fill="#FA6C3A"/>
<path d="M105.419 82.7188C108.642 97.6388 111.866 112.559 115.09 127.478" stroke="#36241A" stroke-miterlimit="10" stroke-linecap="round" stroke-linejoin="round"/>
<path d="M73.5538 72.2442C71.1088 74.4112 67.7668 75.5332 64.5089 75.2802C61.2519 75.0272 57.6758 73.6342 55.5948 71.1152C52.5008 72.2262 49.5179 74.1052 46.4229 75.2172C50.4379 81.9282 54.4529 88.6392 58.4678 95.3492C61.4219 90.5072 64.4188 86.3372 67.3728 81.4952C72.0018 85.2542 76.5518 89.2152 81.1808 92.9742L84.0779 75.8972C80.4669 74.8202 77.1638 73.3202 73.5538 72.2442Z" fill="white"/>
<path d="M136.543 109.245C136.573 97.7572 141.082 86.2003 149.384 78.2603C152.53 75.2513 156.223 72.8072 160.21 71.0472C168.544 67.3702 176.094 77.6862 170.178 84.6122C161.108 95.2322 149.538 103.627 136.543 109.245Z" fill="#419D4A"/>
<path d="M135.209 120.441C135.432 105.441 143.705 90.7972 156.439 82.8652" stroke="#36241A" stroke-miterlimit="10" stroke-linecap="round" stroke-linejoin="round"/>
<path d="M135.77 110.768C129.308 100.655 122.845 90.543 116.383 80.43C111.493 72.777 106.583 65.086 102.949 56.763C101.933 54.436 101.018 52.0511 100.24 49.6261C97.4165 40.8291 107.726 33.861 114.813 39.789C119.629 43.817 123.739 48.72 126.925 54.203C131.832 62.644 134.288 72.3281 135.326 82.0361C136.362 91.7431 136.097 101.01 135.77 110.768Z" fill="#419D4A"/>
<path d="M120.626 62.4385C128.28 78.0215 133.405 94.8425 135.742 112.045" stroke="#36241A" stroke-miterlimit="10" stroke-linecap="round" stroke-linejoin="round"/>
<path d="M137.753 92.7242C139.11 78.2832 140.65 63.6312 146.055 50.1712C149.385 41.8792 154.403 34.0142 160.938 28.0002C165.7 23.6182 173.176 28.2292 171.35 34.4372C164.985 56.0792 153.201 76.8372 137.753 92.7242Z" fill="#74CF80"/>
<path d="M135.77 111.802C134.687 100.31 138.665 88.9844 143.058 78.3104C147.604 67.2654 152.663 56.4324 158.215 45.8574" stroke="#36241A" stroke-miterlimit="10" stroke-linecap="round" stroke-linejoin="round"/>
<path d="M136.887 85.846C134.117 76.98 131.348 68.114 128.578 59.247C125.403 49.082 122.218 38.877 120.477 28.371C119.897 24.87 119.481 21.326 119.283 17.775C118.724 7.75899 131.886 3.43598 137.207 11.94C138.991 14.791 140.453 17.856 141.544 21.091C145.055 31.49 145.441 42.741 144.187 53.644C142.932 64.549 139.722 75.242 136.887 85.846Z" fill="#74CF80"/>
<path d="M132.22 29.0303C135.515 50.7393 137.113 72.7053 136.996 94.6633" stroke="#36241A" stroke-miterlimit="10" stroke-linecap="round" stroke-linejoin="round"/>
<path d="M149.517 134.65C144.408 129.299 139.23 124.098 134.121 118.747C129.202 123.85 124.581 129.24 120.288 134.88C124.645 137.975 129.797 139.847 135.138 139.677C140.481 139.506 145.366 138.016 149.517 134.65Z" fill="#85412E"/>
<path d="M75.5628 75.3298C75.5898 73.5058 75.8658 71.8758 75.8928 70.0508C78.7958 68.9328 81.2688 66.7378 82.7228 63.9878C84.1768 61.2378 84.6288 57.9718 84.0948 54.9078C83.4308 51.0978 82.7168 47.3928 80.4038 44.2918C77.2768 40.0988 71.7078 37.9378 66.5208 38.6118C65.9488 41.1338 63.2238 43.0878 60.6478 42.8688C60.9488 43.8558 60.8378 44.9618 60.3468 45.8688C59.8558 46.7768 58.8968 47.6238 57.9068 47.9118C58.8838 49.1978 58.5258 51.2828 57.1758 52.1688C55.8258 53.0548 53.5488 52.6668 52.7588 51.2598C49.7738 51.1748 46.8128 52.9388 45.4678 55.6048C44.1218 58.2708 44.4608 61.7008 46.3028 64.0518C48.1448 66.4028 51.3928 67.5538 54.3038 66.8858C54.0768 69.1978 53.8438 71.1938 53.6168 73.5058C56.3058 76.8448 60.3628 79.2618 64.6368 79.5998C68.9098 79.9358 72.3838 78.2068 75.5628 75.3298Z" fill="#FBA778"/>
<path d="M66.3756 53.6766C66.3756 53.1056 65.9126 52.6426 65.3416 52.6426C64.7706 52.6426 64.3076 53.1056 64.3076 53.6766C64.3076 54.2476 64.7706 54.7106 65.3416 54.7106C65.9126 54.7106 66.3756 54.2476 66.3756 53.6766Z" fill="#36241A"/>
<path d="M81.0465 50.701C81.0465 50.13 80.5835 49.667 80.0125 49.667C79.4415 49.667 78.9785 50.13 78.9785 50.701C78.9785 51.272 79.4415 51.735 80.0125 51.735C80.5835 51.734 81.0465 51.272 81.0465 50.701Z" fill="#36241A"/>
<path d="M69.7262 57.4727C69.6922 58.0507 69.9962 58.6357 70.4882 58.9387C70.9802 59.2427 71.6402 59.2516 72.1412 58.9616C72.6412 58.6716 72.9622 58.0956 72.9442 57.5166L69.7262 57.4727Z" fill="white"/>
<path d="M62.2139 47.6324C62.5009 46.6724 63.3069 45.8854 64.2729 45.6214C65.2389 45.3564 66.3329 45.6234 67.0689 46.3034" stroke="#36241A" stroke-miterlimit="10" stroke-linecap="round" stroke-linejoin="round"/>
<path d="M75.7441 43.7152C76.5951 43.4312 77.4461 43.1473 78.2971 42.8643" stroke="#36241A" stroke-miterlimit="10" stroke-linecap="round" stroke-linejoin="round"/>
<path d="M73.2725 51.209C73.9955 52.55 74.7195 53.891 75.4425 55.232C74.8345 55.273 73.9175 55.33 73.3095 55.371" stroke="#36241A" stroke-miterlimit="10" stroke-linecap="round" stroke-linejoin="round"/>
<path d="M48.3887 56.6875C50.0927 56.8745 51.7967 57.0605 53.5007 57.2475" stroke="#36241A" stroke-miterlimit="10" stroke-linecap="round" stroke-linejoin="round"/>
<path d="M76.0617 70.1158C71.5637 72.0668 66.2547 72.0578 61.7637 70.0908" stroke="#36241A" stroke-miterlimit="10" stroke-linecap="round" stroke-linejoin="round"/>
<path d="M54.0986 67.0509C54.5446 67.0079 54.9896 66.9649 55.4356 66.9209" stroke="#36241A" stroke-miterlimit="10" stroke-linecap="round" stroke-linejoin="round"/>
<path d="M164.122 117.657C162.758 116.541 160.406 116.316 159.271 117.664C159.046 117.004 158.323 116.615 157.626 116.582C156.93 116.549 156.254 116.803 155.614 117.082C153.027 118.208 150.603 119.958 148.359 121.669C143.804 125.141 138.912 128.39 134.358 131.862C132.597 131.717 131.129 131.13 129.368 130.985C131.493 127.396 133.384 122.783 135.984 119.522C137.045 118.191 137.182 115.831 136.121 114.5C129.987 117.675 123.358 120.98 117.381 124.44C113.893 126.459 111.325 130.002 110.491 133.945C106.358 134.923 101.643 136.07 97.5107 137.048L110.684 167.843C125.605 163.898 140.229 158.168 153.68 150.6C156.886 141.756 160.152 132.754 163.358 123.91C162.809 123.893 162.206 124.085 161.657 124.068C162.478 122.012 163.301 119.712 164.122 117.657Z" fill="#FBA778"/>
<path d="M161.569 124.201C158.447 130.988 155.326 137.775 152.204 144.563" stroke="#36241A" stroke-miterlimit="10" stroke-linecap="round" stroke-linejoin="round"/>
<path d="M158.976 117.233C153.753 124.046 148.53 130.86 143.306 137.673" stroke="#36241A" stroke-miterlimit="10" stroke-linecap="round" stroke-linejoin="round"/>
<path d="M163.372 118.792C158.214 126.648 153.056 134.504 147.898 142.361" stroke="#36241A" stroke-miterlimit="10" stroke-linecap="round" stroke-linejoin="round"/>
<path d="M130.098 130.685C129.328 130.722 128.558 130.759 127.787 130.796" stroke="#36241A" stroke-miterlimit="10" stroke-linecap="round" stroke-linejoin="round"/>
<path d="M106.226 130.261C89.8793 131.795 73.4493 133.534 57.1023 135.068C55.2603 122.953 51.8823 111.073 47.0773 99.8C45.4653 96.019 43.6323 92.218 40.6803 89.358C35.0933 83.944 25.9223 82.97 19.0013 86.525C12.0803 90.079 7.60935 97.659 7.15535 105.426C6.00035 125.2 7.17135 144.726 12.1943 163.887C14.3563 172.134 20.6303 179.018 27.8313 183.583C35.0323 188.148 43.8633 190.08 52.3123 188.938C74.7473 185.907 96.6883 179.709 117.575 170.975L106.226 130.261Z" fill="#88BAFF"/>
<path d="M24.4326 84.5833C28.7936 83.7883 33.4266 84.5833 37.2726 86.7853C41.1196 88.9873 44.1506 92.5803 45.6736 96.7433C50.2936 109.372 54.6316 121.991 57.3506 135.161C74.0106 133.678 90.4336 132.145 107.094 130.662" stroke="#36241A" stroke-miterlimit="10" stroke-linecap="round" stroke-linejoin="round"/>
<path d="M89.5 133.205C92.562 148.121 95.623 163.037 98.685 177.953" stroke="#36241A" stroke-miterlimit="10" stroke-linecap="round" stroke-linejoin="round"/>
<path d="M91.6885 136.839C96.0645 136.396 100.439 135.953 104.815 135.51" stroke="#36241A" stroke-miterlimit="10" stroke-linecap="round" stroke-linejoin="round"/>
<path d="M92.041 140.719C96.722 140.046 101.403 139.373 106.083 138.701" stroke="#36241A" stroke-miterlimit="10" stroke-linecap="round" stroke-linejoin="round"/>
<path d="M95.501 151.437C100.178 150.855 104.855 150.273 109.532 149.69" stroke="#36241A" stroke-miterlimit="10" stroke-linecap="round" stroke-linejoin="round"/>
<path d="M96.9531 158.884C101.629 158.006 106.306 157.128 110.982 156.251" stroke="#36241A" stroke-miterlimit="10" stroke-linecap="round" stroke-linejoin="round"/>
<path d="M97.7178 163.24C102.396 162.19 107.073 161.14 111.751 160.09" stroke="#36241A" stroke-miterlimit="10" stroke-linecap="round" stroke-linejoin="round"/>
<path d="M100.479 174.026C105.214 172.305 109.951 170.584 114.686 168.863" stroke="#36241A" stroke-miterlimit="10" stroke-linecap="round" stroke-linejoin="round"/>
</svg>
