<svg width="20" height="20" viewBox="0 0 20 20" fill="none" xmlns="http://www.w3.org/2000/svg">
<path d="M13.8095 8.88802C14.7965 9.01257 15.7662 9.3687 16.6421 9.99533C19.1847 11.8149 20 14.8663 20 18.9024V19.7159C20 19.8716 19.9062 20 19.7893 20H15.4444C15.329 20 15.2338 19.8735 15.2338 19.7159V16.898C15.2338 16.7092 15.1342 16.5477 14.9957 16.5127L10.2222 15.3295C9.86724 15.2419 9.52381 15.0843 9.20346 14.8644L0 8.47351C0 7.45378 0.718615 6.71428 1.44733 6.98478L9.16306 10.3495C9.16306 10.9431 9.44156 11.4724 9.85714 11.667L13.2857 12.9611C13.3579 12.9884 13.43 12.9144 13.43 12.8132V12.605C13.43 12.3462 13.3001 12.1204 13.1154 12.0562L10.557 11.163C10.14 10.9684 9.86003 10.439 9.86003 9.84354C9.86003 9.04176 10.3824 8.42291 10.9726 8.528L13.8095 8.88802Z" fill="#64748B"/>
<path d="M15.6973 0.624684C14.0884 0.208228 11.9484 0 9.70452 0C7.46066 0 5.31925 0.208228 3.71174 0.624684C1.76658 1.14623 0.906549 1.66777 0.869031 2.60577C0.869031 3.59631 1.72906 4.221 3.71174 4.69C5.31925 5.05391 7.46066 5.26408 9.70452 5.26408C11.9484 5.26408 14.0898 5.05585 15.6973 4.69C17.68 4.221 18.54 3.59631 18.54 2.60577C18.5025 1.66777 17.641 1.14623 15.6973 0.624684ZM17.312 2.61161C17.1057 2.814 16.3712 3.05142 15.2096 3.32776C13.7132 3.64107 11.7218 3.8493 9.70308 3.8493C7.68432 3.8493 5.68721 3.68388 4.19659 3.32776C3.03065 3.04947 2.31347 2.82762 2.09414 2.61161C2.02055 2.5396 2.00612 2.40727 2.08981 2.35667C2.78678 1.94022 5.18793 1.0606 9.70308 1.0606C14.2182 1.0606 16.9758 2.0706 17.3164 2.35667C17.3943 2.42089 17.3871 2.53766 17.312 2.61161Z" fill="#64748B"/>
</svg>
