<svg width="610" height="152" viewBox="0 0 610 152" fill="none" xmlns="http://www.w3.org/2000/svg">
<path d="M14.2781 21.0639C8.99389 49.4123 -25.0712 162.551 45.0158 149.384C59.6036 146.643 77.4142 135.403 90.4706 123.765M90.4706 123.765C94.6998 119.995 98.4302 116.184 101.391 112.606C117.774 92.806 126.337 65.3705 120.988 40.0569C119.813 34.4992 116.154 18.304 105.149 20.5941C91.2581 23.4847 82.8676 44.7048 79.7132 54.2848C73.3215 73.6968 70.337 92.4729 80.5186 111.398C83.1492 116.288 86.5394 120.36 90.4706 123.765ZM90.4706 123.765C105.172 136.498 127.438 139.89 145.819 141.733C171.71 144.33 207.41 143.559 230.38 129.214M230.38 129.214C244.57 120.353 253.902 106.313 253.066 84.687C252.309 65.1137 241.476 43.5611 225.415 31.9362C203.036 15.7376 181.639 31.9611 177.363 56.2311C171.695 88.3982 198.518 123.152 230.38 129.214ZM230.38 129.214C234.521 130.002 238.748 130.305 242.999 130.055C295.689 126.956 320.546 68.02 372.661 61.3988C389.991 59.197 402.76 65.9789 413.466 78.8481C426.769 94.8382 438.771 107.897 460.177 112.472C484.054 117.575 504.413 110.32 522.055 94.217C553.033 65.9412 580.208 32.4628 608.63 1.73535" stroke="white" stroke-width="2" stroke-linecap="round" stroke-linejoin="round" stroke-dasharray="18 18"/>
</svg>
