<svg width="819" height="70" viewBox="0 0 819 70" fill="none" xmlns="http://www.w3.org/2000/svg">
<path d="M1.45215 32.2121C39.4137 20.388 70.9521 18.1498 106.784 40.0354C109.402 41.6342 138.724 67.1273 146.949 68.6671C166.433 72.3142 183.364 45.569 200.18 39.7934C215.195 34.6364 215.556 39.9395 226.957 46.2456C245.109 56.286 253.749 43.6201 269.945 34.793L270.359 34.5673C286.326 25.8633 286.945 25.5261 304.303 27.7762C310.472 28.576 316.429 30.7039 322.611 31.4056C335.439 32.8616 357.264 31.9363 369.873 33.9864C384.023 36.2871 397.016 44.6212 411.329 45.4391C434.861 46.7838 447.415 28.5542 467.866 22.2112C481.4 18.0136 482.047 24.1162 493.513 28.9053C516.217 38.3873 529.769 26.874 550.535 18.0172C568.841 10.2096 574.028 7.29122 593.442 11.4037C600.887 12.9808 607.607 17.0851 614.976 18.9851C637.875 24.8894 644.056 24.7746 667.723 18.8238C693.502 12.3417 695.9 6.21569 721.922 2.53194C753.606 -1.95344 786.098 6.88643 817.334 10.4359" stroke="white" stroke-width="2" stroke-linecap="round" stroke-linejoin="round" stroke-dasharray="18 18"/>
</svg>
