<svg width="754" height="92" viewBox="0 0 754 92" fill="none" xmlns="http://www.w3.org/2000/svg">
<path d="M1 59.4809L1.11705 59.5484C38.0818 80.8907 66.7795 97.4599 111.01 87.3867C150.195 78.4626 183.437 54.2752 217.794 34.9625C228.824 28.7622 254.35 8.85001 266.347 25.7681C281.977 47.8098 278.229 77.3492 313.609 80.7731C327.623 82.1293 341.542 77.2004 355.549 75.7727C416.271 69.5831 395.289 69.3906 456.364 78.7568C473.057 81.3167 489.484 87.2105 506.369 86.9027C548.978 86.1262 573.932 70.304 610.733 50.9317C657.806 26.1526 698.458 -1.24978 753.005 1.41101" stroke="white" stroke-width="2" stroke-linecap="round" stroke-linejoin="round" stroke-dasharray="18 18"/>
</svg>
