<svg width="70" height="70" viewBox="0 0 70 70" fill="none" xmlns="http://www.w3.org/2000/svg">
<path d="M0 13.5484C0 6.06582 5.96954 0 13.3333 0H56.6667C64.0305 0 70 6.06582 70 13.5484V56.4516C70 63.9342 64.0305 70 56.6667 70H13.3333C5.96954 70 0 63.9342 0 56.4516V13.5484Z" fill="#34D39E"/>
<path d="M43.5294 33.1893C45.64 33.3882 47.7135 33.9567 49.5865 34.9571C55.0233 37.862 56.7667 42.7334 56.7667 49.1769V50.4756C56.7667 50.7241 56.5662 50.9292 56.3162 50.9292H47.0254C46.7786 50.9292 46.5749 50.7272 46.5749 50.4756V45.9769C46.5749 45.6756 46.362 45.4177 46.0658 45.3618L35.8585 43.4728C35.0995 43.333 34.3651 43.0814 33.6801 42.7303L14 32.5276C14 30.8996 15.5366 29.7191 17.0949 30.1509L33.5937 35.5226C33.5937 36.4701 34.1892 37.3152 35.0779 37.6259L42.4093 39.6919C42.5636 39.7354 42.7179 39.6173 42.7179 39.4558V39.1233C42.7179 38.7101 42.4402 38.3497 42.0452 38.2472L36.5744 36.8212C35.6827 36.5105 35.0841 35.6655 35.0841 34.7148C35.0841 33.4348 36.2011 32.4468 37.4631 32.6146L43.5294 33.1893Z" fill="white"/>
<path d="M47.5661 19.9973C44.1257 19.3324 39.5497 19 34.7515 19C29.9534 19 25.3743 19.3324 21.937 19.9973C17.7775 20.8299 15.9385 21.6625 15.8583 23.16C15.8583 24.7414 17.6973 25.7386 21.937 26.4874C25.3743 27.0683 29.9534 27.4039 34.7515 27.4039C39.5497 27.4039 44.1287 27.0715 47.5661 26.4874C51.8058 25.7386 53.6448 24.7414 53.6448 23.16C53.5646 21.6625 51.7225 20.8299 47.5661 19.9973ZM51.0189 23.1693C50.5777 23.4924 49.0071 23.8715 46.5232 24.3126C43.3234 24.8128 39.0652 25.1452 34.7485 25.1452C30.4317 25.1452 26.1612 24.8812 22.9737 24.3126C20.4805 23.8683 18.947 23.5142 18.478 23.1693C18.3206 23.0544 18.2897 22.8431 18.4687 22.7623C19.9591 22.0975 25.0935 20.6932 34.7485 20.6932C44.4034 20.6932 50.3 22.3056 51.0282 22.7623C51.1948 22.8649 51.1794 23.0513 51.0189 23.1693Z" fill="white"/>
</svg>
